G75*
%MOIN*%
%OFA0B0*%
%FSLAX25Y25*%
%IPPOS*%
%LPD*%
%AMOC8*
5,1,8,0,0,1.08239X$1,22.5*
%
%ADD10C,0.09370*%
%ADD11C,0.05543*%
%ADD12C,0.05937*%
%ADD13R,0.06000X0.06000*%
%ADD14C,0.07400*%
%ADD15C,0.06000*%
%ADD16C,0.00600*%
%ADD17C,0.04000*%
%ADD18C,0.01200*%
%ADD19C,0.03600*%
D10*
X0068387Y0086457D02*
X0077757Y0086457D01*
X0077757Y0106143D02*
X0068387Y0106143D01*
X0068387Y0126457D02*
X0077757Y0126457D01*
X0077757Y0146143D02*
X0068387Y0146143D01*
X0176457Y0069213D02*
X0176457Y0059843D01*
X0196143Y0059843D02*
X0196143Y0069213D01*
D11*
X0219450Y0095276D03*
X0172206Y0095276D03*
X0172206Y0142520D03*
X0219450Y0142520D03*
D12*
X0195828Y0150394D03*
D13*
X0156615Y0169174D03*
X0095985Y0169174D03*
X0116457Y0053426D03*
X0136143Y0053426D03*
D14*
X0081300Y0161300D03*
X0081300Y0171300D03*
X0081300Y0181300D03*
D15*
X0171300Y0169300D02*
X0171300Y0163300D01*
X0181300Y0163300D02*
X0181300Y0169300D01*
X0191300Y0169300D02*
X0191300Y0163300D01*
X0201300Y0163300D02*
X0201300Y0169300D01*
X0211300Y0169300D02*
X0211300Y0163300D01*
D16*
X0102983Y0060504D02*
X0069298Y0060504D01*
X0069744Y0059905D02*
X0103582Y0059905D01*
X0104180Y0059307D02*
X0070189Y0059307D01*
X0070635Y0058708D02*
X0104779Y0058708D01*
X0105377Y0058110D02*
X0071080Y0058110D01*
X0071526Y0057511D02*
X0105976Y0057511D01*
X0106574Y0056913D02*
X0071971Y0056913D01*
X0072417Y0056314D02*
X0107173Y0056314D01*
X0107771Y0055716D02*
X0072924Y0055716D01*
X0072631Y0056027D02*
X0080033Y0048181D01*
X0082934Y0045600D01*
X0194670Y0045600D01*
X0197721Y0048137D01*
X0197721Y0048137D01*
X0205387Y0055734D01*
X0212120Y0064170D01*
X0217827Y0073330D01*
X0222433Y0083091D01*
X0225874Y0093321D01*
X0228105Y0103881D01*
X0229094Y0114629D01*
X0228829Y0125419D01*
X0227313Y0136105D01*
X0224566Y0146543D01*
X0220627Y0156591D01*
X0215600Y0166017D01*
X0215600Y0162445D01*
X0214945Y0160864D01*
X0213736Y0159655D01*
X0212155Y0159000D01*
X0210445Y0159000D01*
X0208864Y0159655D01*
X0207655Y0160864D01*
X0207000Y0162445D01*
X0207000Y0170155D01*
X0207655Y0171736D01*
X0208864Y0172945D01*
X0210376Y0173572D01*
X0209397Y0174984D01*
X0202258Y0183079D01*
X0199504Y0185701D01*
X0083741Y0185701D01*
X0084132Y0185539D01*
X0085539Y0184132D01*
X0086300Y0182295D01*
X0086300Y0180305D01*
X0085539Y0178468D01*
X0084132Y0177061D01*
X0082295Y0176300D01*
X0080305Y0176300D01*
X0078468Y0175539D01*
X0077061Y0174132D01*
X0076300Y0172295D01*
X0076300Y0170305D01*
X0077061Y0168468D01*
X0078468Y0167061D01*
X0080305Y0166300D01*
X0082295Y0166300D01*
X0084132Y0167061D01*
X0085539Y0168468D01*
X0086300Y0170305D01*
X0086300Y0172295D01*
X0086283Y0172336D01*
X0087953Y0174006D01*
X0101014Y0174006D01*
X0101014Y0122954D01*
X0102127Y0121841D01*
X0113594Y0110374D01*
X0113594Y0109345D01*
X0114066Y0108205D01*
X0114938Y0107333D01*
X0116077Y0106861D01*
X0117310Y0106861D01*
X0118140Y0107205D01*
X0102343Y0091408D01*
X0101313Y0091408D01*
X0100174Y0090936D01*
X0099302Y0090064D01*
X0098830Y0088924D01*
X0098830Y0087691D01*
X0099240Y0086702D01*
X0093435Y0086702D01*
X0093435Y0092116D01*
X0092780Y0093696D01*
X0083858Y0102619D01*
X0084742Y0104753D01*
X0084742Y0107532D01*
X0083678Y0110099D01*
X0081713Y0112064D01*
X0079146Y0113128D01*
X0066997Y0113128D01*
X0064430Y0112064D01*
X0062465Y0110099D01*
X0061402Y0107532D01*
X0061402Y0104753D01*
X0062465Y0102186D01*
X0064430Y0100221D01*
X0066997Y0099157D01*
X0075157Y0099157D01*
X0084835Y0089480D01*
X0084835Y0081547D01*
X0085489Y0079967D01*
X0086628Y0078828D01*
X0077687Y0078828D01*
X0077687Y0079472D01*
X0079146Y0079472D01*
X0081713Y0080536D01*
X0083678Y0082501D01*
X0084742Y0085068D01*
X0084742Y0087847D01*
X0083678Y0090414D01*
X0081713Y0092379D01*
X0079146Y0093443D01*
X0066997Y0093443D01*
X0064430Y0092379D01*
X0062465Y0090414D01*
X0061402Y0087847D01*
X0061402Y0085068D01*
X0062465Y0082501D01*
X0064430Y0080536D01*
X0066997Y0079472D01*
X0069087Y0079472D01*
X0069087Y0073673D01*
X0069741Y0072093D01*
X0070951Y0070883D01*
X0072531Y0070228D01*
X0093259Y0070228D01*
X0111157Y0052330D01*
X0111157Y0049473D01*
X0112505Y0048126D01*
X0120410Y0048126D01*
X0121757Y0049473D01*
X0121757Y0057379D01*
X0120410Y0058726D01*
X0116924Y0058726D01*
X0098686Y0076964D01*
X0097547Y0078102D01*
X0105070Y0078102D01*
X0130843Y0052330D01*
X0130843Y0049473D01*
X0132190Y0048126D01*
X0140095Y0048126D01*
X0141443Y0049473D01*
X0141443Y0057379D01*
X0140095Y0058726D01*
X0136609Y0058726D01*
X0110497Y0084838D01*
X0109287Y0086048D01*
X0107706Y0086702D01*
X0104620Y0086702D01*
X0105030Y0087691D01*
X0105030Y0088721D01*
X0150945Y0134636D01*
X0152058Y0135749D01*
X0152058Y0170198D01*
X0152315Y0170455D01*
X0152315Y0165636D01*
X0153076Y0164874D01*
X0160153Y0164874D01*
X0160915Y0165636D01*
X0160915Y0167117D01*
X0163022Y0167117D01*
X0163022Y0159371D01*
X0171665Y0150729D01*
X0171665Y0149699D01*
X0172137Y0148560D01*
X0173009Y0147688D01*
X0174148Y0147216D01*
X0175381Y0147216D01*
X0176521Y0147688D01*
X0176802Y0147969D01*
X0176802Y0136733D01*
X0177915Y0135620D01*
X0194302Y0119233D01*
X0194302Y0118203D01*
X0194774Y0117064D01*
X0195646Y0116192D01*
X0196786Y0115720D01*
X0198019Y0115720D01*
X0199008Y0116129D01*
X0199008Y0082228D01*
X0198174Y0083062D01*
X0197035Y0083534D01*
X0196005Y0083534D01*
X0174912Y0104627D01*
X0174912Y0105657D01*
X0174440Y0106796D01*
X0173568Y0107668D01*
X0172428Y0108140D01*
X0171195Y0108140D01*
X0170056Y0107668D01*
X0169184Y0106796D01*
X0168712Y0105657D01*
X0168712Y0104424D01*
X0169184Y0103284D01*
X0170056Y0102412D01*
X0171195Y0101940D01*
X0172225Y0101940D01*
X0174243Y0099922D01*
X0173214Y0100348D01*
X0171197Y0100348D01*
X0169333Y0099576D01*
X0167906Y0098149D01*
X0167357Y0096824D01*
X0163471Y0092937D01*
X0162261Y0091728D01*
X0161606Y0090147D01*
X0161606Y0073673D01*
X0162261Y0072093D01*
X0169472Y0064881D01*
X0169472Y0058454D01*
X0170536Y0055887D01*
X0172501Y0053922D01*
X0175068Y0052858D01*
X0177847Y0052858D01*
X0180414Y0053922D01*
X0182379Y0055887D01*
X0183443Y0058454D01*
X0183443Y0070603D01*
X0182379Y0073170D01*
X0180414Y0075135D01*
X0177847Y0076198D01*
X0175068Y0076198D01*
X0172501Y0075135D01*
X0171941Y0074575D01*
X0170206Y0076309D01*
X0170206Y0087511D01*
X0172900Y0090205D01*
X0173214Y0090205D01*
X0175078Y0090977D01*
X0176505Y0092404D01*
X0177277Y0094268D01*
X0177277Y0096285D01*
X0176851Y0097314D01*
X0193318Y0080847D01*
X0193318Y0079817D01*
X0193790Y0078678D01*
X0194662Y0077806D01*
X0195801Y0077334D01*
X0196095Y0077334D01*
X0194960Y0076198D01*
X0194753Y0076198D01*
X0192186Y0075135D01*
X0190221Y0073170D01*
X0189157Y0070603D01*
X0189157Y0058454D01*
X0190221Y0055887D01*
X0192186Y0053922D01*
X0194753Y0052858D01*
X0197532Y0052858D01*
X0200099Y0053922D01*
X0202064Y0055887D01*
X0203128Y0058454D01*
X0203128Y0070603D01*
X0202659Y0071735D01*
X0206953Y0076030D01*
X0207608Y0077610D01*
X0207608Y0144281D01*
X0206953Y0145862D01*
X0200901Y0151914D01*
X0200294Y0153379D01*
X0198812Y0154861D01*
X0196876Y0155663D01*
X0194780Y0155663D01*
X0192843Y0154861D01*
X0191361Y0153379D01*
X0190559Y0151442D01*
X0190559Y0149347D01*
X0191361Y0147410D01*
X0192843Y0145928D01*
X0194780Y0145126D01*
X0195527Y0145126D01*
X0199008Y0141645D01*
X0199008Y0121510D01*
X0198019Y0121920D01*
X0196989Y0121920D01*
X0180602Y0138307D01*
X0180602Y0156024D01*
X0175184Y0161441D01*
X0175600Y0162445D01*
X0175600Y0170155D01*
X0174945Y0171736D01*
X0173736Y0172945D01*
X0172155Y0173600D01*
X0170445Y0173600D01*
X0168864Y0172945D01*
X0167655Y0171736D01*
X0167000Y0170155D01*
X0167000Y0162445D01*
X0167655Y0160864D01*
X0168864Y0159655D01*
X0170445Y0159000D01*
X0172155Y0159000D01*
X0172223Y0159028D01*
X0176802Y0154450D01*
X0176802Y0152663D01*
X0176521Y0152944D01*
X0175381Y0153416D01*
X0174352Y0153416D01*
X0166822Y0160945D01*
X0166822Y0169804D01*
X0165709Y0170917D01*
X0160915Y0170917D01*
X0160915Y0172712D01*
X0160473Y0173154D01*
X0160773Y0173278D01*
X0161645Y0174150D01*
X0162117Y0175290D01*
X0162117Y0176523D01*
X0161645Y0177662D01*
X0161364Y0177943D01*
X0186644Y0177943D01*
X0186644Y0171182D01*
X0187197Y0170630D01*
X0187000Y0170155D01*
X0187000Y0162445D01*
X0187655Y0160864D01*
X0188864Y0159655D01*
X0190445Y0159000D01*
X0192155Y0159000D01*
X0193736Y0159655D01*
X0194945Y0160864D01*
X0195600Y0162445D01*
X0195600Y0170155D01*
X0194945Y0171736D01*
X0193736Y0172945D01*
X0192155Y0173600D01*
X0190445Y0173600D01*
X0190444Y0173600D01*
X0190444Y0180630D01*
X0189331Y0181743D01*
X0154293Y0181743D01*
X0153180Y0180630D01*
X0145306Y0172756D01*
X0145306Y0157993D01*
X0128918Y0141605D01*
X0127888Y0141605D01*
X0126749Y0141133D01*
X0125877Y0140261D01*
X0125405Y0139121D01*
X0125405Y0137888D01*
X0125877Y0136749D01*
X0126749Y0135877D01*
X0127888Y0135405D01*
X0129121Y0135405D01*
X0130261Y0135877D01*
X0131133Y0136749D01*
X0131605Y0137888D01*
X0131605Y0138918D01*
X0147993Y0155306D01*
X0148258Y0155571D01*
X0148258Y0137323D01*
X0119450Y0108515D01*
X0119794Y0109345D01*
X0119794Y0110578D01*
X0119322Y0111717D01*
X0118450Y0112589D01*
X0117310Y0113061D01*
X0116281Y0113061D01*
X0104814Y0124528D01*
X0104814Y0177088D01*
X0105454Y0177728D01*
X0106484Y0177728D01*
X0107623Y0178200D01*
X0108495Y0179072D01*
X0108967Y0180211D01*
X0108967Y0181444D01*
X0108495Y0182584D01*
X0107623Y0183456D01*
X0106484Y0183928D01*
X0105250Y0183928D01*
X0104111Y0183456D01*
X0103239Y0182584D01*
X0102767Y0181444D01*
X0102767Y0180415D01*
X0102127Y0179775D01*
X0101014Y0178662D01*
X0100159Y0177806D01*
X0085395Y0177806D01*
X0084282Y0176693D01*
X0084282Y0175709D01*
X0084118Y0175545D01*
X0082295Y0176300D01*
X0080305Y0176300D01*
X0078468Y0177061D01*
X0077061Y0178468D01*
X0076629Y0179511D01*
X0072631Y0175274D01*
X0066190Y0166621D01*
X0060796Y0157280D01*
X0056524Y0147375D01*
X0053430Y0137042D01*
X0051557Y0126419D01*
X0050930Y0115650D01*
X0051557Y0104882D01*
X0053430Y0094259D01*
X0056524Y0083925D01*
X0060796Y0074021D01*
X0066190Y0064679D01*
X0072631Y0056027D01*
X0073489Y0055117D02*
X0108370Y0055117D01*
X0108968Y0054519D02*
X0074054Y0054519D01*
X0074618Y0053920D02*
X0109567Y0053920D01*
X0110166Y0053322D02*
X0075183Y0053322D01*
X0075748Y0052723D02*
X0110764Y0052723D01*
X0111157Y0052125D02*
X0076312Y0052125D01*
X0076877Y0051526D02*
X0111157Y0051526D01*
X0111157Y0050928D02*
X0077442Y0050928D01*
X0078006Y0050329D02*
X0111157Y0050329D01*
X0111157Y0049731D02*
X0078571Y0049731D01*
X0079136Y0049132D02*
X0111498Y0049132D01*
X0112097Y0048534D02*
X0079700Y0048534D01*
X0080309Y0047935D02*
X0197479Y0047935D01*
X0198122Y0048534D02*
X0140503Y0048534D01*
X0141102Y0049132D02*
X0198726Y0049132D01*
X0199330Y0049731D02*
X0141443Y0049731D01*
X0141443Y0050329D02*
X0199934Y0050329D01*
X0200538Y0050928D02*
X0141443Y0050928D01*
X0141443Y0051526D02*
X0201142Y0051526D01*
X0201745Y0052125D02*
X0141443Y0052125D01*
X0141443Y0052723D02*
X0202349Y0052723D01*
X0202953Y0053322D02*
X0198651Y0053322D01*
X0200096Y0053920D02*
X0203557Y0053920D01*
X0204161Y0054519D02*
X0200696Y0054519D01*
X0201295Y0055117D02*
X0204765Y0055117D01*
X0205369Y0055716D02*
X0201893Y0055716D01*
X0202241Y0056314D02*
X0205851Y0056314D01*
X0206328Y0056913D02*
X0202489Y0056913D01*
X0202737Y0057511D02*
X0206806Y0057511D01*
X0207284Y0058110D02*
X0202985Y0058110D01*
X0203128Y0058708D02*
X0207761Y0058708D01*
X0208239Y0059307D02*
X0203128Y0059307D01*
X0203128Y0059905D02*
X0208717Y0059905D01*
X0209194Y0060504D02*
X0203128Y0060504D01*
X0203128Y0061103D02*
X0209672Y0061103D01*
X0210150Y0061701D02*
X0203128Y0061701D01*
X0203128Y0062300D02*
X0210627Y0062300D01*
X0211105Y0062898D02*
X0203128Y0062898D01*
X0203128Y0063497D02*
X0211583Y0063497D01*
X0212060Y0064095D02*
X0203128Y0064095D01*
X0203128Y0064694D02*
X0212446Y0064694D01*
X0212819Y0065292D02*
X0203128Y0065292D01*
X0203128Y0065891D02*
X0213192Y0065891D01*
X0213565Y0066489D02*
X0203128Y0066489D01*
X0203128Y0067088D02*
X0213938Y0067088D01*
X0214311Y0067686D02*
X0203128Y0067686D01*
X0203128Y0068285D02*
X0214684Y0068285D01*
X0215057Y0068883D02*
X0203128Y0068883D01*
X0203128Y0069482D02*
X0215429Y0069482D01*
X0215802Y0070080D02*
X0203128Y0070080D01*
X0203096Y0070679D02*
X0216175Y0070679D01*
X0216548Y0071277D02*
X0202848Y0071277D01*
X0202799Y0071876D02*
X0216921Y0071876D01*
X0217294Y0072474D02*
X0203398Y0072474D01*
X0203996Y0073073D02*
X0217667Y0073073D01*
X0217988Y0073671D02*
X0204595Y0073671D01*
X0205193Y0074270D02*
X0218271Y0074270D01*
X0218553Y0074868D02*
X0205792Y0074868D01*
X0206390Y0075467D02*
X0218835Y0075467D01*
X0219118Y0076065D02*
X0206968Y0076065D01*
X0207216Y0076664D02*
X0219400Y0076664D01*
X0219683Y0077262D02*
X0207464Y0077262D01*
X0207608Y0077861D02*
X0219965Y0077861D01*
X0220247Y0078459D02*
X0207608Y0078459D01*
X0207608Y0079058D02*
X0220530Y0079058D01*
X0220812Y0079656D02*
X0207608Y0079656D01*
X0207608Y0080255D02*
X0221095Y0080255D01*
X0221377Y0080853D02*
X0207608Y0080853D01*
X0207608Y0081452D02*
X0221659Y0081452D01*
X0221942Y0082050D02*
X0207608Y0082050D01*
X0207608Y0082649D02*
X0222224Y0082649D01*
X0222485Y0083247D02*
X0207608Y0083247D01*
X0207608Y0083846D02*
X0222687Y0083846D01*
X0222888Y0084444D02*
X0207608Y0084444D01*
X0207608Y0085043D02*
X0223089Y0085043D01*
X0223291Y0085641D02*
X0207608Y0085641D01*
X0207608Y0086240D02*
X0223492Y0086240D01*
X0223693Y0086839D02*
X0207608Y0086839D01*
X0207608Y0087437D02*
X0223895Y0087437D01*
X0224096Y0088036D02*
X0207608Y0088036D01*
X0207608Y0088634D02*
X0224297Y0088634D01*
X0224499Y0089233D02*
X0207608Y0089233D01*
X0207608Y0089831D02*
X0224700Y0089831D01*
X0224901Y0090430D02*
X0207608Y0090430D01*
X0207608Y0091028D02*
X0225103Y0091028D01*
X0225304Y0091627D02*
X0221278Y0091627D01*
X0221756Y0091825D02*
X0220260Y0091205D01*
X0218640Y0091205D01*
X0217143Y0091825D01*
X0215998Y0092970D01*
X0215378Y0094466D01*
X0215378Y0096086D01*
X0215998Y0097583D01*
X0217143Y0098728D01*
X0218640Y0099348D01*
X0220260Y0099348D01*
X0221756Y0098728D01*
X0222901Y0097583D01*
X0223521Y0096086D01*
X0223521Y0094466D01*
X0222901Y0092970D01*
X0221756Y0091825D01*
X0222157Y0092225D02*
X0225505Y0092225D01*
X0225707Y0092824D02*
X0222755Y0092824D01*
X0223089Y0093422D02*
X0225896Y0093422D01*
X0226022Y0094021D02*
X0223337Y0094021D01*
X0223521Y0094619D02*
X0226148Y0094619D01*
X0226275Y0095218D02*
X0223521Y0095218D01*
X0223521Y0095816D02*
X0226401Y0095816D01*
X0226528Y0096415D02*
X0223385Y0096415D01*
X0223137Y0097013D02*
X0226654Y0097013D01*
X0226780Y0097612D02*
X0222872Y0097612D01*
X0222274Y0098210D02*
X0226907Y0098210D01*
X0227033Y0098809D02*
X0221561Y0098809D01*
X0217338Y0098809D02*
X0207608Y0098809D01*
X0207608Y0099407D02*
X0227160Y0099407D01*
X0227286Y0100006D02*
X0207608Y0100006D01*
X0207608Y0100604D02*
X0227412Y0100604D01*
X0227539Y0101203D02*
X0207608Y0101203D01*
X0207608Y0101801D02*
X0227665Y0101801D01*
X0227792Y0102400D02*
X0207608Y0102400D01*
X0207608Y0102998D02*
X0227918Y0102998D01*
X0228044Y0103597D02*
X0207608Y0103597D01*
X0207608Y0104195D02*
X0228133Y0104195D01*
X0228189Y0104794D02*
X0207608Y0104794D01*
X0207608Y0105392D02*
X0228244Y0105392D01*
X0228299Y0105991D02*
X0207608Y0105991D01*
X0207608Y0106589D02*
X0228354Y0106589D01*
X0228409Y0107188D02*
X0207608Y0107188D01*
X0207608Y0107786D02*
X0228464Y0107786D01*
X0228519Y0108385D02*
X0207608Y0108385D01*
X0207608Y0108983D02*
X0228574Y0108983D01*
X0228629Y0109582D02*
X0207608Y0109582D01*
X0207608Y0110180D02*
X0228684Y0110180D01*
X0228739Y0110779D02*
X0207608Y0110779D01*
X0207608Y0111377D02*
X0228795Y0111377D01*
X0228850Y0111976D02*
X0207608Y0111976D01*
X0207608Y0112574D02*
X0228905Y0112574D01*
X0228960Y0113173D02*
X0207608Y0113173D01*
X0207608Y0113772D02*
X0229015Y0113772D01*
X0229070Y0114370D02*
X0207608Y0114370D01*
X0207608Y0114969D02*
X0229086Y0114969D01*
X0229071Y0115567D02*
X0207608Y0115567D01*
X0207608Y0116166D02*
X0229056Y0116166D01*
X0229041Y0116764D02*
X0207608Y0116764D01*
X0207608Y0117363D02*
X0229027Y0117363D01*
X0229012Y0117961D02*
X0207608Y0117961D01*
X0207608Y0118560D02*
X0228997Y0118560D01*
X0228983Y0119158D02*
X0207608Y0119158D01*
X0207608Y0119757D02*
X0228968Y0119757D01*
X0228953Y0120355D02*
X0207608Y0120355D01*
X0207608Y0120954D02*
X0228938Y0120954D01*
X0228924Y0121552D02*
X0207608Y0121552D01*
X0207608Y0122151D02*
X0228909Y0122151D01*
X0228894Y0122749D02*
X0207608Y0122749D01*
X0207608Y0123348D02*
X0228880Y0123348D01*
X0228865Y0123946D02*
X0207608Y0123946D01*
X0207608Y0124545D02*
X0228850Y0124545D01*
X0228835Y0125143D02*
X0207608Y0125143D01*
X0207608Y0125742D02*
X0228783Y0125742D01*
X0228698Y0126340D02*
X0207608Y0126340D01*
X0207608Y0126939D02*
X0228613Y0126939D01*
X0228528Y0127537D02*
X0207608Y0127537D01*
X0207608Y0128136D02*
X0228443Y0128136D01*
X0228358Y0128734D02*
X0207608Y0128734D01*
X0207608Y0129333D02*
X0228273Y0129333D01*
X0228189Y0129931D02*
X0207608Y0129931D01*
X0207608Y0130530D02*
X0228104Y0130530D01*
X0228019Y0131128D02*
X0207608Y0131128D01*
X0207608Y0131727D02*
X0227934Y0131727D01*
X0227849Y0132325D02*
X0207608Y0132325D01*
X0207608Y0132924D02*
X0227764Y0132924D01*
X0227679Y0133522D02*
X0207608Y0133522D01*
X0207608Y0134121D02*
X0227594Y0134121D01*
X0227509Y0134719D02*
X0207608Y0134719D01*
X0207608Y0135318D02*
X0227424Y0135318D01*
X0227340Y0135916D02*
X0207608Y0135916D01*
X0207608Y0136515D02*
X0227205Y0136515D01*
X0227047Y0137113D02*
X0207608Y0137113D01*
X0207608Y0137712D02*
X0226890Y0137712D01*
X0226733Y0138310D02*
X0207608Y0138310D01*
X0207608Y0138909D02*
X0217529Y0138909D01*
X0217143Y0139069D02*
X0218640Y0138449D01*
X0220260Y0138449D01*
X0221756Y0139069D01*
X0222901Y0140214D01*
X0223521Y0141711D01*
X0223521Y0143330D01*
X0222901Y0144827D01*
X0221756Y0145972D01*
X0220260Y0146592D01*
X0218640Y0146592D01*
X0217143Y0145972D01*
X0215998Y0144827D01*
X0215378Y0143330D01*
X0215378Y0141711D01*
X0215998Y0140214D01*
X0217143Y0139069D01*
X0216704Y0139508D02*
X0207608Y0139508D01*
X0207608Y0140106D02*
X0216106Y0140106D01*
X0215795Y0140705D02*
X0207608Y0140705D01*
X0207608Y0141303D02*
X0215547Y0141303D01*
X0215378Y0141902D02*
X0207608Y0141902D01*
X0207608Y0142500D02*
X0215378Y0142500D01*
X0215378Y0143099D02*
X0207608Y0143099D01*
X0207608Y0143697D02*
X0215530Y0143697D01*
X0215778Y0144296D02*
X0207602Y0144296D01*
X0207354Y0144894D02*
X0216065Y0144894D01*
X0216664Y0145493D02*
X0207106Y0145493D01*
X0206724Y0146091D02*
X0217430Y0146091D01*
X0221469Y0146091D02*
X0224685Y0146091D01*
X0224843Y0145493D02*
X0222236Y0145493D01*
X0222834Y0144894D02*
X0225000Y0144894D01*
X0225158Y0144296D02*
X0223121Y0144296D01*
X0223369Y0143697D02*
X0225315Y0143697D01*
X0225473Y0143099D02*
X0223521Y0143099D01*
X0223521Y0142500D02*
X0225630Y0142500D01*
X0225788Y0141902D02*
X0223521Y0141902D01*
X0223352Y0141303D02*
X0225945Y0141303D01*
X0226103Y0140705D02*
X0223105Y0140705D01*
X0222793Y0140106D02*
X0226260Y0140106D01*
X0226418Y0139508D02*
X0222195Y0139508D01*
X0221370Y0138909D02*
X0226575Y0138909D01*
X0224509Y0146690D02*
X0206125Y0146690D01*
X0205527Y0147288D02*
X0224274Y0147288D01*
X0224040Y0147887D02*
X0204928Y0147887D01*
X0204330Y0148485D02*
X0223805Y0148485D01*
X0223570Y0149084D02*
X0203731Y0149084D01*
X0203133Y0149682D02*
X0223336Y0149682D01*
X0223101Y0150281D02*
X0202534Y0150281D01*
X0201936Y0150879D02*
X0222866Y0150879D01*
X0222632Y0151478D02*
X0201337Y0151478D01*
X0200834Y0152076D02*
X0222397Y0152076D01*
X0222163Y0152675D02*
X0200586Y0152675D01*
X0200338Y0153273D02*
X0221928Y0153273D01*
X0221693Y0153872D02*
X0199801Y0153872D01*
X0199203Y0154470D02*
X0221459Y0154470D01*
X0221224Y0155069D02*
X0198310Y0155069D01*
X0193345Y0155069D02*
X0180602Y0155069D01*
X0180602Y0155667D02*
X0220989Y0155667D01*
X0220755Y0156266D02*
X0180360Y0156266D01*
X0179761Y0156864D02*
X0220481Y0156864D01*
X0220162Y0157463D02*
X0179163Y0157463D01*
X0178564Y0158061D02*
X0219843Y0158061D01*
X0219524Y0158660D02*
X0177966Y0158660D01*
X0177367Y0159258D02*
X0179821Y0159258D01*
X0180445Y0159000D02*
X0178864Y0159655D01*
X0177655Y0160864D01*
X0177000Y0162445D01*
X0177000Y0170155D01*
X0177655Y0171736D01*
X0178864Y0172945D01*
X0180445Y0173600D01*
X0182155Y0173600D01*
X0183736Y0172945D01*
X0184945Y0171736D01*
X0185600Y0170155D01*
X0185600Y0162445D01*
X0184945Y0160864D01*
X0183736Y0159655D01*
X0182155Y0159000D01*
X0180445Y0159000D01*
X0178662Y0159857D02*
X0176769Y0159857D01*
X0176170Y0160455D02*
X0178063Y0160455D01*
X0177576Y0161054D02*
X0175572Y0161054D01*
X0175272Y0161652D02*
X0177328Y0161652D01*
X0177080Y0162251D02*
X0175520Y0162251D01*
X0175600Y0162849D02*
X0177000Y0162849D01*
X0177000Y0163448D02*
X0175600Y0163448D01*
X0175600Y0164046D02*
X0177000Y0164046D01*
X0177000Y0164645D02*
X0175600Y0164645D01*
X0175600Y0165243D02*
X0177000Y0165243D01*
X0177000Y0165842D02*
X0175600Y0165842D01*
X0175600Y0166441D02*
X0177000Y0166441D01*
X0177000Y0167039D02*
X0175600Y0167039D01*
X0175600Y0167638D02*
X0177000Y0167638D01*
X0177000Y0168236D02*
X0175600Y0168236D01*
X0175600Y0168835D02*
X0177000Y0168835D01*
X0177000Y0169433D02*
X0175600Y0169433D01*
X0175600Y0170032D02*
X0177000Y0170032D01*
X0177197Y0170630D02*
X0175403Y0170630D01*
X0175155Y0171229D02*
X0177445Y0171229D01*
X0177746Y0171827D02*
X0174854Y0171827D01*
X0174255Y0172426D02*
X0178345Y0172426D01*
X0179054Y0173024D02*
X0173546Y0173024D01*
X0169054Y0173024D02*
X0160603Y0173024D01*
X0160915Y0172426D02*
X0168345Y0172426D01*
X0167746Y0171827D02*
X0160915Y0171827D01*
X0160915Y0171229D02*
X0167445Y0171229D01*
X0167197Y0170630D02*
X0165995Y0170630D01*
X0166594Y0170032D02*
X0167000Y0170032D01*
X0167000Y0169433D02*
X0166822Y0169433D01*
X0166822Y0168835D02*
X0167000Y0168835D01*
X0167000Y0168236D02*
X0166822Y0168236D01*
X0166822Y0167638D02*
X0167000Y0167638D01*
X0167000Y0167039D02*
X0166822Y0167039D01*
X0166822Y0166441D02*
X0167000Y0166441D01*
X0167000Y0165842D02*
X0166822Y0165842D01*
X0166822Y0165243D02*
X0167000Y0165243D01*
X0167000Y0164645D02*
X0166822Y0164645D01*
X0166822Y0164046D02*
X0167000Y0164046D01*
X0167000Y0163448D02*
X0166822Y0163448D01*
X0166822Y0162849D02*
X0167000Y0162849D01*
X0167080Y0162251D02*
X0166822Y0162251D01*
X0166822Y0161652D02*
X0167328Y0161652D01*
X0167576Y0161054D02*
X0166822Y0161054D01*
X0167312Y0160455D02*
X0168063Y0160455D01*
X0167910Y0159857D02*
X0168662Y0159857D01*
X0168509Y0159258D02*
X0169821Y0159258D01*
X0169107Y0158660D02*
X0172592Y0158660D01*
X0173190Y0158061D02*
X0169706Y0158061D01*
X0170304Y0157463D02*
X0173789Y0157463D01*
X0174387Y0156864D02*
X0170903Y0156864D01*
X0171501Y0156266D02*
X0174986Y0156266D01*
X0175584Y0155667D02*
X0172100Y0155667D01*
X0172698Y0155069D02*
X0176183Y0155069D01*
X0176781Y0154470D02*
X0173297Y0154470D01*
X0173896Y0153872D02*
X0176802Y0153872D01*
X0176802Y0153273D02*
X0175725Y0153273D01*
X0176790Y0152675D02*
X0176802Y0152675D01*
X0180602Y0152675D02*
X0191069Y0152675D01*
X0191317Y0153273D02*
X0180602Y0153273D01*
X0180602Y0153872D02*
X0191854Y0153872D01*
X0192453Y0154470D02*
X0180602Y0154470D01*
X0180602Y0152076D02*
X0190822Y0152076D01*
X0190574Y0151478D02*
X0180602Y0151478D01*
X0180602Y0150879D02*
X0190559Y0150879D01*
X0190559Y0150281D02*
X0180602Y0150281D01*
X0180602Y0149682D02*
X0190559Y0149682D01*
X0190668Y0149084D02*
X0180602Y0149084D01*
X0180602Y0148485D02*
X0190916Y0148485D01*
X0191164Y0147887D02*
X0180602Y0147887D01*
X0180602Y0147288D02*
X0191483Y0147288D01*
X0192082Y0146690D02*
X0180602Y0146690D01*
X0180602Y0146091D02*
X0192680Y0146091D01*
X0193894Y0145493D02*
X0180602Y0145493D01*
X0180602Y0144894D02*
X0195759Y0144894D01*
X0196357Y0144296D02*
X0180602Y0144296D01*
X0180602Y0143697D02*
X0196956Y0143697D01*
X0197554Y0143099D02*
X0180602Y0143099D01*
X0180602Y0142500D02*
X0198153Y0142500D01*
X0198751Y0141902D02*
X0180602Y0141902D01*
X0180602Y0141303D02*
X0199008Y0141303D01*
X0199008Y0140705D02*
X0180602Y0140705D01*
X0180602Y0140106D02*
X0199008Y0140106D01*
X0199008Y0139508D02*
X0180602Y0139508D01*
X0180602Y0138909D02*
X0199008Y0138909D01*
X0199008Y0138310D02*
X0180602Y0138310D01*
X0181197Y0137712D02*
X0199008Y0137712D01*
X0199008Y0137113D02*
X0181796Y0137113D01*
X0182394Y0136515D02*
X0199008Y0136515D01*
X0199008Y0135916D02*
X0182993Y0135916D01*
X0183591Y0135318D02*
X0199008Y0135318D01*
X0199008Y0134719D02*
X0184190Y0134719D01*
X0184788Y0134121D02*
X0199008Y0134121D01*
X0199008Y0133522D02*
X0185387Y0133522D01*
X0185985Y0132924D02*
X0199008Y0132924D01*
X0199008Y0132325D02*
X0186584Y0132325D01*
X0187182Y0131727D02*
X0199008Y0131727D01*
X0199008Y0131128D02*
X0187781Y0131128D01*
X0188379Y0130530D02*
X0199008Y0130530D01*
X0199008Y0129931D02*
X0188978Y0129931D01*
X0189576Y0129333D02*
X0199008Y0129333D01*
X0199008Y0128734D02*
X0190175Y0128734D01*
X0190773Y0128136D02*
X0199008Y0128136D01*
X0199008Y0127537D02*
X0191372Y0127537D01*
X0191970Y0126939D02*
X0199008Y0126939D01*
X0199008Y0126340D02*
X0192569Y0126340D01*
X0193167Y0125742D02*
X0199008Y0125742D01*
X0199008Y0125143D02*
X0193766Y0125143D01*
X0194364Y0124545D02*
X0199008Y0124545D01*
X0199008Y0123946D02*
X0194963Y0123946D01*
X0195561Y0123348D02*
X0199008Y0123348D01*
X0199008Y0122749D02*
X0196160Y0122749D01*
X0196758Y0122151D02*
X0199008Y0122151D01*
X0199008Y0121552D02*
X0198906Y0121552D01*
X0194302Y0119158D02*
X0135467Y0119158D01*
X0134869Y0118560D02*
X0194302Y0118560D01*
X0194403Y0117961D02*
X0134270Y0117961D01*
X0133672Y0117363D02*
X0194650Y0117363D01*
X0195074Y0116764D02*
X0133073Y0116764D01*
X0132475Y0116166D02*
X0195709Y0116166D01*
X0199008Y0115567D02*
X0131876Y0115567D01*
X0131278Y0114969D02*
X0199008Y0114969D01*
X0199008Y0114370D02*
X0130679Y0114370D01*
X0130081Y0113772D02*
X0199008Y0113772D01*
X0199008Y0113173D02*
X0129482Y0113173D01*
X0128884Y0112574D02*
X0199008Y0112574D01*
X0199008Y0111976D02*
X0128285Y0111976D01*
X0127687Y0111377D02*
X0199008Y0111377D01*
X0199008Y0110779D02*
X0127088Y0110779D01*
X0126489Y0110180D02*
X0199008Y0110180D01*
X0199008Y0109582D02*
X0125891Y0109582D01*
X0125292Y0108983D02*
X0199008Y0108983D01*
X0199008Y0108385D02*
X0124694Y0108385D01*
X0124095Y0107786D02*
X0170341Y0107786D01*
X0169575Y0107188D02*
X0123497Y0107188D01*
X0122898Y0106589D02*
X0169098Y0106589D01*
X0168850Y0105991D02*
X0122300Y0105991D01*
X0121701Y0105392D02*
X0168712Y0105392D01*
X0168712Y0104794D02*
X0121103Y0104794D01*
X0120504Y0104195D02*
X0168806Y0104195D01*
X0169054Y0103597D02*
X0119906Y0103597D01*
X0119307Y0102998D02*
X0169470Y0102998D01*
X0170085Y0102400D02*
X0118709Y0102400D01*
X0118110Y0101801D02*
X0172364Y0101801D01*
X0172962Y0101203D02*
X0117512Y0101203D01*
X0116913Y0100604D02*
X0173561Y0100604D01*
X0174041Y0100006D02*
X0174159Y0100006D01*
X0170370Y0100006D02*
X0116315Y0100006D01*
X0115716Y0099407D02*
X0169164Y0099407D01*
X0168565Y0098809D02*
X0115118Y0098809D01*
X0114519Y0098210D02*
X0167967Y0098210D01*
X0167683Y0097612D02*
X0113921Y0097612D01*
X0113322Y0097013D02*
X0167435Y0097013D01*
X0166948Y0096415D02*
X0112724Y0096415D01*
X0112125Y0095816D02*
X0166349Y0095816D01*
X0165751Y0095218D02*
X0111527Y0095218D01*
X0110928Y0094619D02*
X0165152Y0094619D01*
X0164554Y0094021D02*
X0110330Y0094021D01*
X0109731Y0093422D02*
X0163955Y0093422D01*
X0163357Y0092824D02*
X0109133Y0092824D01*
X0108534Y0092225D02*
X0162758Y0092225D01*
X0162219Y0091627D02*
X0107936Y0091627D01*
X0107337Y0091028D02*
X0161971Y0091028D01*
X0161723Y0090430D02*
X0106739Y0090430D01*
X0106140Y0089831D02*
X0161606Y0089831D01*
X0161606Y0089233D02*
X0105542Y0089233D01*
X0105030Y0088634D02*
X0161606Y0088634D01*
X0161606Y0088036D02*
X0105030Y0088036D01*
X0104925Y0087437D02*
X0161606Y0087437D01*
X0161606Y0086839D02*
X0104677Y0086839D01*
X0108823Y0086240D02*
X0161606Y0086240D01*
X0161606Y0085641D02*
X0109693Y0085641D01*
X0110292Y0085043D02*
X0161606Y0085043D01*
X0161606Y0084444D02*
X0110890Y0084444D01*
X0111489Y0083846D02*
X0161606Y0083846D01*
X0161606Y0083247D02*
X0112087Y0083247D01*
X0112686Y0082649D02*
X0161606Y0082649D01*
X0161606Y0082050D02*
X0113284Y0082050D01*
X0113883Y0081452D02*
X0161606Y0081452D01*
X0161606Y0080853D02*
X0114481Y0080853D01*
X0115080Y0080255D02*
X0161606Y0080255D01*
X0161606Y0079656D02*
X0115678Y0079656D01*
X0116277Y0079058D02*
X0161606Y0079058D01*
X0161606Y0078459D02*
X0116875Y0078459D01*
X0117474Y0077861D02*
X0161606Y0077861D01*
X0161606Y0077262D02*
X0118072Y0077262D01*
X0118671Y0076664D02*
X0161606Y0076664D01*
X0161606Y0076065D02*
X0119269Y0076065D01*
X0119868Y0075467D02*
X0161606Y0075467D01*
X0161606Y0074868D02*
X0120466Y0074868D01*
X0121065Y0074270D02*
X0161606Y0074270D01*
X0161607Y0073671D02*
X0121663Y0073671D01*
X0122262Y0073073D02*
X0161855Y0073073D01*
X0162103Y0072474D02*
X0122860Y0072474D01*
X0123459Y0071876D02*
X0162478Y0071876D01*
X0163076Y0071277D02*
X0124057Y0071277D01*
X0124656Y0070679D02*
X0163675Y0070679D01*
X0164273Y0070080D02*
X0125254Y0070080D01*
X0125853Y0069482D02*
X0164872Y0069482D01*
X0165470Y0068883D02*
X0126451Y0068883D01*
X0127050Y0068285D02*
X0166069Y0068285D01*
X0166667Y0067686D02*
X0127648Y0067686D01*
X0128247Y0067088D02*
X0167266Y0067088D01*
X0167864Y0066489D02*
X0128846Y0066489D01*
X0129444Y0065891D02*
X0168463Y0065891D01*
X0169061Y0065292D02*
X0130043Y0065292D01*
X0130641Y0064694D02*
X0169472Y0064694D01*
X0169472Y0064095D02*
X0131240Y0064095D01*
X0131838Y0063497D02*
X0169472Y0063497D01*
X0169472Y0062898D02*
X0132437Y0062898D01*
X0133035Y0062300D02*
X0169472Y0062300D01*
X0169472Y0061701D02*
X0133634Y0061701D01*
X0134232Y0061103D02*
X0169472Y0061103D01*
X0169472Y0060504D02*
X0134831Y0060504D01*
X0135429Y0059905D02*
X0169472Y0059905D01*
X0169472Y0059307D02*
X0136028Y0059307D01*
X0140113Y0058708D02*
X0169472Y0058708D01*
X0169615Y0058110D02*
X0140711Y0058110D01*
X0141310Y0057511D02*
X0169863Y0057511D01*
X0170111Y0056913D02*
X0141443Y0056913D01*
X0141443Y0056314D02*
X0170359Y0056314D01*
X0170707Y0055716D02*
X0141443Y0055716D01*
X0141443Y0055117D02*
X0171305Y0055117D01*
X0171904Y0054519D02*
X0141443Y0054519D01*
X0141443Y0053920D02*
X0172504Y0053920D01*
X0173949Y0053322D02*
X0141443Y0053322D01*
X0131782Y0048534D02*
X0120818Y0048534D01*
X0121416Y0049132D02*
X0131184Y0049132D01*
X0130843Y0049731D02*
X0121757Y0049731D01*
X0121757Y0050329D02*
X0130843Y0050329D01*
X0130843Y0050928D02*
X0121757Y0050928D01*
X0121757Y0051526D02*
X0130843Y0051526D01*
X0130843Y0052125D02*
X0121757Y0052125D01*
X0121757Y0052723D02*
X0130449Y0052723D01*
X0129851Y0053322D02*
X0121757Y0053322D01*
X0121757Y0053920D02*
X0129252Y0053920D01*
X0128654Y0054519D02*
X0121757Y0054519D01*
X0121757Y0055117D02*
X0128055Y0055117D01*
X0127456Y0055716D02*
X0121757Y0055716D01*
X0121757Y0056314D02*
X0126858Y0056314D01*
X0126259Y0056913D02*
X0121757Y0056913D01*
X0121625Y0057511D02*
X0125661Y0057511D01*
X0125062Y0058110D02*
X0121026Y0058110D01*
X0120428Y0058708D02*
X0124464Y0058708D01*
X0123865Y0059307D02*
X0116343Y0059307D01*
X0115744Y0059905D02*
X0123267Y0059905D01*
X0122668Y0060504D02*
X0115146Y0060504D01*
X0114547Y0061103D02*
X0122070Y0061103D01*
X0121471Y0061701D02*
X0113949Y0061701D01*
X0113350Y0062300D02*
X0120873Y0062300D01*
X0120274Y0062898D02*
X0112752Y0062898D01*
X0112153Y0063497D02*
X0119676Y0063497D01*
X0119077Y0064095D02*
X0111555Y0064095D01*
X0110956Y0064694D02*
X0118479Y0064694D01*
X0117880Y0065292D02*
X0110358Y0065292D01*
X0109759Y0065891D02*
X0117282Y0065891D01*
X0116683Y0066489D02*
X0109160Y0066489D01*
X0108562Y0067088D02*
X0116085Y0067088D01*
X0115486Y0067686D02*
X0107963Y0067686D01*
X0107365Y0068285D02*
X0114888Y0068285D01*
X0114289Y0068883D02*
X0106766Y0068883D01*
X0106168Y0069482D02*
X0113691Y0069482D01*
X0113092Y0070080D02*
X0105569Y0070080D01*
X0104971Y0070679D02*
X0112494Y0070679D01*
X0111895Y0071277D02*
X0104372Y0071277D01*
X0103774Y0071876D02*
X0111297Y0071876D01*
X0110698Y0072474D02*
X0103175Y0072474D01*
X0102577Y0073073D02*
X0110100Y0073073D01*
X0109501Y0073671D02*
X0101978Y0073671D01*
X0101380Y0074270D02*
X0108903Y0074270D01*
X0108304Y0074868D02*
X0100781Y0074868D01*
X0100183Y0075467D02*
X0107706Y0075467D01*
X0107107Y0076065D02*
X0099584Y0076065D01*
X0098986Y0076664D02*
X0106509Y0076664D01*
X0105910Y0077262D02*
X0098387Y0077262D01*
X0097789Y0077861D02*
X0105312Y0077861D01*
X0099183Y0086839D02*
X0093435Y0086839D01*
X0093435Y0087437D02*
X0098935Y0087437D01*
X0098830Y0088036D02*
X0093435Y0088036D01*
X0093435Y0088634D02*
X0098830Y0088634D01*
X0098958Y0089233D02*
X0093435Y0089233D01*
X0093435Y0089831D02*
X0099205Y0089831D01*
X0099668Y0090430D02*
X0093435Y0090430D01*
X0093435Y0091028D02*
X0100396Y0091028D01*
X0102562Y0091627D02*
X0093435Y0091627D01*
X0093389Y0092225D02*
X0103160Y0092225D01*
X0103759Y0092824D02*
X0093142Y0092824D01*
X0092894Y0093422D02*
X0104357Y0093422D01*
X0104956Y0094021D02*
X0092456Y0094021D01*
X0091857Y0094619D02*
X0105554Y0094619D01*
X0106153Y0095218D02*
X0091259Y0095218D01*
X0090660Y0095816D02*
X0106751Y0095816D01*
X0107350Y0096415D02*
X0090062Y0096415D01*
X0089463Y0097013D02*
X0107948Y0097013D01*
X0108547Y0097612D02*
X0088865Y0097612D01*
X0088266Y0098210D02*
X0109145Y0098210D01*
X0109744Y0098809D02*
X0087668Y0098809D01*
X0087069Y0099407D02*
X0110342Y0099407D01*
X0110941Y0100006D02*
X0086471Y0100006D01*
X0085872Y0100604D02*
X0111539Y0100604D01*
X0112138Y0101203D02*
X0085274Y0101203D01*
X0084675Y0101801D02*
X0112736Y0101801D01*
X0113335Y0102400D02*
X0084077Y0102400D01*
X0084015Y0102998D02*
X0113933Y0102998D01*
X0114532Y0103597D02*
X0084263Y0103597D01*
X0084511Y0104195D02*
X0115130Y0104195D01*
X0115729Y0104794D02*
X0084742Y0104794D01*
X0084742Y0105392D02*
X0116327Y0105392D01*
X0116926Y0105991D02*
X0084742Y0105991D01*
X0084742Y0106589D02*
X0117524Y0106589D01*
X0118098Y0107188D02*
X0118123Y0107188D01*
X0119644Y0108983D02*
X0119918Y0108983D01*
X0119794Y0109582D02*
X0120517Y0109582D01*
X0121116Y0110180D02*
X0119794Y0110180D01*
X0119710Y0110779D02*
X0121714Y0110779D01*
X0122313Y0111377D02*
X0119463Y0111377D01*
X0119063Y0111976D02*
X0122911Y0111976D01*
X0123510Y0112574D02*
X0118465Y0112574D01*
X0116169Y0113173D02*
X0124108Y0113173D01*
X0124707Y0113772D02*
X0115571Y0113772D01*
X0114972Y0114370D02*
X0125305Y0114370D01*
X0125904Y0114969D02*
X0114374Y0114969D01*
X0113775Y0115567D02*
X0126502Y0115567D01*
X0127101Y0116166D02*
X0113177Y0116166D01*
X0112578Y0116764D02*
X0127699Y0116764D01*
X0128298Y0117363D02*
X0111980Y0117363D01*
X0111381Y0117961D02*
X0128896Y0117961D01*
X0129495Y0118560D02*
X0110782Y0118560D01*
X0110184Y0119158D02*
X0130093Y0119158D01*
X0130692Y0119757D02*
X0109585Y0119757D01*
X0108987Y0120355D02*
X0131290Y0120355D01*
X0131889Y0120954D02*
X0108388Y0120954D01*
X0107790Y0121552D02*
X0132487Y0121552D01*
X0133086Y0122151D02*
X0107191Y0122151D01*
X0106593Y0122749D02*
X0133684Y0122749D01*
X0134283Y0123348D02*
X0105994Y0123348D01*
X0105396Y0123946D02*
X0134881Y0123946D01*
X0135480Y0124545D02*
X0104814Y0124545D01*
X0104814Y0125143D02*
X0136078Y0125143D01*
X0136677Y0125742D02*
X0104814Y0125742D01*
X0104814Y0126340D02*
X0137275Y0126340D01*
X0137874Y0126939D02*
X0104814Y0126939D01*
X0104814Y0127537D02*
X0138472Y0127537D01*
X0139071Y0128136D02*
X0104814Y0128136D01*
X0104814Y0128734D02*
X0139669Y0128734D01*
X0140268Y0129333D02*
X0104814Y0129333D01*
X0104814Y0129931D02*
X0140866Y0129931D01*
X0141465Y0130530D02*
X0104814Y0130530D01*
X0104814Y0131128D02*
X0142063Y0131128D01*
X0142662Y0131727D02*
X0104814Y0131727D01*
X0104814Y0132325D02*
X0143260Y0132325D01*
X0143859Y0132924D02*
X0104814Y0132924D01*
X0104814Y0133522D02*
X0144457Y0133522D01*
X0145056Y0134121D02*
X0104814Y0134121D01*
X0104814Y0134719D02*
X0145654Y0134719D01*
X0146253Y0135318D02*
X0104814Y0135318D01*
X0104814Y0135916D02*
X0126709Y0135916D01*
X0126110Y0136515D02*
X0104814Y0136515D01*
X0104814Y0137113D02*
X0125726Y0137113D01*
X0125478Y0137712D02*
X0104814Y0137712D01*
X0104814Y0138310D02*
X0125405Y0138310D01*
X0125405Y0138909D02*
X0104814Y0138909D01*
X0104814Y0139508D02*
X0125565Y0139508D01*
X0125813Y0140106D02*
X0104814Y0140106D01*
X0104814Y0140705D02*
X0126320Y0140705D01*
X0127160Y0141303D02*
X0104814Y0141303D01*
X0104814Y0141902D02*
X0129215Y0141902D01*
X0129813Y0142500D02*
X0104814Y0142500D01*
X0104814Y0143099D02*
X0130412Y0143099D01*
X0131010Y0143697D02*
X0104814Y0143697D01*
X0104814Y0144296D02*
X0131609Y0144296D01*
X0132207Y0144894D02*
X0104814Y0144894D01*
X0104814Y0145493D02*
X0132806Y0145493D01*
X0133404Y0146091D02*
X0104814Y0146091D01*
X0104814Y0146690D02*
X0134003Y0146690D01*
X0134601Y0147288D02*
X0104814Y0147288D01*
X0104814Y0147887D02*
X0135200Y0147887D01*
X0135798Y0148485D02*
X0104814Y0148485D01*
X0104814Y0149084D02*
X0136397Y0149084D01*
X0136995Y0149682D02*
X0104814Y0149682D01*
X0104814Y0150281D02*
X0137594Y0150281D01*
X0138192Y0150879D02*
X0104814Y0150879D01*
X0104814Y0151478D02*
X0138791Y0151478D01*
X0139389Y0152076D02*
X0104814Y0152076D01*
X0104814Y0152675D02*
X0139988Y0152675D01*
X0140586Y0153273D02*
X0104814Y0153273D01*
X0104814Y0153872D02*
X0141185Y0153872D01*
X0141783Y0154470D02*
X0104814Y0154470D01*
X0104814Y0155069D02*
X0142382Y0155069D01*
X0142980Y0155667D02*
X0104814Y0155667D01*
X0104814Y0156266D02*
X0143579Y0156266D01*
X0144177Y0156864D02*
X0104814Y0156864D01*
X0104814Y0157463D02*
X0144776Y0157463D01*
X0145306Y0158061D02*
X0104814Y0158061D01*
X0104814Y0158660D02*
X0145306Y0158660D01*
X0145306Y0159258D02*
X0104814Y0159258D01*
X0104814Y0159857D02*
X0145306Y0159857D01*
X0145306Y0160455D02*
X0104814Y0160455D01*
X0104814Y0161054D02*
X0145306Y0161054D01*
X0145306Y0161652D02*
X0104814Y0161652D01*
X0104814Y0162251D02*
X0145306Y0162251D01*
X0145306Y0162849D02*
X0104814Y0162849D01*
X0104814Y0163448D02*
X0145306Y0163448D01*
X0145306Y0164046D02*
X0104814Y0164046D01*
X0104814Y0164645D02*
X0145306Y0164645D01*
X0145306Y0165243D02*
X0130857Y0165243D01*
X0131245Y0165404D02*
X0132117Y0166276D01*
X0132589Y0167416D01*
X0132589Y0168445D01*
X0135966Y0171822D01*
X0136995Y0171822D01*
X0138135Y0172294D01*
X0139007Y0173166D01*
X0139479Y0174305D01*
X0139479Y0175539D01*
X0139007Y0176678D01*
X0138135Y0177550D01*
X0136995Y0178022D01*
X0135762Y0178022D01*
X0134623Y0177550D01*
X0133751Y0176678D01*
X0133279Y0175539D01*
X0133279Y0174509D01*
X0129902Y0171132D01*
X0128872Y0171132D01*
X0127733Y0170660D01*
X0126861Y0169788D01*
X0126389Y0168649D01*
X0126389Y0167416D01*
X0126861Y0166276D01*
X0127733Y0165404D01*
X0128872Y0164932D01*
X0130106Y0164932D01*
X0131245Y0165404D01*
X0131683Y0165842D02*
X0145306Y0165842D01*
X0145306Y0166441D02*
X0132185Y0166441D01*
X0132433Y0167039D02*
X0145306Y0167039D01*
X0145306Y0167638D02*
X0132589Y0167638D01*
X0132589Y0168236D02*
X0145306Y0168236D01*
X0145306Y0168835D02*
X0132978Y0168835D01*
X0133577Y0169433D02*
X0145306Y0169433D01*
X0145306Y0170032D02*
X0134175Y0170032D01*
X0134774Y0170630D02*
X0145306Y0170630D01*
X0145306Y0171229D02*
X0135372Y0171229D01*
X0137008Y0171827D02*
X0145306Y0171827D01*
X0145306Y0172426D02*
X0138266Y0172426D01*
X0138865Y0173024D02*
X0145573Y0173024D01*
X0146172Y0173623D02*
X0139196Y0173623D01*
X0139444Y0174221D02*
X0146770Y0174221D01*
X0147369Y0174820D02*
X0139479Y0174820D01*
X0139479Y0175418D02*
X0147967Y0175418D01*
X0148566Y0176017D02*
X0139281Y0176017D01*
X0139033Y0176615D02*
X0149164Y0176615D01*
X0149763Y0177214D02*
X0138471Y0177214D01*
X0137502Y0177812D02*
X0150361Y0177812D01*
X0150960Y0178411D02*
X0107834Y0178411D01*
X0108433Y0179009D02*
X0151558Y0179009D01*
X0152157Y0179608D02*
X0108717Y0179608D01*
X0108965Y0180206D02*
X0152755Y0180206D01*
X0153354Y0180805D02*
X0108967Y0180805D01*
X0108967Y0181403D02*
X0153953Y0181403D01*
X0161495Y0177812D02*
X0186644Y0177812D01*
X0186644Y0177214D02*
X0161830Y0177214D01*
X0162078Y0176615D02*
X0186644Y0176615D01*
X0186644Y0176017D02*
X0162117Y0176017D01*
X0162117Y0175418D02*
X0186644Y0175418D01*
X0186644Y0174820D02*
X0161922Y0174820D01*
X0161674Y0174221D02*
X0186644Y0174221D01*
X0186644Y0173623D02*
X0161117Y0173623D01*
X0160915Y0167039D02*
X0163022Y0167039D01*
X0163022Y0166441D02*
X0160915Y0166441D01*
X0160915Y0165842D02*
X0163022Y0165842D01*
X0163022Y0165243D02*
X0160523Y0165243D01*
X0163022Y0164645D02*
X0152058Y0164645D01*
X0152058Y0165243D02*
X0152707Y0165243D01*
X0152315Y0165842D02*
X0152058Y0165842D01*
X0152058Y0166441D02*
X0152315Y0166441D01*
X0152315Y0167039D02*
X0152058Y0167039D01*
X0152058Y0167638D02*
X0152315Y0167638D01*
X0152315Y0168236D02*
X0152058Y0168236D01*
X0152058Y0168835D02*
X0152315Y0168835D01*
X0152315Y0169433D02*
X0152058Y0169433D01*
X0152058Y0170032D02*
X0152315Y0170032D01*
X0152058Y0164046D02*
X0163022Y0164046D01*
X0163022Y0163448D02*
X0152058Y0163448D01*
X0152058Y0162849D02*
X0163022Y0162849D01*
X0163022Y0162251D02*
X0152058Y0162251D01*
X0152058Y0161652D02*
X0163022Y0161652D01*
X0163022Y0161054D02*
X0152058Y0161054D01*
X0152058Y0160455D02*
X0163022Y0160455D01*
X0163022Y0159857D02*
X0152058Y0159857D01*
X0152058Y0159258D02*
X0163135Y0159258D01*
X0163733Y0158660D02*
X0152058Y0158660D01*
X0152058Y0158061D02*
X0164332Y0158061D01*
X0164930Y0157463D02*
X0152058Y0157463D01*
X0152058Y0156864D02*
X0165529Y0156864D01*
X0166127Y0156266D02*
X0152058Y0156266D01*
X0152058Y0155667D02*
X0166726Y0155667D01*
X0167325Y0155069D02*
X0152058Y0155069D01*
X0152058Y0154470D02*
X0167923Y0154470D01*
X0168522Y0153872D02*
X0152058Y0153872D01*
X0152058Y0153273D02*
X0169120Y0153273D01*
X0169719Y0152675D02*
X0152058Y0152675D01*
X0152058Y0152076D02*
X0170317Y0152076D01*
X0170916Y0151478D02*
X0152058Y0151478D01*
X0152058Y0150879D02*
X0171514Y0150879D01*
X0171665Y0150281D02*
X0152058Y0150281D01*
X0152058Y0149682D02*
X0171672Y0149682D01*
X0171919Y0149084D02*
X0152058Y0149084D01*
X0152058Y0148485D02*
X0172211Y0148485D01*
X0172810Y0147887D02*
X0152058Y0147887D01*
X0152058Y0147288D02*
X0173973Y0147288D01*
X0173015Y0146592D02*
X0171396Y0146592D01*
X0169899Y0145972D01*
X0168754Y0144827D01*
X0168134Y0143330D01*
X0168134Y0141711D01*
X0168754Y0140214D01*
X0169899Y0139069D01*
X0169912Y0139063D01*
X0169912Y0133115D01*
X0169184Y0132387D01*
X0168712Y0131247D01*
X0168712Y0130014D01*
X0169184Y0128875D01*
X0170056Y0128003D01*
X0171195Y0127531D01*
X0172428Y0127531D01*
X0173568Y0128003D01*
X0174440Y0128875D01*
X0174912Y0130014D01*
X0174912Y0131247D01*
X0174440Y0132387D01*
X0173712Y0133115D01*
X0173712Y0138737D01*
X0174512Y0139069D01*
X0175657Y0140214D01*
X0176277Y0141711D01*
X0176277Y0143330D01*
X0175657Y0144827D01*
X0174512Y0145972D01*
X0173015Y0146592D01*
X0174225Y0146091D02*
X0176802Y0146091D01*
X0176802Y0145493D02*
X0174992Y0145493D01*
X0175590Y0144894D02*
X0176802Y0144894D01*
X0176802Y0144296D02*
X0175877Y0144296D01*
X0176125Y0143697D02*
X0176802Y0143697D01*
X0176802Y0143099D02*
X0176277Y0143099D01*
X0176277Y0142500D02*
X0176802Y0142500D01*
X0176802Y0141902D02*
X0176277Y0141902D01*
X0176108Y0141303D02*
X0176802Y0141303D01*
X0176802Y0140705D02*
X0175860Y0140705D01*
X0175549Y0140106D02*
X0176802Y0140106D01*
X0176802Y0139508D02*
X0174951Y0139508D01*
X0174126Y0138909D02*
X0176802Y0138909D01*
X0176802Y0138310D02*
X0173712Y0138310D01*
X0173712Y0137712D02*
X0176802Y0137712D01*
X0176802Y0137113D02*
X0173712Y0137113D01*
X0173712Y0136515D02*
X0177020Y0136515D01*
X0177619Y0135916D02*
X0173712Y0135916D01*
X0173712Y0135318D02*
X0178217Y0135318D01*
X0178816Y0134719D02*
X0173712Y0134719D01*
X0173712Y0134121D02*
X0179414Y0134121D01*
X0180013Y0133522D02*
X0173712Y0133522D01*
X0173903Y0132924D02*
X0180611Y0132924D01*
X0181210Y0132325D02*
X0174465Y0132325D01*
X0174713Y0131727D02*
X0181808Y0131727D01*
X0182407Y0131128D02*
X0174912Y0131128D01*
X0174912Y0130530D02*
X0183005Y0130530D01*
X0183604Y0129931D02*
X0174878Y0129931D01*
X0174630Y0129333D02*
X0184202Y0129333D01*
X0184801Y0128734D02*
X0174299Y0128734D01*
X0173701Y0128136D02*
X0185399Y0128136D01*
X0185998Y0127537D02*
X0172444Y0127537D01*
X0171179Y0127537D02*
X0143846Y0127537D01*
X0143248Y0126939D02*
X0186596Y0126939D01*
X0187195Y0126340D02*
X0142649Y0126340D01*
X0142051Y0125742D02*
X0187793Y0125742D01*
X0188392Y0125143D02*
X0141452Y0125143D01*
X0140854Y0124545D02*
X0188990Y0124545D01*
X0189589Y0123946D02*
X0140255Y0123946D01*
X0139657Y0123348D02*
X0190187Y0123348D01*
X0190786Y0122749D02*
X0139058Y0122749D01*
X0138460Y0122151D02*
X0191384Y0122151D01*
X0191983Y0121552D02*
X0137861Y0121552D01*
X0137263Y0120954D02*
X0192581Y0120954D01*
X0193180Y0120355D02*
X0136664Y0120355D01*
X0136066Y0119757D02*
X0193778Y0119757D01*
X0199008Y0107786D02*
X0173282Y0107786D01*
X0174048Y0107188D02*
X0199008Y0107188D01*
X0199008Y0106589D02*
X0174526Y0106589D01*
X0174773Y0105991D02*
X0199008Y0105991D01*
X0199008Y0105392D02*
X0174912Y0105392D01*
X0174912Y0104794D02*
X0199008Y0104794D01*
X0199008Y0104195D02*
X0175344Y0104195D01*
X0175942Y0103597D02*
X0199008Y0103597D01*
X0199008Y0102998D02*
X0176541Y0102998D01*
X0177139Y0102400D02*
X0199008Y0102400D01*
X0199008Y0101801D02*
X0177738Y0101801D01*
X0178336Y0101203D02*
X0199008Y0101203D01*
X0199008Y0100604D02*
X0178935Y0100604D01*
X0179533Y0100006D02*
X0199008Y0100006D01*
X0199008Y0099407D02*
X0180132Y0099407D01*
X0180730Y0098809D02*
X0199008Y0098809D01*
X0199008Y0098210D02*
X0181329Y0098210D01*
X0181927Y0097612D02*
X0199008Y0097612D01*
X0199008Y0097013D02*
X0182526Y0097013D01*
X0183124Y0096415D02*
X0199008Y0096415D01*
X0199008Y0095816D02*
X0183723Y0095816D01*
X0184321Y0095218D02*
X0199008Y0095218D01*
X0199008Y0094619D02*
X0184920Y0094619D01*
X0185518Y0094021D02*
X0199008Y0094021D01*
X0199008Y0093422D02*
X0186117Y0093422D01*
X0186715Y0092824D02*
X0199008Y0092824D01*
X0199008Y0092225D02*
X0187314Y0092225D01*
X0187912Y0091627D02*
X0199008Y0091627D01*
X0199008Y0091028D02*
X0188511Y0091028D01*
X0189109Y0090430D02*
X0199008Y0090430D01*
X0199008Y0089831D02*
X0189708Y0089831D01*
X0190306Y0089233D02*
X0199008Y0089233D01*
X0199008Y0088634D02*
X0190905Y0088634D01*
X0191503Y0088036D02*
X0199008Y0088036D01*
X0199008Y0087437D02*
X0192102Y0087437D01*
X0192700Y0086839D02*
X0199008Y0086839D01*
X0199008Y0086240D02*
X0193299Y0086240D01*
X0193897Y0085641D02*
X0199008Y0085641D01*
X0199008Y0085043D02*
X0194496Y0085043D01*
X0195094Y0084444D02*
X0199008Y0084444D01*
X0199008Y0083846D02*
X0195693Y0083846D01*
X0197726Y0083247D02*
X0199008Y0083247D01*
X0199008Y0082649D02*
X0198587Y0082649D01*
X0193312Y0080853D02*
X0170206Y0080853D01*
X0170206Y0080255D02*
X0193318Y0080255D01*
X0193385Y0079656D02*
X0170206Y0079656D01*
X0170206Y0079058D02*
X0193633Y0079058D01*
X0194009Y0078459D02*
X0170206Y0078459D01*
X0170206Y0077861D02*
X0194607Y0077861D01*
X0195425Y0076664D02*
X0170206Y0076664D01*
X0170206Y0077262D02*
X0196024Y0077262D01*
X0194432Y0076065D02*
X0178168Y0076065D01*
X0179613Y0075467D02*
X0192987Y0075467D01*
X0191919Y0074868D02*
X0180681Y0074868D01*
X0181279Y0074270D02*
X0191321Y0074270D01*
X0190722Y0073671D02*
X0181878Y0073671D01*
X0182419Y0073073D02*
X0190181Y0073073D01*
X0189933Y0072474D02*
X0182667Y0072474D01*
X0182915Y0071876D02*
X0189685Y0071876D01*
X0189437Y0071277D02*
X0183163Y0071277D01*
X0183411Y0070679D02*
X0189189Y0070679D01*
X0189157Y0070080D02*
X0183443Y0070080D01*
X0183443Y0069482D02*
X0189157Y0069482D01*
X0189157Y0068883D02*
X0183443Y0068883D01*
X0183443Y0068285D02*
X0189157Y0068285D01*
X0189157Y0067686D02*
X0183443Y0067686D01*
X0183443Y0067088D02*
X0189157Y0067088D01*
X0189157Y0066489D02*
X0183443Y0066489D01*
X0183443Y0065891D02*
X0189157Y0065891D01*
X0189157Y0065292D02*
X0183443Y0065292D01*
X0183443Y0064694D02*
X0189157Y0064694D01*
X0189157Y0064095D02*
X0183443Y0064095D01*
X0183443Y0063497D02*
X0189157Y0063497D01*
X0189157Y0062898D02*
X0183443Y0062898D01*
X0183443Y0062300D02*
X0189157Y0062300D01*
X0189157Y0061701D02*
X0183443Y0061701D01*
X0183443Y0061103D02*
X0189157Y0061103D01*
X0189157Y0060504D02*
X0183443Y0060504D01*
X0183443Y0059905D02*
X0189157Y0059905D01*
X0189157Y0059307D02*
X0183443Y0059307D01*
X0183443Y0058708D02*
X0189157Y0058708D01*
X0189300Y0058110D02*
X0183300Y0058110D01*
X0183052Y0057511D02*
X0189548Y0057511D01*
X0189796Y0056913D02*
X0182804Y0056913D01*
X0182556Y0056314D02*
X0190044Y0056314D01*
X0190392Y0055716D02*
X0182208Y0055716D01*
X0181610Y0055117D02*
X0190990Y0055117D01*
X0191589Y0054519D02*
X0181011Y0054519D01*
X0180411Y0053920D02*
X0192189Y0053920D01*
X0193634Y0053322D02*
X0178966Y0053322D01*
X0195319Y0046140D02*
X0082327Y0046140D01*
X0081654Y0046738D02*
X0196039Y0046738D01*
X0196759Y0047337D02*
X0080982Y0047337D01*
X0068852Y0061103D02*
X0102385Y0061103D01*
X0101786Y0061701D02*
X0068407Y0061701D01*
X0067961Y0062300D02*
X0101188Y0062300D01*
X0100589Y0062898D02*
X0067516Y0062898D01*
X0067070Y0063497D02*
X0099991Y0063497D01*
X0099392Y0064095D02*
X0066625Y0064095D01*
X0066181Y0064694D02*
X0098794Y0064694D01*
X0098195Y0065292D02*
X0065836Y0065292D01*
X0065490Y0065891D02*
X0097597Y0065891D01*
X0096998Y0066489D02*
X0065145Y0066489D01*
X0064799Y0067088D02*
X0096400Y0067088D01*
X0095801Y0067686D02*
X0064454Y0067686D01*
X0064108Y0068285D02*
X0095203Y0068285D01*
X0094604Y0068883D02*
X0063762Y0068883D01*
X0063417Y0069482D02*
X0094006Y0069482D01*
X0093407Y0070080D02*
X0063071Y0070080D01*
X0062726Y0070679D02*
X0071444Y0070679D01*
X0070557Y0071277D02*
X0062380Y0071277D01*
X0062035Y0071876D02*
X0069958Y0071876D01*
X0069583Y0072474D02*
X0061689Y0072474D01*
X0061344Y0073073D02*
X0069335Y0073073D01*
X0069087Y0073671D02*
X0060998Y0073671D01*
X0060689Y0074270D02*
X0069087Y0074270D01*
X0069087Y0074868D02*
X0060431Y0074868D01*
X0060173Y0075467D02*
X0069087Y0075467D01*
X0069087Y0076065D02*
X0059914Y0076065D01*
X0059656Y0076664D02*
X0069087Y0076664D01*
X0069087Y0077262D02*
X0059398Y0077262D01*
X0059140Y0077861D02*
X0069087Y0077861D01*
X0069087Y0078459D02*
X0058882Y0078459D01*
X0058623Y0079058D02*
X0069087Y0079058D01*
X0066553Y0079656D02*
X0058365Y0079656D01*
X0058107Y0080255D02*
X0065108Y0080255D01*
X0064112Y0080853D02*
X0057849Y0080853D01*
X0057591Y0081452D02*
X0063514Y0081452D01*
X0062915Y0082050D02*
X0057333Y0082050D01*
X0057074Y0082649D02*
X0062404Y0082649D01*
X0062156Y0083247D02*
X0056816Y0083247D01*
X0056558Y0083846D02*
X0061908Y0083846D01*
X0061660Y0084444D02*
X0056368Y0084444D01*
X0056189Y0085043D02*
X0061412Y0085043D01*
X0061402Y0085641D02*
X0056010Y0085641D01*
X0055831Y0086240D02*
X0061402Y0086240D01*
X0061402Y0086839D02*
X0055652Y0086839D01*
X0055473Y0087437D02*
X0061402Y0087437D01*
X0061480Y0088036D02*
X0055293Y0088036D01*
X0055114Y0088634D02*
X0061728Y0088634D01*
X0061976Y0089233D02*
X0054935Y0089233D01*
X0054756Y0089831D02*
X0062223Y0089831D01*
X0062480Y0090430D02*
X0054577Y0090430D01*
X0054397Y0091028D02*
X0063079Y0091028D01*
X0063677Y0091627D02*
X0054218Y0091627D01*
X0054039Y0092225D02*
X0064276Y0092225D01*
X0065503Y0092824D02*
X0053860Y0092824D01*
X0053681Y0093422D02*
X0066948Y0093422D01*
X0066394Y0099407D02*
X0052522Y0099407D01*
X0052628Y0098809D02*
X0075505Y0098809D01*
X0076104Y0098210D02*
X0052733Y0098210D01*
X0052839Y0097612D02*
X0076702Y0097612D01*
X0077301Y0097013D02*
X0052944Y0097013D01*
X0053050Y0096415D02*
X0077899Y0096415D01*
X0078498Y0095816D02*
X0053156Y0095816D01*
X0053261Y0095218D02*
X0079096Y0095218D01*
X0079695Y0094619D02*
X0053367Y0094619D01*
X0053501Y0094021D02*
X0080294Y0094021D01*
X0080892Y0093422D02*
X0079195Y0093422D01*
X0080640Y0092824D02*
X0081491Y0092824D01*
X0081867Y0092225D02*
X0082089Y0092225D01*
X0082466Y0091627D02*
X0082688Y0091627D01*
X0083064Y0091028D02*
X0083286Y0091028D01*
X0083663Y0090430D02*
X0083885Y0090430D01*
X0083920Y0089831D02*
X0084483Y0089831D01*
X0084168Y0089233D02*
X0084835Y0089233D01*
X0084835Y0088634D02*
X0084416Y0088634D01*
X0084664Y0088036D02*
X0084835Y0088036D01*
X0084835Y0087437D02*
X0084742Y0087437D01*
X0084742Y0086839D02*
X0084835Y0086839D01*
X0084835Y0086240D02*
X0084742Y0086240D01*
X0084742Y0085641D02*
X0084835Y0085641D01*
X0084835Y0085043D02*
X0084731Y0085043D01*
X0084835Y0084444D02*
X0084483Y0084444D01*
X0084235Y0083846D02*
X0084835Y0083846D01*
X0084835Y0083247D02*
X0083988Y0083247D01*
X0083740Y0082649D02*
X0084835Y0082649D01*
X0084835Y0082050D02*
X0083228Y0082050D01*
X0082629Y0081452D02*
X0084874Y0081452D01*
X0085122Y0080853D02*
X0082031Y0080853D01*
X0081035Y0080255D02*
X0085370Y0080255D01*
X0085800Y0079656D02*
X0079590Y0079656D01*
X0077687Y0079058D02*
X0086398Y0079058D01*
X0064949Y0100006D02*
X0052417Y0100006D01*
X0052311Y0100604D02*
X0064047Y0100604D01*
X0063448Y0101203D02*
X0052206Y0101203D01*
X0052100Y0101801D02*
X0062849Y0101801D01*
X0062376Y0102400D02*
X0051995Y0102400D01*
X0051889Y0102998D02*
X0062128Y0102998D01*
X0061881Y0103597D02*
X0051784Y0103597D01*
X0051678Y0104195D02*
X0061633Y0104195D01*
X0061402Y0104794D02*
X0051573Y0104794D01*
X0051527Y0105392D02*
X0061402Y0105392D01*
X0061402Y0105991D02*
X0051492Y0105991D01*
X0051458Y0106589D02*
X0061402Y0106589D01*
X0061402Y0107188D02*
X0051423Y0107188D01*
X0051388Y0107786D02*
X0061507Y0107786D01*
X0061755Y0108385D02*
X0051353Y0108385D01*
X0051318Y0108983D02*
X0062003Y0108983D01*
X0062251Y0109582D02*
X0051283Y0109582D01*
X0051248Y0110180D02*
X0062546Y0110180D01*
X0063145Y0110779D02*
X0051214Y0110779D01*
X0051179Y0111377D02*
X0063743Y0111377D01*
X0064342Y0111976D02*
X0051144Y0111976D01*
X0051109Y0112574D02*
X0065662Y0112574D01*
X0066985Y0120620D02*
X0066089Y0120911D01*
X0065250Y0121339D01*
X0064488Y0121892D01*
X0063821Y0122558D01*
X0063268Y0123321D01*
X0062840Y0124160D01*
X0062549Y0125056D01*
X0062402Y0125986D01*
X0062402Y0126157D01*
X0072772Y0126157D01*
X0073372Y0126157D01*
X0073372Y0126757D01*
X0083742Y0126757D01*
X0083742Y0126929D01*
X0083594Y0127859D01*
X0083303Y0128755D01*
X0082876Y0129594D01*
X0082322Y0130356D01*
X0081656Y0131023D01*
X0080894Y0131576D01*
X0080054Y0132004D01*
X0079158Y0132295D01*
X0078228Y0132443D01*
X0073372Y0132443D01*
X0073372Y0126758D01*
X0072772Y0126758D01*
X0072772Y0132443D01*
X0067916Y0132443D01*
X0066985Y0132295D01*
X0066089Y0132004D01*
X0065250Y0131576D01*
X0064488Y0131023D01*
X0063821Y0130356D01*
X0063268Y0129594D01*
X0062840Y0128755D01*
X0062549Y0127859D01*
X0062402Y0126929D01*
X0062402Y0126757D01*
X0072772Y0126757D01*
X0072772Y0126157D01*
X0072772Y0120472D01*
X0067916Y0120472D01*
X0066985Y0120620D01*
X0066005Y0120954D02*
X0051239Y0120954D01*
X0051274Y0121552D02*
X0064956Y0121552D01*
X0064229Y0122151D02*
X0051308Y0122151D01*
X0051343Y0122749D02*
X0063683Y0122749D01*
X0063254Y0123348D02*
X0051378Y0123348D01*
X0051413Y0123946D02*
X0062949Y0123946D01*
X0062715Y0124545D02*
X0051448Y0124545D01*
X0051483Y0125143D02*
X0062535Y0125143D01*
X0062440Y0125742D02*
X0051518Y0125742D01*
X0051552Y0126340D02*
X0072772Y0126340D01*
X0072772Y0125742D02*
X0073372Y0125742D01*
X0073372Y0126157D02*
X0073372Y0120472D01*
X0078228Y0120472D01*
X0079158Y0120620D01*
X0080054Y0120911D01*
X0080894Y0121339D01*
X0081656Y0121892D01*
X0082322Y0122558D01*
X0082876Y0123321D01*
X0083303Y0124160D01*
X0083594Y0125056D01*
X0083742Y0125986D01*
X0083742Y0126157D01*
X0073372Y0126157D01*
X0073372Y0126340D02*
X0089754Y0126340D01*
X0090352Y0125742D02*
X0083703Y0125742D01*
X0083608Y0125143D02*
X0090951Y0125143D01*
X0091549Y0124545D02*
X0083428Y0124545D01*
X0083194Y0123946D02*
X0092148Y0123946D01*
X0092746Y0123348D02*
X0082889Y0123348D01*
X0082460Y0122749D02*
X0093345Y0122749D01*
X0093943Y0122151D02*
X0081914Y0122151D01*
X0081187Y0121552D02*
X0094542Y0121552D01*
X0095140Y0120954D02*
X0080138Y0120954D01*
X0083740Y0126939D02*
X0089155Y0126939D01*
X0088557Y0127537D02*
X0083645Y0127537D01*
X0083504Y0128136D02*
X0087958Y0128136D01*
X0087360Y0128734D02*
X0083310Y0128734D01*
X0083009Y0129333D02*
X0086761Y0129333D01*
X0086163Y0129931D02*
X0082631Y0129931D01*
X0082148Y0130530D02*
X0085564Y0130530D01*
X0084966Y0131128D02*
X0081510Y0131128D01*
X0080598Y0131727D02*
X0084367Y0131727D01*
X0083769Y0132325D02*
X0078967Y0132325D01*
X0081375Y0134719D02*
X0053021Y0134719D01*
X0052915Y0134121D02*
X0081973Y0134121D01*
X0082572Y0133522D02*
X0052810Y0133522D01*
X0052704Y0132924D02*
X0083170Y0132924D01*
X0080776Y0135318D02*
X0053126Y0135318D01*
X0053232Y0135916D02*
X0080178Y0135916D01*
X0079579Y0136515D02*
X0053337Y0136515D01*
X0053452Y0137113D02*
X0078981Y0137113D01*
X0078382Y0137712D02*
X0053631Y0137712D01*
X0053810Y0138310D02*
X0077784Y0138310D01*
X0077185Y0138909D02*
X0053989Y0138909D01*
X0054168Y0139508D02*
X0076587Y0139508D01*
X0075988Y0140106D02*
X0054347Y0140106D01*
X0054527Y0140705D02*
X0065875Y0140705D01*
X0064996Y0141069D02*
X0067196Y0140157D01*
X0075937Y0140157D01*
X0103751Y0112343D01*
X0103751Y0111313D01*
X0104223Y0110174D01*
X0105095Y0109302D01*
X0106235Y0108830D01*
X0107468Y0108830D01*
X0108607Y0109302D01*
X0109479Y0110174D01*
X0109951Y0111313D01*
X0109951Y0112547D01*
X0109479Y0113686D01*
X0108607Y0114558D01*
X0107468Y0115030D01*
X0106438Y0115030D01*
X0080618Y0140850D01*
X0081147Y0141069D01*
X0082831Y0142752D01*
X0083742Y0144952D01*
X0083742Y0147333D01*
X0082831Y0149533D01*
X0081147Y0151216D01*
X0078947Y0152128D01*
X0067196Y0152128D01*
X0064996Y0151216D01*
X0063313Y0149533D01*
X0062402Y0147333D01*
X0062402Y0144952D01*
X0063313Y0142752D01*
X0064996Y0141069D01*
X0064762Y0141303D02*
X0054706Y0141303D01*
X0054885Y0141902D02*
X0064163Y0141902D01*
X0063565Y0142500D02*
X0055064Y0142500D01*
X0055243Y0143099D02*
X0063169Y0143099D01*
X0062921Y0143697D02*
X0055423Y0143697D01*
X0055602Y0144296D02*
X0062673Y0144296D01*
X0062426Y0144894D02*
X0055781Y0144894D01*
X0055960Y0145493D02*
X0062402Y0145493D01*
X0062402Y0146091D02*
X0056139Y0146091D01*
X0056319Y0146690D02*
X0062402Y0146690D01*
X0062402Y0147288D02*
X0056498Y0147288D01*
X0056744Y0147887D02*
X0062631Y0147887D01*
X0062879Y0148485D02*
X0057003Y0148485D01*
X0057261Y0149084D02*
X0063127Y0149084D01*
X0063462Y0149682D02*
X0057519Y0149682D01*
X0057777Y0150281D02*
X0064061Y0150281D01*
X0064659Y0150879D02*
X0058035Y0150879D01*
X0058293Y0151478D02*
X0065627Y0151478D01*
X0067072Y0152076D02*
X0058552Y0152076D01*
X0058810Y0152675D02*
X0101014Y0152675D01*
X0101014Y0153273D02*
X0059068Y0153273D01*
X0059326Y0153872D02*
X0101014Y0153872D01*
X0101014Y0154470D02*
X0059584Y0154470D01*
X0059842Y0155069D02*
X0101014Y0155069D01*
X0101014Y0155667D02*
X0060101Y0155667D01*
X0060359Y0156266D02*
X0101014Y0156266D01*
X0101014Y0156864D02*
X0083608Y0156864D01*
X0083921Y0157024D02*
X0084557Y0157486D01*
X0085114Y0158043D01*
X0085576Y0158679D01*
X0085934Y0159381D01*
X0086177Y0160129D01*
X0086300Y0160906D01*
X0086300Y0161000D01*
X0081600Y0161000D01*
X0081600Y0161600D01*
X0081000Y0161600D01*
X0081000Y0166300D01*
X0080906Y0166300D01*
X0080129Y0166177D01*
X0079381Y0165934D01*
X0078679Y0165576D01*
X0078043Y0165114D01*
X0077486Y0164557D01*
X0077024Y0163921D01*
X0076666Y0163219D01*
X0076423Y0162471D01*
X0076300Y0161694D01*
X0076300Y0161600D01*
X0081000Y0161600D01*
X0081000Y0161000D01*
X0076300Y0161000D01*
X0076300Y0160906D01*
X0076423Y0160129D01*
X0076666Y0159381D01*
X0077024Y0158679D01*
X0077486Y0158043D01*
X0078043Y0157486D01*
X0078679Y0157024D01*
X0079381Y0156666D01*
X0080129Y0156423D01*
X0080906Y0156300D01*
X0081000Y0156300D01*
X0081000Y0161000D01*
X0081600Y0161000D01*
X0081600Y0156300D01*
X0081694Y0156300D01*
X0082471Y0156423D01*
X0083219Y0156666D01*
X0083921Y0157024D01*
X0084525Y0157463D02*
X0101014Y0157463D01*
X0101014Y0158061D02*
X0085127Y0158061D01*
X0085562Y0158660D02*
X0101014Y0158660D01*
X0101014Y0159258D02*
X0085871Y0159258D01*
X0086088Y0159857D02*
X0101014Y0159857D01*
X0101014Y0160455D02*
X0086229Y0160455D01*
X0086300Y0161600D02*
X0086300Y0161694D01*
X0086177Y0162471D01*
X0085934Y0163219D01*
X0085576Y0163921D01*
X0085114Y0164557D01*
X0084557Y0165114D01*
X0083921Y0165576D01*
X0083219Y0165934D01*
X0082471Y0166177D01*
X0081694Y0166300D01*
X0081600Y0166300D01*
X0081600Y0161600D01*
X0086300Y0161600D01*
X0086300Y0161652D02*
X0101014Y0161652D01*
X0101014Y0161054D02*
X0081600Y0161054D01*
X0081600Y0161652D02*
X0081000Y0161652D01*
X0081000Y0161054D02*
X0062975Y0161054D01*
X0063321Y0161652D02*
X0076300Y0161652D01*
X0076388Y0162251D02*
X0063666Y0162251D01*
X0064012Y0162849D02*
X0076546Y0162849D01*
X0076783Y0163448D02*
X0064357Y0163448D01*
X0064703Y0164046D02*
X0077115Y0164046D01*
X0077574Y0164645D02*
X0065048Y0164645D01*
X0065394Y0165243D02*
X0078221Y0165243D01*
X0079201Y0165842D02*
X0065740Y0165842D01*
X0066085Y0166441D02*
X0079966Y0166441D01*
X0081000Y0165842D02*
X0081600Y0165842D01*
X0081600Y0165243D02*
X0081000Y0165243D01*
X0081000Y0164645D02*
X0081600Y0164645D01*
X0081600Y0164046D02*
X0081000Y0164046D01*
X0081000Y0163448D02*
X0081600Y0163448D01*
X0081600Y0162849D02*
X0081000Y0162849D01*
X0081000Y0162251D02*
X0081600Y0162251D01*
X0081600Y0160455D02*
X0081000Y0160455D01*
X0081000Y0159857D02*
X0081600Y0159857D01*
X0081600Y0159258D02*
X0081000Y0159258D01*
X0081000Y0158660D02*
X0081600Y0158660D01*
X0081600Y0158061D02*
X0081000Y0158061D01*
X0081000Y0157463D02*
X0081600Y0157463D01*
X0081600Y0156864D02*
X0081000Y0156864D01*
X0078992Y0156864D02*
X0060617Y0156864D01*
X0060902Y0157463D02*
X0078075Y0157463D01*
X0077473Y0158061D02*
X0061247Y0158061D01*
X0061593Y0158660D02*
X0077038Y0158660D01*
X0076729Y0159258D02*
X0061938Y0159258D01*
X0062284Y0159857D02*
X0076512Y0159857D01*
X0076371Y0160455D02*
X0062630Y0160455D01*
X0066500Y0167039D02*
X0078521Y0167039D01*
X0077891Y0167638D02*
X0066946Y0167638D01*
X0067392Y0168236D02*
X0077293Y0168236D01*
X0076909Y0168835D02*
X0067837Y0168835D01*
X0068283Y0169433D02*
X0076661Y0169433D01*
X0076413Y0170032D02*
X0068728Y0170032D01*
X0069174Y0170630D02*
X0076300Y0170630D01*
X0076300Y0171229D02*
X0069619Y0171229D01*
X0070065Y0171827D02*
X0076300Y0171827D01*
X0076354Y0172426D02*
X0070511Y0172426D01*
X0070956Y0173024D02*
X0076602Y0173024D01*
X0076850Y0173623D02*
X0071402Y0173623D01*
X0071847Y0174221D02*
X0077150Y0174221D01*
X0077749Y0174820D02*
X0072293Y0174820D01*
X0072767Y0175418D02*
X0078347Y0175418D01*
X0079622Y0176017D02*
X0073332Y0176017D01*
X0073897Y0176615D02*
X0079544Y0176615D01*
X0078315Y0177214D02*
X0074461Y0177214D01*
X0075026Y0177812D02*
X0077717Y0177812D01*
X0077118Y0178411D02*
X0075591Y0178411D01*
X0076155Y0179009D02*
X0076837Y0179009D01*
X0083056Y0176615D02*
X0084282Y0176615D01*
X0084282Y0176017D02*
X0082978Y0176017D01*
X0084285Y0177214D02*
X0084802Y0177214D01*
X0084883Y0177812D02*
X0100165Y0177812D01*
X0100763Y0178411D02*
X0085482Y0178411D01*
X0085763Y0179009D02*
X0101362Y0179009D01*
X0101960Y0179608D02*
X0086011Y0179608D01*
X0086259Y0180206D02*
X0102559Y0180206D01*
X0102767Y0180805D02*
X0086300Y0180805D01*
X0086300Y0181403D02*
X0102767Y0181403D01*
X0102998Y0182002D02*
X0086300Y0182002D01*
X0086173Y0182600D02*
X0103256Y0182600D01*
X0103854Y0183199D02*
X0085925Y0183199D01*
X0085678Y0183797D02*
X0104936Y0183797D01*
X0106798Y0183797D02*
X0201504Y0183797D01*
X0202132Y0183199D02*
X0107880Y0183199D01*
X0108478Y0182600D02*
X0202680Y0182600D01*
X0203208Y0182002D02*
X0108736Y0182002D01*
X0106688Y0177812D02*
X0135256Y0177812D01*
X0134286Y0177214D02*
X0104940Y0177214D01*
X0104814Y0176615D02*
X0133725Y0176615D01*
X0133477Y0176017D02*
X0104814Y0176017D01*
X0104814Y0175418D02*
X0133279Y0175418D01*
X0133279Y0174820D02*
X0104814Y0174820D01*
X0104814Y0174221D02*
X0132991Y0174221D01*
X0132392Y0173623D02*
X0104814Y0173623D01*
X0104814Y0173024D02*
X0131794Y0173024D01*
X0131195Y0172426D02*
X0104814Y0172426D01*
X0104814Y0171827D02*
X0130597Y0171827D01*
X0129998Y0171229D02*
X0104814Y0171229D01*
X0104814Y0170630D02*
X0127703Y0170630D01*
X0127104Y0170032D02*
X0104814Y0170032D01*
X0104814Y0169433D02*
X0126714Y0169433D01*
X0126466Y0168835D02*
X0104814Y0168835D01*
X0104814Y0168236D02*
X0126389Y0168236D01*
X0126389Y0167638D02*
X0104814Y0167638D01*
X0104814Y0167039D02*
X0126545Y0167039D01*
X0126793Y0166441D02*
X0104814Y0166441D01*
X0104814Y0165842D02*
X0127295Y0165842D01*
X0128121Y0165243D02*
X0104814Y0165243D01*
X0101014Y0165243D02*
X0099893Y0165243D01*
X0099783Y0165134D02*
X0100025Y0165376D01*
X0100196Y0165672D01*
X0100285Y0166003D01*
X0100285Y0168874D01*
X0096285Y0168874D01*
X0096285Y0164874D01*
X0099156Y0164874D01*
X0099487Y0164963D01*
X0099783Y0165134D01*
X0100242Y0165842D02*
X0101014Y0165842D01*
X0101014Y0166441D02*
X0100285Y0166441D01*
X0100285Y0167039D02*
X0101014Y0167039D01*
X0101014Y0167638D02*
X0100285Y0167638D01*
X0100285Y0168236D02*
X0101014Y0168236D01*
X0101014Y0168835D02*
X0100285Y0168835D01*
X0100285Y0169474D02*
X0100285Y0172345D01*
X0100196Y0172676D01*
X0100025Y0172972D01*
X0099783Y0173214D01*
X0099487Y0173385D01*
X0099156Y0173474D01*
X0096285Y0173474D01*
X0096285Y0169474D01*
X0095685Y0169474D01*
X0095685Y0168874D01*
X0091685Y0168874D01*
X0091685Y0166003D01*
X0091774Y0165672D01*
X0091945Y0165376D01*
X0092187Y0165134D01*
X0092483Y0164963D01*
X0092814Y0164874D01*
X0095685Y0164874D01*
X0095685Y0168874D01*
X0096285Y0168874D01*
X0096285Y0169474D01*
X0100285Y0169474D01*
X0100285Y0170032D02*
X0101014Y0170032D01*
X0101014Y0170630D02*
X0100285Y0170630D01*
X0100285Y0171229D02*
X0101014Y0171229D01*
X0101014Y0171827D02*
X0100285Y0171827D01*
X0100263Y0172426D02*
X0101014Y0172426D01*
X0101014Y0173024D02*
X0099973Y0173024D01*
X0101014Y0173623D02*
X0087569Y0173623D01*
X0086971Y0173024D02*
X0091997Y0173024D01*
X0091945Y0172972D02*
X0091774Y0172676D01*
X0091685Y0172345D01*
X0091685Y0169474D01*
X0095685Y0169474D01*
X0095685Y0173474D01*
X0092814Y0173474D01*
X0092483Y0173385D01*
X0092187Y0173214D01*
X0091945Y0172972D01*
X0091707Y0172426D02*
X0086372Y0172426D01*
X0086300Y0171827D02*
X0091685Y0171827D01*
X0091685Y0171229D02*
X0086300Y0171229D01*
X0086300Y0170630D02*
X0091685Y0170630D01*
X0091685Y0170032D02*
X0086187Y0170032D01*
X0085939Y0169433D02*
X0095685Y0169433D01*
X0095685Y0168835D02*
X0096285Y0168835D01*
X0096285Y0169433D02*
X0101014Y0169433D01*
X0096285Y0170032D02*
X0095685Y0170032D01*
X0095685Y0170630D02*
X0096285Y0170630D01*
X0096285Y0171229D02*
X0095685Y0171229D01*
X0095685Y0171827D02*
X0096285Y0171827D01*
X0096285Y0172426D02*
X0095685Y0172426D01*
X0095685Y0173024D02*
X0096285Y0173024D01*
X0096285Y0168236D02*
X0095685Y0168236D01*
X0095685Y0167638D02*
X0096285Y0167638D01*
X0096285Y0167039D02*
X0095685Y0167039D01*
X0095685Y0166441D02*
X0096285Y0166441D01*
X0096285Y0165842D02*
X0095685Y0165842D01*
X0095685Y0165243D02*
X0096285Y0165243D01*
X0092077Y0165243D02*
X0084379Y0165243D01*
X0085026Y0164645D02*
X0101014Y0164645D01*
X0101014Y0164046D02*
X0085485Y0164046D01*
X0085817Y0163448D02*
X0101014Y0163448D01*
X0101014Y0162849D02*
X0086054Y0162849D01*
X0086212Y0162251D02*
X0101014Y0162251D01*
X0091728Y0165842D02*
X0083399Y0165842D01*
X0082634Y0166441D02*
X0091685Y0166441D01*
X0091685Y0167039D02*
X0084079Y0167039D01*
X0084709Y0167638D02*
X0091685Y0167638D01*
X0091685Y0168236D02*
X0085307Y0168236D01*
X0085691Y0168835D02*
X0091685Y0168835D01*
X0085275Y0184396D02*
X0200875Y0184396D01*
X0200246Y0184994D02*
X0084677Y0184994D01*
X0084002Y0185593D02*
X0199618Y0185593D01*
X0203736Y0181403D02*
X0189671Y0181403D01*
X0190270Y0180805D02*
X0204264Y0180805D01*
X0204792Y0180206D02*
X0190444Y0180206D01*
X0190444Y0179608D02*
X0205319Y0179608D01*
X0205847Y0179009D02*
X0190444Y0179009D01*
X0190444Y0178411D02*
X0206375Y0178411D01*
X0206903Y0177812D02*
X0190444Y0177812D01*
X0190444Y0177214D02*
X0207431Y0177214D01*
X0207958Y0176615D02*
X0190444Y0176615D01*
X0190444Y0176017D02*
X0208486Y0176017D01*
X0209014Y0175418D02*
X0190444Y0175418D01*
X0190444Y0174820D02*
X0209511Y0174820D01*
X0209926Y0174221D02*
X0190444Y0174221D01*
X0190444Y0173623D02*
X0210341Y0173623D01*
X0209054Y0173024D02*
X0203463Y0173024D01*
X0203554Y0172978D02*
X0202951Y0173285D01*
X0202307Y0173494D01*
X0201638Y0173600D01*
X0201600Y0173600D01*
X0201600Y0166600D01*
X0205600Y0166600D01*
X0205600Y0169638D01*
X0205494Y0170307D01*
X0205285Y0170951D01*
X0204978Y0171554D01*
X0204580Y0172101D01*
X0204101Y0172580D01*
X0203554Y0172978D01*
X0204255Y0172426D02*
X0208345Y0172426D01*
X0207746Y0171827D02*
X0204779Y0171827D01*
X0205143Y0171229D02*
X0207445Y0171229D01*
X0207197Y0170630D02*
X0205389Y0170630D01*
X0205538Y0170032D02*
X0207000Y0170032D01*
X0207000Y0169433D02*
X0205600Y0169433D01*
X0205600Y0168835D02*
X0207000Y0168835D01*
X0207000Y0168236D02*
X0205600Y0168236D01*
X0205600Y0167638D02*
X0207000Y0167638D01*
X0207000Y0167039D02*
X0205600Y0167039D01*
X0205600Y0166000D02*
X0201600Y0166000D01*
X0201600Y0166600D01*
X0201000Y0166600D01*
X0201000Y0173600D01*
X0200962Y0173600D01*
X0200293Y0173494D01*
X0199649Y0173285D01*
X0199046Y0172978D01*
X0198499Y0172580D01*
X0198020Y0172101D01*
X0197622Y0171554D01*
X0197315Y0170951D01*
X0197106Y0170307D01*
X0197000Y0169638D01*
X0197000Y0166600D01*
X0201000Y0166600D01*
X0201000Y0166000D01*
X0201600Y0166000D01*
X0201600Y0159000D01*
X0201638Y0159000D01*
X0202307Y0159106D01*
X0202951Y0159315D01*
X0203554Y0159622D01*
X0204101Y0160020D01*
X0204580Y0160499D01*
X0204978Y0161046D01*
X0205285Y0161649D01*
X0205494Y0162293D01*
X0205600Y0162962D01*
X0205600Y0166000D01*
X0205600Y0165842D02*
X0207000Y0165842D01*
X0207000Y0166441D02*
X0201600Y0166441D01*
X0201600Y0167039D02*
X0201000Y0167039D01*
X0201000Y0166441D02*
X0195600Y0166441D01*
X0195600Y0167039D02*
X0197000Y0167039D01*
X0197000Y0167638D02*
X0195600Y0167638D01*
X0195600Y0168236D02*
X0197000Y0168236D01*
X0197000Y0168835D02*
X0195600Y0168835D01*
X0195600Y0169433D02*
X0197000Y0169433D01*
X0197062Y0170032D02*
X0195600Y0170032D01*
X0195403Y0170630D02*
X0197211Y0170630D01*
X0197457Y0171229D02*
X0195155Y0171229D01*
X0194854Y0171827D02*
X0197821Y0171827D01*
X0198345Y0172426D02*
X0194255Y0172426D01*
X0193546Y0173024D02*
X0199137Y0173024D01*
X0201000Y0173024D02*
X0201600Y0173024D01*
X0201600Y0172426D02*
X0201000Y0172426D01*
X0201000Y0171827D02*
X0201600Y0171827D01*
X0201600Y0171229D02*
X0201000Y0171229D01*
X0201000Y0170630D02*
X0201600Y0170630D01*
X0201600Y0170032D02*
X0201000Y0170032D01*
X0201000Y0169433D02*
X0201600Y0169433D01*
X0201600Y0168835D02*
X0201000Y0168835D01*
X0201000Y0168236D02*
X0201600Y0168236D01*
X0201600Y0167638D02*
X0201000Y0167638D01*
X0201000Y0166000D02*
X0197000Y0166000D01*
X0197000Y0162962D01*
X0197106Y0162293D01*
X0197315Y0161649D01*
X0197622Y0161046D01*
X0198020Y0160499D01*
X0198499Y0160020D01*
X0199046Y0159622D01*
X0199649Y0159315D01*
X0200293Y0159106D01*
X0200962Y0159000D01*
X0201000Y0159000D01*
X0201000Y0166000D01*
X0201000Y0165842D02*
X0201600Y0165842D01*
X0201600Y0165243D02*
X0201000Y0165243D01*
X0201000Y0164645D02*
X0201600Y0164645D01*
X0201600Y0164046D02*
X0201000Y0164046D01*
X0201000Y0163448D02*
X0201600Y0163448D01*
X0201600Y0162849D02*
X0201000Y0162849D01*
X0201000Y0162251D02*
X0201600Y0162251D01*
X0201600Y0161652D02*
X0201000Y0161652D01*
X0201000Y0161054D02*
X0201600Y0161054D01*
X0201600Y0160455D02*
X0201000Y0160455D01*
X0201000Y0159857D02*
X0201600Y0159857D01*
X0201600Y0159258D02*
X0201000Y0159258D01*
X0199824Y0159258D02*
X0192779Y0159258D01*
X0193938Y0159857D02*
X0198723Y0159857D01*
X0198063Y0160455D02*
X0194537Y0160455D01*
X0195024Y0161054D02*
X0197618Y0161054D01*
X0197314Y0161652D02*
X0195272Y0161652D01*
X0195520Y0162251D02*
X0197120Y0162251D01*
X0197018Y0162849D02*
X0195600Y0162849D01*
X0195600Y0163448D02*
X0197000Y0163448D01*
X0197000Y0164046D02*
X0195600Y0164046D01*
X0195600Y0164645D02*
X0197000Y0164645D01*
X0197000Y0165243D02*
X0195600Y0165243D01*
X0195600Y0165842D02*
X0197000Y0165842D01*
X0205600Y0165243D02*
X0207000Y0165243D01*
X0207000Y0164645D02*
X0205600Y0164645D01*
X0205600Y0164046D02*
X0207000Y0164046D01*
X0207000Y0163448D02*
X0205600Y0163448D01*
X0205582Y0162849D02*
X0207000Y0162849D01*
X0207080Y0162251D02*
X0205480Y0162251D01*
X0205286Y0161652D02*
X0207328Y0161652D01*
X0207576Y0161054D02*
X0204982Y0161054D01*
X0204537Y0160455D02*
X0208063Y0160455D01*
X0208662Y0159857D02*
X0203877Y0159857D01*
X0202776Y0159258D02*
X0209821Y0159258D01*
X0212779Y0159258D02*
X0219205Y0159258D01*
X0218885Y0159857D02*
X0213938Y0159857D01*
X0214537Y0160455D02*
X0218566Y0160455D01*
X0218247Y0161054D02*
X0215024Y0161054D01*
X0215272Y0161652D02*
X0217928Y0161652D01*
X0217608Y0162251D02*
X0215520Y0162251D01*
X0215600Y0162849D02*
X0217289Y0162849D01*
X0216970Y0163448D02*
X0215600Y0163448D01*
X0215600Y0164046D02*
X0216651Y0164046D01*
X0216332Y0164645D02*
X0215600Y0164645D01*
X0215600Y0165243D02*
X0216012Y0165243D01*
X0215693Y0165842D02*
X0215600Y0165842D01*
X0189821Y0159258D02*
X0182779Y0159258D01*
X0183938Y0159857D02*
X0188662Y0159857D01*
X0188063Y0160455D02*
X0184537Y0160455D01*
X0185024Y0161054D02*
X0187576Y0161054D01*
X0187328Y0161652D02*
X0185272Y0161652D01*
X0185520Y0162251D02*
X0187080Y0162251D01*
X0187000Y0162849D02*
X0185600Y0162849D01*
X0185600Y0163448D02*
X0187000Y0163448D01*
X0187000Y0164046D02*
X0185600Y0164046D01*
X0185600Y0164645D02*
X0187000Y0164645D01*
X0187000Y0165243D02*
X0185600Y0165243D01*
X0185600Y0165842D02*
X0187000Y0165842D01*
X0187000Y0166441D02*
X0185600Y0166441D01*
X0185600Y0167039D02*
X0187000Y0167039D01*
X0187000Y0167638D02*
X0185600Y0167638D01*
X0185600Y0168236D02*
X0187000Y0168236D01*
X0187000Y0168835D02*
X0185600Y0168835D01*
X0185600Y0169433D02*
X0187000Y0169433D01*
X0187000Y0170032D02*
X0185600Y0170032D01*
X0185403Y0170630D02*
X0187196Y0170630D01*
X0186644Y0171229D02*
X0185155Y0171229D01*
X0184854Y0171827D02*
X0186644Y0171827D01*
X0186644Y0172426D02*
X0184255Y0172426D01*
X0183546Y0173024D02*
X0186644Y0173024D01*
X0176802Y0147887D02*
X0176720Y0147887D01*
X0176802Y0147288D02*
X0175556Y0147288D01*
X0176802Y0146690D02*
X0152058Y0146690D01*
X0152058Y0146091D02*
X0170186Y0146091D01*
X0169419Y0145493D02*
X0152058Y0145493D01*
X0152058Y0144894D02*
X0168821Y0144894D01*
X0168534Y0144296D02*
X0152058Y0144296D01*
X0152058Y0143697D02*
X0168286Y0143697D01*
X0168134Y0143099D02*
X0152058Y0143099D01*
X0152058Y0142500D02*
X0168134Y0142500D01*
X0168134Y0141902D02*
X0152058Y0141902D01*
X0152058Y0141303D02*
X0168303Y0141303D01*
X0168551Y0140705D02*
X0152058Y0140705D01*
X0152058Y0140106D02*
X0168862Y0140106D01*
X0169460Y0139508D02*
X0152058Y0139508D01*
X0152058Y0138909D02*
X0169912Y0138909D01*
X0169912Y0138310D02*
X0152058Y0138310D01*
X0152058Y0137712D02*
X0169912Y0137712D01*
X0169912Y0137113D02*
X0152058Y0137113D01*
X0152058Y0136515D02*
X0169912Y0136515D01*
X0169912Y0135916D02*
X0152058Y0135916D01*
X0151627Y0135318D02*
X0169912Y0135318D01*
X0169912Y0134719D02*
X0151028Y0134719D01*
X0150430Y0134121D02*
X0169912Y0134121D01*
X0169912Y0133522D02*
X0149831Y0133522D01*
X0149233Y0132924D02*
X0169721Y0132924D01*
X0169158Y0132325D02*
X0148634Y0132325D01*
X0148036Y0131727D02*
X0168910Y0131727D01*
X0168712Y0131128D02*
X0147437Y0131128D01*
X0146839Y0130530D02*
X0168712Y0130530D01*
X0168746Y0129931D02*
X0146240Y0129931D01*
X0145642Y0129333D02*
X0168994Y0129333D01*
X0169324Y0128734D02*
X0145043Y0128734D01*
X0144445Y0128136D02*
X0169923Y0128136D01*
X0148049Y0137113D02*
X0131284Y0137113D01*
X0131532Y0137712D02*
X0148258Y0137712D01*
X0148258Y0138310D02*
X0131605Y0138310D01*
X0131605Y0138909D02*
X0148258Y0138909D01*
X0148258Y0139508D02*
X0132194Y0139508D01*
X0132793Y0140106D02*
X0148258Y0140106D01*
X0148258Y0140705D02*
X0133392Y0140705D01*
X0133990Y0141303D02*
X0148258Y0141303D01*
X0148258Y0141902D02*
X0134589Y0141902D01*
X0135187Y0142500D02*
X0148258Y0142500D01*
X0148258Y0143099D02*
X0135786Y0143099D01*
X0136384Y0143697D02*
X0148258Y0143697D01*
X0148258Y0144296D02*
X0136983Y0144296D01*
X0137581Y0144894D02*
X0148258Y0144894D01*
X0148258Y0145493D02*
X0138180Y0145493D01*
X0138778Y0146091D02*
X0148258Y0146091D01*
X0148258Y0146690D02*
X0139377Y0146690D01*
X0139975Y0147288D02*
X0148258Y0147288D01*
X0148258Y0147887D02*
X0140574Y0147887D01*
X0141172Y0148485D02*
X0148258Y0148485D01*
X0148258Y0149084D02*
X0141771Y0149084D01*
X0142369Y0149682D02*
X0148258Y0149682D01*
X0148258Y0150281D02*
X0142968Y0150281D01*
X0143566Y0150879D02*
X0148258Y0150879D01*
X0148258Y0151478D02*
X0144165Y0151478D01*
X0144763Y0152076D02*
X0148258Y0152076D01*
X0148258Y0152675D02*
X0145362Y0152675D01*
X0145960Y0153273D02*
X0148258Y0153273D01*
X0148258Y0153872D02*
X0146559Y0153872D01*
X0147157Y0154470D02*
X0148258Y0154470D01*
X0148258Y0155069D02*
X0147756Y0155069D01*
X0147450Y0136515D02*
X0130899Y0136515D01*
X0130300Y0135916D02*
X0146851Y0135916D01*
X0113594Y0110180D02*
X0109482Y0110180D01*
X0109730Y0110779D02*
X0113189Y0110779D01*
X0112591Y0111377D02*
X0109951Y0111377D01*
X0109951Y0111976D02*
X0111992Y0111976D01*
X0111394Y0112574D02*
X0109940Y0112574D01*
X0109692Y0113173D02*
X0110795Y0113173D01*
X0110197Y0113772D02*
X0109394Y0113772D01*
X0109598Y0114370D02*
X0108795Y0114370D01*
X0109000Y0114969D02*
X0107616Y0114969D01*
X0108401Y0115567D02*
X0105901Y0115567D01*
X0105303Y0116166D02*
X0107803Y0116166D01*
X0107204Y0116764D02*
X0104704Y0116764D01*
X0104105Y0117363D02*
X0106606Y0117363D01*
X0106007Y0117961D02*
X0103507Y0117961D01*
X0102908Y0118560D02*
X0105409Y0118560D01*
X0104810Y0119158D02*
X0102310Y0119158D01*
X0101711Y0119757D02*
X0104211Y0119757D01*
X0103613Y0120355D02*
X0101113Y0120355D01*
X0100514Y0120954D02*
X0103014Y0120954D01*
X0102416Y0121552D02*
X0099916Y0121552D01*
X0099317Y0122151D02*
X0101817Y0122151D01*
X0101219Y0122749D02*
X0098719Y0122749D01*
X0098120Y0123348D02*
X0101014Y0123348D01*
X0101014Y0123946D02*
X0097522Y0123946D01*
X0096923Y0124545D02*
X0101014Y0124545D01*
X0101014Y0125143D02*
X0096325Y0125143D01*
X0095726Y0125742D02*
X0101014Y0125742D01*
X0101014Y0126340D02*
X0095128Y0126340D01*
X0094529Y0126939D02*
X0101014Y0126939D01*
X0101014Y0127537D02*
X0093931Y0127537D01*
X0093332Y0128136D02*
X0101014Y0128136D01*
X0101014Y0128734D02*
X0092734Y0128734D01*
X0092135Y0129333D02*
X0101014Y0129333D01*
X0101014Y0129931D02*
X0091537Y0129931D01*
X0090938Y0130530D02*
X0101014Y0130530D01*
X0101014Y0131128D02*
X0090340Y0131128D01*
X0089741Y0131727D02*
X0101014Y0131727D01*
X0101014Y0132325D02*
X0089143Y0132325D01*
X0088544Y0132924D02*
X0101014Y0132924D01*
X0101014Y0133522D02*
X0087946Y0133522D01*
X0087347Y0134121D02*
X0101014Y0134121D01*
X0101014Y0134719D02*
X0086749Y0134719D01*
X0086150Y0135318D02*
X0101014Y0135318D01*
X0101014Y0135916D02*
X0085552Y0135916D01*
X0084953Y0136515D02*
X0101014Y0136515D01*
X0101014Y0137113D02*
X0084355Y0137113D01*
X0083756Y0137712D02*
X0101014Y0137712D01*
X0101014Y0138310D02*
X0083158Y0138310D01*
X0082559Y0138909D02*
X0101014Y0138909D01*
X0101014Y0139508D02*
X0081961Y0139508D01*
X0081362Y0140106D02*
X0101014Y0140106D01*
X0101014Y0140705D02*
X0080764Y0140705D01*
X0081381Y0141303D02*
X0101014Y0141303D01*
X0101014Y0141902D02*
X0081980Y0141902D01*
X0082578Y0142500D02*
X0101014Y0142500D01*
X0101014Y0143099D02*
X0082974Y0143099D01*
X0083222Y0143697D02*
X0101014Y0143697D01*
X0101014Y0144296D02*
X0083470Y0144296D01*
X0083718Y0144894D02*
X0101014Y0144894D01*
X0101014Y0145493D02*
X0083742Y0145493D01*
X0083742Y0146091D02*
X0101014Y0146091D01*
X0101014Y0146690D02*
X0083742Y0146690D01*
X0083742Y0147288D02*
X0101014Y0147288D01*
X0101014Y0147887D02*
X0083512Y0147887D01*
X0083264Y0148485D02*
X0101014Y0148485D01*
X0101014Y0149084D02*
X0083017Y0149084D01*
X0082681Y0149682D02*
X0101014Y0149682D01*
X0101014Y0150281D02*
X0082083Y0150281D01*
X0081484Y0150879D02*
X0101014Y0150879D01*
X0101014Y0151478D02*
X0080516Y0151478D01*
X0079071Y0152076D02*
X0101014Y0152076D01*
X0073372Y0132325D02*
X0072772Y0132325D01*
X0072772Y0131727D02*
X0073372Y0131727D01*
X0073372Y0131128D02*
X0072772Y0131128D01*
X0072772Y0130530D02*
X0073372Y0130530D01*
X0073372Y0129931D02*
X0072772Y0129931D01*
X0072772Y0129333D02*
X0073372Y0129333D01*
X0073372Y0128734D02*
X0072772Y0128734D01*
X0072772Y0128136D02*
X0073372Y0128136D01*
X0073372Y0127537D02*
X0072772Y0127537D01*
X0072772Y0126939D02*
X0073372Y0126939D01*
X0073372Y0125143D02*
X0072772Y0125143D01*
X0072772Y0124545D02*
X0073372Y0124545D01*
X0073372Y0123946D02*
X0072772Y0123946D01*
X0072772Y0123348D02*
X0073372Y0123348D01*
X0073372Y0122749D02*
X0072772Y0122749D01*
X0072772Y0122151D02*
X0073372Y0122151D01*
X0073372Y0121552D02*
X0072772Y0121552D01*
X0072772Y0120954D02*
X0073372Y0120954D01*
X0080481Y0112574D02*
X0103520Y0112574D01*
X0103751Y0111976D02*
X0081802Y0111976D01*
X0082400Y0111377D02*
X0103751Y0111377D01*
X0103973Y0110779D02*
X0082999Y0110779D01*
X0083597Y0110180D02*
X0104220Y0110180D01*
X0104815Y0109582D02*
X0083893Y0109582D01*
X0084140Y0108983D02*
X0105864Y0108983D01*
X0107838Y0108983D02*
X0113743Y0108983D01*
X0113594Y0109582D02*
X0108887Y0109582D01*
X0113991Y0108385D02*
X0084388Y0108385D01*
X0084636Y0107786D02*
X0114485Y0107786D01*
X0115289Y0107188D02*
X0084742Y0107188D01*
X0096936Y0119158D02*
X0051134Y0119158D01*
X0051099Y0118560D02*
X0097534Y0118560D01*
X0098133Y0117961D02*
X0051064Y0117961D01*
X0051030Y0117363D02*
X0098732Y0117363D01*
X0099330Y0116764D02*
X0050995Y0116764D01*
X0050960Y0116166D02*
X0099929Y0116166D01*
X0100527Y0115567D02*
X0050935Y0115567D01*
X0050970Y0114969D02*
X0101126Y0114969D01*
X0101724Y0114370D02*
X0051004Y0114370D01*
X0051039Y0113772D02*
X0102323Y0113772D01*
X0102921Y0113173D02*
X0051074Y0113173D01*
X0051169Y0119757D02*
X0096337Y0119757D01*
X0095739Y0120355D02*
X0051204Y0120355D01*
X0051649Y0126939D02*
X0062403Y0126939D01*
X0062498Y0127537D02*
X0051754Y0127537D01*
X0051860Y0128136D02*
X0062639Y0128136D01*
X0062833Y0128734D02*
X0051965Y0128734D01*
X0052071Y0129333D02*
X0063135Y0129333D01*
X0063513Y0129931D02*
X0052176Y0129931D01*
X0052282Y0130530D02*
X0063995Y0130530D01*
X0064633Y0131128D02*
X0052387Y0131128D01*
X0052493Y0131727D02*
X0065545Y0131727D01*
X0067176Y0132325D02*
X0052598Y0132325D01*
X0170206Y0087437D02*
X0186728Y0087437D01*
X0187326Y0086839D02*
X0170206Y0086839D01*
X0170206Y0086240D02*
X0187925Y0086240D01*
X0188523Y0085641D02*
X0170206Y0085641D01*
X0170206Y0085043D02*
X0189122Y0085043D01*
X0189720Y0084444D02*
X0170206Y0084444D01*
X0170206Y0083846D02*
X0190319Y0083846D01*
X0190918Y0083247D02*
X0170206Y0083247D01*
X0170206Y0082649D02*
X0191516Y0082649D01*
X0192115Y0082050D02*
X0170206Y0082050D01*
X0170206Y0081452D02*
X0192713Y0081452D01*
X0186129Y0088036D02*
X0170731Y0088036D01*
X0171329Y0088634D02*
X0185531Y0088634D01*
X0184932Y0089233D02*
X0171928Y0089233D01*
X0172526Y0089831D02*
X0184334Y0089831D01*
X0183735Y0090430D02*
X0173757Y0090430D01*
X0175130Y0091028D02*
X0183137Y0091028D01*
X0182538Y0091627D02*
X0175728Y0091627D01*
X0176327Y0092225D02*
X0181940Y0092225D01*
X0181341Y0092824D02*
X0176679Y0092824D01*
X0176927Y0093422D02*
X0180743Y0093422D01*
X0180144Y0094021D02*
X0177175Y0094021D01*
X0177277Y0094619D02*
X0179546Y0094619D01*
X0178947Y0095218D02*
X0177277Y0095218D01*
X0177277Y0095816D02*
X0178349Y0095816D01*
X0177750Y0096415D02*
X0177224Y0096415D01*
X0177152Y0097013D02*
X0176976Y0097013D01*
X0174747Y0076065D02*
X0170450Y0076065D01*
X0171049Y0075467D02*
X0173302Y0075467D01*
X0172234Y0074868D02*
X0171647Y0074868D01*
X0207608Y0091627D02*
X0217621Y0091627D01*
X0216743Y0092225D02*
X0207608Y0092225D01*
X0207608Y0092824D02*
X0216144Y0092824D01*
X0215811Y0093422D02*
X0207608Y0093422D01*
X0207608Y0094021D02*
X0215563Y0094021D01*
X0215378Y0094619D02*
X0207608Y0094619D01*
X0207608Y0095218D02*
X0215378Y0095218D01*
X0215378Y0095816D02*
X0207608Y0095816D01*
X0207608Y0096415D02*
X0215514Y0096415D01*
X0215762Y0097013D02*
X0207608Y0097013D01*
X0207608Y0097612D02*
X0216027Y0097612D01*
X0216625Y0098210D02*
X0207608Y0098210D01*
D17*
X0203308Y0078465D02*
X0196418Y0071576D01*
X0196418Y0064686D01*
X0196143Y0064528D01*
X0203308Y0078465D02*
X0203308Y0143426D01*
X0196418Y0150316D01*
X0195828Y0150394D01*
X0172206Y0095276D02*
X0171812Y0095198D01*
X0165906Y0089292D01*
X0165906Y0074528D01*
X0175749Y0064686D01*
X0176457Y0064528D01*
X0136143Y0053426D02*
X0135394Y0053859D01*
X0106851Y0082402D01*
X0089135Y0082402D01*
X0089135Y0091261D01*
X0073387Y0107009D01*
X0073072Y0106143D01*
X0073072Y0086457D02*
X0073387Y0086339D01*
X0073387Y0074528D01*
X0095040Y0074528D01*
X0115709Y0053859D01*
X0116457Y0053426D01*
D18*
X0101930Y0088308D02*
X0150158Y0136536D01*
X0150158Y0170985D01*
X0155080Y0175906D01*
X0159017Y0175906D01*
X0155080Y0179843D02*
X0188544Y0179843D01*
X0188544Y0171969D01*
X0190513Y0170001D01*
X0190513Y0167048D01*
X0191300Y0166300D01*
X0178702Y0155237D02*
X0171812Y0162127D01*
X0171812Y0166064D01*
X0171300Y0166300D01*
X0164922Y0169017D02*
X0164922Y0160158D01*
X0174765Y0150316D01*
X0178702Y0155237D02*
X0178702Y0137520D01*
X0197402Y0118820D01*
X0171812Y0130631D02*
X0171812Y0142442D01*
X0172206Y0142520D01*
X0147206Y0157206D02*
X0147206Y0171969D01*
X0155080Y0179843D01*
X0156615Y0169174D02*
X0157048Y0169017D01*
X0164922Y0169017D01*
X0147206Y0157206D02*
X0128505Y0138505D01*
X0102914Y0123741D02*
X0102914Y0177875D01*
X0105867Y0180828D01*
X0102914Y0177875D02*
X0100946Y0175906D01*
X0086182Y0175906D01*
X0086182Y0174922D01*
X0082245Y0170985D01*
X0081300Y0171300D01*
X0073072Y0146143D02*
X0073387Y0145394D01*
X0106851Y0111930D01*
X0116694Y0109961D02*
X0102914Y0123741D01*
X0129489Y0168032D02*
X0136379Y0174922D01*
X0171812Y0105040D02*
X0196418Y0080434D01*
D19*
X0196418Y0080434D03*
X0171812Y0105040D03*
X0197402Y0118820D03*
X0171812Y0130631D03*
X0174765Y0150316D03*
X0159017Y0175906D03*
X0136379Y0174922D03*
X0129489Y0168032D03*
X0105867Y0180828D03*
X0128505Y0138505D03*
X0106851Y0111930D03*
X0116694Y0109961D03*
X0101930Y0088308D03*
M02*
