G75*
%MOIN*%
%OFA0B0*%
%FSLAX25Y25*%
%IPPOS*%
%LPD*%
%AMOC8*
5,1,8,0,0,1.08239X$1,22.5*
%
%ADD10C,0.09370*%
%ADD11C,0.05543*%
%ADD12C,0.05937*%
%ADD13R,0.06000X0.06000*%
%ADD14R,0.04800X0.08800*%
%ADD15R,0.14173X0.08661*%
%ADD16R,0.06299X0.05512*%
%ADD17R,0.04331X0.05512*%
%ADD18R,0.03150X0.03543*%
%ADD19R,0.05512X0.04331*%
%ADD20R,0.05512X0.08268*%
%ADD21C,0.00669*%
%ADD22R,0.09843X0.03937*%
%ADD23C,0.07400*%
%ADD24C,0.06000*%
%ADD25C,0.00600*%
%ADD26C,0.01200*%
%ADD27C,0.03600*%
D10*
X0068387Y0086457D02*
X0077757Y0086457D01*
X0077757Y0106143D02*
X0068387Y0106143D01*
X0068387Y0126457D02*
X0077757Y0126457D01*
X0077757Y0146143D02*
X0068387Y0146143D01*
X0176457Y0069213D02*
X0176457Y0059843D01*
X0196143Y0059843D02*
X0196143Y0069213D01*
D11*
X0219450Y0095276D03*
X0172206Y0095276D03*
X0172206Y0142520D03*
X0219450Y0142520D03*
D12*
X0195828Y0150394D03*
D13*
X0156615Y0169174D03*
X0095985Y0169174D03*
X0116457Y0053426D03*
X0136143Y0053426D03*
D14*
X0135400Y0154100D03*
X0126300Y0154100D03*
X0117200Y0154100D03*
D15*
X0126300Y0178501D03*
D16*
X0146300Y0166812D03*
X0146300Y0155788D03*
X0106300Y0155788D03*
X0106300Y0166812D03*
D17*
X0100237Y0181300D03*
X0092363Y0181300D03*
X0147363Y0181300D03*
X0155237Y0181300D03*
X0177363Y0106300D03*
X0185237Y0106300D03*
X0197363Y0106300D03*
X0205237Y0106300D03*
X0205237Y0086300D03*
X0197363Y0086300D03*
D18*
X0180040Y0122363D03*
X0172560Y0122363D03*
X0176300Y0130631D03*
D19*
X0161300Y0152363D03*
X0161300Y0160237D03*
D20*
X0192639Y0126300D03*
X0209961Y0126300D03*
D21*
X0098604Y0120769D02*
X0089430Y0120769D01*
X0098604Y0120769D02*
X0098604Y0117501D01*
X0089430Y0117501D01*
X0089430Y0120769D01*
X0089430Y0118169D02*
X0098604Y0118169D01*
X0098604Y0118837D02*
X0089430Y0118837D01*
X0089430Y0119505D02*
X0098604Y0119505D01*
X0098604Y0120173D02*
X0089430Y0120173D01*
D22*
X0094017Y0111261D03*
X0094017Y0103387D03*
X0094017Y0095513D03*
X0094017Y0087639D03*
X0094017Y0079765D03*
X0094017Y0071891D03*
X0094017Y0064391D03*
X0158583Y0064391D03*
X0158583Y0071891D03*
X0158583Y0079765D03*
X0158583Y0087639D03*
X0158583Y0095513D03*
X0158583Y0103387D03*
X0158583Y0111261D03*
X0158583Y0119135D03*
D23*
X0081300Y0161300D03*
X0081300Y0171300D03*
X0081300Y0181300D03*
D24*
X0171300Y0169300D02*
X0171300Y0163300D01*
X0181300Y0163300D02*
X0181300Y0169300D01*
X0191300Y0169300D02*
X0191300Y0163300D01*
X0201300Y0163300D02*
X0201300Y0169300D01*
X0211300Y0169300D02*
X0211300Y0163300D01*
D25*
X0169472Y0060504D02*
X0069298Y0060504D01*
X0069744Y0059905D02*
X0169472Y0059905D01*
X0169472Y0059307D02*
X0070189Y0059307D01*
X0070635Y0058708D02*
X0112487Y0058708D01*
X0112505Y0058726D02*
X0111157Y0057379D01*
X0111157Y0049473D01*
X0112505Y0048126D01*
X0120410Y0048126D01*
X0121757Y0049473D01*
X0121757Y0057379D01*
X0120410Y0058726D01*
X0112505Y0058726D01*
X0111889Y0058110D02*
X0071080Y0058110D01*
X0071526Y0057511D02*
X0111290Y0057511D01*
X0111157Y0056913D02*
X0071971Y0056913D01*
X0072417Y0056314D02*
X0111157Y0056314D01*
X0111157Y0055716D02*
X0072924Y0055716D01*
X0072631Y0056027D02*
X0066190Y0064679D01*
X0060796Y0074021D01*
X0056524Y0083925D01*
X0053430Y0094259D01*
X0051557Y0104882D01*
X0050930Y0115650D01*
X0051557Y0126419D01*
X0053430Y0137042D01*
X0056524Y0147375D01*
X0060796Y0157280D01*
X0066190Y0166621D01*
X0072631Y0175274D01*
X0076629Y0179511D01*
X0077061Y0178468D01*
X0078468Y0177061D01*
X0080305Y0176300D01*
X0078468Y0175539D01*
X0077061Y0174132D01*
X0076300Y0172295D01*
X0076300Y0170305D01*
X0077061Y0168468D01*
X0078468Y0167061D01*
X0080305Y0166300D01*
X0082295Y0166300D01*
X0084132Y0167061D01*
X0085539Y0168468D01*
X0086300Y0170305D01*
X0086300Y0172295D01*
X0085539Y0174132D01*
X0084132Y0175539D01*
X0082295Y0176300D01*
X0080305Y0176300D01*
X0082295Y0176300D01*
X0084132Y0177061D01*
X0085539Y0178468D01*
X0085729Y0178928D01*
X0088898Y0178928D01*
X0088898Y0178006D01*
X0089659Y0177244D01*
X0093968Y0177244D01*
X0095109Y0176104D01*
X0096222Y0174991D01*
X0117913Y0174991D01*
X0117913Y0173632D01*
X0118675Y0172870D01*
X0130822Y0172870D01*
X0131526Y0172167D01*
X0131526Y0170379D01*
X0131245Y0170660D01*
X0130106Y0171132D01*
X0128872Y0171132D01*
X0127733Y0170660D01*
X0127005Y0169932D01*
X0123781Y0169932D01*
X0122668Y0168819D01*
X0114725Y0160877D01*
X0110750Y0164852D01*
X0110750Y0170106D01*
X0109988Y0170868D01*
X0102612Y0170868D01*
X0101850Y0170106D01*
X0101850Y0163517D01*
X0102612Y0162756D01*
X0107472Y0162756D01*
X0113500Y0156728D01*
X0113500Y0149162D01*
X0114262Y0148400D01*
X0120138Y0148400D01*
X0120900Y0149162D01*
X0120900Y0159038D01*
X0120138Y0159800D01*
X0119022Y0159800D01*
X0125355Y0166132D01*
X0127005Y0166132D01*
X0127142Y0165995D01*
X0125749Y0165995D01*
X0124636Y0164882D01*
X0124636Y0159800D01*
X0123362Y0159800D01*
X0122600Y0159038D01*
X0122600Y0149162D01*
X0123362Y0148400D01*
X0129238Y0148400D01*
X0130000Y0149162D01*
X0130000Y0159038D01*
X0129238Y0159800D01*
X0128436Y0159800D01*
X0128436Y0162195D01*
X0140118Y0162195D01*
X0141850Y0163927D01*
X0141850Y0163517D01*
X0142612Y0162756D01*
X0147826Y0162756D01*
X0152324Y0158258D01*
X0157244Y0158258D01*
X0157244Y0157533D01*
X0158006Y0156772D01*
X0164594Y0156772D01*
X0165356Y0157533D01*
X0165356Y0161842D01*
X0167000Y0163486D01*
X0167000Y0162445D01*
X0167655Y0160864D01*
X0168864Y0159655D01*
X0170445Y0159000D01*
X0172155Y0159000D01*
X0173736Y0159655D01*
X0174945Y0160864D01*
X0175600Y0162445D01*
X0175600Y0170155D01*
X0174945Y0171736D01*
X0173736Y0172945D01*
X0172155Y0173600D01*
X0170445Y0173600D01*
X0168864Y0172945D01*
X0167655Y0171736D01*
X0167000Y0170155D01*
X0167000Y0167964D01*
X0166104Y0167964D01*
X0164991Y0166851D01*
X0161842Y0163702D01*
X0158006Y0163702D01*
X0157244Y0162941D01*
X0157244Y0162058D01*
X0153898Y0162058D01*
X0150750Y0165207D01*
X0150750Y0170106D01*
X0149988Y0170868D01*
X0142612Y0170868D01*
X0141850Y0170106D01*
X0141850Y0167964D01*
X0140513Y0167964D01*
X0139400Y0166851D01*
X0138544Y0165995D01*
X0135326Y0165995D01*
X0135326Y0172003D01*
X0135762Y0171822D01*
X0136792Y0171822D01*
X0137560Y0171054D01*
X0152315Y0171054D01*
X0152315Y0165636D01*
X0153076Y0164874D01*
X0160153Y0164874D01*
X0160915Y0165636D01*
X0160915Y0172712D01*
X0160473Y0173154D01*
X0160773Y0173278D01*
X0161501Y0174006D01*
X0203505Y0174006D01*
X0207104Y0170407D01*
X0207000Y0170155D01*
X0207000Y0162445D01*
X0207655Y0160864D01*
X0208864Y0159655D01*
X0210445Y0159000D01*
X0212155Y0159000D01*
X0213736Y0159655D01*
X0214945Y0160864D01*
X0215600Y0162445D01*
X0215600Y0166017D01*
X0220627Y0156591D01*
X0224566Y0146543D01*
X0227313Y0136105D01*
X0228829Y0125419D01*
X0229094Y0114629D01*
X0228105Y0103881D01*
X0225874Y0093321D01*
X0222433Y0083091D01*
X0217827Y0073330D01*
X0212120Y0064170D01*
X0205387Y0055734D01*
X0197721Y0048137D01*
X0197721Y0048137D01*
X0194670Y0045600D01*
X0082934Y0045600D01*
X0080033Y0048181D01*
X0072631Y0056027D01*
X0073489Y0055117D02*
X0111157Y0055117D01*
X0111157Y0054519D02*
X0074054Y0054519D01*
X0074618Y0053920D02*
X0111157Y0053920D01*
X0111157Y0053322D02*
X0075183Y0053322D01*
X0075748Y0052723D02*
X0111157Y0052723D01*
X0111157Y0052125D02*
X0076312Y0052125D01*
X0076877Y0051526D02*
X0111157Y0051526D01*
X0111157Y0050928D02*
X0077442Y0050928D01*
X0078006Y0050329D02*
X0111157Y0050329D01*
X0111157Y0049731D02*
X0078571Y0049731D01*
X0079136Y0049132D02*
X0111498Y0049132D01*
X0112097Y0048534D02*
X0079700Y0048534D01*
X0080309Y0047935D02*
X0197479Y0047935D01*
X0198122Y0048534D02*
X0140503Y0048534D01*
X0140095Y0048126D02*
X0141443Y0049473D01*
X0141443Y0057379D01*
X0140095Y0058726D01*
X0132190Y0058726D01*
X0130843Y0057379D01*
X0130843Y0049473D01*
X0132190Y0048126D01*
X0140095Y0048126D01*
X0141102Y0049132D02*
X0198726Y0049132D01*
X0199330Y0049731D02*
X0141443Y0049731D01*
X0141443Y0050329D02*
X0199934Y0050329D01*
X0200538Y0050928D02*
X0141443Y0050928D01*
X0141443Y0051526D02*
X0201142Y0051526D01*
X0201745Y0052125D02*
X0141443Y0052125D01*
X0141443Y0052723D02*
X0202349Y0052723D01*
X0202953Y0053322D02*
X0198651Y0053322D01*
X0197532Y0052858D02*
X0200099Y0053922D01*
X0202064Y0055887D01*
X0203128Y0058454D01*
X0203128Y0070603D01*
X0202064Y0073170D01*
X0200099Y0075135D01*
X0197532Y0076198D01*
X0194753Y0076198D01*
X0192186Y0075135D01*
X0190221Y0073170D01*
X0189157Y0070603D01*
X0189157Y0058454D01*
X0190221Y0055887D01*
X0192186Y0053922D01*
X0194753Y0052858D01*
X0197532Y0052858D01*
X0200096Y0053920D02*
X0203557Y0053920D01*
X0204161Y0054519D02*
X0200696Y0054519D01*
X0201295Y0055117D02*
X0204765Y0055117D01*
X0205369Y0055716D02*
X0201893Y0055716D01*
X0202241Y0056314D02*
X0205851Y0056314D01*
X0206328Y0056913D02*
X0202489Y0056913D01*
X0202737Y0057511D02*
X0206806Y0057511D01*
X0207284Y0058110D02*
X0202985Y0058110D01*
X0203128Y0058708D02*
X0207761Y0058708D01*
X0208239Y0059307D02*
X0203128Y0059307D01*
X0203128Y0059905D02*
X0208717Y0059905D01*
X0209194Y0060504D02*
X0203128Y0060504D01*
X0203128Y0061103D02*
X0209672Y0061103D01*
X0210150Y0061701D02*
X0203128Y0061701D01*
X0203128Y0062300D02*
X0210627Y0062300D01*
X0211105Y0062898D02*
X0203128Y0062898D01*
X0203128Y0063497D02*
X0211583Y0063497D01*
X0212060Y0064095D02*
X0203128Y0064095D01*
X0203128Y0064694D02*
X0212446Y0064694D01*
X0212819Y0065292D02*
X0203128Y0065292D01*
X0203128Y0065891D02*
X0213192Y0065891D01*
X0213565Y0066489D02*
X0203128Y0066489D01*
X0203128Y0067088D02*
X0213938Y0067088D01*
X0214311Y0067686D02*
X0203128Y0067686D01*
X0203128Y0068285D02*
X0214684Y0068285D01*
X0215057Y0068883D02*
X0203128Y0068883D01*
X0203128Y0069482D02*
X0215429Y0069482D01*
X0215802Y0070080D02*
X0203128Y0070080D01*
X0203096Y0070679D02*
X0216175Y0070679D01*
X0216548Y0071277D02*
X0202848Y0071277D01*
X0202600Y0071876D02*
X0216921Y0071876D01*
X0217294Y0072474D02*
X0202352Y0072474D01*
X0202104Y0073073D02*
X0217667Y0073073D01*
X0217988Y0073671D02*
X0201563Y0073671D01*
X0200964Y0074270D02*
X0218271Y0074270D01*
X0218553Y0074868D02*
X0200366Y0074868D01*
X0199298Y0075467D02*
X0218835Y0075467D01*
X0219118Y0076065D02*
X0197853Y0076065D01*
X0197035Y0077334D02*
X0198174Y0077806D01*
X0198902Y0078534D01*
X0200158Y0078534D01*
X0201271Y0079647D01*
X0203868Y0082244D01*
X0207941Y0082244D01*
X0208702Y0083006D01*
X0208702Y0089594D01*
X0207941Y0090356D01*
X0202533Y0090356D01*
X0201772Y0089594D01*
X0201772Y0085522D01*
X0200828Y0084578D01*
X0200828Y0089594D01*
X0200067Y0090356D01*
X0199302Y0090356D01*
X0199302Y0102244D01*
X0200067Y0102244D01*
X0200828Y0103006D01*
X0200828Y0109594D01*
X0200067Y0110356D01*
X0199302Y0110356D01*
X0199302Y0116336D01*
X0200030Y0117064D01*
X0200502Y0118203D01*
X0200502Y0119436D01*
X0200030Y0120576D01*
X0199158Y0121448D01*
X0198019Y0121920D01*
X0196786Y0121920D01*
X0196694Y0121882D01*
X0196694Y0130972D01*
X0195933Y0131734D01*
X0189344Y0131734D01*
X0188583Y0130972D01*
X0188583Y0128594D01*
X0181457Y0128594D01*
X0179175Y0130876D01*
X0179175Y0132941D01*
X0178464Y0133652D01*
X0197471Y0133652D01*
X0197471Y0123938D01*
X0198584Y0122825D01*
X0203376Y0118033D01*
X0203376Y0110356D01*
X0202533Y0110356D01*
X0201772Y0109594D01*
X0201772Y0103006D01*
X0202533Y0102244D01*
X0207941Y0102244D01*
X0208702Y0103006D01*
X0208702Y0109594D01*
X0207941Y0110356D01*
X0207176Y0110356D01*
X0207176Y0119607D01*
X0201271Y0125512D01*
X0201271Y0136339D01*
X0200158Y0137452D01*
X0171025Y0137452D01*
X0155976Y0122403D01*
X0153124Y0122403D01*
X0152362Y0121642D01*
X0152362Y0116628D01*
X0153124Y0115866D01*
X0164043Y0115866D01*
X0164805Y0116628D01*
X0164805Y0121642D01*
X0164043Y0122403D01*
X0161350Y0122403D01*
X0168785Y0129838D01*
X0169184Y0128875D01*
X0170056Y0128003D01*
X0171195Y0127531D01*
X0172428Y0127531D01*
X0173568Y0128003D01*
X0173655Y0128090D01*
X0174187Y0127559D01*
X0177118Y0127559D01*
X0178770Y0125907D01*
X0179242Y0125435D01*
X0177927Y0125435D01*
X0177165Y0124673D01*
X0177165Y0120053D01*
X0177927Y0119291D01*
X0178770Y0119291D01*
X0178770Y0111143D01*
X0179557Y0110356D01*
X0174659Y0110356D01*
X0173898Y0109594D01*
X0173898Y0107338D01*
X0173568Y0107668D01*
X0172428Y0108140D01*
X0171195Y0108140D01*
X0170056Y0107668D01*
X0169184Y0106796D01*
X0168712Y0105657D01*
X0168712Y0104972D01*
X0164805Y0104972D01*
X0164805Y0105894D01*
X0164043Y0106655D01*
X0153124Y0106655D01*
X0152362Y0105894D01*
X0152362Y0100880D01*
X0153124Y0100118D01*
X0164043Y0100118D01*
X0164805Y0100880D01*
X0164805Y0101172D01*
X0170630Y0101172D01*
X0171399Y0101940D01*
X0172428Y0101940D01*
X0173568Y0102412D01*
X0174029Y0102874D01*
X0174659Y0102244D01*
X0175817Y0102244D01*
X0175817Y0098837D01*
X0175078Y0099576D01*
X0173214Y0100348D01*
X0171197Y0100348D01*
X0169333Y0099576D01*
X0167906Y0098149D01*
X0167134Y0096285D01*
X0167134Y0094268D01*
X0167906Y0092404D01*
X0169333Y0090977D01*
X0171197Y0090205D01*
X0173214Y0090205D01*
X0175078Y0090977D01*
X0176505Y0092404D01*
X0177277Y0094268D01*
X0177277Y0096285D01*
X0176851Y0097314D01*
X0177786Y0096379D01*
X0177786Y0084302D01*
X0172009Y0084302D01*
X0162866Y0075159D01*
X0153124Y0075159D01*
X0152362Y0074398D01*
X0152362Y0069384D01*
X0153124Y0068622D01*
X0164043Y0068622D01*
X0164805Y0069384D01*
X0164805Y0071724D01*
X0164854Y0071773D01*
X0164991Y0071910D01*
X0164991Y0069410D01*
X0164135Y0068554D01*
X0160198Y0068554D01*
X0159303Y0067659D01*
X0153124Y0067659D01*
X0152362Y0066898D01*
X0152362Y0061884D01*
X0153124Y0061122D01*
X0164043Y0061122D01*
X0164805Y0061884D01*
X0164805Y0064754D01*
X0165709Y0064754D01*
X0167678Y0066723D01*
X0168791Y0067836D01*
X0168791Y0071773D01*
X0174567Y0077550D01*
X0188347Y0077550D01*
X0193898Y0083100D01*
X0193898Y0083006D01*
X0194252Y0082652D01*
X0193790Y0082190D01*
X0193318Y0081050D01*
X0193318Y0079817D01*
X0193790Y0078678D01*
X0194662Y0077806D01*
X0195801Y0077334D01*
X0197035Y0077334D01*
X0198229Y0077861D02*
X0219965Y0077861D01*
X0220247Y0078459D02*
X0198828Y0078459D01*
X0200682Y0079058D02*
X0220530Y0079058D01*
X0220812Y0079656D02*
X0201280Y0079656D01*
X0201879Y0080255D02*
X0221095Y0080255D01*
X0221377Y0080853D02*
X0202477Y0080853D01*
X0203076Y0081452D02*
X0221659Y0081452D01*
X0221942Y0082050D02*
X0203674Y0082050D01*
X0201293Y0085043D02*
X0200828Y0085043D01*
X0200828Y0085641D02*
X0201772Y0085641D01*
X0201772Y0086240D02*
X0200828Y0086240D01*
X0200828Y0086839D02*
X0201772Y0086839D01*
X0201772Y0087437D02*
X0200828Y0087437D01*
X0200828Y0088036D02*
X0201772Y0088036D01*
X0201772Y0088634D02*
X0200828Y0088634D01*
X0200828Y0089233D02*
X0201772Y0089233D01*
X0202008Y0089831D02*
X0200592Y0089831D01*
X0199302Y0090430D02*
X0224901Y0090430D01*
X0225103Y0091028D02*
X0199302Y0091028D01*
X0199302Y0091627D02*
X0217621Y0091627D01*
X0217143Y0091825D02*
X0218640Y0091205D01*
X0220260Y0091205D01*
X0221756Y0091825D01*
X0222901Y0092970D01*
X0223521Y0094466D01*
X0223521Y0096086D01*
X0222901Y0097583D01*
X0221756Y0098728D01*
X0220260Y0099348D01*
X0218640Y0099348D01*
X0217143Y0098728D01*
X0215998Y0097583D01*
X0215378Y0096086D01*
X0215378Y0094466D01*
X0215998Y0092970D01*
X0217143Y0091825D01*
X0216743Y0092225D02*
X0199302Y0092225D01*
X0199302Y0092824D02*
X0216144Y0092824D01*
X0215811Y0093422D02*
X0199302Y0093422D01*
X0199302Y0094021D02*
X0215563Y0094021D01*
X0215378Y0094619D02*
X0199302Y0094619D01*
X0199302Y0095218D02*
X0215378Y0095218D01*
X0215378Y0095816D02*
X0199302Y0095816D01*
X0199302Y0096415D02*
X0215514Y0096415D01*
X0215762Y0097013D02*
X0199302Y0097013D01*
X0199302Y0097612D02*
X0216027Y0097612D01*
X0216625Y0098210D02*
X0199302Y0098210D01*
X0199302Y0098809D02*
X0217338Y0098809D01*
X0221561Y0098809D02*
X0227033Y0098809D01*
X0227160Y0099407D02*
X0199302Y0099407D01*
X0199302Y0100006D02*
X0227286Y0100006D01*
X0227412Y0100604D02*
X0199302Y0100604D01*
X0199302Y0101203D02*
X0227539Y0101203D01*
X0227665Y0101801D02*
X0199302Y0101801D01*
X0200223Y0102400D02*
X0202377Y0102400D01*
X0201779Y0102998D02*
X0200821Y0102998D01*
X0200828Y0103597D02*
X0201772Y0103597D01*
X0201772Y0104195D02*
X0200828Y0104195D01*
X0200828Y0104794D02*
X0201772Y0104794D01*
X0201772Y0105392D02*
X0200828Y0105392D01*
X0200828Y0105991D02*
X0201772Y0105991D01*
X0201772Y0106589D02*
X0200828Y0106589D01*
X0200828Y0107188D02*
X0201772Y0107188D01*
X0201772Y0107786D02*
X0200828Y0107786D01*
X0200828Y0108385D02*
X0201772Y0108385D01*
X0201772Y0108983D02*
X0200828Y0108983D01*
X0200828Y0109582D02*
X0201772Y0109582D01*
X0202358Y0110180D02*
X0200242Y0110180D01*
X0199302Y0110779D02*
X0203376Y0110779D01*
X0203376Y0111377D02*
X0199302Y0111377D01*
X0199302Y0111976D02*
X0203376Y0111976D01*
X0203376Y0112574D02*
X0199302Y0112574D01*
X0199302Y0113173D02*
X0203376Y0113173D01*
X0203376Y0113772D02*
X0199302Y0113772D01*
X0199302Y0114370D02*
X0203376Y0114370D01*
X0203376Y0114969D02*
X0199302Y0114969D01*
X0199302Y0115567D02*
X0203376Y0115567D01*
X0203376Y0116166D02*
X0199302Y0116166D01*
X0199731Y0116764D02*
X0203376Y0116764D01*
X0203376Y0117363D02*
X0200154Y0117363D01*
X0200402Y0117961D02*
X0203376Y0117961D01*
X0202849Y0118560D02*
X0200502Y0118560D01*
X0200502Y0119158D02*
X0202251Y0119158D01*
X0201652Y0119757D02*
X0200370Y0119757D01*
X0200122Y0120355D02*
X0201054Y0120355D01*
X0200455Y0120954D02*
X0199652Y0120954D01*
X0199857Y0121552D02*
X0198906Y0121552D01*
X0199258Y0122151D02*
X0196694Y0122151D01*
X0196694Y0122749D02*
X0198660Y0122749D01*
X0198061Y0123348D02*
X0196694Y0123348D01*
X0196694Y0123946D02*
X0197471Y0123946D01*
X0197471Y0124545D02*
X0196694Y0124545D01*
X0196694Y0125143D02*
X0197471Y0125143D01*
X0197471Y0125742D02*
X0196694Y0125742D01*
X0196694Y0126340D02*
X0197471Y0126340D01*
X0197471Y0126939D02*
X0196694Y0126939D01*
X0196694Y0127537D02*
X0197471Y0127537D01*
X0197471Y0128136D02*
X0196694Y0128136D01*
X0196694Y0128734D02*
X0197471Y0128734D01*
X0197471Y0129333D02*
X0196694Y0129333D01*
X0196694Y0129931D02*
X0197471Y0129931D01*
X0197471Y0130530D02*
X0196694Y0130530D01*
X0196538Y0131128D02*
X0197471Y0131128D01*
X0197471Y0131727D02*
X0195940Y0131727D01*
X0197471Y0132325D02*
X0179175Y0132325D01*
X0179175Y0131727D02*
X0189337Y0131727D01*
X0188739Y0131128D02*
X0179175Y0131128D01*
X0179521Y0130530D02*
X0188583Y0130530D01*
X0188583Y0129931D02*
X0180119Y0129931D01*
X0180718Y0129333D02*
X0188583Y0129333D01*
X0188583Y0128734D02*
X0181316Y0128734D01*
X0178337Y0126340D02*
X0165287Y0126340D01*
X0164689Y0125742D02*
X0178935Y0125742D01*
X0177635Y0125143D02*
X0174965Y0125143D01*
X0174933Y0125175D02*
X0174636Y0125346D01*
X0174306Y0125435D01*
X0172860Y0125435D01*
X0172860Y0122663D01*
X0175435Y0122663D01*
X0175435Y0124306D01*
X0175346Y0124636D01*
X0175175Y0124933D01*
X0174933Y0125175D01*
X0175371Y0124545D02*
X0177165Y0124545D01*
X0177165Y0123946D02*
X0175435Y0123946D01*
X0175435Y0123348D02*
X0177165Y0123348D01*
X0177165Y0122749D02*
X0175435Y0122749D01*
X0175435Y0122063D02*
X0172860Y0122063D01*
X0172860Y0122663D01*
X0172260Y0122663D01*
X0172260Y0125435D01*
X0170814Y0125435D01*
X0170483Y0125346D01*
X0170187Y0125175D01*
X0169945Y0124933D01*
X0169774Y0124636D01*
X0169685Y0124306D01*
X0169685Y0122663D01*
X0172260Y0122663D01*
X0172260Y0122063D01*
X0172860Y0122063D01*
X0172860Y0119291D01*
X0174306Y0119291D01*
X0174636Y0119380D01*
X0174933Y0119551D01*
X0175175Y0119793D01*
X0175346Y0120090D01*
X0175435Y0120420D01*
X0175435Y0122063D01*
X0175435Y0121552D02*
X0177165Y0121552D01*
X0177165Y0120954D02*
X0175435Y0120954D01*
X0175417Y0120355D02*
X0177165Y0120355D01*
X0177462Y0119757D02*
X0175138Y0119757D01*
X0172860Y0119757D02*
X0172260Y0119757D01*
X0172260Y0119291D02*
X0170814Y0119291D01*
X0170483Y0119380D01*
X0170187Y0119551D01*
X0169945Y0119793D01*
X0169774Y0120090D01*
X0169685Y0120420D01*
X0169685Y0122063D01*
X0172260Y0122063D01*
X0172260Y0119291D01*
X0172260Y0120355D02*
X0172860Y0120355D01*
X0172860Y0120954D02*
X0172260Y0120954D01*
X0172260Y0121552D02*
X0172860Y0121552D01*
X0172860Y0122151D02*
X0177165Y0122151D01*
X0178770Y0119158D02*
X0164805Y0119158D01*
X0164805Y0118560D02*
X0178770Y0118560D01*
X0178770Y0117961D02*
X0164805Y0117961D01*
X0164805Y0117363D02*
X0178770Y0117363D01*
X0178770Y0116764D02*
X0164805Y0116764D01*
X0164343Y0116166D02*
X0178770Y0116166D01*
X0178770Y0115567D02*
X0108254Y0115567D01*
X0107656Y0114969D02*
X0178770Y0114969D01*
X0178770Y0114370D02*
X0164202Y0114370D01*
X0164043Y0114529D02*
X0153124Y0114529D01*
X0152362Y0113768D01*
X0152362Y0108754D01*
X0153124Y0107992D01*
X0164043Y0107992D01*
X0164805Y0108754D01*
X0164805Y0113768D01*
X0164043Y0114529D01*
X0164801Y0113772D02*
X0178770Y0113772D01*
X0178770Y0113173D02*
X0164805Y0113173D01*
X0164805Y0112574D02*
X0178770Y0112574D01*
X0178770Y0111976D02*
X0164805Y0111976D01*
X0164805Y0111377D02*
X0178770Y0111377D01*
X0179134Y0110779D02*
X0164805Y0110779D01*
X0164805Y0110180D02*
X0174484Y0110180D01*
X0173898Y0109582D02*
X0164805Y0109582D01*
X0164805Y0108983D02*
X0173898Y0108983D01*
X0173898Y0108385D02*
X0164436Y0108385D01*
X0164109Y0106589D02*
X0169098Y0106589D01*
X0168850Y0105991D02*
X0164707Y0105991D01*
X0164805Y0105392D02*
X0168712Y0105392D01*
X0169575Y0107188D02*
X0122154Y0107188D01*
X0121556Y0107786D02*
X0170341Y0107786D01*
X0173282Y0107786D02*
X0173898Y0107786D01*
X0173538Y0102400D02*
X0174503Y0102400D01*
X0175817Y0101801D02*
X0171260Y0101801D01*
X0170661Y0101203D02*
X0175817Y0101203D01*
X0175817Y0100604D02*
X0164529Y0100604D01*
X0164043Y0098781D02*
X0153124Y0098781D01*
X0152362Y0098020D01*
X0152362Y0093006D01*
X0153124Y0092244D01*
X0164043Y0092244D01*
X0164805Y0093006D01*
X0164805Y0098020D01*
X0164043Y0098781D01*
X0164614Y0098210D02*
X0167967Y0098210D01*
X0167683Y0097612D02*
X0164805Y0097612D01*
X0164805Y0097013D02*
X0167435Y0097013D01*
X0167188Y0096415D02*
X0164805Y0096415D01*
X0164805Y0095816D02*
X0167134Y0095816D01*
X0167134Y0095218D02*
X0164805Y0095218D01*
X0164805Y0094619D02*
X0167134Y0094619D01*
X0167236Y0094021D02*
X0164805Y0094021D01*
X0164805Y0093422D02*
X0167484Y0093422D01*
X0167732Y0092824D02*
X0164623Y0092824D01*
X0164043Y0090907D02*
X0153124Y0090907D01*
X0152425Y0090208D01*
X0139134Y0090208D01*
X0119794Y0109548D01*
X0119794Y0110578D01*
X0119322Y0111717D01*
X0118450Y0112589D01*
X0117310Y0113061D01*
X0116077Y0113061D01*
X0114938Y0112589D01*
X0114066Y0111717D01*
X0113594Y0110578D01*
X0113594Y0109345D01*
X0114066Y0108205D01*
X0114938Y0107333D01*
X0116077Y0106861D01*
X0117107Y0106861D01*
X0137560Y0086408D01*
X0152362Y0086408D01*
X0152362Y0085132D01*
X0153124Y0084370D01*
X0164043Y0084370D01*
X0164805Y0085132D01*
X0164805Y0090146D01*
X0164043Y0090907D01*
X0164521Y0090430D02*
X0170654Y0090430D01*
X0169281Y0091028D02*
X0138314Y0091028D01*
X0138913Y0090430D02*
X0152646Y0090430D01*
X0152544Y0092824D02*
X0136518Y0092824D01*
X0135920Y0093422D02*
X0152362Y0093422D01*
X0152362Y0094021D02*
X0135321Y0094021D01*
X0134723Y0094619D02*
X0152362Y0094619D01*
X0152362Y0095218D02*
X0134124Y0095218D01*
X0133526Y0095816D02*
X0152362Y0095816D01*
X0152362Y0096415D02*
X0132927Y0096415D01*
X0132329Y0097013D02*
X0152362Y0097013D01*
X0152362Y0097612D02*
X0131730Y0097612D01*
X0131132Y0098210D02*
X0152553Y0098210D01*
X0152638Y0100604D02*
X0128738Y0100604D01*
X0129336Y0100006D02*
X0170370Y0100006D01*
X0169164Y0099407D02*
X0129935Y0099407D01*
X0130533Y0098809D02*
X0168565Y0098809D01*
X0174041Y0100006D02*
X0175817Y0100006D01*
X0175817Y0099407D02*
X0175247Y0099407D01*
X0176976Y0097013D02*
X0177152Y0097013D01*
X0177224Y0096415D02*
X0177750Y0096415D01*
X0177786Y0095816D02*
X0177277Y0095816D01*
X0177277Y0095218D02*
X0177786Y0095218D01*
X0177786Y0094619D02*
X0177277Y0094619D01*
X0177175Y0094021D02*
X0177786Y0094021D01*
X0177786Y0093422D02*
X0176927Y0093422D01*
X0176679Y0092824D02*
X0177786Y0092824D01*
X0177786Y0092225D02*
X0176327Y0092225D01*
X0175728Y0091627D02*
X0177786Y0091627D01*
X0177786Y0091028D02*
X0175130Y0091028D01*
X0173757Y0090430D02*
X0177786Y0090430D01*
X0177786Y0089831D02*
X0164805Y0089831D01*
X0164805Y0089233D02*
X0177786Y0089233D01*
X0177786Y0088634D02*
X0164805Y0088634D01*
X0164805Y0088036D02*
X0177786Y0088036D01*
X0177786Y0087437D02*
X0164805Y0087437D01*
X0164805Y0086839D02*
X0177786Y0086839D01*
X0177786Y0086240D02*
X0164805Y0086240D01*
X0164805Y0085641D02*
X0177786Y0085641D01*
X0177786Y0085043D02*
X0164716Y0085043D01*
X0164118Y0084444D02*
X0177786Y0084444D01*
X0171553Y0083846D02*
X0137622Y0083846D01*
X0137024Y0084444D02*
X0153049Y0084444D01*
X0152451Y0085043D02*
X0136425Y0085043D01*
X0135827Y0085641D02*
X0152362Y0085641D01*
X0152362Y0086240D02*
X0135228Y0086240D01*
X0134630Y0086839D02*
X0137130Y0086839D01*
X0136531Y0087437D02*
X0134031Y0087437D01*
X0133433Y0088036D02*
X0135933Y0088036D01*
X0135334Y0088634D02*
X0132834Y0088634D01*
X0132236Y0089233D02*
X0134736Y0089233D01*
X0134137Y0089831D02*
X0131637Y0089831D01*
X0131039Y0090430D02*
X0133539Y0090430D01*
X0132940Y0091028D02*
X0130440Y0091028D01*
X0129841Y0091627D02*
X0132342Y0091627D01*
X0131743Y0092225D02*
X0129243Y0092225D01*
X0128644Y0092824D02*
X0131144Y0092824D01*
X0130546Y0093422D02*
X0128046Y0093422D01*
X0127447Y0094021D02*
X0129947Y0094021D01*
X0129349Y0094619D02*
X0126849Y0094619D01*
X0126250Y0095218D02*
X0128750Y0095218D01*
X0128152Y0095816D02*
X0125652Y0095816D01*
X0125053Y0096415D02*
X0127553Y0096415D01*
X0126955Y0097013D02*
X0124455Y0097013D01*
X0123856Y0097612D02*
X0126356Y0097612D01*
X0125758Y0098210D02*
X0123258Y0098210D01*
X0122659Y0098809D02*
X0125159Y0098809D01*
X0124561Y0099407D02*
X0122061Y0099407D01*
X0121462Y0100006D02*
X0123962Y0100006D01*
X0123364Y0100604D02*
X0120864Y0100604D01*
X0120265Y0101203D02*
X0122765Y0101203D01*
X0122167Y0101801D02*
X0119667Y0101801D01*
X0119068Y0102400D02*
X0121568Y0102400D01*
X0120970Y0102998D02*
X0118470Y0102998D01*
X0117871Y0103597D02*
X0120371Y0103597D01*
X0119773Y0104195D02*
X0117273Y0104195D01*
X0116674Y0104794D02*
X0119174Y0104794D01*
X0118576Y0105392D02*
X0116076Y0105392D01*
X0115477Y0105991D02*
X0117977Y0105991D01*
X0117379Y0106589D02*
X0114879Y0106589D01*
X0115289Y0107188D02*
X0114280Y0107188D01*
X0114485Y0107786D02*
X0113682Y0107786D01*
X0113991Y0108385D02*
X0113083Y0108385D01*
X0112485Y0108983D02*
X0113743Y0108983D01*
X0113594Y0109582D02*
X0111886Y0109582D01*
X0111288Y0110180D02*
X0113594Y0110180D01*
X0113677Y0110779D02*
X0110689Y0110779D01*
X0110091Y0111377D02*
X0113925Y0111377D01*
X0114324Y0111976D02*
X0109951Y0111976D01*
X0109951Y0111517D02*
X0109951Y0112547D01*
X0109479Y0113686D01*
X0108607Y0114558D01*
X0107644Y0114957D01*
X0128092Y0135405D01*
X0129121Y0135405D01*
X0130261Y0135877D01*
X0131133Y0136749D01*
X0131605Y0137888D01*
X0131605Y0139121D01*
X0131133Y0140261D01*
X0130852Y0140542D01*
X0161772Y0140542D01*
X0171665Y0150434D01*
X0171665Y0149699D01*
X0172137Y0148560D01*
X0173009Y0147688D01*
X0174148Y0147216D01*
X0175178Y0147216D01*
X0180739Y0141655D01*
X0181852Y0140542D01*
X0208298Y0140542D01*
X0208298Y0131734D01*
X0206667Y0131734D01*
X0205906Y0130972D01*
X0205906Y0121628D01*
X0206667Y0120866D01*
X0213256Y0120866D01*
X0214017Y0121628D01*
X0214017Y0130972D01*
X0213256Y0131734D01*
X0212098Y0131734D01*
X0212098Y0140542D01*
X0215862Y0140542D01*
X0215998Y0140214D01*
X0217143Y0139069D01*
X0218640Y0138449D01*
X0220260Y0138449D01*
X0221756Y0139069D01*
X0222901Y0140214D01*
X0223521Y0141711D01*
X0223521Y0143330D01*
X0222901Y0144827D01*
X0221756Y0145972D01*
X0220260Y0146592D01*
X0218640Y0146592D01*
X0217143Y0145972D01*
X0215998Y0144827D01*
X0215797Y0144342D01*
X0183426Y0144342D01*
X0177865Y0149903D01*
X0177865Y0150932D01*
X0177393Y0152072D01*
X0176521Y0152944D01*
X0175381Y0153416D01*
X0174646Y0153416D01*
X0180293Y0159063D01*
X0180445Y0159000D01*
X0182155Y0159000D01*
X0183736Y0159655D01*
X0184945Y0160864D01*
X0185600Y0162445D01*
X0185600Y0170155D01*
X0184945Y0171736D01*
X0183736Y0172945D01*
X0182155Y0173600D01*
X0180445Y0173600D01*
X0178864Y0172945D01*
X0177655Y0171736D01*
X0177000Y0170155D01*
X0177000Y0162445D01*
X0177381Y0161525D01*
X0160198Y0144342D01*
X0155729Y0144342D01*
X0155995Y0144607D01*
X0160285Y0148898D01*
X0164594Y0148898D01*
X0165356Y0149659D01*
X0165356Y0155067D01*
X0164594Y0155828D01*
X0158006Y0155828D01*
X0157244Y0155067D01*
X0157244Y0151230D01*
X0153308Y0147294D01*
X0083742Y0147294D01*
X0083742Y0147333D01*
X0082831Y0149533D01*
X0081147Y0151216D01*
X0078947Y0152128D01*
X0067196Y0152128D01*
X0064996Y0151216D01*
X0063313Y0149533D01*
X0062402Y0147333D01*
X0062402Y0144952D01*
X0063313Y0142752D01*
X0064996Y0141069D01*
X0067196Y0140157D01*
X0078947Y0140157D01*
X0081147Y0141069D01*
X0082831Y0142752D01*
X0083138Y0143494D01*
X0115059Y0143494D01*
X0114794Y0143229D01*
X0093968Y0122403D01*
X0088753Y0122403D01*
X0087795Y0121446D01*
X0087795Y0116824D01*
X0088753Y0115866D01*
X0099280Y0115866D01*
X0100238Y0116824D01*
X0100238Y0121446D01*
X0099311Y0122372D01*
X0117481Y0140542D01*
X0126158Y0140542D01*
X0125877Y0140261D01*
X0125405Y0139121D01*
X0125405Y0138092D01*
X0101143Y0113830D01*
X0100175Y0113830D01*
X0099476Y0114529D01*
X0088557Y0114529D01*
X0087795Y0113768D01*
X0087795Y0108754D01*
X0088557Y0107992D01*
X0099476Y0107992D01*
X0100238Y0108754D01*
X0100238Y0110030D01*
X0102717Y0110030D01*
X0103824Y0111137D01*
X0104223Y0110174D01*
X0105095Y0109302D01*
X0106235Y0108830D01*
X0107264Y0108830D01*
X0137560Y0078534D01*
X0152362Y0078534D01*
X0152362Y0077258D01*
X0153124Y0076496D01*
X0164043Y0076496D01*
X0164805Y0077258D01*
X0164805Y0082272D01*
X0164043Y0083033D01*
X0153124Y0083033D01*
X0152425Y0082334D01*
X0139134Y0082334D01*
X0109951Y0111517D01*
X0109940Y0112574D02*
X0114923Y0112574D01*
X0118465Y0112574D02*
X0152362Y0112574D01*
X0152362Y0111976D02*
X0119063Y0111976D01*
X0119463Y0111377D02*
X0152362Y0111377D01*
X0152362Y0110779D02*
X0119710Y0110779D01*
X0119794Y0110180D02*
X0152362Y0110180D01*
X0152362Y0109582D02*
X0119794Y0109582D01*
X0120359Y0108983D02*
X0152362Y0108983D01*
X0152731Y0108385D02*
X0120957Y0108385D01*
X0122753Y0106589D02*
X0153058Y0106589D01*
X0152459Y0105991D02*
X0123351Y0105991D01*
X0123950Y0105392D02*
X0152362Y0105392D01*
X0152362Y0104794D02*
X0124548Y0104794D01*
X0125147Y0104195D02*
X0152362Y0104195D01*
X0152362Y0103597D02*
X0125745Y0103597D01*
X0126344Y0102998D02*
X0152362Y0102998D01*
X0152362Y0102400D02*
X0126942Y0102400D01*
X0127541Y0101801D02*
X0152362Y0101801D01*
X0152362Y0101203D02*
X0128139Y0101203D01*
X0121475Y0094619D02*
X0100238Y0094619D01*
X0100238Y0094021D02*
X0122073Y0094021D01*
X0122672Y0093422D02*
X0100238Y0093422D01*
X0100238Y0093006D02*
X0100238Y0098020D01*
X0099476Y0098781D01*
X0088557Y0098781D01*
X0087795Y0098020D01*
X0087795Y0093006D01*
X0088557Y0092244D01*
X0099476Y0092244D01*
X0100238Y0093006D01*
X0100056Y0092824D02*
X0123270Y0092824D01*
X0123869Y0092225D02*
X0081867Y0092225D01*
X0081713Y0092379D02*
X0079146Y0093443D01*
X0066997Y0093443D01*
X0064430Y0092379D01*
X0062465Y0090414D01*
X0061402Y0087847D01*
X0061402Y0085068D01*
X0062465Y0082501D01*
X0064430Y0080536D01*
X0066997Y0079472D01*
X0079146Y0079472D01*
X0081713Y0080536D01*
X0083678Y0082501D01*
X0084742Y0085068D01*
X0084742Y0087847D01*
X0083678Y0090414D01*
X0081713Y0092379D01*
X0082466Y0091627D02*
X0124467Y0091627D01*
X0125066Y0091028D02*
X0103463Y0091028D01*
X0103686Y0090936D02*
X0102547Y0091408D01*
X0101313Y0091408D01*
X0100174Y0090936D01*
X0099811Y0090573D01*
X0099476Y0090907D01*
X0088557Y0090907D01*
X0087795Y0090146D01*
X0087795Y0085132D01*
X0088557Y0084370D01*
X0099476Y0084370D01*
X0100238Y0085132D01*
X0100238Y0085653D01*
X0101313Y0085208D01*
X0102547Y0085208D01*
X0103686Y0085680D01*
X0104558Y0086552D01*
X0105030Y0087691D01*
X0105030Y0088924D01*
X0104558Y0090064D01*
X0103686Y0090936D01*
X0104192Y0090430D02*
X0125665Y0090430D01*
X0126263Y0089831D02*
X0104654Y0089831D01*
X0104902Y0089233D02*
X0126862Y0089233D01*
X0127460Y0088634D02*
X0105030Y0088634D01*
X0105030Y0088036D02*
X0128059Y0088036D01*
X0128657Y0087437D02*
X0104925Y0087437D01*
X0104677Y0086839D02*
X0129256Y0086839D01*
X0129854Y0086240D02*
X0104246Y0086240D01*
X0103593Y0085641D02*
X0130453Y0085641D01*
X0131051Y0085043D02*
X0100149Y0085043D01*
X0100238Y0085641D02*
X0100266Y0085641D01*
X0099551Y0084444D02*
X0131650Y0084444D01*
X0132248Y0083846D02*
X0084235Y0083846D01*
X0083988Y0083247D02*
X0132847Y0083247D01*
X0133445Y0082649D02*
X0099860Y0082649D01*
X0100238Y0082272D02*
X0099476Y0083033D01*
X0088557Y0083033D01*
X0087795Y0082272D01*
X0087795Y0077258D01*
X0088557Y0076496D01*
X0099476Y0076496D01*
X0100238Y0077258D01*
X0100238Y0082272D01*
X0100238Y0082050D02*
X0134044Y0082050D01*
X0134642Y0081452D02*
X0100238Y0081452D01*
X0100238Y0080853D02*
X0135241Y0080853D01*
X0135839Y0080255D02*
X0100238Y0080255D01*
X0100238Y0079656D02*
X0136438Y0079656D01*
X0137036Y0079058D02*
X0100238Y0079058D01*
X0100238Y0078459D02*
X0152362Y0078459D01*
X0152362Y0077861D02*
X0100238Y0077861D01*
X0100238Y0077262D02*
X0152362Y0077262D01*
X0152956Y0076664D02*
X0099644Y0076664D01*
X0099109Y0075159D02*
X0094316Y0075159D01*
X0094316Y0072191D01*
X0093717Y0072191D01*
X0093717Y0075159D01*
X0088924Y0075159D01*
X0088593Y0075070D01*
X0088297Y0074899D01*
X0088055Y0074657D01*
X0087884Y0074361D01*
X0087795Y0074030D01*
X0087795Y0072191D01*
X0093716Y0072191D01*
X0093716Y0071591D01*
X0087795Y0071591D01*
X0087795Y0069751D01*
X0087884Y0069420D01*
X0088055Y0069124D01*
X0088297Y0068882D01*
X0088593Y0068711D01*
X0088924Y0068622D01*
X0093717Y0068622D01*
X0093717Y0071591D01*
X0094316Y0071591D01*
X0094316Y0068622D01*
X0099109Y0068622D01*
X0099440Y0068711D01*
X0099736Y0068882D01*
X0099978Y0069124D01*
X0100149Y0069420D01*
X0100238Y0069751D01*
X0100238Y0071591D01*
X0094317Y0071591D01*
X0094317Y0072191D01*
X0100238Y0072191D01*
X0100238Y0074030D01*
X0100149Y0074361D01*
X0099978Y0074657D01*
X0099736Y0074899D01*
X0099440Y0075070D01*
X0099109Y0075159D01*
X0099767Y0074868D02*
X0152833Y0074868D01*
X0152362Y0074270D02*
X0100174Y0074270D01*
X0100238Y0073671D02*
X0152362Y0073671D01*
X0152362Y0073073D02*
X0100238Y0073073D01*
X0100238Y0072474D02*
X0152362Y0072474D01*
X0152362Y0071876D02*
X0094317Y0071876D01*
X0094316Y0072474D02*
X0093717Y0072474D01*
X0093716Y0071876D02*
X0062035Y0071876D01*
X0061689Y0072474D02*
X0087795Y0072474D01*
X0087795Y0073073D02*
X0061344Y0073073D01*
X0060998Y0073671D02*
X0087795Y0073671D01*
X0087859Y0074270D02*
X0060689Y0074270D01*
X0060431Y0074868D02*
X0088266Y0074868D01*
X0088389Y0076664D02*
X0059656Y0076664D01*
X0059398Y0077262D02*
X0087795Y0077262D01*
X0087795Y0077861D02*
X0059140Y0077861D01*
X0058882Y0078459D02*
X0087795Y0078459D01*
X0087795Y0079058D02*
X0058623Y0079058D01*
X0058365Y0079656D02*
X0066553Y0079656D01*
X0065108Y0080255D02*
X0058107Y0080255D01*
X0057849Y0080853D02*
X0064112Y0080853D01*
X0063514Y0081452D02*
X0057591Y0081452D01*
X0057333Y0082050D02*
X0062915Y0082050D01*
X0062404Y0082649D02*
X0057074Y0082649D01*
X0056816Y0083247D02*
X0062156Y0083247D01*
X0061908Y0083846D02*
X0056558Y0083846D01*
X0056368Y0084444D02*
X0061660Y0084444D01*
X0061412Y0085043D02*
X0056189Y0085043D01*
X0056010Y0085641D02*
X0061402Y0085641D01*
X0061402Y0086240D02*
X0055831Y0086240D01*
X0055652Y0086839D02*
X0061402Y0086839D01*
X0061402Y0087437D02*
X0055473Y0087437D01*
X0055293Y0088036D02*
X0061480Y0088036D01*
X0061728Y0088634D02*
X0055114Y0088634D01*
X0054935Y0089233D02*
X0061976Y0089233D01*
X0062223Y0089831D02*
X0054756Y0089831D01*
X0054577Y0090430D02*
X0062480Y0090430D01*
X0063079Y0091028D02*
X0054397Y0091028D01*
X0054218Y0091627D02*
X0063677Y0091627D01*
X0064276Y0092225D02*
X0054039Y0092225D01*
X0053860Y0092824D02*
X0065503Y0092824D01*
X0066948Y0093422D02*
X0053681Y0093422D01*
X0053501Y0094021D02*
X0087795Y0094021D01*
X0087795Y0094619D02*
X0053367Y0094619D01*
X0053261Y0095218D02*
X0087795Y0095218D01*
X0087795Y0095816D02*
X0053156Y0095816D01*
X0053050Y0096415D02*
X0087795Y0096415D01*
X0087795Y0097013D02*
X0052944Y0097013D01*
X0052839Y0097612D02*
X0087795Y0097612D01*
X0087986Y0098210D02*
X0052733Y0098210D01*
X0052628Y0098809D02*
X0117285Y0098809D01*
X0116687Y0099407D02*
X0079749Y0099407D01*
X0079146Y0099157D02*
X0081713Y0100221D01*
X0083678Y0102186D01*
X0084742Y0104753D01*
X0084742Y0107532D01*
X0083678Y0110099D01*
X0081713Y0112064D01*
X0079146Y0113128D01*
X0066997Y0113128D01*
X0064430Y0112064D01*
X0062465Y0110099D01*
X0061402Y0107532D01*
X0061402Y0104753D01*
X0062465Y0102186D01*
X0064430Y0100221D01*
X0066997Y0099157D01*
X0079146Y0099157D01*
X0081194Y0100006D02*
X0116088Y0100006D01*
X0115490Y0100604D02*
X0099962Y0100604D01*
X0100238Y0100880D02*
X0100238Y0105894D01*
X0099476Y0106655D01*
X0088557Y0106655D01*
X0087795Y0105894D01*
X0087795Y0100880D01*
X0088557Y0100118D01*
X0099476Y0100118D01*
X0100238Y0100880D01*
X0100238Y0101203D02*
X0114891Y0101203D01*
X0114293Y0101801D02*
X0100238Y0101801D01*
X0100238Y0102400D02*
X0113694Y0102400D01*
X0113096Y0102998D02*
X0100238Y0102998D01*
X0100238Y0103597D02*
X0112497Y0103597D01*
X0111899Y0104195D02*
X0100238Y0104195D01*
X0100238Y0104794D02*
X0111300Y0104794D01*
X0110702Y0105392D02*
X0100238Y0105392D01*
X0100141Y0105991D02*
X0110103Y0105991D01*
X0109505Y0106589D02*
X0099542Y0106589D01*
X0099869Y0108385D02*
X0107709Y0108385D01*
X0108308Y0107786D02*
X0084636Y0107786D01*
X0084742Y0107188D02*
X0108906Y0107188D01*
X0105864Y0108983D02*
X0100238Y0108983D01*
X0100238Y0109582D02*
X0104815Y0109582D01*
X0104220Y0110180D02*
X0102867Y0110180D01*
X0103466Y0110779D02*
X0103973Y0110779D01*
X0101683Y0114370D02*
X0099635Y0114370D01*
X0099580Y0116166D02*
X0103479Y0116166D01*
X0104077Y0116764D02*
X0100178Y0116764D01*
X0100238Y0117363D02*
X0104676Y0117363D01*
X0105274Y0117961D02*
X0100238Y0117961D01*
X0100238Y0118560D02*
X0105873Y0118560D01*
X0106471Y0119158D02*
X0100238Y0119158D01*
X0100238Y0119757D02*
X0107070Y0119757D01*
X0107668Y0120355D02*
X0100238Y0120355D01*
X0100238Y0120954D02*
X0108267Y0120954D01*
X0108865Y0121552D02*
X0100131Y0121552D01*
X0099533Y0122151D02*
X0109464Y0122151D01*
X0110062Y0122749D02*
X0099688Y0122749D01*
X0100287Y0123348D02*
X0110661Y0123348D01*
X0111259Y0123946D02*
X0100885Y0123946D01*
X0101484Y0124545D02*
X0111858Y0124545D01*
X0112456Y0125143D02*
X0102082Y0125143D01*
X0102681Y0125742D02*
X0113055Y0125742D01*
X0113653Y0126340D02*
X0103279Y0126340D01*
X0103878Y0126939D02*
X0114252Y0126939D01*
X0114850Y0127537D02*
X0104476Y0127537D01*
X0105075Y0128136D02*
X0115449Y0128136D01*
X0116047Y0128734D02*
X0105673Y0128734D01*
X0106272Y0129333D02*
X0116646Y0129333D01*
X0117244Y0129931D02*
X0106870Y0129931D01*
X0107469Y0130530D02*
X0117843Y0130530D01*
X0118441Y0131128D02*
X0108067Y0131128D01*
X0108666Y0131727D02*
X0119040Y0131727D01*
X0119638Y0132325D02*
X0109264Y0132325D01*
X0109863Y0132924D02*
X0120237Y0132924D01*
X0120835Y0133522D02*
X0110461Y0133522D01*
X0111060Y0134121D02*
X0121434Y0134121D01*
X0122032Y0134719D02*
X0111658Y0134719D01*
X0112257Y0135318D02*
X0122631Y0135318D01*
X0123229Y0135916D02*
X0112855Y0135916D01*
X0113454Y0136515D02*
X0123828Y0136515D01*
X0124426Y0137113D02*
X0114052Y0137113D01*
X0114651Y0137712D02*
X0125025Y0137712D01*
X0125405Y0138310D02*
X0115249Y0138310D01*
X0115848Y0138909D02*
X0125405Y0138909D01*
X0125565Y0139508D02*
X0116446Y0139508D01*
X0117045Y0140106D02*
X0125813Y0140106D01*
X0128005Y0135318D02*
X0168891Y0135318D01*
X0169489Y0135916D02*
X0130300Y0135916D01*
X0130899Y0136515D02*
X0170088Y0136515D01*
X0170686Y0137113D02*
X0131284Y0137113D01*
X0131532Y0137712D02*
X0208298Y0137712D01*
X0208298Y0138310D02*
X0131605Y0138310D01*
X0131605Y0138909D02*
X0170285Y0138909D01*
X0169899Y0139069D02*
X0171396Y0138449D01*
X0173015Y0138449D01*
X0174512Y0139069D01*
X0175657Y0140214D01*
X0176277Y0141711D01*
X0176277Y0143330D01*
X0175657Y0144827D01*
X0174512Y0145972D01*
X0173015Y0146592D01*
X0171396Y0146592D01*
X0169899Y0145972D01*
X0168754Y0144827D01*
X0168134Y0143330D01*
X0168134Y0141711D01*
X0168754Y0140214D01*
X0169899Y0139069D01*
X0169460Y0139508D02*
X0131445Y0139508D01*
X0131197Y0140106D02*
X0168862Y0140106D01*
X0168551Y0140705D02*
X0161935Y0140705D01*
X0162533Y0141303D02*
X0168303Y0141303D01*
X0168134Y0141902D02*
X0163132Y0141902D01*
X0163730Y0142500D02*
X0168134Y0142500D01*
X0168134Y0143099D02*
X0164329Y0143099D01*
X0164927Y0143697D02*
X0168286Y0143697D01*
X0168534Y0144296D02*
X0165526Y0144296D01*
X0166124Y0144894D02*
X0168821Y0144894D01*
X0169419Y0145493D02*
X0166723Y0145493D01*
X0167321Y0146091D02*
X0170186Y0146091D01*
X0168518Y0147288D02*
X0173973Y0147288D01*
X0174225Y0146091D02*
X0176302Y0146091D01*
X0175704Y0146690D02*
X0167920Y0146690D01*
X0169117Y0147887D02*
X0172810Y0147887D01*
X0172211Y0148485D02*
X0169715Y0148485D01*
X0170314Y0149084D02*
X0171919Y0149084D01*
X0171672Y0149682D02*
X0170912Y0149682D01*
X0171511Y0150281D02*
X0171665Y0150281D01*
X0169130Y0153273D02*
X0165356Y0153273D01*
X0165356Y0152675D02*
X0168531Y0152675D01*
X0167933Y0152076D02*
X0165356Y0152076D01*
X0165356Y0151478D02*
X0167334Y0151478D01*
X0166736Y0150879D02*
X0165356Y0150879D01*
X0165356Y0150281D02*
X0166137Y0150281D01*
X0165539Y0149682D02*
X0165356Y0149682D01*
X0164940Y0149084D02*
X0164780Y0149084D01*
X0164341Y0148485D02*
X0159873Y0148485D01*
X0159274Y0147887D02*
X0163743Y0147887D01*
X0163144Y0147288D02*
X0158676Y0147288D01*
X0158077Y0146690D02*
X0162546Y0146690D01*
X0161947Y0146091D02*
X0157479Y0146091D01*
X0156880Y0145493D02*
X0161349Y0145493D01*
X0160750Y0144894D02*
X0156282Y0144894D01*
X0153900Y0147887D02*
X0083512Y0147887D01*
X0083264Y0148485D02*
X0114176Y0148485D01*
X0113578Y0149084D02*
X0083017Y0149084D01*
X0082681Y0149682D02*
X0113500Y0149682D01*
X0113500Y0150281D02*
X0082083Y0150281D01*
X0081484Y0150879D02*
X0113500Y0150879D01*
X0113500Y0151478D02*
X0080516Y0151478D01*
X0079071Y0152076D02*
X0102268Y0152076D01*
X0102352Y0151992D02*
X0102649Y0151821D01*
X0102979Y0151732D01*
X0106000Y0151732D01*
X0106000Y0155488D01*
X0106600Y0155488D01*
X0106600Y0151732D01*
X0109621Y0151732D01*
X0109951Y0151821D01*
X0110248Y0151992D01*
X0110490Y0152234D01*
X0110661Y0152530D01*
X0110750Y0152861D01*
X0110750Y0155488D01*
X0106600Y0155488D01*
X0106600Y0156088D01*
X0110750Y0156088D01*
X0110750Y0158715D01*
X0110661Y0159046D01*
X0110490Y0159342D01*
X0110248Y0159584D01*
X0109951Y0159755D01*
X0109621Y0159844D01*
X0106600Y0159844D01*
X0106600Y0156088D01*
X0106000Y0156088D01*
X0106000Y0155488D01*
X0101850Y0155488D01*
X0101850Y0152861D01*
X0101939Y0152530D01*
X0102110Y0152234D01*
X0102352Y0151992D01*
X0101900Y0152675D02*
X0058810Y0152675D01*
X0059068Y0153273D02*
X0101850Y0153273D01*
X0101850Y0153872D02*
X0059326Y0153872D01*
X0059584Y0154470D02*
X0101850Y0154470D01*
X0101850Y0155069D02*
X0059842Y0155069D01*
X0060101Y0155667D02*
X0106000Y0155667D01*
X0106000Y0156088D02*
X0101850Y0156088D01*
X0101850Y0158715D01*
X0101939Y0159046D01*
X0102110Y0159342D01*
X0102352Y0159584D01*
X0102649Y0159755D01*
X0102979Y0159844D01*
X0106000Y0159844D01*
X0106000Y0156088D01*
X0106000Y0156266D02*
X0106600Y0156266D01*
X0106600Y0156864D02*
X0106000Y0156864D01*
X0106000Y0157463D02*
X0106600Y0157463D01*
X0106600Y0158061D02*
X0106000Y0158061D01*
X0106000Y0158660D02*
X0106600Y0158660D01*
X0106600Y0159258D02*
X0106000Y0159258D01*
X0108576Y0161652D02*
X0086300Y0161652D01*
X0086300Y0161694D02*
X0086177Y0162471D01*
X0085934Y0163219D01*
X0085576Y0163921D01*
X0085114Y0164557D01*
X0084557Y0165114D01*
X0083921Y0165576D01*
X0083219Y0165934D01*
X0082471Y0166177D01*
X0081694Y0166300D01*
X0081600Y0166300D01*
X0081600Y0161600D01*
X0081000Y0161600D01*
X0081000Y0166300D01*
X0080906Y0166300D01*
X0080129Y0166177D01*
X0079381Y0165934D01*
X0078679Y0165576D01*
X0078043Y0165114D01*
X0077486Y0164557D01*
X0077024Y0163921D01*
X0076666Y0163219D01*
X0076423Y0162471D01*
X0076300Y0161694D01*
X0076300Y0161600D01*
X0081000Y0161600D01*
X0081000Y0161000D01*
X0076300Y0161000D01*
X0076300Y0160906D01*
X0076423Y0160129D01*
X0076666Y0159381D01*
X0077024Y0158679D01*
X0077486Y0158043D01*
X0078043Y0157486D01*
X0078679Y0157024D01*
X0079381Y0156666D01*
X0080129Y0156423D01*
X0080906Y0156300D01*
X0081000Y0156300D01*
X0081000Y0161000D01*
X0081600Y0161000D01*
X0081600Y0161600D01*
X0086300Y0161600D01*
X0086300Y0161694D01*
X0086212Y0162251D02*
X0107977Y0162251D01*
X0109174Y0161054D02*
X0081600Y0161054D01*
X0081600Y0161000D02*
X0086300Y0161000D01*
X0086300Y0160906D01*
X0086177Y0160129D01*
X0085934Y0159381D01*
X0085576Y0158679D01*
X0085114Y0158043D01*
X0084557Y0157486D01*
X0083921Y0157024D01*
X0083219Y0156666D01*
X0082471Y0156423D01*
X0081694Y0156300D01*
X0081600Y0156300D01*
X0081600Y0161000D01*
X0081600Y0160455D02*
X0081000Y0160455D01*
X0081000Y0159857D02*
X0081600Y0159857D01*
X0081600Y0159258D02*
X0081000Y0159258D01*
X0081000Y0158660D02*
X0081600Y0158660D01*
X0081600Y0158061D02*
X0081000Y0158061D01*
X0081000Y0157463D02*
X0081600Y0157463D01*
X0081600Y0156864D02*
X0081000Y0156864D01*
X0078992Y0156864D02*
X0060617Y0156864D01*
X0060359Y0156266D02*
X0101850Y0156266D01*
X0101850Y0156864D02*
X0083608Y0156864D01*
X0084525Y0157463D02*
X0101850Y0157463D01*
X0101850Y0158061D02*
X0085127Y0158061D01*
X0085562Y0158660D02*
X0101850Y0158660D01*
X0102062Y0159258D02*
X0085871Y0159258D01*
X0086088Y0159857D02*
X0110371Y0159857D01*
X0110538Y0159258D02*
X0110970Y0159258D01*
X0110750Y0158660D02*
X0111568Y0158660D01*
X0112167Y0158061D02*
X0110750Y0158061D01*
X0110750Y0157463D02*
X0112765Y0157463D01*
X0113364Y0156864D02*
X0110750Y0156864D01*
X0110750Y0156266D02*
X0113500Y0156266D01*
X0113500Y0155667D02*
X0106600Y0155667D01*
X0106600Y0155069D02*
X0106000Y0155069D01*
X0106000Y0154470D02*
X0106600Y0154470D01*
X0106600Y0153872D02*
X0106000Y0153872D01*
X0106000Y0153273D02*
X0106600Y0153273D01*
X0106600Y0152675D02*
X0106000Y0152675D01*
X0106000Y0152076D02*
X0106600Y0152076D01*
X0110332Y0152076D02*
X0113500Y0152076D01*
X0113500Y0152675D02*
X0110700Y0152675D01*
X0110750Y0153273D02*
X0113500Y0153273D01*
X0113500Y0153872D02*
X0110750Y0153872D01*
X0110750Y0154470D02*
X0113500Y0154470D01*
X0113500Y0155069D02*
X0110750Y0155069D01*
X0109773Y0160455D02*
X0086229Y0160455D01*
X0086054Y0162849D02*
X0102518Y0162849D01*
X0101920Y0163448D02*
X0085817Y0163448D01*
X0085485Y0164046D02*
X0101850Y0164046D01*
X0101850Y0164645D02*
X0085026Y0164645D01*
X0084379Y0165243D02*
X0092077Y0165243D01*
X0092187Y0165134D02*
X0091945Y0165376D01*
X0091774Y0165672D01*
X0091685Y0166003D01*
X0091685Y0168874D01*
X0095685Y0168874D01*
X0095685Y0169474D01*
X0091685Y0169474D01*
X0091685Y0172345D01*
X0091774Y0172676D01*
X0091945Y0172972D01*
X0092187Y0173214D01*
X0092483Y0173385D01*
X0092814Y0173474D01*
X0095685Y0173474D01*
X0095685Y0169474D01*
X0096285Y0169474D01*
X0096285Y0173474D01*
X0099156Y0173474D01*
X0099487Y0173385D01*
X0099783Y0173214D01*
X0100025Y0172972D01*
X0100196Y0172676D01*
X0100285Y0172345D01*
X0100285Y0169474D01*
X0096285Y0169474D01*
X0096285Y0168874D01*
X0096285Y0164874D01*
X0099156Y0164874D01*
X0099487Y0164963D01*
X0099783Y0165134D01*
X0100025Y0165376D01*
X0100196Y0165672D01*
X0100285Y0166003D01*
X0100285Y0168874D01*
X0096285Y0168874D01*
X0095685Y0168874D01*
X0095685Y0164874D01*
X0092814Y0164874D01*
X0092483Y0164963D01*
X0092187Y0165134D01*
X0091728Y0165842D02*
X0083399Y0165842D01*
X0082634Y0166441D02*
X0091685Y0166441D01*
X0091685Y0167039D02*
X0084079Y0167039D01*
X0084709Y0167638D02*
X0091685Y0167638D01*
X0091685Y0168236D02*
X0085307Y0168236D01*
X0085691Y0168835D02*
X0091685Y0168835D01*
X0091685Y0170032D02*
X0086187Y0170032D01*
X0086300Y0170630D02*
X0091685Y0170630D01*
X0091685Y0171229D02*
X0086300Y0171229D01*
X0086300Y0171827D02*
X0091685Y0171827D01*
X0091707Y0172426D02*
X0086246Y0172426D01*
X0085998Y0173024D02*
X0091997Y0173024D01*
X0095196Y0176017D02*
X0082978Y0176017D01*
X0083056Y0176615D02*
X0094597Y0176615D01*
X0093998Y0177214D02*
X0084285Y0177214D01*
X0084883Y0177812D02*
X0089091Y0177812D01*
X0088898Y0178411D02*
X0085482Y0178411D01*
X0084253Y0175418D02*
X0095794Y0175418D01*
X0095685Y0173024D02*
X0096285Y0173024D01*
X0096285Y0172426D02*
X0095685Y0172426D01*
X0095685Y0171827D02*
X0096285Y0171827D01*
X0096285Y0171229D02*
X0095685Y0171229D01*
X0095685Y0170630D02*
X0096285Y0170630D01*
X0096285Y0170032D02*
X0095685Y0170032D01*
X0095685Y0169433D02*
X0085939Y0169433D01*
X0085750Y0173623D02*
X0117922Y0173623D01*
X0117913Y0174221D02*
X0085450Y0174221D01*
X0084851Y0174820D02*
X0117913Y0174820D01*
X0118521Y0173024D02*
X0099973Y0173024D01*
X0100263Y0172426D02*
X0131267Y0172426D01*
X0131526Y0171827D02*
X0100285Y0171827D01*
X0100285Y0171229D02*
X0131526Y0171229D01*
X0131526Y0170630D02*
X0131275Y0170630D01*
X0127703Y0170630D02*
X0110226Y0170630D01*
X0110750Y0170032D02*
X0127104Y0170032D01*
X0123282Y0169433D02*
X0110750Y0169433D01*
X0110750Y0168835D02*
X0122683Y0168835D01*
X0122084Y0168236D02*
X0110750Y0168236D01*
X0110750Y0167638D02*
X0121486Y0167638D01*
X0120887Y0167039D02*
X0110750Y0167039D01*
X0110750Y0166441D02*
X0120289Y0166441D01*
X0119690Y0165842D02*
X0110750Y0165842D01*
X0110750Y0165243D02*
X0119092Y0165243D01*
X0118493Y0164645D02*
X0110957Y0164645D01*
X0111555Y0164046D02*
X0117895Y0164046D01*
X0117296Y0163448D02*
X0112154Y0163448D01*
X0112752Y0162849D02*
X0116698Y0162849D01*
X0116099Y0162251D02*
X0113351Y0162251D01*
X0113950Y0161652D02*
X0115501Y0161652D01*
X0114902Y0161054D02*
X0114548Y0161054D01*
X0119079Y0159857D02*
X0124636Y0159857D01*
X0124636Y0160455D02*
X0119678Y0160455D01*
X0120276Y0161054D02*
X0124636Y0161054D01*
X0124636Y0161652D02*
X0120875Y0161652D01*
X0121473Y0162251D02*
X0124636Y0162251D01*
X0124636Y0162849D02*
X0122072Y0162849D01*
X0122670Y0163448D02*
X0124636Y0163448D01*
X0124636Y0164046D02*
X0123269Y0164046D01*
X0123867Y0164645D02*
X0124636Y0164645D01*
X0124466Y0165243D02*
X0124997Y0165243D01*
X0125064Y0165842D02*
X0125596Y0165842D01*
X0128436Y0161652D02*
X0148930Y0161652D01*
X0149528Y0161054D02*
X0128436Y0161054D01*
X0128436Y0160455D02*
X0150127Y0160455D01*
X0149951Y0159755D02*
X0149621Y0159844D01*
X0146600Y0159844D01*
X0146600Y0156088D01*
X0150750Y0156088D01*
X0150750Y0158715D01*
X0150661Y0159046D01*
X0150490Y0159342D01*
X0150248Y0159584D01*
X0149951Y0159755D01*
X0150538Y0159258D02*
X0151324Y0159258D01*
X0150750Y0158660D02*
X0151922Y0158660D01*
X0150750Y0158061D02*
X0157244Y0158061D01*
X0157314Y0157463D02*
X0150750Y0157463D01*
X0150750Y0156864D02*
X0157913Y0156864D01*
X0157845Y0155667D02*
X0146600Y0155667D01*
X0146600Y0155488D02*
X0146600Y0156088D01*
X0146000Y0156088D01*
X0146000Y0155488D01*
X0146600Y0155488D01*
X0146600Y0151732D01*
X0149621Y0151732D01*
X0149951Y0151821D01*
X0150248Y0151992D01*
X0150490Y0152234D01*
X0150661Y0152530D01*
X0150750Y0152861D01*
X0150750Y0155488D01*
X0146600Y0155488D01*
X0146600Y0155069D02*
X0146000Y0155069D01*
X0146000Y0155488D02*
X0146000Y0151732D01*
X0142979Y0151732D01*
X0142649Y0151821D01*
X0142352Y0151992D01*
X0142110Y0152234D01*
X0141939Y0152530D01*
X0141850Y0152861D01*
X0141850Y0155488D01*
X0146000Y0155488D01*
X0146000Y0155667D02*
X0139100Y0155667D01*
X0139100Y0155069D02*
X0141850Y0155069D01*
X0141850Y0154470D02*
X0139100Y0154470D01*
X0139100Y0154400D02*
X0139100Y0158671D01*
X0139011Y0159002D01*
X0138840Y0159298D01*
X0138598Y0159540D01*
X0138302Y0159711D01*
X0137971Y0159800D01*
X0135700Y0159800D01*
X0135700Y0154400D01*
X0135100Y0154400D01*
X0135100Y0159800D01*
X0132829Y0159800D01*
X0132498Y0159711D01*
X0132202Y0159540D01*
X0131960Y0159298D01*
X0131789Y0159002D01*
X0131700Y0158671D01*
X0131700Y0154400D01*
X0135100Y0154400D01*
X0135100Y0153800D01*
X0131700Y0153800D01*
X0131700Y0149529D01*
X0131789Y0149198D01*
X0131960Y0148902D01*
X0132202Y0148660D01*
X0132498Y0148489D01*
X0132829Y0148400D01*
X0135100Y0148400D01*
X0135100Y0153800D01*
X0135700Y0153800D01*
X0135700Y0154400D01*
X0139100Y0154400D01*
X0139100Y0153800D02*
X0135700Y0153800D01*
X0135700Y0148400D01*
X0137971Y0148400D01*
X0138302Y0148489D01*
X0138598Y0148660D01*
X0138840Y0148902D01*
X0139011Y0149198D01*
X0139100Y0149529D01*
X0139100Y0153800D01*
X0139100Y0153273D02*
X0141850Y0153273D01*
X0141850Y0153872D02*
X0135700Y0153872D01*
X0135700Y0154470D02*
X0135100Y0154470D01*
X0135100Y0153872D02*
X0130000Y0153872D01*
X0130000Y0154470D02*
X0131700Y0154470D01*
X0131700Y0155069D02*
X0130000Y0155069D01*
X0130000Y0155667D02*
X0131700Y0155667D01*
X0131700Y0156266D02*
X0130000Y0156266D01*
X0130000Y0156864D02*
X0131700Y0156864D01*
X0131700Y0157463D02*
X0130000Y0157463D01*
X0130000Y0158061D02*
X0131700Y0158061D01*
X0131700Y0158660D02*
X0130000Y0158660D01*
X0129780Y0159258D02*
X0131937Y0159258D01*
X0135100Y0159258D02*
X0135700Y0159258D01*
X0135700Y0158660D02*
X0135100Y0158660D01*
X0135100Y0158061D02*
X0135700Y0158061D01*
X0135700Y0157463D02*
X0135100Y0157463D01*
X0135100Y0156864D02*
X0135700Y0156864D01*
X0135700Y0156266D02*
X0135100Y0156266D01*
X0135100Y0155667D02*
X0135700Y0155667D01*
X0135700Y0155069D02*
X0135100Y0155069D01*
X0135100Y0153273D02*
X0135700Y0153273D01*
X0135700Y0152675D02*
X0135100Y0152675D01*
X0135100Y0152076D02*
X0135700Y0152076D01*
X0135700Y0151478D02*
X0135100Y0151478D01*
X0135100Y0150879D02*
X0135700Y0150879D01*
X0135700Y0150281D02*
X0135100Y0150281D01*
X0135100Y0149682D02*
X0135700Y0149682D01*
X0135700Y0149084D02*
X0135100Y0149084D01*
X0135100Y0148485D02*
X0135700Y0148485D01*
X0138289Y0148485D02*
X0154499Y0148485D01*
X0155097Y0149084D02*
X0138945Y0149084D01*
X0139100Y0149682D02*
X0155696Y0149682D01*
X0156295Y0150281D02*
X0139100Y0150281D01*
X0139100Y0150879D02*
X0156893Y0150879D01*
X0157244Y0151478D02*
X0139100Y0151478D01*
X0139100Y0152076D02*
X0142268Y0152076D01*
X0141900Y0152675D02*
X0139100Y0152675D01*
X0139100Y0156266D02*
X0141850Y0156266D01*
X0141850Y0156088D02*
X0146000Y0156088D01*
X0146000Y0159844D01*
X0142979Y0159844D01*
X0142649Y0159755D01*
X0142352Y0159584D01*
X0142110Y0159342D01*
X0141939Y0159046D01*
X0141850Y0158715D01*
X0141850Y0156088D01*
X0141850Y0156864D02*
X0139100Y0156864D01*
X0139100Y0157463D02*
X0141850Y0157463D01*
X0141850Y0158061D02*
X0139100Y0158061D01*
X0139100Y0158660D02*
X0141850Y0158660D01*
X0142062Y0159258D02*
X0138863Y0159258D01*
X0140174Y0162251D02*
X0148331Y0162251D01*
X0150725Y0159857D02*
X0128436Y0159857D01*
X0122820Y0159258D02*
X0120680Y0159258D01*
X0120900Y0158660D02*
X0122600Y0158660D01*
X0122600Y0158061D02*
X0120900Y0158061D01*
X0120900Y0157463D02*
X0122600Y0157463D01*
X0122600Y0156864D02*
X0120900Y0156864D01*
X0120900Y0156266D02*
X0122600Y0156266D01*
X0122600Y0155667D02*
X0120900Y0155667D01*
X0120900Y0155069D02*
X0122600Y0155069D01*
X0122600Y0154470D02*
X0120900Y0154470D01*
X0120900Y0153872D02*
X0122600Y0153872D01*
X0122600Y0153273D02*
X0120900Y0153273D01*
X0120900Y0152675D02*
X0122600Y0152675D01*
X0122600Y0152076D02*
X0120900Y0152076D01*
X0120900Y0151478D02*
X0122600Y0151478D01*
X0122600Y0150879D02*
X0120900Y0150879D01*
X0120900Y0150281D02*
X0122600Y0150281D01*
X0122600Y0149682D02*
X0120900Y0149682D01*
X0120822Y0149084D02*
X0122678Y0149084D01*
X0123276Y0148485D02*
X0120224Y0148485D01*
X0114664Y0143099D02*
X0082974Y0143099D01*
X0082578Y0142500D02*
X0114065Y0142500D01*
X0113467Y0141902D02*
X0081980Y0141902D01*
X0081381Y0141303D02*
X0112868Y0141303D01*
X0112270Y0140705D02*
X0080268Y0140705D01*
X0078967Y0132325D02*
X0103890Y0132325D01*
X0103292Y0131727D02*
X0080598Y0131727D01*
X0080894Y0131576D02*
X0080054Y0132004D01*
X0079158Y0132295D01*
X0078228Y0132443D01*
X0073372Y0132443D01*
X0073372Y0126758D01*
X0072772Y0126758D01*
X0072772Y0132443D01*
X0067916Y0132443D01*
X0066985Y0132295D01*
X0066089Y0132004D01*
X0065250Y0131576D01*
X0064488Y0131023D01*
X0063821Y0130356D01*
X0063268Y0129594D01*
X0062840Y0128755D01*
X0062549Y0127859D01*
X0062402Y0126929D01*
X0062402Y0126757D01*
X0072772Y0126757D01*
X0072772Y0126157D01*
X0073372Y0126157D01*
X0073372Y0126757D01*
X0083742Y0126757D01*
X0083742Y0126929D01*
X0083594Y0127859D01*
X0083303Y0128755D01*
X0082876Y0129594D01*
X0082322Y0130356D01*
X0081656Y0131023D01*
X0080894Y0131576D01*
X0081510Y0131128D02*
X0102693Y0131128D01*
X0102095Y0130530D02*
X0082148Y0130530D01*
X0082631Y0129931D02*
X0101496Y0129931D01*
X0100898Y0129333D02*
X0083009Y0129333D01*
X0083310Y0128734D02*
X0100299Y0128734D01*
X0099701Y0128136D02*
X0083504Y0128136D01*
X0083645Y0127537D02*
X0099102Y0127537D01*
X0098504Y0126939D02*
X0083740Y0126939D01*
X0083742Y0126157D02*
X0073372Y0126157D01*
X0073372Y0120472D01*
X0078228Y0120472D01*
X0079158Y0120620D01*
X0080054Y0120911D01*
X0080894Y0121339D01*
X0081656Y0121892D01*
X0082322Y0122558D01*
X0082876Y0123321D01*
X0083303Y0124160D01*
X0083594Y0125056D01*
X0083742Y0125986D01*
X0083742Y0126157D01*
X0083703Y0125742D02*
X0097307Y0125742D01*
X0097905Y0126340D02*
X0073372Y0126340D01*
X0073372Y0125742D02*
X0072772Y0125742D01*
X0072772Y0126157D02*
X0072772Y0120472D01*
X0067916Y0120472D01*
X0066985Y0120620D01*
X0066089Y0120911D01*
X0065250Y0121339D01*
X0064488Y0121892D01*
X0063821Y0122558D01*
X0063268Y0123321D01*
X0062840Y0124160D01*
X0062549Y0125056D01*
X0062402Y0125986D01*
X0062402Y0126157D01*
X0072772Y0126157D01*
X0072772Y0126340D02*
X0051552Y0126340D01*
X0051518Y0125742D02*
X0062440Y0125742D01*
X0062535Y0125143D02*
X0051483Y0125143D01*
X0051448Y0124545D02*
X0062715Y0124545D01*
X0062949Y0123946D02*
X0051413Y0123946D01*
X0051378Y0123348D02*
X0063254Y0123348D01*
X0063683Y0122749D02*
X0051343Y0122749D01*
X0051308Y0122151D02*
X0064229Y0122151D01*
X0064956Y0121552D02*
X0051274Y0121552D01*
X0051239Y0120954D02*
X0066005Y0120954D01*
X0062403Y0126939D02*
X0051649Y0126939D01*
X0051754Y0127537D02*
X0062498Y0127537D01*
X0062639Y0128136D02*
X0051860Y0128136D01*
X0051965Y0128734D02*
X0062833Y0128734D01*
X0063135Y0129333D02*
X0052071Y0129333D01*
X0052176Y0129931D02*
X0063513Y0129931D01*
X0063995Y0130530D02*
X0052282Y0130530D01*
X0052387Y0131128D02*
X0064633Y0131128D01*
X0065545Y0131727D02*
X0052493Y0131727D01*
X0052598Y0132325D02*
X0067176Y0132325D01*
X0072772Y0132325D02*
X0073372Y0132325D01*
X0073372Y0131727D02*
X0072772Y0131727D01*
X0072772Y0131128D02*
X0073372Y0131128D01*
X0073372Y0130530D02*
X0072772Y0130530D01*
X0072772Y0129931D02*
X0073372Y0129931D01*
X0073372Y0129333D02*
X0072772Y0129333D01*
X0072772Y0128734D02*
X0073372Y0128734D01*
X0073372Y0128136D02*
X0072772Y0128136D01*
X0072772Y0127537D02*
X0073372Y0127537D01*
X0073372Y0126939D02*
X0072772Y0126939D01*
X0072772Y0125143D02*
X0073372Y0125143D01*
X0073372Y0124545D02*
X0072772Y0124545D01*
X0072772Y0123946D02*
X0073372Y0123946D01*
X0073372Y0123348D02*
X0072772Y0123348D01*
X0072772Y0122749D02*
X0073372Y0122749D01*
X0073372Y0122151D02*
X0072772Y0122151D01*
X0072772Y0121552D02*
X0073372Y0121552D01*
X0073372Y0120954D02*
X0072772Y0120954D01*
X0080138Y0120954D02*
X0087795Y0120954D01*
X0087795Y0120355D02*
X0051204Y0120355D01*
X0051169Y0119757D02*
X0087795Y0119757D01*
X0087795Y0119158D02*
X0051134Y0119158D01*
X0051099Y0118560D02*
X0087795Y0118560D01*
X0087795Y0117961D02*
X0051064Y0117961D01*
X0051030Y0117363D02*
X0087795Y0117363D01*
X0087855Y0116764D02*
X0050995Y0116764D01*
X0050960Y0116166D02*
X0088453Y0116166D01*
X0088398Y0114370D02*
X0051004Y0114370D01*
X0050970Y0114969D02*
X0102282Y0114969D01*
X0102880Y0115567D02*
X0050935Y0115567D01*
X0051039Y0113772D02*
X0087799Y0113772D01*
X0087795Y0113173D02*
X0051074Y0113173D01*
X0051109Y0112574D02*
X0065662Y0112574D01*
X0064342Y0111976D02*
X0051144Y0111976D01*
X0051179Y0111377D02*
X0063743Y0111377D01*
X0063145Y0110779D02*
X0051214Y0110779D01*
X0051248Y0110180D02*
X0062546Y0110180D01*
X0062251Y0109582D02*
X0051283Y0109582D01*
X0051318Y0108983D02*
X0062003Y0108983D01*
X0061755Y0108385D02*
X0051353Y0108385D01*
X0051388Y0107786D02*
X0061507Y0107786D01*
X0061402Y0107188D02*
X0051423Y0107188D01*
X0051458Y0106589D02*
X0061402Y0106589D01*
X0061402Y0105991D02*
X0051492Y0105991D01*
X0051527Y0105392D02*
X0061402Y0105392D01*
X0061402Y0104794D02*
X0051573Y0104794D01*
X0051678Y0104195D02*
X0061633Y0104195D01*
X0061881Y0103597D02*
X0051784Y0103597D01*
X0051889Y0102998D02*
X0062128Y0102998D01*
X0062376Y0102400D02*
X0051995Y0102400D01*
X0052100Y0101801D02*
X0062849Y0101801D01*
X0063448Y0101203D02*
X0052206Y0101203D01*
X0052311Y0100604D02*
X0064047Y0100604D01*
X0064949Y0100006D02*
X0052417Y0100006D01*
X0052522Y0099407D02*
X0066394Y0099407D01*
X0079195Y0093422D02*
X0087795Y0093422D01*
X0087977Y0092824D02*
X0080640Y0092824D01*
X0083064Y0091028D02*
X0100396Y0091028D01*
X0100238Y0095218D02*
X0120876Y0095218D01*
X0120278Y0095816D02*
X0100238Y0095816D01*
X0100238Y0096415D02*
X0119679Y0096415D01*
X0119081Y0097013D02*
X0100238Y0097013D01*
X0100238Y0097612D02*
X0118482Y0097612D01*
X0117884Y0098210D02*
X0100047Y0098210D01*
X0088071Y0100604D02*
X0082097Y0100604D01*
X0082695Y0101203D02*
X0087795Y0101203D01*
X0087795Y0101801D02*
X0083294Y0101801D01*
X0083767Y0102400D02*
X0087795Y0102400D01*
X0087795Y0102998D02*
X0084015Y0102998D01*
X0084263Y0103597D02*
X0087795Y0103597D01*
X0087795Y0104195D02*
X0084511Y0104195D01*
X0084742Y0104794D02*
X0087795Y0104794D01*
X0087795Y0105392D02*
X0084742Y0105392D01*
X0084742Y0105991D02*
X0087893Y0105991D01*
X0088491Y0106589D02*
X0084742Y0106589D01*
X0084388Y0108385D02*
X0088164Y0108385D01*
X0087795Y0108983D02*
X0084140Y0108983D01*
X0083893Y0109582D02*
X0087795Y0109582D01*
X0087795Y0110180D02*
X0083597Y0110180D01*
X0082999Y0110779D02*
X0087795Y0110779D01*
X0087795Y0111377D02*
X0082400Y0111377D01*
X0081802Y0111976D02*
X0087795Y0111976D01*
X0087795Y0112574D02*
X0080481Y0112574D01*
X0081187Y0121552D02*
X0087902Y0121552D01*
X0088500Y0122151D02*
X0081914Y0122151D01*
X0082460Y0122749D02*
X0094314Y0122749D01*
X0094913Y0123348D02*
X0082889Y0123348D01*
X0083194Y0123946D02*
X0095511Y0123946D01*
X0096110Y0124545D02*
X0083428Y0124545D01*
X0083608Y0125143D02*
X0096708Y0125143D01*
X0104489Y0132924D02*
X0052704Y0132924D01*
X0052810Y0133522D02*
X0105087Y0133522D01*
X0105686Y0134121D02*
X0052915Y0134121D01*
X0053021Y0134719D02*
X0106284Y0134719D01*
X0106883Y0135318D02*
X0053126Y0135318D01*
X0053232Y0135916D02*
X0107481Y0135916D01*
X0108080Y0136515D02*
X0053337Y0136515D01*
X0053452Y0137113D02*
X0108678Y0137113D01*
X0109277Y0137712D02*
X0053631Y0137712D01*
X0053810Y0138310D02*
X0109875Y0138310D01*
X0110474Y0138909D02*
X0053989Y0138909D01*
X0054168Y0139508D02*
X0111072Y0139508D01*
X0111671Y0140106D02*
X0054347Y0140106D01*
X0054527Y0140705D02*
X0065875Y0140705D01*
X0064762Y0141303D02*
X0054706Y0141303D01*
X0054885Y0141902D02*
X0064163Y0141902D01*
X0063565Y0142500D02*
X0055064Y0142500D01*
X0055243Y0143099D02*
X0063169Y0143099D01*
X0062921Y0143697D02*
X0055423Y0143697D01*
X0055602Y0144296D02*
X0062673Y0144296D01*
X0062426Y0144894D02*
X0055781Y0144894D01*
X0055960Y0145493D02*
X0062402Y0145493D01*
X0062402Y0146091D02*
X0056139Y0146091D01*
X0056319Y0146690D02*
X0062402Y0146690D01*
X0062402Y0147288D02*
X0056498Y0147288D01*
X0056744Y0147887D02*
X0062631Y0147887D01*
X0062879Y0148485D02*
X0057003Y0148485D01*
X0057261Y0149084D02*
X0063127Y0149084D01*
X0063462Y0149682D02*
X0057519Y0149682D01*
X0057777Y0150281D02*
X0064061Y0150281D01*
X0064659Y0150879D02*
X0058035Y0150879D01*
X0058293Y0151478D02*
X0065627Y0151478D01*
X0067072Y0152076D02*
X0058552Y0152076D01*
X0060902Y0157463D02*
X0078075Y0157463D01*
X0077473Y0158061D02*
X0061247Y0158061D01*
X0061593Y0158660D02*
X0077038Y0158660D01*
X0076729Y0159258D02*
X0061938Y0159258D01*
X0062284Y0159857D02*
X0076512Y0159857D01*
X0076371Y0160455D02*
X0062630Y0160455D01*
X0062975Y0161054D02*
X0081000Y0161054D01*
X0081000Y0161652D02*
X0081600Y0161652D01*
X0081600Y0162251D02*
X0081000Y0162251D01*
X0081000Y0162849D02*
X0081600Y0162849D01*
X0081600Y0163448D02*
X0081000Y0163448D01*
X0081000Y0164046D02*
X0081600Y0164046D01*
X0081600Y0164645D02*
X0081000Y0164645D01*
X0081000Y0165243D02*
X0081600Y0165243D01*
X0081600Y0165842D02*
X0081000Y0165842D01*
X0079966Y0166441D02*
X0066085Y0166441D01*
X0065740Y0165842D02*
X0079201Y0165842D01*
X0078221Y0165243D02*
X0065394Y0165243D01*
X0065048Y0164645D02*
X0077574Y0164645D01*
X0077115Y0164046D02*
X0064703Y0164046D01*
X0064357Y0163448D02*
X0076783Y0163448D01*
X0076546Y0162849D02*
X0064012Y0162849D01*
X0063666Y0162251D02*
X0076388Y0162251D01*
X0076300Y0161652D02*
X0063321Y0161652D01*
X0066500Y0167039D02*
X0078521Y0167039D01*
X0077891Y0167638D02*
X0066946Y0167638D01*
X0067392Y0168236D02*
X0077293Y0168236D01*
X0076909Y0168835D02*
X0067837Y0168835D01*
X0068283Y0169433D02*
X0076661Y0169433D01*
X0076413Y0170032D02*
X0068728Y0170032D01*
X0069174Y0170630D02*
X0076300Y0170630D01*
X0076300Y0171229D02*
X0069619Y0171229D01*
X0070065Y0171827D02*
X0076300Y0171827D01*
X0076354Y0172426D02*
X0070511Y0172426D01*
X0070956Y0173024D02*
X0076602Y0173024D01*
X0076850Y0173623D02*
X0071402Y0173623D01*
X0071847Y0174221D02*
X0077150Y0174221D01*
X0077749Y0174820D02*
X0072293Y0174820D01*
X0072767Y0175418D02*
X0078347Y0175418D01*
X0079622Y0176017D02*
X0073332Y0176017D01*
X0073897Y0176615D02*
X0079544Y0176615D01*
X0078315Y0177214D02*
X0074461Y0177214D01*
X0075026Y0177812D02*
X0077717Y0177812D01*
X0077118Y0178411D02*
X0075591Y0178411D01*
X0076155Y0179009D02*
X0076837Y0179009D01*
X0095685Y0168835D02*
X0096285Y0168835D01*
X0096285Y0169433D02*
X0101850Y0169433D01*
X0101850Y0168835D02*
X0100285Y0168835D01*
X0100285Y0168236D02*
X0101850Y0168236D01*
X0101850Y0167638D02*
X0100285Y0167638D01*
X0100285Y0167039D02*
X0101850Y0167039D01*
X0101850Y0166441D02*
X0100285Y0166441D01*
X0100242Y0165842D02*
X0101850Y0165842D01*
X0101850Y0165243D02*
X0099893Y0165243D01*
X0096285Y0165243D02*
X0095685Y0165243D01*
X0095685Y0165842D02*
X0096285Y0165842D01*
X0096285Y0166441D02*
X0095685Y0166441D01*
X0095685Y0167039D02*
X0096285Y0167039D01*
X0096285Y0167638D02*
X0095685Y0167638D01*
X0095685Y0168236D02*
X0096285Y0168236D01*
X0100285Y0170032D02*
X0101850Y0170032D01*
X0102374Y0170630D02*
X0100285Y0170630D01*
X0130000Y0153273D02*
X0131700Y0153273D01*
X0131700Y0152675D02*
X0130000Y0152675D01*
X0130000Y0152076D02*
X0131700Y0152076D01*
X0131700Y0151478D02*
X0130000Y0151478D01*
X0130000Y0150879D02*
X0131700Y0150879D01*
X0131700Y0150281D02*
X0130000Y0150281D01*
X0130000Y0149682D02*
X0131700Y0149682D01*
X0131855Y0149084D02*
X0129922Y0149084D01*
X0129324Y0148485D02*
X0132511Y0148485D01*
X0146000Y0152076D02*
X0146600Y0152076D01*
X0146600Y0152675D02*
X0146000Y0152675D01*
X0146000Y0153273D02*
X0146600Y0153273D01*
X0146600Y0153872D02*
X0146000Y0153872D01*
X0146000Y0154470D02*
X0146600Y0154470D01*
X0146600Y0156266D02*
X0146000Y0156266D01*
X0146000Y0156864D02*
X0146600Y0156864D01*
X0146600Y0157463D02*
X0146000Y0157463D01*
X0146000Y0158061D02*
X0146600Y0158061D01*
X0146600Y0158660D02*
X0146000Y0158660D01*
X0146000Y0159258D02*
X0146600Y0159258D01*
X0150750Y0156266D02*
X0172122Y0156266D01*
X0172721Y0156864D02*
X0164687Y0156864D01*
X0165286Y0157463D02*
X0173319Y0157463D01*
X0173918Y0158061D02*
X0165356Y0158061D01*
X0165356Y0158660D02*
X0174516Y0158660D01*
X0175115Y0159258D02*
X0172779Y0159258D01*
X0173938Y0159857D02*
X0175713Y0159857D01*
X0176312Y0160455D02*
X0174537Y0160455D01*
X0175024Y0161054D02*
X0176910Y0161054D01*
X0177328Y0161652D02*
X0175272Y0161652D01*
X0175520Y0162251D02*
X0177080Y0162251D01*
X0177000Y0162849D02*
X0175600Y0162849D01*
X0175600Y0163448D02*
X0177000Y0163448D01*
X0177000Y0164046D02*
X0175600Y0164046D01*
X0175600Y0164645D02*
X0177000Y0164645D01*
X0177000Y0165243D02*
X0175600Y0165243D01*
X0175600Y0165842D02*
X0177000Y0165842D01*
X0177000Y0166441D02*
X0175600Y0166441D01*
X0175600Y0167039D02*
X0177000Y0167039D01*
X0177000Y0167638D02*
X0175600Y0167638D01*
X0175600Y0168236D02*
X0177000Y0168236D01*
X0177000Y0168835D02*
X0175600Y0168835D01*
X0175600Y0169433D02*
X0177000Y0169433D01*
X0177000Y0170032D02*
X0175600Y0170032D01*
X0175403Y0170630D02*
X0177197Y0170630D01*
X0177445Y0171229D02*
X0175155Y0171229D01*
X0174854Y0171827D02*
X0177746Y0171827D01*
X0178345Y0172426D02*
X0174255Y0172426D01*
X0173546Y0173024D02*
X0179054Y0173024D01*
X0183546Y0173024D02*
X0189054Y0173024D01*
X0188864Y0172945D02*
X0187655Y0171736D01*
X0187000Y0170155D01*
X0187000Y0162445D01*
X0187655Y0160864D01*
X0188864Y0159655D01*
X0190445Y0159000D01*
X0192155Y0159000D01*
X0193736Y0159655D01*
X0194945Y0160864D01*
X0195600Y0162445D01*
X0195600Y0170155D01*
X0194945Y0171736D01*
X0193736Y0172945D01*
X0192155Y0173600D01*
X0190445Y0173600D01*
X0188864Y0172945D01*
X0188345Y0172426D02*
X0184255Y0172426D01*
X0184854Y0171827D02*
X0187746Y0171827D01*
X0187445Y0171229D02*
X0185155Y0171229D01*
X0185403Y0170630D02*
X0187197Y0170630D01*
X0187000Y0170032D02*
X0185600Y0170032D01*
X0185600Y0169433D02*
X0187000Y0169433D01*
X0187000Y0168835D02*
X0185600Y0168835D01*
X0185600Y0168236D02*
X0187000Y0168236D01*
X0187000Y0167638D02*
X0185600Y0167638D01*
X0185600Y0167039D02*
X0187000Y0167039D01*
X0187000Y0166441D02*
X0185600Y0166441D01*
X0185600Y0165842D02*
X0187000Y0165842D01*
X0187000Y0165243D02*
X0185600Y0165243D01*
X0185600Y0164645D02*
X0187000Y0164645D01*
X0187000Y0164046D02*
X0185600Y0164046D01*
X0185600Y0163448D02*
X0187000Y0163448D01*
X0187000Y0162849D02*
X0185600Y0162849D01*
X0185520Y0162251D02*
X0187080Y0162251D01*
X0187328Y0161652D02*
X0185272Y0161652D01*
X0185024Y0161054D02*
X0187576Y0161054D01*
X0188063Y0160455D02*
X0184537Y0160455D01*
X0183938Y0159857D02*
X0188662Y0159857D01*
X0189821Y0159258D02*
X0182779Y0159258D01*
X0179890Y0158660D02*
X0219524Y0158660D01*
X0219205Y0159258D02*
X0212779Y0159258D01*
X0213938Y0159857D02*
X0218885Y0159857D01*
X0218566Y0160455D02*
X0214537Y0160455D01*
X0215024Y0161054D02*
X0218247Y0161054D01*
X0217928Y0161652D02*
X0215272Y0161652D01*
X0215520Y0162251D02*
X0217608Y0162251D01*
X0217289Y0162849D02*
X0215600Y0162849D01*
X0215600Y0163448D02*
X0216970Y0163448D01*
X0216651Y0164046D02*
X0215600Y0164046D01*
X0215600Y0164645D02*
X0216332Y0164645D01*
X0216012Y0165243D02*
X0215600Y0165243D01*
X0215600Y0165842D02*
X0215693Y0165842D01*
X0207000Y0165842D02*
X0205600Y0165842D01*
X0205600Y0166000D02*
X0201600Y0166000D01*
X0201600Y0166600D01*
X0205600Y0166600D01*
X0205600Y0169638D01*
X0205494Y0170307D01*
X0205285Y0170951D01*
X0204978Y0171554D01*
X0204580Y0172101D01*
X0204101Y0172580D01*
X0203554Y0172978D01*
X0202951Y0173285D01*
X0202307Y0173494D01*
X0201638Y0173600D01*
X0201600Y0173600D01*
X0201600Y0166600D01*
X0201000Y0166600D01*
X0201000Y0173600D01*
X0200962Y0173600D01*
X0200293Y0173494D01*
X0199649Y0173285D01*
X0199046Y0172978D01*
X0198499Y0172580D01*
X0198020Y0172101D01*
X0197622Y0171554D01*
X0197315Y0170951D01*
X0197106Y0170307D01*
X0197000Y0169638D01*
X0197000Y0166600D01*
X0201000Y0166600D01*
X0201000Y0166000D01*
X0201600Y0166000D01*
X0201600Y0159000D01*
X0201638Y0159000D01*
X0202307Y0159106D01*
X0202951Y0159315D01*
X0203554Y0159622D01*
X0204101Y0160020D01*
X0204580Y0160499D01*
X0204978Y0161046D01*
X0205285Y0161649D01*
X0205494Y0162293D01*
X0205600Y0162962D01*
X0205600Y0166000D01*
X0205600Y0165243D02*
X0207000Y0165243D01*
X0207000Y0164645D02*
X0205600Y0164645D01*
X0205600Y0164046D02*
X0207000Y0164046D01*
X0207000Y0163448D02*
X0205600Y0163448D01*
X0205582Y0162849D02*
X0207000Y0162849D01*
X0207080Y0162251D02*
X0205480Y0162251D01*
X0205286Y0161652D02*
X0207328Y0161652D01*
X0207576Y0161054D02*
X0204982Y0161054D01*
X0204537Y0160455D02*
X0208063Y0160455D01*
X0208662Y0159857D02*
X0203877Y0159857D01*
X0202776Y0159258D02*
X0209821Y0159258D01*
X0207000Y0166441D02*
X0201600Y0166441D01*
X0201600Y0167039D02*
X0201000Y0167039D01*
X0201000Y0166441D02*
X0195600Y0166441D01*
X0195600Y0167039D02*
X0197000Y0167039D01*
X0197000Y0167638D02*
X0195600Y0167638D01*
X0195600Y0168236D02*
X0197000Y0168236D01*
X0197000Y0168835D02*
X0195600Y0168835D01*
X0195600Y0169433D02*
X0197000Y0169433D01*
X0197062Y0170032D02*
X0195600Y0170032D01*
X0195403Y0170630D02*
X0197211Y0170630D01*
X0197457Y0171229D02*
X0195155Y0171229D01*
X0194854Y0171827D02*
X0197821Y0171827D01*
X0198345Y0172426D02*
X0194255Y0172426D01*
X0193546Y0173024D02*
X0199137Y0173024D01*
X0201000Y0173024D02*
X0201600Y0173024D01*
X0201600Y0172426D02*
X0201000Y0172426D01*
X0201000Y0171827D02*
X0201600Y0171827D01*
X0201600Y0171229D02*
X0201000Y0171229D01*
X0201000Y0170630D02*
X0201600Y0170630D01*
X0201600Y0170032D02*
X0201000Y0170032D01*
X0201000Y0169433D02*
X0201600Y0169433D01*
X0201600Y0168835D02*
X0201000Y0168835D01*
X0201000Y0168236D02*
X0201600Y0168236D01*
X0201600Y0167638D02*
X0201000Y0167638D01*
X0201000Y0166000D02*
X0197000Y0166000D01*
X0197000Y0162962D01*
X0197106Y0162293D01*
X0197315Y0161649D01*
X0197622Y0161046D01*
X0198020Y0160499D01*
X0198499Y0160020D01*
X0199046Y0159622D01*
X0199649Y0159315D01*
X0200293Y0159106D01*
X0200962Y0159000D01*
X0201000Y0159000D01*
X0201000Y0166000D01*
X0201000Y0165842D02*
X0201600Y0165842D01*
X0201600Y0165243D02*
X0201000Y0165243D01*
X0201000Y0164645D02*
X0201600Y0164645D01*
X0201600Y0164046D02*
X0201000Y0164046D01*
X0201000Y0163448D02*
X0201600Y0163448D01*
X0201600Y0162849D02*
X0201000Y0162849D01*
X0201000Y0162251D02*
X0201600Y0162251D01*
X0201600Y0161652D02*
X0201000Y0161652D01*
X0201000Y0161054D02*
X0201600Y0161054D01*
X0201600Y0160455D02*
X0201000Y0160455D01*
X0201000Y0159857D02*
X0201600Y0159857D01*
X0201600Y0159258D02*
X0201000Y0159258D01*
X0199824Y0159258D02*
X0192779Y0159258D01*
X0193938Y0159857D02*
X0198723Y0159857D01*
X0198063Y0160455D02*
X0194537Y0160455D01*
X0195024Y0161054D02*
X0197618Y0161054D01*
X0197314Y0161652D02*
X0195272Y0161652D01*
X0195520Y0162251D02*
X0197120Y0162251D01*
X0197018Y0162849D02*
X0195600Y0162849D01*
X0195600Y0163448D02*
X0197000Y0163448D01*
X0197000Y0164046D02*
X0195600Y0164046D01*
X0195600Y0164645D02*
X0197000Y0164645D01*
X0197000Y0165243D02*
X0195600Y0165243D01*
X0195600Y0165842D02*
X0197000Y0165842D01*
X0205600Y0167039D02*
X0207000Y0167039D01*
X0207000Y0167638D02*
X0205600Y0167638D01*
X0205600Y0168236D02*
X0207000Y0168236D01*
X0207000Y0168835D02*
X0205600Y0168835D01*
X0205600Y0169433D02*
X0207000Y0169433D01*
X0207000Y0170032D02*
X0205538Y0170032D01*
X0205389Y0170630D02*
X0206881Y0170630D01*
X0206283Y0171229D02*
X0205143Y0171229D01*
X0204779Y0171827D02*
X0205684Y0171827D01*
X0205086Y0172426D02*
X0204255Y0172426D01*
X0204487Y0173024D02*
X0203463Y0173024D01*
X0203889Y0173623D02*
X0161117Y0173623D01*
X0160603Y0173024D02*
X0169054Y0173024D01*
X0168345Y0172426D02*
X0160915Y0172426D01*
X0160915Y0171827D02*
X0167746Y0171827D01*
X0167445Y0171229D02*
X0160915Y0171229D01*
X0160915Y0170630D02*
X0167197Y0170630D01*
X0167000Y0170032D02*
X0160915Y0170032D01*
X0160915Y0169433D02*
X0167000Y0169433D01*
X0167000Y0168835D02*
X0160915Y0168835D01*
X0160915Y0168236D02*
X0167000Y0168236D01*
X0165777Y0167638D02*
X0160915Y0167638D01*
X0160915Y0167039D02*
X0165179Y0167039D01*
X0164580Y0166441D02*
X0160915Y0166441D01*
X0160915Y0165842D02*
X0163982Y0165842D01*
X0163383Y0165243D02*
X0160523Y0165243D01*
X0162186Y0164046D02*
X0151910Y0164046D01*
X0152508Y0163448D02*
X0157751Y0163448D01*
X0157244Y0162849D02*
X0153107Y0162849D01*
X0153705Y0162251D02*
X0157244Y0162251D01*
X0152707Y0165243D02*
X0150750Y0165243D01*
X0150750Y0165842D02*
X0152315Y0165842D01*
X0152315Y0166441D02*
X0150750Y0166441D01*
X0150750Y0167039D02*
X0152315Y0167039D01*
X0152315Y0167638D02*
X0150750Y0167638D01*
X0150750Y0168236D02*
X0152315Y0168236D01*
X0152315Y0168835D02*
X0150750Y0168835D01*
X0150750Y0169433D02*
X0152315Y0169433D01*
X0152315Y0170032D02*
X0150750Y0170032D01*
X0150226Y0170630D02*
X0152315Y0170630D01*
X0151311Y0164645D02*
X0162785Y0164645D01*
X0165765Y0162251D02*
X0167080Y0162251D01*
X0167000Y0162849D02*
X0166363Y0162849D01*
X0166962Y0163448D02*
X0167000Y0163448D01*
X0167328Y0161652D02*
X0165356Y0161652D01*
X0165356Y0161054D02*
X0167576Y0161054D01*
X0168063Y0160455D02*
X0165356Y0160455D01*
X0165356Y0159857D02*
X0168662Y0159857D01*
X0169821Y0159258D02*
X0165356Y0159258D01*
X0164755Y0155667D02*
X0171524Y0155667D01*
X0170925Y0155069D02*
X0165354Y0155069D01*
X0165356Y0154470D02*
X0170327Y0154470D01*
X0169728Y0153872D02*
X0165356Y0153872D01*
X0157244Y0153872D02*
X0150750Y0153872D01*
X0150750Y0154470D02*
X0157244Y0154470D01*
X0157246Y0155069D02*
X0150750Y0155069D01*
X0150750Y0153273D02*
X0157244Y0153273D01*
X0157244Y0152675D02*
X0150700Y0152675D01*
X0150332Y0152076D02*
X0157244Y0152076D01*
X0175102Y0153872D02*
X0191854Y0153872D01*
X0191361Y0153379D02*
X0192843Y0154861D01*
X0194780Y0155663D01*
X0196876Y0155663D01*
X0198812Y0154861D01*
X0200294Y0153379D01*
X0201096Y0151442D01*
X0201096Y0149347D01*
X0200294Y0147410D01*
X0198812Y0145928D01*
X0196876Y0145126D01*
X0194780Y0145126D01*
X0192843Y0145928D01*
X0191361Y0147410D01*
X0190559Y0149347D01*
X0190559Y0151442D01*
X0191361Y0153379D01*
X0191317Y0153273D02*
X0175725Y0153273D01*
X0175701Y0154470D02*
X0192453Y0154470D01*
X0193345Y0155069D02*
X0176299Y0155069D01*
X0176898Y0155667D02*
X0220989Y0155667D01*
X0221224Y0155069D02*
X0198310Y0155069D01*
X0199203Y0154470D02*
X0221459Y0154470D01*
X0221693Y0153872D02*
X0199801Y0153872D01*
X0200338Y0153273D02*
X0221928Y0153273D01*
X0222163Y0152675D02*
X0200586Y0152675D01*
X0200834Y0152076D02*
X0222397Y0152076D01*
X0222632Y0151478D02*
X0201081Y0151478D01*
X0201096Y0150879D02*
X0222866Y0150879D01*
X0223101Y0150281D02*
X0201096Y0150281D01*
X0201096Y0149682D02*
X0223336Y0149682D01*
X0223570Y0149084D02*
X0200987Y0149084D01*
X0200739Y0148485D02*
X0223805Y0148485D01*
X0224040Y0147887D02*
X0200491Y0147887D01*
X0200172Y0147288D02*
X0224274Y0147288D01*
X0224509Y0146690D02*
X0199573Y0146690D01*
X0198975Y0146091D02*
X0217430Y0146091D01*
X0216664Y0145493D02*
X0197761Y0145493D01*
X0193894Y0145493D02*
X0182275Y0145493D01*
X0181676Y0146091D02*
X0192680Y0146091D01*
X0192082Y0146690D02*
X0181078Y0146690D01*
X0180479Y0147288D02*
X0191483Y0147288D01*
X0191164Y0147887D02*
X0179881Y0147887D01*
X0179282Y0148485D02*
X0190916Y0148485D01*
X0190668Y0149084D02*
X0178684Y0149084D01*
X0178085Y0149682D02*
X0190559Y0149682D01*
X0190559Y0150281D02*
X0177865Y0150281D01*
X0177865Y0150879D02*
X0190559Y0150879D01*
X0190574Y0151478D02*
X0177639Y0151478D01*
X0177388Y0152076D02*
X0190822Y0152076D01*
X0191069Y0152675D02*
X0176790Y0152675D01*
X0177496Y0156266D02*
X0220755Y0156266D01*
X0220481Y0156864D02*
X0178095Y0156864D01*
X0178693Y0157463D02*
X0220162Y0157463D01*
X0219843Y0158061D02*
X0179292Y0158061D01*
X0176901Y0145493D02*
X0174992Y0145493D01*
X0175590Y0144894D02*
X0177499Y0144894D01*
X0178098Y0144296D02*
X0175877Y0144296D01*
X0176125Y0143697D02*
X0178696Y0143697D01*
X0179295Y0143099D02*
X0176277Y0143099D01*
X0176277Y0142500D02*
X0179893Y0142500D01*
X0180492Y0141902D02*
X0176277Y0141902D01*
X0176108Y0141303D02*
X0181090Y0141303D01*
X0181689Y0140705D02*
X0175860Y0140705D01*
X0175549Y0140106D02*
X0208298Y0140106D01*
X0208298Y0139508D02*
X0174951Y0139508D01*
X0174126Y0138909D02*
X0208298Y0138909D01*
X0208298Y0137113D02*
X0200496Y0137113D01*
X0201095Y0136515D02*
X0208298Y0136515D01*
X0208298Y0135916D02*
X0201271Y0135916D01*
X0201271Y0135318D02*
X0208298Y0135318D01*
X0208298Y0134719D02*
X0201271Y0134719D01*
X0201271Y0134121D02*
X0208298Y0134121D01*
X0208298Y0133522D02*
X0201271Y0133522D01*
X0201271Y0132924D02*
X0208298Y0132924D01*
X0208298Y0132325D02*
X0201271Y0132325D01*
X0201271Y0131727D02*
X0206660Y0131727D01*
X0206062Y0131128D02*
X0201271Y0131128D01*
X0201271Y0130530D02*
X0205906Y0130530D01*
X0205906Y0129931D02*
X0201271Y0129931D01*
X0201271Y0129333D02*
X0205906Y0129333D01*
X0205906Y0128734D02*
X0201271Y0128734D01*
X0201271Y0128136D02*
X0205906Y0128136D01*
X0205906Y0127537D02*
X0201271Y0127537D01*
X0201271Y0126939D02*
X0205906Y0126939D01*
X0205906Y0126340D02*
X0201271Y0126340D01*
X0201271Y0125742D02*
X0205906Y0125742D01*
X0205906Y0125143D02*
X0201640Y0125143D01*
X0202238Y0124545D02*
X0205906Y0124545D01*
X0205906Y0123946D02*
X0202837Y0123946D01*
X0203435Y0123348D02*
X0205906Y0123348D01*
X0205906Y0122749D02*
X0204034Y0122749D01*
X0204632Y0122151D02*
X0205906Y0122151D01*
X0205981Y0121552D02*
X0205231Y0121552D01*
X0205829Y0120954D02*
X0206580Y0120954D01*
X0206428Y0120355D02*
X0228953Y0120355D01*
X0228968Y0119757D02*
X0207026Y0119757D01*
X0207176Y0119158D02*
X0228983Y0119158D01*
X0228997Y0118560D02*
X0207176Y0118560D01*
X0207176Y0117961D02*
X0229012Y0117961D01*
X0229027Y0117363D02*
X0207176Y0117363D01*
X0207176Y0116764D02*
X0229041Y0116764D01*
X0229056Y0116166D02*
X0207176Y0116166D01*
X0207176Y0115567D02*
X0229071Y0115567D01*
X0229086Y0114969D02*
X0207176Y0114969D01*
X0207176Y0114370D02*
X0229070Y0114370D01*
X0229015Y0113772D02*
X0207176Y0113772D01*
X0207176Y0113173D02*
X0228960Y0113173D01*
X0228905Y0112574D02*
X0207176Y0112574D01*
X0207176Y0111976D02*
X0228850Y0111976D01*
X0228795Y0111377D02*
X0207176Y0111377D01*
X0207176Y0110779D02*
X0228739Y0110779D01*
X0228684Y0110180D02*
X0208116Y0110180D01*
X0208702Y0109582D02*
X0228629Y0109582D01*
X0228574Y0108983D02*
X0208702Y0108983D01*
X0208702Y0108385D02*
X0228519Y0108385D01*
X0228464Y0107786D02*
X0208702Y0107786D01*
X0208702Y0107188D02*
X0228409Y0107188D01*
X0228354Y0106589D02*
X0208702Y0106589D01*
X0208702Y0105991D02*
X0228299Y0105991D01*
X0228244Y0105392D02*
X0208702Y0105392D01*
X0208702Y0104794D02*
X0228189Y0104794D01*
X0228133Y0104195D02*
X0208702Y0104195D01*
X0208702Y0103597D02*
X0228044Y0103597D01*
X0227918Y0102998D02*
X0208695Y0102998D01*
X0208097Y0102400D02*
X0227792Y0102400D01*
X0226907Y0098210D02*
X0222274Y0098210D01*
X0222872Y0097612D02*
X0226780Y0097612D01*
X0226654Y0097013D02*
X0223137Y0097013D01*
X0223385Y0096415D02*
X0226528Y0096415D01*
X0226401Y0095816D02*
X0223521Y0095816D01*
X0223521Y0095218D02*
X0226275Y0095218D01*
X0226148Y0094619D02*
X0223521Y0094619D01*
X0223337Y0094021D02*
X0226022Y0094021D01*
X0225896Y0093422D02*
X0223089Y0093422D01*
X0222755Y0092824D02*
X0225707Y0092824D01*
X0225505Y0092225D02*
X0222157Y0092225D01*
X0221278Y0091627D02*
X0225304Y0091627D01*
X0224700Y0089831D02*
X0208466Y0089831D01*
X0208702Y0089233D02*
X0224499Y0089233D01*
X0224297Y0088634D02*
X0208702Y0088634D01*
X0208702Y0088036D02*
X0224096Y0088036D01*
X0223895Y0087437D02*
X0208702Y0087437D01*
X0208702Y0086839D02*
X0223693Y0086839D01*
X0223492Y0086240D02*
X0208702Y0086240D01*
X0208702Y0085641D02*
X0223291Y0085641D01*
X0223089Y0085043D02*
X0208702Y0085043D01*
X0208702Y0084444D02*
X0222888Y0084444D01*
X0222687Y0083846D02*
X0208702Y0083846D01*
X0208702Y0083247D02*
X0222485Y0083247D01*
X0222224Y0082649D02*
X0208346Y0082649D01*
X0219683Y0077262D02*
X0174280Y0077262D01*
X0173682Y0076664D02*
X0219400Y0076664D01*
X0194607Y0077861D02*
X0188658Y0077861D01*
X0189257Y0078459D02*
X0194009Y0078459D01*
X0193633Y0079058D02*
X0189855Y0079058D01*
X0190454Y0079656D02*
X0193385Y0079656D01*
X0193318Y0080255D02*
X0191052Y0080255D01*
X0191651Y0080853D02*
X0193318Y0080853D01*
X0193484Y0081452D02*
X0192249Y0081452D01*
X0192848Y0082050D02*
X0193732Y0082050D01*
X0193446Y0082649D02*
X0194249Y0082649D01*
X0194432Y0076065D02*
X0178168Y0076065D01*
X0177847Y0076198D02*
X0175068Y0076198D01*
X0172501Y0075135D01*
X0170536Y0073170D01*
X0169472Y0070603D01*
X0169472Y0058454D01*
X0170536Y0055887D01*
X0172501Y0053922D01*
X0175068Y0052858D01*
X0177847Y0052858D01*
X0180414Y0053922D01*
X0182379Y0055887D01*
X0183443Y0058454D01*
X0183443Y0070603D01*
X0182379Y0073170D01*
X0180414Y0075135D01*
X0177847Y0076198D01*
X0179613Y0075467D02*
X0192987Y0075467D01*
X0191919Y0074868D02*
X0180681Y0074868D01*
X0181279Y0074270D02*
X0191321Y0074270D01*
X0190722Y0073671D02*
X0181878Y0073671D01*
X0182419Y0073073D02*
X0190181Y0073073D01*
X0189933Y0072474D02*
X0182667Y0072474D01*
X0182915Y0071876D02*
X0189685Y0071876D01*
X0189437Y0071277D02*
X0183163Y0071277D01*
X0183411Y0070679D02*
X0189189Y0070679D01*
X0189157Y0070080D02*
X0183443Y0070080D01*
X0183443Y0069482D02*
X0189157Y0069482D01*
X0189157Y0068883D02*
X0183443Y0068883D01*
X0183443Y0068285D02*
X0189157Y0068285D01*
X0189157Y0067686D02*
X0183443Y0067686D01*
X0183443Y0067088D02*
X0189157Y0067088D01*
X0189157Y0066489D02*
X0183443Y0066489D01*
X0183443Y0065891D02*
X0189157Y0065891D01*
X0189157Y0065292D02*
X0183443Y0065292D01*
X0183443Y0064694D02*
X0189157Y0064694D01*
X0189157Y0064095D02*
X0183443Y0064095D01*
X0183443Y0063497D02*
X0189157Y0063497D01*
X0189157Y0062898D02*
X0183443Y0062898D01*
X0183443Y0062300D02*
X0189157Y0062300D01*
X0189157Y0061701D02*
X0183443Y0061701D01*
X0183443Y0061103D02*
X0189157Y0061103D01*
X0189157Y0060504D02*
X0183443Y0060504D01*
X0183443Y0059905D02*
X0189157Y0059905D01*
X0189157Y0059307D02*
X0183443Y0059307D01*
X0183443Y0058708D02*
X0189157Y0058708D01*
X0189300Y0058110D02*
X0183300Y0058110D01*
X0183052Y0057511D02*
X0189548Y0057511D01*
X0189796Y0056913D02*
X0182804Y0056913D01*
X0182556Y0056314D02*
X0190044Y0056314D01*
X0190392Y0055716D02*
X0182208Y0055716D01*
X0181610Y0055117D02*
X0190990Y0055117D01*
X0191589Y0054519D02*
X0181011Y0054519D01*
X0180411Y0053920D02*
X0192189Y0053920D01*
X0193634Y0053322D02*
X0178966Y0053322D01*
X0173949Y0053322D02*
X0141443Y0053322D01*
X0141443Y0053920D02*
X0172504Y0053920D01*
X0171904Y0054519D02*
X0141443Y0054519D01*
X0141443Y0055117D02*
X0171305Y0055117D01*
X0170707Y0055716D02*
X0141443Y0055716D01*
X0141443Y0056314D02*
X0170359Y0056314D01*
X0170111Y0056913D02*
X0141443Y0056913D01*
X0141310Y0057511D02*
X0169863Y0057511D01*
X0169615Y0058110D02*
X0140711Y0058110D01*
X0140113Y0058708D02*
X0169472Y0058708D01*
X0169472Y0061103D02*
X0068852Y0061103D01*
X0068407Y0061701D02*
X0088010Y0061701D01*
X0088055Y0061624D02*
X0088297Y0061382D01*
X0088593Y0061211D01*
X0088924Y0061122D01*
X0093717Y0061122D01*
X0093717Y0064091D01*
X0093716Y0064091D02*
X0087795Y0064091D01*
X0087795Y0062251D01*
X0087884Y0061920D01*
X0088055Y0061624D01*
X0087795Y0062300D02*
X0067961Y0062300D01*
X0067516Y0062898D02*
X0087795Y0062898D01*
X0087795Y0063497D02*
X0067070Y0063497D01*
X0066625Y0064095D02*
X0093716Y0064095D01*
X0093716Y0064091D02*
X0093716Y0064691D01*
X0087795Y0064691D01*
X0087795Y0066530D01*
X0087884Y0066861D01*
X0088055Y0067157D01*
X0088297Y0067399D01*
X0088593Y0067570D01*
X0088924Y0067659D01*
X0093717Y0067659D01*
X0093717Y0064691D01*
X0094316Y0064691D01*
X0094316Y0067659D01*
X0099109Y0067659D01*
X0099440Y0067570D01*
X0099736Y0067399D01*
X0099978Y0067157D01*
X0100149Y0066861D01*
X0100238Y0066530D01*
X0100238Y0064691D01*
X0094317Y0064691D01*
X0094317Y0064091D01*
X0100238Y0064091D01*
X0100238Y0062251D01*
X0100149Y0061920D01*
X0099978Y0061624D01*
X0099736Y0061382D01*
X0099440Y0061211D01*
X0099109Y0061122D01*
X0094316Y0061122D01*
X0094316Y0064091D01*
X0093717Y0064091D01*
X0093717Y0063497D02*
X0094316Y0063497D01*
X0094317Y0064095D02*
X0152362Y0064095D01*
X0152362Y0063497D02*
X0100238Y0063497D01*
X0100238Y0062898D02*
X0152362Y0062898D01*
X0152362Y0062300D02*
X0100238Y0062300D01*
X0100023Y0061701D02*
X0152545Y0061701D01*
X0152362Y0064694D02*
X0100238Y0064694D01*
X0100238Y0065292D02*
X0152362Y0065292D01*
X0152362Y0065891D02*
X0100238Y0065891D01*
X0100238Y0066489D02*
X0152362Y0066489D01*
X0152552Y0067088D02*
X0100018Y0067088D01*
X0099737Y0068883D02*
X0152863Y0068883D01*
X0152362Y0069482D02*
X0100166Y0069482D01*
X0100238Y0070080D02*
X0152362Y0070080D01*
X0152362Y0070679D02*
X0100238Y0070679D01*
X0100238Y0071277D02*
X0152362Y0071277D01*
X0159330Y0067686D02*
X0064454Y0067686D01*
X0064799Y0067088D02*
X0088015Y0067088D01*
X0087795Y0066489D02*
X0065145Y0066489D01*
X0065490Y0065891D02*
X0087795Y0065891D01*
X0087795Y0065292D02*
X0065836Y0065292D01*
X0066181Y0064694D02*
X0087795Y0064694D01*
X0088296Y0068883D02*
X0063762Y0068883D01*
X0063417Y0069482D02*
X0087867Y0069482D01*
X0087795Y0070080D02*
X0063071Y0070080D01*
X0062726Y0070679D02*
X0087795Y0070679D01*
X0087795Y0071277D02*
X0062380Y0071277D01*
X0064108Y0068285D02*
X0159928Y0068285D01*
X0164304Y0068883D02*
X0164464Y0068883D01*
X0164805Y0069482D02*
X0164991Y0069482D01*
X0164991Y0070080D02*
X0164805Y0070080D01*
X0164805Y0070679D02*
X0164991Y0070679D01*
X0164991Y0071277D02*
X0164805Y0071277D01*
X0164956Y0071876D02*
X0164991Y0071876D01*
X0168791Y0071277D02*
X0169752Y0071277D01*
X0169504Y0070679D02*
X0168791Y0070679D01*
X0168791Y0070080D02*
X0169472Y0070080D01*
X0169472Y0069482D02*
X0168791Y0069482D01*
X0168791Y0068883D02*
X0169472Y0068883D01*
X0169472Y0068285D02*
X0168791Y0068285D01*
X0168641Y0067686D02*
X0169472Y0067686D01*
X0169472Y0067088D02*
X0168042Y0067088D01*
X0167444Y0066489D02*
X0169472Y0066489D01*
X0169472Y0065891D02*
X0166845Y0065891D01*
X0166247Y0065292D02*
X0169472Y0065292D01*
X0169472Y0064694D02*
X0164805Y0064694D01*
X0164805Y0064095D02*
X0169472Y0064095D01*
X0169472Y0063497D02*
X0164805Y0063497D01*
X0164805Y0062898D02*
X0169472Y0062898D01*
X0169472Y0062300D02*
X0164805Y0062300D01*
X0164622Y0061701D02*
X0169472Y0061701D01*
X0170000Y0071876D02*
X0168893Y0071876D01*
X0169492Y0072474D02*
X0170248Y0072474D01*
X0170090Y0073073D02*
X0170496Y0073073D01*
X0170689Y0073671D02*
X0171037Y0073671D01*
X0171287Y0074270D02*
X0171636Y0074270D01*
X0171886Y0074868D02*
X0172234Y0074868D01*
X0172484Y0075467D02*
X0173302Y0075467D01*
X0173083Y0076065D02*
X0174747Y0076065D01*
X0168560Y0080853D02*
X0164805Y0080853D01*
X0164805Y0080255D02*
X0167962Y0080255D01*
X0167363Y0079656D02*
X0164805Y0079656D01*
X0164805Y0079058D02*
X0166765Y0079058D01*
X0166166Y0078459D02*
X0164805Y0078459D01*
X0164805Y0077861D02*
X0165568Y0077861D01*
X0164969Y0077262D02*
X0164805Y0077262D01*
X0164371Y0076664D02*
X0164211Y0076664D01*
X0163772Y0076065D02*
X0059914Y0076065D01*
X0060173Y0075467D02*
X0163173Y0075467D01*
X0164805Y0081452D02*
X0169159Y0081452D01*
X0169757Y0082050D02*
X0164805Y0082050D01*
X0164427Y0082649D02*
X0170356Y0082649D01*
X0170954Y0083247D02*
X0138221Y0083247D01*
X0138819Y0082649D02*
X0152740Y0082649D01*
X0137716Y0091627D02*
X0168683Y0091627D01*
X0168084Y0092225D02*
X0137117Y0092225D01*
X0152362Y0113173D02*
X0109692Y0113173D01*
X0109394Y0113772D02*
X0152366Y0113772D01*
X0152965Y0114370D02*
X0108795Y0114370D01*
X0108853Y0116166D02*
X0152824Y0116166D01*
X0152362Y0116764D02*
X0109451Y0116764D01*
X0110050Y0117363D02*
X0152362Y0117363D01*
X0152362Y0117961D02*
X0110648Y0117961D01*
X0111247Y0118560D02*
X0152362Y0118560D01*
X0152362Y0119158D02*
X0111845Y0119158D01*
X0112444Y0119757D02*
X0152362Y0119757D01*
X0152362Y0120355D02*
X0113042Y0120355D01*
X0113641Y0120954D02*
X0152362Y0120954D01*
X0152362Y0121552D02*
X0114239Y0121552D01*
X0114838Y0122151D02*
X0152871Y0122151D01*
X0156322Y0122749D02*
X0115436Y0122749D01*
X0116035Y0123348D02*
X0156921Y0123348D01*
X0157519Y0123946D02*
X0116633Y0123946D01*
X0117232Y0124545D02*
X0158118Y0124545D01*
X0158716Y0125143D02*
X0117830Y0125143D01*
X0118429Y0125742D02*
X0159315Y0125742D01*
X0159913Y0126340D02*
X0119027Y0126340D01*
X0119626Y0126939D02*
X0160512Y0126939D01*
X0161110Y0127537D02*
X0120224Y0127537D01*
X0120823Y0128136D02*
X0161709Y0128136D01*
X0162307Y0128734D02*
X0121421Y0128734D01*
X0122020Y0129333D02*
X0162906Y0129333D01*
X0163504Y0129931D02*
X0122618Y0129931D01*
X0123217Y0130530D02*
X0164103Y0130530D01*
X0164701Y0131128D02*
X0123815Y0131128D01*
X0124414Y0131727D02*
X0165300Y0131727D01*
X0165898Y0132325D02*
X0125012Y0132325D01*
X0125611Y0132924D02*
X0166497Y0132924D01*
X0167095Y0133522D02*
X0126209Y0133522D01*
X0126808Y0134121D02*
X0167694Y0134121D01*
X0168292Y0134719D02*
X0127406Y0134719D01*
X0140773Y0162849D02*
X0142518Y0162849D01*
X0141920Y0163448D02*
X0141371Y0163448D01*
X0138990Y0166441D02*
X0135326Y0166441D01*
X0135326Y0167039D02*
X0139588Y0167039D01*
X0140187Y0167638D02*
X0135326Y0167638D01*
X0135326Y0168236D02*
X0141850Y0168236D01*
X0141850Y0168835D02*
X0135326Y0168835D01*
X0135326Y0169433D02*
X0141850Y0169433D01*
X0141850Y0170032D02*
X0135326Y0170032D01*
X0135326Y0170630D02*
X0142374Y0170630D01*
X0137385Y0171229D02*
X0135326Y0171229D01*
X0135326Y0171827D02*
X0135750Y0171827D01*
X0178593Y0133522D02*
X0197471Y0133522D01*
X0197471Y0132924D02*
X0179175Y0132924D01*
X0177139Y0127537D02*
X0172444Y0127537D01*
X0171179Y0127537D02*
X0166484Y0127537D01*
X0165886Y0126939D02*
X0177738Y0126939D01*
X0172860Y0125143D02*
X0172260Y0125143D01*
X0172260Y0124545D02*
X0172860Y0124545D01*
X0172860Y0123946D02*
X0172260Y0123946D01*
X0172260Y0123348D02*
X0172860Y0123348D01*
X0172860Y0122749D02*
X0172260Y0122749D01*
X0172260Y0122151D02*
X0164296Y0122151D01*
X0164805Y0121552D02*
X0169685Y0121552D01*
X0169685Y0120954D02*
X0164805Y0120954D01*
X0164805Y0120355D02*
X0169702Y0120355D01*
X0169981Y0119757D02*
X0164805Y0119757D01*
X0161696Y0122749D02*
X0169685Y0122749D01*
X0169685Y0123348D02*
X0162295Y0123348D01*
X0162893Y0123946D02*
X0169685Y0123946D01*
X0169749Y0124545D02*
X0163492Y0124545D01*
X0164090Y0125143D02*
X0170155Y0125143D01*
X0169923Y0128136D02*
X0167083Y0128136D01*
X0167681Y0128734D02*
X0169324Y0128734D01*
X0168994Y0129333D02*
X0168280Y0129333D01*
X0182873Y0144894D02*
X0216065Y0144894D01*
X0216106Y0140106D02*
X0212098Y0140106D01*
X0212098Y0139508D02*
X0216704Y0139508D01*
X0217529Y0138909D02*
X0212098Y0138909D01*
X0212098Y0138310D02*
X0226733Y0138310D01*
X0226890Y0137712D02*
X0212098Y0137712D01*
X0212098Y0137113D02*
X0227047Y0137113D01*
X0227205Y0136515D02*
X0212098Y0136515D01*
X0212098Y0135916D02*
X0227340Y0135916D01*
X0227424Y0135318D02*
X0212098Y0135318D01*
X0212098Y0134719D02*
X0227509Y0134719D01*
X0227594Y0134121D02*
X0212098Y0134121D01*
X0212098Y0133522D02*
X0227679Y0133522D01*
X0227764Y0132924D02*
X0212098Y0132924D01*
X0212098Y0132325D02*
X0227849Y0132325D01*
X0227934Y0131727D02*
X0213263Y0131727D01*
X0213861Y0131128D02*
X0228019Y0131128D01*
X0228104Y0130530D02*
X0214017Y0130530D01*
X0214017Y0129931D02*
X0228189Y0129931D01*
X0228273Y0129333D02*
X0214017Y0129333D01*
X0214017Y0128734D02*
X0228358Y0128734D01*
X0228443Y0128136D02*
X0214017Y0128136D01*
X0214017Y0127537D02*
X0228528Y0127537D01*
X0228613Y0126939D02*
X0214017Y0126939D01*
X0214017Y0126340D02*
X0228698Y0126340D01*
X0228783Y0125742D02*
X0214017Y0125742D01*
X0214017Y0125143D02*
X0228835Y0125143D01*
X0228850Y0124545D02*
X0214017Y0124545D01*
X0214017Y0123946D02*
X0228865Y0123946D01*
X0228880Y0123348D02*
X0214017Y0123348D01*
X0214017Y0122749D02*
X0228894Y0122749D01*
X0228909Y0122151D02*
X0214017Y0122151D01*
X0213942Y0121552D02*
X0228924Y0121552D01*
X0228938Y0120954D02*
X0213343Y0120954D01*
X0221370Y0138909D02*
X0226575Y0138909D01*
X0226418Y0139508D02*
X0222195Y0139508D01*
X0222793Y0140106D02*
X0226260Y0140106D01*
X0226103Y0140705D02*
X0223105Y0140705D01*
X0223352Y0141303D02*
X0225945Y0141303D01*
X0225788Y0141902D02*
X0223521Y0141902D01*
X0223521Y0142500D02*
X0225630Y0142500D01*
X0225473Y0143099D02*
X0223521Y0143099D01*
X0223369Y0143697D02*
X0225315Y0143697D01*
X0225158Y0144296D02*
X0223121Y0144296D01*
X0222834Y0144894D02*
X0225000Y0144894D01*
X0224843Y0145493D02*
X0222236Y0145493D01*
X0221469Y0146091D02*
X0224685Y0146091D01*
X0132172Y0058708D02*
X0120428Y0058708D01*
X0121026Y0058110D02*
X0131574Y0058110D01*
X0130975Y0057511D02*
X0121625Y0057511D01*
X0121757Y0056913D02*
X0130843Y0056913D01*
X0130843Y0056314D02*
X0121757Y0056314D01*
X0121757Y0055716D02*
X0130843Y0055716D01*
X0130843Y0055117D02*
X0121757Y0055117D01*
X0121757Y0054519D02*
X0130843Y0054519D01*
X0130843Y0053920D02*
X0121757Y0053920D01*
X0121757Y0053322D02*
X0130843Y0053322D01*
X0130843Y0052723D02*
X0121757Y0052723D01*
X0121757Y0052125D02*
X0130843Y0052125D01*
X0130843Y0051526D02*
X0121757Y0051526D01*
X0121757Y0050928D02*
X0130843Y0050928D01*
X0130843Y0050329D02*
X0121757Y0050329D01*
X0121757Y0049731D02*
X0130843Y0049731D01*
X0131184Y0049132D02*
X0121416Y0049132D01*
X0120818Y0048534D02*
X0131782Y0048534D01*
X0094316Y0061701D02*
X0093717Y0061701D01*
X0093717Y0062300D02*
X0094316Y0062300D01*
X0094316Y0062898D02*
X0093717Y0062898D01*
X0093717Y0064694D02*
X0094316Y0064694D01*
X0094316Y0065292D02*
X0093717Y0065292D01*
X0093717Y0065891D02*
X0094316Y0065891D01*
X0094316Y0066489D02*
X0093717Y0066489D01*
X0093717Y0067088D02*
X0094316Y0067088D01*
X0094316Y0068883D02*
X0093717Y0068883D01*
X0093717Y0069482D02*
X0094316Y0069482D01*
X0094316Y0070080D02*
X0093717Y0070080D01*
X0093717Y0070679D02*
X0094316Y0070679D01*
X0094316Y0071277D02*
X0093717Y0071277D01*
X0093717Y0073073D02*
X0094316Y0073073D01*
X0094316Y0073671D02*
X0093717Y0073671D01*
X0093717Y0074270D02*
X0094316Y0074270D01*
X0094316Y0074868D02*
X0093717Y0074868D01*
X0087795Y0079656D02*
X0079590Y0079656D01*
X0081035Y0080255D02*
X0087795Y0080255D01*
X0087795Y0080853D02*
X0082031Y0080853D01*
X0082629Y0081452D02*
X0087795Y0081452D01*
X0087795Y0082050D02*
X0083228Y0082050D01*
X0083740Y0082649D02*
X0088173Y0082649D01*
X0088482Y0084444D02*
X0084483Y0084444D01*
X0084731Y0085043D02*
X0087884Y0085043D01*
X0087795Y0085641D02*
X0084742Y0085641D01*
X0084742Y0086240D02*
X0087795Y0086240D01*
X0087795Y0086839D02*
X0084742Y0086839D01*
X0084742Y0087437D02*
X0087795Y0087437D01*
X0087795Y0088036D02*
X0084664Y0088036D01*
X0084416Y0088634D02*
X0087795Y0088634D01*
X0087795Y0089233D02*
X0084168Y0089233D01*
X0083920Y0089831D02*
X0087795Y0089831D01*
X0088079Y0090430D02*
X0083663Y0090430D01*
X0080982Y0047337D02*
X0196759Y0047337D01*
X0196039Y0046738D02*
X0081654Y0046738D01*
X0082327Y0046140D02*
X0195319Y0046140D01*
D26*
X0166891Y0068623D02*
X0164922Y0066654D01*
X0160985Y0066654D01*
X0159017Y0064686D01*
X0158583Y0064391D01*
X0158583Y0071891D02*
X0159017Y0072560D01*
X0162954Y0072560D01*
X0172796Y0082402D01*
X0179686Y0082402D01*
X0179686Y0097166D01*
X0177717Y0099135D01*
X0177717Y0106024D01*
X0177363Y0106300D01*
X0171812Y0105040D02*
X0169843Y0103072D01*
X0159017Y0103072D01*
X0158583Y0103387D01*
X0158032Y0088308D02*
X0158583Y0087639D01*
X0158032Y0088308D02*
X0138347Y0088308D01*
X0116694Y0109961D01*
X0106851Y0111930D02*
X0138347Y0080434D01*
X0158032Y0080434D01*
X0158583Y0079765D01*
X0166891Y0072560D02*
X0173780Y0079450D01*
X0187560Y0079450D01*
X0195434Y0087324D01*
X0197402Y0087324D01*
X0197363Y0086300D01*
X0197402Y0086339D01*
X0197402Y0087324D01*
X0197402Y0106024D01*
X0197363Y0106300D01*
X0197402Y0107009D01*
X0197402Y0118820D01*
X0199371Y0124725D02*
X0199371Y0135552D01*
X0171812Y0135552D01*
X0157048Y0120788D01*
X0157048Y0119804D01*
X0158032Y0119804D01*
X0158583Y0119135D01*
X0171812Y0130631D02*
X0176300Y0130631D01*
X0176733Y0130631D01*
X0180670Y0126694D01*
X0192481Y0126694D01*
X0192639Y0126300D01*
X0199371Y0124725D02*
X0205276Y0118820D01*
X0205276Y0107009D01*
X0205237Y0106300D01*
X0185237Y0106300D02*
X0184607Y0107009D01*
X0184607Y0108977D01*
X0181654Y0111930D01*
X0180670Y0111930D01*
X0180670Y0121772D01*
X0180040Y0122363D01*
X0182639Y0142442D02*
X0210198Y0142442D01*
X0219056Y0142442D01*
X0219450Y0142520D01*
X0210198Y0142442D02*
X0210198Y0126694D01*
X0209961Y0126300D01*
X0182639Y0142442D02*
X0174765Y0150316D01*
X0180670Y0162127D02*
X0180670Y0166064D01*
X0181300Y0166300D01*
X0180670Y0162127D02*
X0160985Y0142442D01*
X0116694Y0142442D01*
X0094056Y0119804D01*
X0094017Y0119135D01*
X0094056Y0111930D02*
X0094017Y0111261D01*
X0094056Y0111930D02*
X0101930Y0111930D01*
X0128505Y0138505D01*
X0126300Y0154100D02*
X0126536Y0154253D01*
X0126536Y0164095D01*
X0133426Y0164095D01*
X0133426Y0172954D01*
X0127520Y0178859D01*
X0126300Y0178501D01*
X0125552Y0177875D01*
X0124568Y0176891D01*
X0097009Y0176891D01*
X0093072Y0180828D01*
X0092363Y0181300D01*
X0092087Y0180828D01*
X0082245Y0180828D01*
X0081300Y0181300D01*
X0100237Y0181300D02*
X0100946Y0180828D01*
X0105867Y0180828D01*
X0106300Y0166812D02*
X0106851Y0166064D01*
X0114725Y0158190D01*
X0124568Y0168032D01*
X0129489Y0168032D01*
X0133426Y0164095D02*
X0139331Y0164095D01*
X0141300Y0166064D01*
X0146221Y0166064D01*
X0146300Y0166812D01*
X0147206Y0166064D01*
X0153111Y0160158D01*
X0160985Y0160158D01*
X0161300Y0160237D01*
X0161969Y0161143D01*
X0166891Y0166064D01*
X0170828Y0166064D01*
X0171300Y0166300D01*
X0160985Y0175906D02*
X0204292Y0175906D01*
X0211182Y0169017D01*
X0211182Y0167048D01*
X0211300Y0166300D01*
X0160985Y0175906D02*
X0160001Y0176891D01*
X0159017Y0175906D01*
X0160001Y0176891D02*
X0156064Y0180828D01*
X0155237Y0181300D01*
X0147363Y0181300D02*
X0147206Y0180828D01*
X0145237Y0178859D01*
X0127520Y0178859D01*
X0126536Y0178859D01*
X0126300Y0178501D01*
X0136379Y0174922D02*
X0138347Y0172954D01*
X0154095Y0172954D01*
X0157048Y0170001D01*
X0156615Y0169174D01*
X0160985Y0152284D02*
X0161300Y0152363D01*
X0160985Y0152284D02*
X0154095Y0145394D01*
X0073387Y0145394D01*
X0073072Y0146143D01*
X0114725Y0158190D02*
X0116694Y0156221D01*
X0116694Y0154253D01*
X0117200Y0154100D01*
X0101930Y0088308D02*
X0094056Y0088308D01*
X0094017Y0087639D01*
X0166891Y0072560D02*
X0166891Y0068623D01*
X0196418Y0080434D02*
X0199371Y0080434D01*
X0205237Y0086300D01*
D27*
X0196418Y0080434D03*
X0171812Y0105040D03*
X0197402Y0118820D03*
X0171812Y0130631D03*
X0174765Y0150316D03*
X0159017Y0175906D03*
X0136379Y0174922D03*
X0129489Y0168032D03*
X0105867Y0180828D03*
X0128505Y0138505D03*
X0106851Y0111930D03*
X0116694Y0109961D03*
X0101930Y0088308D03*
M02*
