G75*
%MOIN*%
%OFA0B0*%
%FSLAX25Y25*%
%IPPOS*%
%LPD*%
%AMOC8*
5,1,8,0,0,1.08239X$1,22.5*
%
%ADD10C,0.00000*%
%ADD11C,0.00600*%
%ADD12C,0.00300*%
%ADD13C,0.00500*%
%ADD14C,0.00800*%
%ADD15C,0.00200*%
%ADD16C,0.00400*%
%ADD17C,0.00080*%
D10*
X0081300Y0041300D02*
X0196221Y0041300D01*
X0081299Y0041299D02*
X0079516Y0042833D01*
X0077769Y0044410D01*
X0076062Y0046029D01*
X0074394Y0047688D01*
X0072767Y0049388D01*
X0071182Y0051126D01*
X0069640Y0052903D01*
X0068140Y0054716D01*
X0066686Y0056565D01*
X0065276Y0058449D01*
X0063913Y0060366D01*
X0062596Y0062316D01*
X0061327Y0064297D01*
X0060107Y0066308D01*
X0058935Y0068349D01*
X0057814Y0070417D01*
X0056743Y0072511D01*
X0055723Y0074632D01*
X0054754Y0076776D01*
X0053838Y0078943D01*
X0052975Y0081131D01*
X0052165Y0083340D01*
X0051408Y0085568D01*
X0050706Y0087813D01*
X0050059Y0090075D01*
X0049467Y0092352D01*
X0048930Y0094643D01*
X0048448Y0096946D01*
X0048023Y0099260D01*
X0047654Y0101583D01*
X0047341Y0103915D01*
X0047085Y0106254D01*
X0046886Y0108598D01*
X0046743Y0110946D01*
X0046658Y0113297D01*
X0046629Y0115650D01*
X0046658Y0118003D01*
X0046743Y0120354D01*
X0046886Y0122702D01*
X0047085Y0125046D01*
X0047341Y0127385D01*
X0047654Y0129717D01*
X0048023Y0132040D01*
X0048448Y0134354D01*
X0048930Y0136657D01*
X0049467Y0138948D01*
X0050059Y0141225D01*
X0050706Y0143487D01*
X0051408Y0145732D01*
X0052165Y0147960D01*
X0052975Y0150169D01*
X0053838Y0152357D01*
X0054754Y0154524D01*
X0055723Y0156668D01*
X0056743Y0158789D01*
X0057814Y0160883D01*
X0058935Y0162951D01*
X0060107Y0164992D01*
X0061327Y0167003D01*
X0062596Y0168984D01*
X0063913Y0170934D01*
X0065276Y0172851D01*
X0066686Y0174735D01*
X0068140Y0176584D01*
X0069640Y0178397D01*
X0071182Y0180174D01*
X0072767Y0181912D01*
X0074394Y0183612D01*
X0076062Y0185271D01*
X0077769Y0186890D01*
X0079516Y0188467D01*
X0081299Y0190001D01*
X0081300Y0190001D02*
X0201221Y0190001D01*
X0201221Y0190000D02*
X0202953Y0188406D01*
X0204646Y0186771D01*
X0206299Y0185095D01*
X0207911Y0183379D01*
X0209481Y0181625D01*
X0211008Y0179833D01*
X0212491Y0178005D01*
X0213929Y0176141D01*
X0215321Y0174244D01*
X0216667Y0172312D01*
X0217966Y0170349D01*
X0219217Y0168355D01*
X0220420Y0166331D01*
X0221573Y0164279D01*
X0222675Y0162199D01*
X0223727Y0160093D01*
X0224728Y0157963D01*
X0225677Y0155808D01*
X0226573Y0153632D01*
X0227416Y0151434D01*
X0228206Y0149216D01*
X0228942Y0146980D01*
X0229623Y0144727D01*
X0230250Y0142458D01*
X0230821Y0140174D01*
X0231337Y0137877D01*
X0231797Y0135569D01*
X0232201Y0133250D01*
X0232548Y0130922D01*
X0232839Y0128586D01*
X0233074Y0126243D01*
X0233251Y0123896D01*
X0233372Y0121545D01*
X0233435Y0119192D01*
X0233442Y0116838D01*
X0233391Y0114484D01*
X0233284Y0112133D01*
X0233119Y0109785D01*
X0232897Y0107441D01*
X0232619Y0105104D01*
X0232285Y0102774D01*
X0231893Y0100452D01*
X0231446Y0098141D01*
X0230943Y0095842D01*
X0230384Y0093555D01*
X0229770Y0091282D01*
X0229101Y0089025D01*
X0228378Y0086785D01*
X0227600Y0084563D01*
X0226769Y0082361D01*
X0225885Y0080179D01*
X0224948Y0078020D01*
X0223959Y0075884D01*
X0222918Y0073772D01*
X0221827Y0071686D01*
X0220686Y0069628D01*
X0219494Y0067597D01*
X0218254Y0065596D01*
X0216966Y0063626D01*
X0215631Y0061688D01*
X0214249Y0059782D01*
X0212821Y0057911D01*
X0211348Y0056074D01*
X0209831Y0054274D01*
X0208271Y0052511D01*
X0206669Y0050787D01*
X0205025Y0049102D01*
X0203341Y0047457D01*
X0201617Y0045854D01*
X0199856Y0044292D01*
X0198057Y0042774D01*
X0196221Y0041300D01*
D11*
X0205985Y0051536D02*
X0166615Y0051536D01*
X0166615Y0054450D01*
X0205985Y0054450D01*
X0205985Y0051536D01*
X0205985Y0054450D02*
X0205985Y0074253D01*
X0166615Y0074253D01*
X0166615Y0074784D01*
X0166615Y0077107D01*
X0166615Y0081064D01*
X0205985Y0081064D01*
X0205985Y0074253D01*
X0166615Y0074253D02*
X0166615Y0054450D01*
X0086064Y0076615D02*
X0083150Y0076615D01*
X0083150Y0115985D01*
X0086064Y0115985D01*
X0086064Y0076615D01*
X0083150Y0076615D02*
X0063347Y0076615D01*
X0063347Y0115985D01*
X0083150Y0115985D01*
X0083150Y0116615D02*
X0083150Y0155985D01*
X0086064Y0155985D01*
X0086064Y0116615D01*
X0083150Y0116615D01*
X0063347Y0116615D01*
X0063347Y0155985D01*
X0083150Y0155985D01*
X0063347Y0155985D02*
X0056536Y0155985D01*
X0056536Y0116615D01*
X0060493Y0116615D01*
X0062816Y0116615D01*
X0063347Y0116615D01*
X0063347Y0115985D02*
X0056536Y0115985D01*
X0056536Y0076615D01*
X0060493Y0076615D01*
X0062816Y0076615D01*
X0063347Y0076615D01*
X0166300Y0163800D02*
X0166300Y0168800D01*
X0168800Y0171300D01*
X0173800Y0171300D01*
X0176300Y0168800D01*
X0178800Y0171300D01*
X0183800Y0171300D01*
X0186300Y0168800D01*
X0188800Y0171300D01*
X0193800Y0171300D01*
X0196300Y0168800D01*
X0198800Y0171300D01*
X0203800Y0171300D01*
X0206300Y0168800D01*
X0208800Y0171300D01*
X0213800Y0171300D01*
X0216300Y0168800D01*
X0216300Y0163800D01*
X0213800Y0161300D01*
X0208800Y0161300D01*
X0206300Y0163800D01*
X0203800Y0161300D01*
X0198800Y0161300D01*
X0196300Y0163800D01*
X0193800Y0161300D01*
X0188800Y0161300D01*
X0186300Y0163800D01*
X0183800Y0161300D01*
X0178800Y0161300D01*
X0176300Y0163800D01*
X0173800Y0161300D01*
X0168800Y0161300D01*
X0166300Y0163800D01*
D12*
X0164331Y0077717D02*
X0164331Y0074174D01*
X0166615Y0074784D01*
X0166615Y0077107D02*
X0164331Y0077717D01*
X0174685Y0075946D02*
X0174687Y0076030D01*
X0174693Y0076113D01*
X0174703Y0076196D01*
X0174717Y0076279D01*
X0174734Y0076361D01*
X0174756Y0076442D01*
X0174781Y0076521D01*
X0174810Y0076600D01*
X0174843Y0076677D01*
X0174879Y0076752D01*
X0174919Y0076826D01*
X0174962Y0076898D01*
X0175009Y0076967D01*
X0175059Y0077034D01*
X0175112Y0077099D01*
X0175168Y0077161D01*
X0175226Y0077221D01*
X0175288Y0077278D01*
X0175352Y0077331D01*
X0175419Y0077382D01*
X0175488Y0077429D01*
X0175559Y0077474D01*
X0175632Y0077514D01*
X0175707Y0077551D01*
X0175784Y0077585D01*
X0175862Y0077615D01*
X0175941Y0077641D01*
X0176022Y0077664D01*
X0176104Y0077682D01*
X0176186Y0077697D01*
X0176269Y0077708D01*
X0176352Y0077715D01*
X0176436Y0077718D01*
X0176520Y0077717D01*
X0176603Y0077712D01*
X0176687Y0077703D01*
X0176769Y0077690D01*
X0176851Y0077674D01*
X0176932Y0077653D01*
X0177013Y0077629D01*
X0177091Y0077601D01*
X0177169Y0077569D01*
X0177245Y0077533D01*
X0177319Y0077494D01*
X0177391Y0077452D01*
X0177461Y0077406D01*
X0177529Y0077357D01*
X0177594Y0077305D01*
X0177657Y0077250D01*
X0177717Y0077192D01*
X0177775Y0077131D01*
X0177829Y0077067D01*
X0177881Y0077001D01*
X0177929Y0076933D01*
X0177974Y0076862D01*
X0178015Y0076789D01*
X0178054Y0076715D01*
X0178088Y0076639D01*
X0178119Y0076561D01*
X0178146Y0076482D01*
X0178170Y0076401D01*
X0178189Y0076320D01*
X0178205Y0076238D01*
X0178217Y0076155D01*
X0178225Y0076071D01*
X0178229Y0075988D01*
X0178229Y0075904D01*
X0178225Y0075821D01*
X0178217Y0075737D01*
X0178205Y0075654D01*
X0178189Y0075572D01*
X0178170Y0075491D01*
X0178146Y0075410D01*
X0178119Y0075331D01*
X0178088Y0075253D01*
X0178054Y0075177D01*
X0178015Y0075103D01*
X0177974Y0075030D01*
X0177929Y0074959D01*
X0177881Y0074891D01*
X0177829Y0074825D01*
X0177775Y0074761D01*
X0177717Y0074700D01*
X0177657Y0074642D01*
X0177594Y0074587D01*
X0177529Y0074535D01*
X0177461Y0074486D01*
X0177391Y0074440D01*
X0177319Y0074398D01*
X0177245Y0074359D01*
X0177169Y0074323D01*
X0177091Y0074291D01*
X0177013Y0074263D01*
X0176932Y0074239D01*
X0176851Y0074218D01*
X0176769Y0074202D01*
X0176687Y0074189D01*
X0176603Y0074180D01*
X0176520Y0074175D01*
X0176436Y0074174D01*
X0176352Y0074177D01*
X0176269Y0074184D01*
X0176186Y0074195D01*
X0176104Y0074210D01*
X0176022Y0074228D01*
X0175941Y0074251D01*
X0175862Y0074277D01*
X0175784Y0074307D01*
X0175707Y0074341D01*
X0175632Y0074378D01*
X0175559Y0074418D01*
X0175488Y0074463D01*
X0175419Y0074510D01*
X0175352Y0074561D01*
X0175288Y0074614D01*
X0175226Y0074671D01*
X0175168Y0074731D01*
X0175112Y0074793D01*
X0175059Y0074858D01*
X0175009Y0074925D01*
X0174962Y0074994D01*
X0174919Y0075066D01*
X0174879Y0075140D01*
X0174843Y0075215D01*
X0174810Y0075292D01*
X0174781Y0075371D01*
X0174756Y0075450D01*
X0174734Y0075531D01*
X0174717Y0075613D01*
X0174703Y0075696D01*
X0174693Y0075779D01*
X0174687Y0075862D01*
X0174685Y0075946D01*
X0194371Y0075946D02*
X0194373Y0076030D01*
X0194379Y0076113D01*
X0194389Y0076196D01*
X0194403Y0076279D01*
X0194420Y0076361D01*
X0194442Y0076442D01*
X0194467Y0076521D01*
X0194496Y0076600D01*
X0194529Y0076677D01*
X0194565Y0076752D01*
X0194605Y0076826D01*
X0194648Y0076898D01*
X0194695Y0076967D01*
X0194745Y0077034D01*
X0194798Y0077099D01*
X0194854Y0077161D01*
X0194912Y0077221D01*
X0194974Y0077278D01*
X0195038Y0077331D01*
X0195105Y0077382D01*
X0195174Y0077429D01*
X0195245Y0077474D01*
X0195318Y0077514D01*
X0195393Y0077551D01*
X0195470Y0077585D01*
X0195548Y0077615D01*
X0195627Y0077641D01*
X0195708Y0077664D01*
X0195790Y0077682D01*
X0195872Y0077697D01*
X0195955Y0077708D01*
X0196038Y0077715D01*
X0196122Y0077718D01*
X0196206Y0077717D01*
X0196289Y0077712D01*
X0196373Y0077703D01*
X0196455Y0077690D01*
X0196537Y0077674D01*
X0196618Y0077653D01*
X0196699Y0077629D01*
X0196777Y0077601D01*
X0196855Y0077569D01*
X0196931Y0077533D01*
X0197005Y0077494D01*
X0197077Y0077452D01*
X0197147Y0077406D01*
X0197215Y0077357D01*
X0197280Y0077305D01*
X0197343Y0077250D01*
X0197403Y0077192D01*
X0197461Y0077131D01*
X0197515Y0077067D01*
X0197567Y0077001D01*
X0197615Y0076933D01*
X0197660Y0076862D01*
X0197701Y0076789D01*
X0197740Y0076715D01*
X0197774Y0076639D01*
X0197805Y0076561D01*
X0197832Y0076482D01*
X0197856Y0076401D01*
X0197875Y0076320D01*
X0197891Y0076238D01*
X0197903Y0076155D01*
X0197911Y0076071D01*
X0197915Y0075988D01*
X0197915Y0075904D01*
X0197911Y0075821D01*
X0197903Y0075737D01*
X0197891Y0075654D01*
X0197875Y0075572D01*
X0197856Y0075491D01*
X0197832Y0075410D01*
X0197805Y0075331D01*
X0197774Y0075253D01*
X0197740Y0075177D01*
X0197701Y0075103D01*
X0197660Y0075030D01*
X0197615Y0074959D01*
X0197567Y0074891D01*
X0197515Y0074825D01*
X0197461Y0074761D01*
X0197403Y0074700D01*
X0197343Y0074642D01*
X0197280Y0074587D01*
X0197215Y0074535D01*
X0197147Y0074486D01*
X0197077Y0074440D01*
X0197005Y0074398D01*
X0196931Y0074359D01*
X0196855Y0074323D01*
X0196777Y0074291D01*
X0196699Y0074263D01*
X0196618Y0074239D01*
X0196537Y0074218D01*
X0196455Y0074202D01*
X0196373Y0074189D01*
X0196289Y0074180D01*
X0196206Y0074175D01*
X0196122Y0074174D01*
X0196038Y0074177D01*
X0195955Y0074184D01*
X0195872Y0074195D01*
X0195790Y0074210D01*
X0195708Y0074228D01*
X0195627Y0074251D01*
X0195548Y0074277D01*
X0195470Y0074307D01*
X0195393Y0074341D01*
X0195318Y0074378D01*
X0195245Y0074418D01*
X0195174Y0074463D01*
X0195105Y0074510D01*
X0195038Y0074561D01*
X0194974Y0074614D01*
X0194912Y0074671D01*
X0194854Y0074731D01*
X0194798Y0074793D01*
X0194745Y0074858D01*
X0194695Y0074925D01*
X0194648Y0074994D01*
X0194605Y0075066D01*
X0194565Y0075140D01*
X0194529Y0075215D01*
X0194496Y0075292D01*
X0194467Y0075371D01*
X0194442Y0075450D01*
X0194420Y0075531D01*
X0194403Y0075613D01*
X0194389Y0075696D01*
X0194379Y0075779D01*
X0194373Y0075862D01*
X0194371Y0075946D01*
X0063426Y0074331D02*
X0062816Y0076615D01*
X0060493Y0076615D02*
X0059883Y0074331D01*
X0063426Y0074331D01*
X0059882Y0086457D02*
X0059884Y0086541D01*
X0059890Y0086624D01*
X0059900Y0086707D01*
X0059914Y0086790D01*
X0059931Y0086872D01*
X0059953Y0086953D01*
X0059978Y0087032D01*
X0060007Y0087111D01*
X0060040Y0087188D01*
X0060076Y0087263D01*
X0060116Y0087337D01*
X0060159Y0087409D01*
X0060206Y0087478D01*
X0060256Y0087545D01*
X0060309Y0087610D01*
X0060365Y0087672D01*
X0060423Y0087732D01*
X0060485Y0087789D01*
X0060549Y0087842D01*
X0060616Y0087893D01*
X0060685Y0087940D01*
X0060756Y0087985D01*
X0060829Y0088025D01*
X0060904Y0088062D01*
X0060981Y0088096D01*
X0061059Y0088126D01*
X0061138Y0088152D01*
X0061219Y0088175D01*
X0061301Y0088193D01*
X0061383Y0088208D01*
X0061466Y0088219D01*
X0061549Y0088226D01*
X0061633Y0088229D01*
X0061717Y0088228D01*
X0061800Y0088223D01*
X0061884Y0088214D01*
X0061966Y0088201D01*
X0062048Y0088185D01*
X0062129Y0088164D01*
X0062210Y0088140D01*
X0062288Y0088112D01*
X0062366Y0088080D01*
X0062442Y0088044D01*
X0062516Y0088005D01*
X0062588Y0087963D01*
X0062658Y0087917D01*
X0062726Y0087868D01*
X0062791Y0087816D01*
X0062854Y0087761D01*
X0062914Y0087703D01*
X0062972Y0087642D01*
X0063026Y0087578D01*
X0063078Y0087512D01*
X0063126Y0087444D01*
X0063171Y0087373D01*
X0063212Y0087300D01*
X0063251Y0087226D01*
X0063285Y0087150D01*
X0063316Y0087072D01*
X0063343Y0086993D01*
X0063367Y0086912D01*
X0063386Y0086831D01*
X0063402Y0086749D01*
X0063414Y0086666D01*
X0063422Y0086582D01*
X0063426Y0086499D01*
X0063426Y0086415D01*
X0063422Y0086332D01*
X0063414Y0086248D01*
X0063402Y0086165D01*
X0063386Y0086083D01*
X0063367Y0086002D01*
X0063343Y0085921D01*
X0063316Y0085842D01*
X0063285Y0085764D01*
X0063251Y0085688D01*
X0063212Y0085614D01*
X0063171Y0085541D01*
X0063126Y0085470D01*
X0063078Y0085402D01*
X0063026Y0085336D01*
X0062972Y0085272D01*
X0062914Y0085211D01*
X0062854Y0085153D01*
X0062791Y0085098D01*
X0062726Y0085046D01*
X0062658Y0084997D01*
X0062588Y0084951D01*
X0062516Y0084909D01*
X0062442Y0084870D01*
X0062366Y0084834D01*
X0062288Y0084802D01*
X0062210Y0084774D01*
X0062129Y0084750D01*
X0062048Y0084729D01*
X0061966Y0084713D01*
X0061884Y0084700D01*
X0061800Y0084691D01*
X0061717Y0084686D01*
X0061633Y0084685D01*
X0061549Y0084688D01*
X0061466Y0084695D01*
X0061383Y0084706D01*
X0061301Y0084721D01*
X0061219Y0084739D01*
X0061138Y0084762D01*
X0061059Y0084788D01*
X0060981Y0084818D01*
X0060904Y0084852D01*
X0060829Y0084889D01*
X0060756Y0084929D01*
X0060685Y0084974D01*
X0060616Y0085021D01*
X0060549Y0085072D01*
X0060485Y0085125D01*
X0060423Y0085182D01*
X0060365Y0085242D01*
X0060309Y0085304D01*
X0060256Y0085369D01*
X0060206Y0085436D01*
X0060159Y0085505D01*
X0060116Y0085577D01*
X0060076Y0085651D01*
X0060040Y0085726D01*
X0060007Y0085803D01*
X0059978Y0085882D01*
X0059953Y0085961D01*
X0059931Y0086042D01*
X0059914Y0086124D01*
X0059900Y0086207D01*
X0059890Y0086290D01*
X0059884Y0086373D01*
X0059882Y0086457D01*
X0059882Y0106143D02*
X0059884Y0106227D01*
X0059890Y0106310D01*
X0059900Y0106393D01*
X0059914Y0106476D01*
X0059931Y0106558D01*
X0059953Y0106639D01*
X0059978Y0106718D01*
X0060007Y0106797D01*
X0060040Y0106874D01*
X0060076Y0106949D01*
X0060116Y0107023D01*
X0060159Y0107095D01*
X0060206Y0107164D01*
X0060256Y0107231D01*
X0060309Y0107296D01*
X0060365Y0107358D01*
X0060423Y0107418D01*
X0060485Y0107475D01*
X0060549Y0107528D01*
X0060616Y0107579D01*
X0060685Y0107626D01*
X0060756Y0107671D01*
X0060829Y0107711D01*
X0060904Y0107748D01*
X0060981Y0107782D01*
X0061059Y0107812D01*
X0061138Y0107838D01*
X0061219Y0107861D01*
X0061301Y0107879D01*
X0061383Y0107894D01*
X0061466Y0107905D01*
X0061549Y0107912D01*
X0061633Y0107915D01*
X0061717Y0107914D01*
X0061800Y0107909D01*
X0061884Y0107900D01*
X0061966Y0107887D01*
X0062048Y0107871D01*
X0062129Y0107850D01*
X0062210Y0107826D01*
X0062288Y0107798D01*
X0062366Y0107766D01*
X0062442Y0107730D01*
X0062516Y0107691D01*
X0062588Y0107649D01*
X0062658Y0107603D01*
X0062726Y0107554D01*
X0062791Y0107502D01*
X0062854Y0107447D01*
X0062914Y0107389D01*
X0062972Y0107328D01*
X0063026Y0107264D01*
X0063078Y0107198D01*
X0063126Y0107130D01*
X0063171Y0107059D01*
X0063212Y0106986D01*
X0063251Y0106912D01*
X0063285Y0106836D01*
X0063316Y0106758D01*
X0063343Y0106679D01*
X0063367Y0106598D01*
X0063386Y0106517D01*
X0063402Y0106435D01*
X0063414Y0106352D01*
X0063422Y0106268D01*
X0063426Y0106185D01*
X0063426Y0106101D01*
X0063422Y0106018D01*
X0063414Y0105934D01*
X0063402Y0105851D01*
X0063386Y0105769D01*
X0063367Y0105688D01*
X0063343Y0105607D01*
X0063316Y0105528D01*
X0063285Y0105450D01*
X0063251Y0105374D01*
X0063212Y0105300D01*
X0063171Y0105227D01*
X0063126Y0105156D01*
X0063078Y0105088D01*
X0063026Y0105022D01*
X0062972Y0104958D01*
X0062914Y0104897D01*
X0062854Y0104839D01*
X0062791Y0104784D01*
X0062726Y0104732D01*
X0062658Y0104683D01*
X0062588Y0104637D01*
X0062516Y0104595D01*
X0062442Y0104556D01*
X0062366Y0104520D01*
X0062288Y0104488D01*
X0062210Y0104460D01*
X0062129Y0104436D01*
X0062048Y0104415D01*
X0061966Y0104399D01*
X0061884Y0104386D01*
X0061800Y0104377D01*
X0061717Y0104372D01*
X0061633Y0104371D01*
X0061549Y0104374D01*
X0061466Y0104381D01*
X0061383Y0104392D01*
X0061301Y0104407D01*
X0061219Y0104425D01*
X0061138Y0104448D01*
X0061059Y0104474D01*
X0060981Y0104504D01*
X0060904Y0104538D01*
X0060829Y0104575D01*
X0060756Y0104615D01*
X0060685Y0104660D01*
X0060616Y0104707D01*
X0060549Y0104758D01*
X0060485Y0104811D01*
X0060423Y0104868D01*
X0060365Y0104928D01*
X0060309Y0104990D01*
X0060256Y0105055D01*
X0060206Y0105122D01*
X0060159Y0105191D01*
X0060116Y0105263D01*
X0060076Y0105337D01*
X0060040Y0105412D01*
X0060007Y0105489D01*
X0059978Y0105568D01*
X0059953Y0105647D01*
X0059931Y0105728D01*
X0059914Y0105810D01*
X0059900Y0105893D01*
X0059890Y0105976D01*
X0059884Y0106059D01*
X0059882Y0106143D01*
X0059883Y0114331D02*
X0063426Y0114331D01*
X0062816Y0116615D01*
X0060493Y0116615D02*
X0059883Y0114331D01*
X0059882Y0126457D02*
X0059884Y0126541D01*
X0059890Y0126624D01*
X0059900Y0126707D01*
X0059914Y0126790D01*
X0059931Y0126872D01*
X0059953Y0126953D01*
X0059978Y0127032D01*
X0060007Y0127111D01*
X0060040Y0127188D01*
X0060076Y0127263D01*
X0060116Y0127337D01*
X0060159Y0127409D01*
X0060206Y0127478D01*
X0060256Y0127545D01*
X0060309Y0127610D01*
X0060365Y0127672D01*
X0060423Y0127732D01*
X0060485Y0127789D01*
X0060549Y0127842D01*
X0060616Y0127893D01*
X0060685Y0127940D01*
X0060756Y0127985D01*
X0060829Y0128025D01*
X0060904Y0128062D01*
X0060981Y0128096D01*
X0061059Y0128126D01*
X0061138Y0128152D01*
X0061219Y0128175D01*
X0061301Y0128193D01*
X0061383Y0128208D01*
X0061466Y0128219D01*
X0061549Y0128226D01*
X0061633Y0128229D01*
X0061717Y0128228D01*
X0061800Y0128223D01*
X0061884Y0128214D01*
X0061966Y0128201D01*
X0062048Y0128185D01*
X0062129Y0128164D01*
X0062210Y0128140D01*
X0062288Y0128112D01*
X0062366Y0128080D01*
X0062442Y0128044D01*
X0062516Y0128005D01*
X0062588Y0127963D01*
X0062658Y0127917D01*
X0062726Y0127868D01*
X0062791Y0127816D01*
X0062854Y0127761D01*
X0062914Y0127703D01*
X0062972Y0127642D01*
X0063026Y0127578D01*
X0063078Y0127512D01*
X0063126Y0127444D01*
X0063171Y0127373D01*
X0063212Y0127300D01*
X0063251Y0127226D01*
X0063285Y0127150D01*
X0063316Y0127072D01*
X0063343Y0126993D01*
X0063367Y0126912D01*
X0063386Y0126831D01*
X0063402Y0126749D01*
X0063414Y0126666D01*
X0063422Y0126582D01*
X0063426Y0126499D01*
X0063426Y0126415D01*
X0063422Y0126332D01*
X0063414Y0126248D01*
X0063402Y0126165D01*
X0063386Y0126083D01*
X0063367Y0126002D01*
X0063343Y0125921D01*
X0063316Y0125842D01*
X0063285Y0125764D01*
X0063251Y0125688D01*
X0063212Y0125614D01*
X0063171Y0125541D01*
X0063126Y0125470D01*
X0063078Y0125402D01*
X0063026Y0125336D01*
X0062972Y0125272D01*
X0062914Y0125211D01*
X0062854Y0125153D01*
X0062791Y0125098D01*
X0062726Y0125046D01*
X0062658Y0124997D01*
X0062588Y0124951D01*
X0062516Y0124909D01*
X0062442Y0124870D01*
X0062366Y0124834D01*
X0062288Y0124802D01*
X0062210Y0124774D01*
X0062129Y0124750D01*
X0062048Y0124729D01*
X0061966Y0124713D01*
X0061884Y0124700D01*
X0061800Y0124691D01*
X0061717Y0124686D01*
X0061633Y0124685D01*
X0061549Y0124688D01*
X0061466Y0124695D01*
X0061383Y0124706D01*
X0061301Y0124721D01*
X0061219Y0124739D01*
X0061138Y0124762D01*
X0061059Y0124788D01*
X0060981Y0124818D01*
X0060904Y0124852D01*
X0060829Y0124889D01*
X0060756Y0124929D01*
X0060685Y0124974D01*
X0060616Y0125021D01*
X0060549Y0125072D01*
X0060485Y0125125D01*
X0060423Y0125182D01*
X0060365Y0125242D01*
X0060309Y0125304D01*
X0060256Y0125369D01*
X0060206Y0125436D01*
X0060159Y0125505D01*
X0060116Y0125577D01*
X0060076Y0125651D01*
X0060040Y0125726D01*
X0060007Y0125803D01*
X0059978Y0125882D01*
X0059953Y0125961D01*
X0059931Y0126042D01*
X0059914Y0126124D01*
X0059900Y0126207D01*
X0059890Y0126290D01*
X0059884Y0126373D01*
X0059882Y0126457D01*
X0059882Y0146143D02*
X0059884Y0146227D01*
X0059890Y0146310D01*
X0059900Y0146393D01*
X0059914Y0146476D01*
X0059931Y0146558D01*
X0059953Y0146639D01*
X0059978Y0146718D01*
X0060007Y0146797D01*
X0060040Y0146874D01*
X0060076Y0146949D01*
X0060116Y0147023D01*
X0060159Y0147095D01*
X0060206Y0147164D01*
X0060256Y0147231D01*
X0060309Y0147296D01*
X0060365Y0147358D01*
X0060423Y0147418D01*
X0060485Y0147475D01*
X0060549Y0147528D01*
X0060616Y0147579D01*
X0060685Y0147626D01*
X0060756Y0147671D01*
X0060829Y0147711D01*
X0060904Y0147748D01*
X0060981Y0147782D01*
X0061059Y0147812D01*
X0061138Y0147838D01*
X0061219Y0147861D01*
X0061301Y0147879D01*
X0061383Y0147894D01*
X0061466Y0147905D01*
X0061549Y0147912D01*
X0061633Y0147915D01*
X0061717Y0147914D01*
X0061800Y0147909D01*
X0061884Y0147900D01*
X0061966Y0147887D01*
X0062048Y0147871D01*
X0062129Y0147850D01*
X0062210Y0147826D01*
X0062288Y0147798D01*
X0062366Y0147766D01*
X0062442Y0147730D01*
X0062516Y0147691D01*
X0062588Y0147649D01*
X0062658Y0147603D01*
X0062726Y0147554D01*
X0062791Y0147502D01*
X0062854Y0147447D01*
X0062914Y0147389D01*
X0062972Y0147328D01*
X0063026Y0147264D01*
X0063078Y0147198D01*
X0063126Y0147130D01*
X0063171Y0147059D01*
X0063212Y0146986D01*
X0063251Y0146912D01*
X0063285Y0146836D01*
X0063316Y0146758D01*
X0063343Y0146679D01*
X0063367Y0146598D01*
X0063386Y0146517D01*
X0063402Y0146435D01*
X0063414Y0146352D01*
X0063422Y0146268D01*
X0063426Y0146185D01*
X0063426Y0146101D01*
X0063422Y0146018D01*
X0063414Y0145934D01*
X0063402Y0145851D01*
X0063386Y0145769D01*
X0063367Y0145688D01*
X0063343Y0145607D01*
X0063316Y0145528D01*
X0063285Y0145450D01*
X0063251Y0145374D01*
X0063212Y0145300D01*
X0063171Y0145227D01*
X0063126Y0145156D01*
X0063078Y0145088D01*
X0063026Y0145022D01*
X0062972Y0144958D01*
X0062914Y0144897D01*
X0062854Y0144839D01*
X0062791Y0144784D01*
X0062726Y0144732D01*
X0062658Y0144683D01*
X0062588Y0144637D01*
X0062516Y0144595D01*
X0062442Y0144556D01*
X0062366Y0144520D01*
X0062288Y0144488D01*
X0062210Y0144460D01*
X0062129Y0144436D01*
X0062048Y0144415D01*
X0061966Y0144399D01*
X0061884Y0144386D01*
X0061800Y0144377D01*
X0061717Y0144372D01*
X0061633Y0144371D01*
X0061549Y0144374D01*
X0061466Y0144381D01*
X0061383Y0144392D01*
X0061301Y0144407D01*
X0061219Y0144425D01*
X0061138Y0144448D01*
X0061059Y0144474D01*
X0060981Y0144504D01*
X0060904Y0144538D01*
X0060829Y0144575D01*
X0060756Y0144615D01*
X0060685Y0144660D01*
X0060616Y0144707D01*
X0060549Y0144758D01*
X0060485Y0144811D01*
X0060423Y0144868D01*
X0060365Y0144928D01*
X0060309Y0144990D01*
X0060256Y0145055D01*
X0060206Y0145122D01*
X0060159Y0145191D01*
X0060116Y0145263D01*
X0060076Y0145337D01*
X0060040Y0145412D01*
X0060007Y0145489D01*
X0059978Y0145568D01*
X0059953Y0145647D01*
X0059931Y0145728D01*
X0059914Y0145810D01*
X0059900Y0145893D01*
X0059890Y0145976D01*
X0059884Y0146059D01*
X0059882Y0146143D01*
D13*
X0055302Y0124471D02*
X0050798Y0124471D01*
X0050798Y0121469D02*
X0055302Y0121469D01*
X0053801Y0122970D01*
X0055302Y0124471D01*
X0054551Y0119868D02*
X0053801Y0119868D01*
X0053050Y0119117D01*
X0053050Y0117616D01*
X0052299Y0116865D01*
X0051549Y0116865D01*
X0050798Y0117616D01*
X0050798Y0119117D01*
X0051549Y0119868D01*
X0054551Y0119868D02*
X0055302Y0119117D01*
X0055302Y0117616D01*
X0054551Y0116865D01*
X0055302Y0089075D02*
X0050798Y0089075D01*
X0050798Y0086073D02*
X0055302Y0089075D01*
X0055302Y0086073D02*
X0050798Y0086073D01*
X0050798Y0084471D02*
X0055302Y0081469D01*
X0055302Y0079868D02*
X0055302Y0076865D01*
X0050798Y0076865D01*
X0087215Y0105925D02*
X0091719Y0105925D01*
X0091719Y0104424D02*
X0091719Y0107427D01*
X0088717Y0104424D02*
X0087215Y0105925D01*
X0088717Y0144424D02*
X0087215Y0145925D01*
X0091719Y0145925D01*
X0091719Y0144424D02*
X0091719Y0147427D01*
X0166550Y0173801D02*
X0167301Y0173050D01*
X0168802Y0173050D01*
X0169553Y0173801D01*
X0169553Y0174551D01*
X0168802Y0175302D01*
X0167301Y0175302D01*
X0166550Y0176053D01*
X0166550Y0176803D01*
X0167301Y0177554D01*
X0168802Y0177554D01*
X0169553Y0176803D01*
X0171154Y0177554D02*
X0171154Y0174551D01*
X0172655Y0173050D01*
X0174156Y0174551D01*
X0174156Y0177554D01*
X0175758Y0176053D02*
X0177259Y0177554D01*
X0177259Y0173050D01*
X0175758Y0173050D02*
X0178760Y0173050D01*
X0170551Y0159554D02*
X0170551Y0155050D01*
X0169050Y0155050D02*
X0172053Y0155050D01*
X0169050Y0158053D02*
X0170551Y0159554D01*
X0209050Y0173801D02*
X0209801Y0173050D01*
X0211302Y0173050D01*
X0212053Y0173801D01*
X0212053Y0175302D01*
X0211302Y0176053D01*
X0210551Y0176053D01*
X0209050Y0175302D01*
X0209050Y0177554D01*
X0212053Y0177554D01*
X0178325Y0086802D02*
X0176073Y0086802D01*
X0176073Y0082298D01*
X0178325Y0082298D01*
X0179075Y0083049D01*
X0179075Y0086051D01*
X0178325Y0086802D01*
X0174471Y0086802D02*
X0171469Y0086802D01*
X0171469Y0082298D01*
X0174471Y0082298D01*
X0172970Y0084550D02*
X0171469Y0084550D01*
X0169868Y0082298D02*
X0166865Y0082298D01*
X0166865Y0086802D01*
X0195925Y0050385D02*
X0194424Y0048883D01*
X0195925Y0050385D02*
X0195925Y0045881D01*
X0194424Y0045881D02*
X0197427Y0045881D01*
D14*
X0225355Y0083465D02*
X0166300Y0083465D01*
X0166300Y0156300D01*
X0225355Y0156300D01*
X0225355Y0083465D01*
X0087800Y0163054D02*
X0087800Y0179546D01*
X0071300Y0173800D02*
X0071243Y0173525D01*
X0071192Y0173248D01*
X0071148Y0172970D01*
X0071110Y0172692D01*
X0071080Y0172412D01*
X0071056Y0172132D01*
X0071039Y0171851D01*
X0071029Y0171570D01*
X0071026Y0171289D01*
X0071030Y0171008D01*
X0071040Y0170727D01*
X0071058Y0170446D01*
X0071082Y0170166D01*
X0071113Y0169887D01*
X0071151Y0169608D01*
X0071196Y0169330D01*
X0071247Y0169054D01*
X0071305Y0168779D01*
X0071370Y0168505D01*
X0071442Y0168233D01*
X0071520Y0167963D01*
X0071604Y0167695D01*
X0071696Y0167429D01*
X0071793Y0167165D01*
X0071897Y0166904D01*
X0072008Y0166645D01*
X0072125Y0166389D01*
X0072248Y0166136D01*
X0072377Y0165887D01*
X0072512Y0165640D01*
X0072653Y0165397D01*
X0072800Y0165157D01*
X0072953Y0164921D01*
X0073111Y0164689D01*
X0073275Y0164460D01*
X0073445Y0164236D01*
X0073620Y0164016D01*
X0073800Y0163800D01*
X0071300Y0173800D02*
X0071365Y0174075D01*
X0071436Y0174348D01*
X0071514Y0174619D01*
X0071599Y0174889D01*
X0071690Y0175156D01*
X0071788Y0175421D01*
X0071892Y0175683D01*
X0072003Y0175943D01*
X0072119Y0176200D01*
X0072243Y0176454D01*
X0072372Y0176705D01*
X0072507Y0176952D01*
X0072649Y0177197D01*
X0072796Y0177437D01*
X0072950Y0177674D01*
X0073109Y0177908D01*
X0073273Y0178137D01*
X0073444Y0178362D01*
X0073619Y0178583D01*
X0073800Y0178800D01*
X0071300Y0173800D02*
X0071243Y0173526D01*
X0071192Y0173251D01*
X0071148Y0172974D01*
X0071111Y0172697D01*
X0071080Y0172418D01*
X0071057Y0172139D01*
X0071040Y0171860D01*
X0071029Y0171580D01*
X0071026Y0171300D01*
X0071029Y0171020D01*
X0071040Y0170740D01*
X0071057Y0170461D01*
X0071080Y0170182D01*
X0071111Y0169903D01*
X0071148Y0169626D01*
X0071192Y0169349D01*
X0071243Y0169074D01*
X0071300Y0168800D01*
D15*
X0072299Y0183900D02*
X0073466Y0183900D01*
X0073700Y0184134D01*
X0073700Y0184601D01*
X0073466Y0184834D01*
X0072299Y0184834D01*
X0072766Y0185373D02*
X0072299Y0185840D01*
X0073700Y0185840D01*
X0073700Y0185373D02*
X0073700Y0186307D01*
X0201398Y0125291D02*
X0201398Y0124557D01*
X0201765Y0124190D01*
X0201765Y0123448D02*
X0201398Y0123081D01*
X0201398Y0122347D01*
X0201765Y0121980D01*
X0202132Y0121980D01*
X0202499Y0122347D01*
X0202499Y0123081D01*
X0202866Y0123448D01*
X0203233Y0123448D01*
X0203600Y0123081D01*
X0203600Y0122347D01*
X0203233Y0121980D01*
X0203233Y0121238D02*
X0201398Y0121238D01*
X0201398Y0119770D02*
X0203233Y0119770D01*
X0203600Y0120137D01*
X0203600Y0120871D01*
X0203233Y0121238D01*
X0203967Y0122714D02*
X0201031Y0122714D01*
X0201398Y0125291D02*
X0201765Y0125658D01*
X0202132Y0125658D01*
X0203600Y0124190D01*
X0203600Y0125658D01*
D16*
X0096100Y0068381D02*
X0096100Y0065312D01*
X0096100Y0066846D02*
X0091496Y0066846D01*
X0093031Y0065312D01*
X0091496Y0063777D02*
X0094565Y0060708D01*
X0093798Y0061475D02*
X0096100Y0063777D01*
X0096100Y0060708D02*
X0091496Y0060708D01*
X0091496Y0056104D02*
X0096100Y0056104D01*
X0096100Y0059173D01*
X0096100Y0054569D02*
X0091496Y0054569D01*
X0093798Y0054569D02*
X0093798Y0051500D01*
X0096100Y0051500D02*
X0091496Y0051500D01*
D17*
X0087991Y0179853D02*
X0087545Y0179288D01*
X0087546Y0179288D02*
X0087349Y0179438D01*
X0087148Y0179584D01*
X0086944Y0179724D01*
X0086736Y0179860D01*
X0086525Y0179990D01*
X0086311Y0180115D01*
X0086094Y0180235D01*
X0085874Y0180350D01*
X0085652Y0180459D01*
X0085427Y0180562D01*
X0085199Y0180660D01*
X0084969Y0180753D01*
X0084737Y0180840D01*
X0084503Y0180921D01*
X0084267Y0180996D01*
X0084029Y0181066D01*
X0083789Y0181130D01*
X0083548Y0181188D01*
X0083306Y0181240D01*
X0083062Y0181286D01*
X0082818Y0181326D01*
X0082572Y0181360D01*
X0082326Y0181388D01*
X0082079Y0181410D01*
X0081832Y0181426D01*
X0081584Y0181436D01*
X0081336Y0181440D01*
X0081088Y0181438D01*
X0080841Y0181430D01*
X0080593Y0181415D01*
X0080346Y0181395D01*
X0080100Y0181369D01*
X0079854Y0181336D01*
X0079609Y0181298D01*
X0079365Y0181254D01*
X0079122Y0181203D01*
X0078881Y0181147D01*
X0078641Y0181085D01*
X0078403Y0181017D01*
X0078166Y0180944D01*
X0077931Y0180864D01*
X0077698Y0180779D01*
X0077468Y0180688D01*
X0077240Y0180592D01*
X0077014Y0180489D01*
X0076790Y0180382D01*
X0076570Y0180269D01*
X0076352Y0180151D01*
X0076137Y0180027D01*
X0075925Y0179898D01*
X0075717Y0179764D01*
X0075511Y0179625D01*
X0075310Y0179481D01*
X0075112Y0179333D01*
X0074917Y0179179D01*
X0074726Y0179021D01*
X0074540Y0178858D01*
X0074357Y0178690D01*
X0074178Y0178518D01*
X0074004Y0178342D01*
X0073834Y0178161D01*
X0073669Y0177977D01*
X0073508Y0177788D01*
X0073351Y0177596D01*
X0073200Y0177400D01*
X0073053Y0177200D01*
X0072911Y0176997D01*
X0072775Y0176790D01*
X0072643Y0176580D01*
X0072517Y0176367D01*
X0072395Y0176151D01*
X0072280Y0175931D01*
X0072169Y0175710D01*
X0072064Y0175485D01*
X0071964Y0175258D01*
X0071870Y0175029D01*
X0071782Y0174797D01*
X0071699Y0174563D01*
X0071623Y0174328D01*
X0070935Y0174540D01*
X0071017Y0174793D01*
X0071105Y0175043D01*
X0071200Y0175291D01*
X0071301Y0175537D01*
X0071407Y0175780D01*
X0071520Y0176021D01*
X0071638Y0176258D01*
X0071762Y0176493D01*
X0071892Y0176725D01*
X0072027Y0176953D01*
X0072168Y0177178D01*
X0072315Y0177400D01*
X0072467Y0177617D01*
X0072624Y0177831D01*
X0072786Y0178042D01*
X0072953Y0178248D01*
X0073126Y0178450D01*
X0073303Y0178648D01*
X0073485Y0178841D01*
X0073672Y0179030D01*
X0073863Y0179214D01*
X0074059Y0179393D01*
X0074259Y0179568D01*
X0074463Y0179738D01*
X0074671Y0179902D01*
X0074884Y0180062D01*
X0075100Y0180216D01*
X0075320Y0180365D01*
X0075543Y0180508D01*
X0075770Y0180646D01*
X0076000Y0180779D01*
X0076233Y0180906D01*
X0076470Y0181027D01*
X0076709Y0181142D01*
X0076951Y0181251D01*
X0077196Y0181355D01*
X0077443Y0181452D01*
X0077692Y0181543D01*
X0077943Y0181628D01*
X0078197Y0181707D01*
X0078452Y0181780D01*
X0078709Y0181846D01*
X0078968Y0181907D01*
X0079228Y0181961D01*
X0079489Y0182008D01*
X0079752Y0182049D01*
X0080015Y0182084D01*
X0080279Y0182112D01*
X0080544Y0182134D01*
X0080809Y0182149D01*
X0081074Y0182158D01*
X0081340Y0182160D01*
X0081605Y0182156D01*
X0081871Y0182145D01*
X0082135Y0182128D01*
X0082400Y0182104D01*
X0082664Y0182074D01*
X0082927Y0182037D01*
X0083189Y0181994D01*
X0083450Y0181945D01*
X0083709Y0181889D01*
X0083968Y0181827D01*
X0084224Y0181759D01*
X0084479Y0181684D01*
X0084732Y0181603D01*
X0084983Y0181516D01*
X0085231Y0181423D01*
X0085478Y0181324D01*
X0085722Y0181219D01*
X0085963Y0181108D01*
X0086201Y0180991D01*
X0086437Y0180868D01*
X0086669Y0180740D01*
X0086898Y0180606D01*
X0087124Y0180466D01*
X0087347Y0180321D01*
X0087565Y0180170D01*
X0087780Y0180015D01*
X0087991Y0179854D01*
X0087945Y0179795D01*
X0087735Y0179955D01*
X0087522Y0180109D01*
X0087305Y0180259D01*
X0087084Y0180403D01*
X0086859Y0180542D01*
X0086632Y0180675D01*
X0086401Y0180802D01*
X0086167Y0180924D01*
X0085930Y0181040D01*
X0085691Y0181151D01*
X0085449Y0181255D01*
X0085204Y0181354D01*
X0084957Y0181446D01*
X0084708Y0181532D01*
X0084457Y0181613D01*
X0084204Y0181687D01*
X0083949Y0181755D01*
X0083693Y0181816D01*
X0083435Y0181872D01*
X0083176Y0181921D01*
X0082915Y0181963D01*
X0082654Y0182000D01*
X0082392Y0182030D01*
X0082130Y0182053D01*
X0081866Y0182070D01*
X0081603Y0182081D01*
X0081339Y0182085D01*
X0081076Y0182083D01*
X0080812Y0182074D01*
X0080549Y0182059D01*
X0080286Y0182037D01*
X0080024Y0182009D01*
X0079762Y0181975D01*
X0079502Y0181934D01*
X0079242Y0181887D01*
X0078984Y0181833D01*
X0078727Y0181774D01*
X0078472Y0181708D01*
X0078218Y0181635D01*
X0077967Y0181557D01*
X0077717Y0181472D01*
X0077469Y0181382D01*
X0077224Y0181285D01*
X0076981Y0181182D01*
X0076741Y0181074D01*
X0076503Y0180959D01*
X0076268Y0180839D01*
X0076037Y0180713D01*
X0075808Y0180582D01*
X0075583Y0180445D01*
X0075361Y0180302D01*
X0075143Y0180155D01*
X0074928Y0180001D01*
X0074717Y0179843D01*
X0074510Y0179679D01*
X0074307Y0179511D01*
X0074109Y0179338D01*
X0073914Y0179159D01*
X0073724Y0178976D01*
X0073539Y0178789D01*
X0073358Y0178597D01*
X0073182Y0178401D01*
X0073011Y0178200D01*
X0072845Y0177995D01*
X0072684Y0177787D01*
X0072528Y0177574D01*
X0072377Y0177358D01*
X0072231Y0177138D01*
X0072091Y0176914D01*
X0071957Y0176687D01*
X0071828Y0176457D01*
X0071705Y0176224D01*
X0071587Y0175988D01*
X0071476Y0175749D01*
X0071370Y0175508D01*
X0071270Y0175264D01*
X0071176Y0175017D01*
X0071088Y0174769D01*
X0071006Y0174518D01*
X0071078Y0174496D01*
X0071159Y0174745D01*
X0071246Y0174992D01*
X0071340Y0175236D01*
X0071439Y0175479D01*
X0071544Y0175719D01*
X0071655Y0175956D01*
X0071772Y0176190D01*
X0071894Y0176422D01*
X0072022Y0176650D01*
X0072156Y0176875D01*
X0072295Y0177097D01*
X0072439Y0177316D01*
X0072589Y0177530D01*
X0072744Y0177742D01*
X0072904Y0177949D01*
X0073069Y0178152D01*
X0073239Y0178351D01*
X0073414Y0178546D01*
X0073593Y0178737D01*
X0073777Y0178923D01*
X0073966Y0179105D01*
X0074159Y0179282D01*
X0074356Y0179454D01*
X0074558Y0179621D01*
X0074763Y0179784D01*
X0074972Y0179941D01*
X0075185Y0180093D01*
X0075402Y0180240D01*
X0075623Y0180381D01*
X0075846Y0180517D01*
X0076073Y0180648D01*
X0076303Y0180773D01*
X0076536Y0180892D01*
X0076772Y0181006D01*
X0077011Y0181114D01*
X0077252Y0181216D01*
X0077496Y0181312D01*
X0077742Y0181402D01*
X0077990Y0181486D01*
X0078240Y0181564D01*
X0078492Y0181635D01*
X0078745Y0181701D01*
X0079000Y0181760D01*
X0079257Y0181813D01*
X0079514Y0181860D01*
X0079773Y0181901D01*
X0080033Y0181935D01*
X0080293Y0181963D01*
X0080554Y0181984D01*
X0080815Y0181999D01*
X0081077Y0182008D01*
X0081339Y0182010D01*
X0081601Y0182006D01*
X0081862Y0181995D01*
X0082124Y0181978D01*
X0082385Y0181955D01*
X0082645Y0181925D01*
X0082904Y0181889D01*
X0083162Y0181847D01*
X0083420Y0181798D01*
X0083676Y0181743D01*
X0083930Y0181682D01*
X0084183Y0181615D01*
X0084435Y0181541D01*
X0084684Y0181461D01*
X0084932Y0181375D01*
X0085177Y0181284D01*
X0085420Y0181186D01*
X0085660Y0181082D01*
X0085898Y0180973D01*
X0086133Y0180857D01*
X0086365Y0180736D01*
X0086595Y0180610D01*
X0086821Y0180478D01*
X0087043Y0180340D01*
X0087263Y0180197D01*
X0087478Y0180048D01*
X0087690Y0179895D01*
X0087899Y0179736D01*
X0087852Y0179677D01*
X0087645Y0179835D01*
X0087435Y0179987D01*
X0087221Y0180135D01*
X0087003Y0180277D01*
X0086782Y0180413D01*
X0086557Y0180545D01*
X0086330Y0180670D01*
X0086099Y0180791D01*
X0085866Y0180905D01*
X0085629Y0181014D01*
X0085391Y0181117D01*
X0085150Y0181214D01*
X0084906Y0181305D01*
X0084660Y0181390D01*
X0084413Y0181469D01*
X0084163Y0181542D01*
X0083912Y0181609D01*
X0083659Y0181670D01*
X0083405Y0181725D01*
X0083149Y0181773D01*
X0082893Y0181815D01*
X0082635Y0181851D01*
X0082377Y0181880D01*
X0082118Y0181904D01*
X0081858Y0181920D01*
X0081599Y0181931D01*
X0081339Y0181935D01*
X0081079Y0181933D01*
X0080819Y0181924D01*
X0080559Y0181909D01*
X0080300Y0181888D01*
X0080041Y0181860D01*
X0079784Y0181826D01*
X0079527Y0181786D01*
X0079271Y0181740D01*
X0079016Y0181687D01*
X0078763Y0181628D01*
X0078511Y0181563D01*
X0078261Y0181492D01*
X0078013Y0181414D01*
X0077767Y0181331D01*
X0077523Y0181242D01*
X0077281Y0181146D01*
X0077041Y0181045D01*
X0076804Y0180938D01*
X0076570Y0180825D01*
X0076338Y0180707D01*
X0076110Y0180583D01*
X0075885Y0180453D01*
X0075662Y0180318D01*
X0075444Y0180177D01*
X0075228Y0180031D01*
X0075017Y0179880D01*
X0074809Y0179724D01*
X0074605Y0179563D01*
X0074405Y0179397D01*
X0074209Y0179226D01*
X0074017Y0179050D01*
X0073830Y0178870D01*
X0073647Y0178685D01*
X0073469Y0178496D01*
X0073295Y0178302D01*
X0073127Y0178104D01*
X0072963Y0177902D01*
X0072804Y0177697D01*
X0072650Y0177487D01*
X0072501Y0177274D01*
X0072358Y0177057D01*
X0072220Y0176836D01*
X0072087Y0176613D01*
X0071960Y0176386D01*
X0071838Y0176156D01*
X0071723Y0175923D01*
X0071612Y0175688D01*
X0071508Y0175450D01*
X0071409Y0175209D01*
X0071317Y0174966D01*
X0071230Y0174721D01*
X0071150Y0174474D01*
X0071221Y0174452D01*
X0071301Y0174697D01*
X0071387Y0174940D01*
X0071479Y0175182D01*
X0071577Y0175421D01*
X0071681Y0175657D01*
X0071790Y0175891D01*
X0071905Y0176122D01*
X0072026Y0176350D01*
X0072152Y0176576D01*
X0072284Y0176798D01*
X0072421Y0177016D01*
X0072563Y0177232D01*
X0072711Y0177443D01*
X0072864Y0177652D01*
X0073022Y0177856D01*
X0073184Y0178056D01*
X0073352Y0178253D01*
X0073524Y0178445D01*
X0073701Y0178633D01*
X0073883Y0178817D01*
X0074069Y0178996D01*
X0074259Y0179170D01*
X0074454Y0179340D01*
X0074652Y0179505D01*
X0074855Y0179665D01*
X0075061Y0179820D01*
X0075271Y0179970D01*
X0075485Y0180115D01*
X0075702Y0180254D01*
X0075923Y0180388D01*
X0076147Y0180517D01*
X0076373Y0180640D01*
X0076603Y0180758D01*
X0076836Y0180870D01*
X0077071Y0180976D01*
X0077309Y0181077D01*
X0077549Y0181171D01*
X0077792Y0181260D01*
X0078036Y0181343D01*
X0078283Y0181420D01*
X0078531Y0181490D01*
X0078781Y0181555D01*
X0079032Y0181614D01*
X0079285Y0181666D01*
X0079539Y0181712D01*
X0079794Y0181752D01*
X0080050Y0181786D01*
X0080307Y0181813D01*
X0080564Y0181834D01*
X0080822Y0181849D01*
X0081080Y0181858D01*
X0081338Y0181860D01*
X0081596Y0181856D01*
X0081854Y0181845D01*
X0082112Y0181829D01*
X0082369Y0181806D01*
X0082626Y0181776D01*
X0082881Y0181741D01*
X0083136Y0181699D01*
X0083390Y0181651D01*
X0083642Y0181597D01*
X0083893Y0181537D01*
X0084143Y0181470D01*
X0084391Y0181398D01*
X0084636Y0181319D01*
X0084880Y0181235D01*
X0085122Y0181144D01*
X0085362Y0181048D01*
X0085599Y0180945D01*
X0085833Y0180837D01*
X0086065Y0180724D01*
X0086294Y0180604D01*
X0086520Y0180480D01*
X0086743Y0180349D01*
X0086962Y0180213D01*
X0087179Y0180072D01*
X0087391Y0179926D01*
X0087600Y0179775D01*
X0087806Y0179618D01*
X0087759Y0179559D01*
X0087555Y0179715D01*
X0087348Y0179865D01*
X0087137Y0180010D01*
X0086922Y0180150D01*
X0086704Y0180285D01*
X0086483Y0180415D01*
X0086258Y0180538D01*
X0086031Y0180657D01*
X0085801Y0180770D01*
X0085568Y0180877D01*
X0085333Y0180978D01*
X0085095Y0181074D01*
X0084855Y0181164D01*
X0084613Y0181248D01*
X0084368Y0181326D01*
X0084122Y0181398D01*
X0083875Y0181464D01*
X0083625Y0181524D01*
X0083375Y0181578D01*
X0083123Y0181625D01*
X0082870Y0181667D01*
X0082616Y0181702D01*
X0082361Y0181731D01*
X0082106Y0181754D01*
X0081850Y0181771D01*
X0081594Y0181781D01*
X0081338Y0181785D01*
X0081082Y0181783D01*
X0080825Y0181774D01*
X0080569Y0181760D01*
X0080314Y0181739D01*
X0080059Y0181711D01*
X0079805Y0181678D01*
X0079552Y0181638D01*
X0079299Y0181592D01*
X0079048Y0181540D01*
X0078799Y0181482D01*
X0078551Y0181418D01*
X0078304Y0181348D01*
X0078059Y0181272D01*
X0077817Y0181189D01*
X0077576Y0181101D01*
X0077337Y0181007D01*
X0077101Y0180908D01*
X0076868Y0180802D01*
X0076637Y0180691D01*
X0076409Y0180574D01*
X0076183Y0180452D01*
X0075961Y0180324D01*
X0075742Y0180191D01*
X0075526Y0180052D01*
X0075314Y0179908D01*
X0075105Y0179760D01*
X0074901Y0179606D01*
X0074699Y0179447D01*
X0074502Y0179283D01*
X0074309Y0179114D01*
X0074120Y0178941D01*
X0073936Y0178763D01*
X0073755Y0178581D01*
X0073580Y0178394D01*
X0073408Y0178204D01*
X0073242Y0178009D01*
X0073080Y0177810D01*
X0072924Y0177607D01*
X0072772Y0177400D01*
X0072626Y0177190D01*
X0072484Y0176976D01*
X0072348Y0176759D01*
X0072217Y0176538D01*
X0072092Y0176315D01*
X0071972Y0176088D01*
X0071858Y0175859D01*
X0071749Y0175626D01*
X0071646Y0175392D01*
X0071549Y0175154D01*
X0071458Y0174915D01*
X0071372Y0174673D01*
X0071293Y0174429D01*
X0071365Y0174407D01*
X0071444Y0174649D01*
X0071528Y0174889D01*
X0071619Y0175127D01*
X0071715Y0175363D01*
X0071818Y0175596D01*
X0071925Y0175826D01*
X0072039Y0176054D01*
X0072158Y0176279D01*
X0072282Y0176501D01*
X0072412Y0176720D01*
X0072547Y0176935D01*
X0072688Y0177148D01*
X0072833Y0177357D01*
X0072984Y0177562D01*
X0073139Y0177763D01*
X0073300Y0177961D01*
X0073465Y0178154D01*
X0073635Y0178344D01*
X0073809Y0178529D01*
X0073988Y0178710D01*
X0074172Y0178886D01*
X0074359Y0179058D01*
X0074551Y0179226D01*
X0074747Y0179388D01*
X0074946Y0179546D01*
X0075150Y0179699D01*
X0075357Y0179847D01*
X0075568Y0179990D01*
X0075782Y0180127D01*
X0075999Y0180259D01*
X0076220Y0180386D01*
X0076444Y0180508D01*
X0076670Y0180624D01*
X0076899Y0180734D01*
X0077131Y0180839D01*
X0077366Y0180938D01*
X0077603Y0181031D01*
X0077842Y0181119D01*
X0078083Y0181200D01*
X0078326Y0181276D01*
X0078570Y0181346D01*
X0078817Y0181409D01*
X0079065Y0181467D01*
X0079314Y0181519D01*
X0079564Y0181564D01*
X0079816Y0181604D01*
X0080068Y0181637D01*
X0080321Y0181664D01*
X0080575Y0181685D01*
X0080829Y0181699D01*
X0081083Y0181708D01*
X0081338Y0181710D01*
X0081592Y0181706D01*
X0081846Y0181696D01*
X0082100Y0181679D01*
X0082354Y0181657D01*
X0082607Y0181628D01*
X0082859Y0181593D01*
X0083110Y0181551D01*
X0083360Y0181504D01*
X0083609Y0181451D01*
X0083856Y0181391D01*
X0084102Y0181326D01*
X0084346Y0181254D01*
X0084589Y0181177D01*
X0084829Y0181094D01*
X0085068Y0181004D01*
X0085304Y0180909D01*
X0085537Y0180809D01*
X0085768Y0180702D01*
X0085997Y0180590D01*
X0086223Y0180473D01*
X0086445Y0180349D01*
X0086665Y0180221D01*
X0086882Y0180087D01*
X0087095Y0179948D01*
X0087304Y0179804D01*
X0087510Y0179655D01*
X0087713Y0179500D01*
X0087666Y0179441D01*
X0087466Y0179594D01*
X0087261Y0179743D01*
X0087053Y0179886D01*
X0086841Y0180024D01*
X0086626Y0180157D01*
X0086408Y0180284D01*
X0086187Y0180407D01*
X0085963Y0180523D01*
X0085736Y0180635D01*
X0085507Y0180740D01*
X0085275Y0180840D01*
X0085040Y0180934D01*
X0084804Y0181023D01*
X0084565Y0181106D01*
X0084324Y0181183D01*
X0084082Y0181254D01*
X0083838Y0181319D01*
X0083592Y0181378D01*
X0083345Y0181431D01*
X0083097Y0181478D01*
X0082847Y0181519D01*
X0082597Y0181553D01*
X0082346Y0181582D01*
X0082094Y0181604D01*
X0081842Y0181621D01*
X0081590Y0181631D01*
X0081337Y0181635D01*
X0081085Y0181633D01*
X0080832Y0181624D01*
X0080580Y0181610D01*
X0080328Y0181589D01*
X0080077Y0181562D01*
X0079826Y0181529D01*
X0079577Y0181490D01*
X0079328Y0181445D01*
X0079081Y0181394D01*
X0078835Y0181337D01*
X0078590Y0181273D01*
X0078347Y0181204D01*
X0078106Y0181129D01*
X0077866Y0181048D01*
X0077629Y0180961D01*
X0077394Y0180869D01*
X0077161Y0180770D01*
X0076931Y0180666D01*
X0076703Y0180557D01*
X0076479Y0180441D01*
X0076257Y0180321D01*
X0076038Y0180195D01*
X0075822Y0180064D01*
X0075609Y0179927D01*
X0075400Y0179785D01*
X0075194Y0179639D01*
X0074992Y0179487D01*
X0074794Y0179330D01*
X0074600Y0179169D01*
X0074409Y0179003D01*
X0074223Y0178832D01*
X0074041Y0178657D01*
X0073863Y0178477D01*
X0073690Y0178293D01*
X0073522Y0178105D01*
X0073358Y0177913D01*
X0073198Y0177717D01*
X0073044Y0177517D01*
X0072894Y0177313D01*
X0072750Y0177106D01*
X0072610Y0176895D01*
X0072476Y0176681D01*
X0072347Y0176464D01*
X0072224Y0176243D01*
X0072106Y0176020D01*
X0071993Y0175794D01*
X0071886Y0175565D01*
X0071785Y0175334D01*
X0071689Y0175100D01*
X0071599Y0174864D01*
X0071515Y0174625D01*
X0071436Y0174385D01*
X0071508Y0174363D01*
X0071586Y0174602D01*
X0071669Y0174838D01*
X0071759Y0175072D01*
X0071854Y0175305D01*
X0071954Y0175534D01*
X0072061Y0175761D01*
X0072173Y0175986D01*
X0072290Y0176208D01*
X0072412Y0176426D01*
X0072540Y0176642D01*
X0072674Y0176855D01*
X0072812Y0177064D01*
X0072955Y0177270D01*
X0073104Y0177472D01*
X0073257Y0177670D01*
X0073415Y0177865D01*
X0073578Y0178056D01*
X0073746Y0178242D01*
X0073918Y0178425D01*
X0074094Y0178603D01*
X0074275Y0178777D01*
X0074459Y0178947D01*
X0074648Y0179112D01*
X0074841Y0179272D01*
X0075038Y0179428D01*
X0075239Y0179578D01*
X0075443Y0179724D01*
X0075650Y0179864D01*
X0075862Y0180000D01*
X0076076Y0180130D01*
X0076293Y0180255D01*
X0076514Y0180375D01*
X0076737Y0180489D01*
X0076963Y0180598D01*
X0077191Y0180701D01*
X0077422Y0180799D01*
X0077656Y0180891D01*
X0077891Y0180977D01*
X0078129Y0181058D01*
X0078368Y0181132D01*
X0078610Y0181201D01*
X0078852Y0181264D01*
X0079097Y0181321D01*
X0079342Y0181371D01*
X0079589Y0181416D01*
X0079837Y0181455D01*
X0080086Y0181488D01*
X0080335Y0181515D01*
X0080585Y0181535D01*
X0080835Y0181549D01*
X0081086Y0181558D01*
X0081337Y0181560D01*
X0081588Y0181556D01*
X0081838Y0181546D01*
X0082088Y0181530D01*
X0082338Y0181507D01*
X0082587Y0181479D01*
X0082836Y0181444D01*
X0083083Y0181404D01*
X0083330Y0181357D01*
X0083575Y0181305D01*
X0083819Y0181246D01*
X0084061Y0181181D01*
X0084302Y0181111D01*
X0084541Y0181035D01*
X0084778Y0180953D01*
X0085013Y0180865D01*
X0085246Y0180771D01*
X0085476Y0180672D01*
X0085704Y0180567D01*
X0085929Y0180456D01*
X0086151Y0180341D01*
X0086371Y0180219D01*
X0086587Y0180093D01*
X0086801Y0179961D01*
X0087011Y0179824D01*
X0087217Y0179682D01*
X0087421Y0179534D01*
X0087620Y0179382D01*
X0087574Y0179323D01*
X0087376Y0179474D01*
X0087174Y0179621D01*
X0086969Y0179762D01*
X0086760Y0179898D01*
X0086549Y0180029D01*
X0086334Y0180154D01*
X0086116Y0180275D01*
X0085895Y0180390D01*
X0085671Y0180499D01*
X0085445Y0180603D01*
X0085217Y0180702D01*
X0084986Y0180795D01*
X0084752Y0180882D01*
X0084517Y0180964D01*
X0084280Y0181039D01*
X0084041Y0181109D01*
X0083800Y0181173D01*
X0083558Y0181231D01*
X0083315Y0181284D01*
X0083070Y0181330D01*
X0082825Y0181370D01*
X0082578Y0181405D01*
X0082331Y0181433D01*
X0082083Y0181455D01*
X0081834Y0181471D01*
X0081585Y0181481D01*
X0081336Y0181485D01*
X0081087Y0181483D01*
X0080839Y0181475D01*
X0080590Y0181460D01*
X0080342Y0181440D01*
X0080094Y0181413D01*
X0079848Y0181381D01*
X0079602Y0181342D01*
X0079357Y0181298D01*
X0079113Y0181247D01*
X0078870Y0181191D01*
X0078629Y0181129D01*
X0078390Y0181060D01*
X0078152Y0180986D01*
X0077916Y0180906D01*
X0077682Y0180821D01*
X0077451Y0180730D01*
X0077222Y0180633D01*
X0076995Y0180530D01*
X0076770Y0180422D01*
X0076549Y0180309D01*
X0076330Y0180190D01*
X0076114Y0180066D01*
X0075901Y0179936D01*
X0075692Y0179802D01*
X0075486Y0179662D01*
X0075283Y0179518D01*
X0075084Y0179368D01*
X0074889Y0179214D01*
X0074697Y0179055D01*
X0074510Y0178891D01*
X0074326Y0178723D01*
X0074147Y0178550D01*
X0073972Y0178373D01*
X0073801Y0178192D01*
X0073635Y0178006D01*
X0073473Y0177817D01*
X0073316Y0177624D01*
X0073164Y0177427D01*
X0073017Y0177226D01*
X0072874Y0177022D01*
X0072737Y0176814D01*
X0072605Y0176603D01*
X0072478Y0176389D01*
X0072356Y0176172D01*
X0072239Y0175952D01*
X0072128Y0175729D01*
X0072023Y0175504D01*
X0071923Y0175275D01*
X0071829Y0175045D01*
X0071740Y0174812D01*
X0071657Y0174578D01*
X0071580Y0174341D01*
X0070935Y0168061D02*
X0071623Y0168273D01*
X0071623Y0168272D02*
X0071699Y0168037D01*
X0071782Y0167803D01*
X0071870Y0167571D01*
X0071964Y0167342D01*
X0072064Y0167115D01*
X0072169Y0166891D01*
X0072279Y0166669D01*
X0072395Y0166450D01*
X0072517Y0166233D01*
X0072643Y0166020D01*
X0072775Y0165810D01*
X0072911Y0165603D01*
X0073053Y0165400D01*
X0073200Y0165200D01*
X0073351Y0165004D01*
X0073508Y0164812D01*
X0073669Y0164623D01*
X0073834Y0164439D01*
X0074004Y0164258D01*
X0074178Y0164082D01*
X0074357Y0163910D01*
X0074539Y0163743D01*
X0074726Y0163580D01*
X0074917Y0163421D01*
X0075111Y0163268D01*
X0075310Y0163119D01*
X0075511Y0162975D01*
X0075717Y0162836D01*
X0075925Y0162702D01*
X0076137Y0162573D01*
X0076352Y0162449D01*
X0076570Y0162331D01*
X0076790Y0162218D01*
X0077014Y0162111D01*
X0077239Y0162009D01*
X0077468Y0161912D01*
X0077698Y0161821D01*
X0077931Y0161736D01*
X0078166Y0161657D01*
X0078403Y0161583D01*
X0078641Y0161515D01*
X0078881Y0161453D01*
X0079122Y0161397D01*
X0079365Y0161346D01*
X0079609Y0161302D01*
X0079854Y0161264D01*
X0080100Y0161231D01*
X0080346Y0161205D01*
X0080593Y0161185D01*
X0080840Y0161170D01*
X0081088Y0161162D01*
X0081336Y0161160D01*
X0081584Y0161164D01*
X0081832Y0161174D01*
X0082079Y0161190D01*
X0082326Y0161212D01*
X0082572Y0161240D01*
X0082818Y0161274D01*
X0083062Y0161314D01*
X0083306Y0161360D01*
X0083548Y0161412D01*
X0083789Y0161470D01*
X0084029Y0161534D01*
X0084266Y0161604D01*
X0084503Y0161679D01*
X0084737Y0161760D01*
X0084969Y0161847D01*
X0085199Y0161940D01*
X0085427Y0162038D01*
X0085652Y0162141D01*
X0085874Y0162250D01*
X0086094Y0162365D01*
X0086311Y0162485D01*
X0086525Y0162610D01*
X0086736Y0162740D01*
X0086943Y0162876D01*
X0087148Y0163016D01*
X0087348Y0163161D01*
X0087546Y0163312D01*
X0087991Y0162747D01*
X0087991Y0162746D01*
X0087780Y0162585D01*
X0087565Y0162429D01*
X0087346Y0162279D01*
X0087124Y0162134D01*
X0086898Y0161994D01*
X0086669Y0161860D01*
X0086437Y0161732D01*
X0086201Y0161609D01*
X0085963Y0161492D01*
X0085721Y0161381D01*
X0085478Y0161276D01*
X0085231Y0161177D01*
X0084983Y0161083D01*
X0084732Y0160996D01*
X0084479Y0160916D01*
X0084224Y0160841D01*
X0083967Y0160773D01*
X0083709Y0160711D01*
X0083450Y0160655D01*
X0083189Y0160605D01*
X0082927Y0160563D01*
X0082664Y0160526D01*
X0082400Y0160496D01*
X0082135Y0160472D01*
X0081870Y0160455D01*
X0081605Y0160444D01*
X0081340Y0160440D01*
X0081074Y0160442D01*
X0080809Y0160451D01*
X0080543Y0160466D01*
X0080279Y0160488D01*
X0080015Y0160516D01*
X0079752Y0160551D01*
X0079489Y0160592D01*
X0079228Y0160640D01*
X0078968Y0160693D01*
X0078709Y0160754D01*
X0078452Y0160820D01*
X0078197Y0160893D01*
X0077943Y0160972D01*
X0077692Y0161057D01*
X0077442Y0161148D01*
X0077195Y0161246D01*
X0076951Y0161349D01*
X0076709Y0161458D01*
X0076470Y0161573D01*
X0076233Y0161694D01*
X0076000Y0161821D01*
X0075770Y0161954D01*
X0075543Y0162092D01*
X0075319Y0162235D01*
X0075100Y0162384D01*
X0074883Y0162538D01*
X0074671Y0162698D01*
X0074463Y0162862D01*
X0074259Y0163032D01*
X0074059Y0163207D01*
X0073863Y0163386D01*
X0073672Y0163570D01*
X0073485Y0163759D01*
X0073303Y0163953D01*
X0073126Y0164150D01*
X0072953Y0164352D01*
X0072786Y0164558D01*
X0072624Y0164769D01*
X0072466Y0164983D01*
X0072315Y0165201D01*
X0072168Y0165422D01*
X0072027Y0165647D01*
X0071892Y0165875D01*
X0071762Y0166107D01*
X0071638Y0166342D01*
X0071520Y0166580D01*
X0071407Y0166820D01*
X0071300Y0167063D01*
X0071200Y0167309D01*
X0071105Y0167557D01*
X0071017Y0167808D01*
X0070935Y0168060D01*
X0071006Y0168082D01*
X0071088Y0167831D01*
X0071176Y0167583D01*
X0071270Y0167336D01*
X0071370Y0167092D01*
X0071475Y0166851D01*
X0071587Y0166612D01*
X0071705Y0166376D01*
X0071828Y0166143D01*
X0071957Y0165913D01*
X0072091Y0165686D01*
X0072231Y0165462D01*
X0072377Y0165243D01*
X0072528Y0165026D01*
X0072684Y0164814D01*
X0072845Y0164605D01*
X0073011Y0164400D01*
X0073182Y0164200D01*
X0073358Y0164003D01*
X0073539Y0163811D01*
X0073724Y0163624D01*
X0073914Y0163441D01*
X0074109Y0163263D01*
X0074307Y0163089D01*
X0074510Y0162921D01*
X0074717Y0162757D01*
X0074928Y0162599D01*
X0075142Y0162446D01*
X0075361Y0162298D01*
X0075583Y0162155D01*
X0075808Y0162018D01*
X0076037Y0161887D01*
X0076268Y0161761D01*
X0076503Y0161641D01*
X0076741Y0161526D01*
X0076981Y0161418D01*
X0077224Y0161315D01*
X0077469Y0161218D01*
X0077717Y0161128D01*
X0077966Y0161043D01*
X0078218Y0160965D01*
X0078472Y0160892D01*
X0078727Y0160826D01*
X0078984Y0160767D01*
X0079242Y0160713D01*
X0079502Y0160666D01*
X0079762Y0160625D01*
X0080024Y0160591D01*
X0080286Y0160563D01*
X0080549Y0160541D01*
X0080812Y0160526D01*
X0081075Y0160517D01*
X0081339Y0160515D01*
X0081603Y0160519D01*
X0081866Y0160530D01*
X0082129Y0160547D01*
X0082392Y0160570D01*
X0082654Y0160600D01*
X0082915Y0160637D01*
X0083175Y0160679D01*
X0083435Y0160728D01*
X0083692Y0160784D01*
X0083949Y0160845D01*
X0084204Y0160913D01*
X0084457Y0160987D01*
X0084708Y0161068D01*
X0084957Y0161154D01*
X0085204Y0161246D01*
X0085449Y0161345D01*
X0085691Y0161449D01*
X0085930Y0161560D01*
X0086167Y0161676D01*
X0086401Y0161798D01*
X0086632Y0161925D01*
X0086859Y0162058D01*
X0087084Y0162197D01*
X0087304Y0162341D01*
X0087522Y0162490D01*
X0087735Y0162645D01*
X0087945Y0162805D01*
X0087898Y0162864D01*
X0087690Y0162705D01*
X0087478Y0162552D01*
X0087262Y0162403D01*
X0087043Y0162260D01*
X0086820Y0162122D01*
X0086594Y0161990D01*
X0086365Y0161863D01*
X0086133Y0161742D01*
X0085898Y0161627D01*
X0085660Y0161518D01*
X0085420Y0161414D01*
X0085177Y0161316D01*
X0084931Y0161224D01*
X0084684Y0161139D01*
X0084435Y0161059D01*
X0084183Y0160985D01*
X0083930Y0160918D01*
X0083676Y0160857D01*
X0083420Y0160802D01*
X0083162Y0160753D01*
X0082904Y0160711D01*
X0082645Y0160675D01*
X0082384Y0160645D01*
X0082124Y0160622D01*
X0081862Y0160605D01*
X0081601Y0160594D01*
X0081339Y0160590D01*
X0081077Y0160592D01*
X0080815Y0160601D01*
X0080554Y0160616D01*
X0080293Y0160637D01*
X0080032Y0160665D01*
X0079773Y0160699D01*
X0079514Y0160740D01*
X0079256Y0160787D01*
X0079000Y0160840D01*
X0078745Y0160899D01*
X0078492Y0160965D01*
X0078240Y0161037D01*
X0077990Y0161114D01*
X0077742Y0161198D01*
X0077496Y0161288D01*
X0077252Y0161384D01*
X0077011Y0161486D01*
X0076772Y0161594D01*
X0076536Y0161708D01*
X0076303Y0161827D01*
X0076073Y0161952D01*
X0075846Y0162083D01*
X0075622Y0162219D01*
X0075402Y0162360D01*
X0075185Y0162507D01*
X0074972Y0162659D01*
X0074763Y0162816D01*
X0074557Y0162979D01*
X0074356Y0163146D01*
X0074159Y0163318D01*
X0073966Y0163495D01*
X0073777Y0163677D01*
X0073593Y0163863D01*
X0073413Y0164054D01*
X0073239Y0164249D01*
X0073069Y0164448D01*
X0072904Y0164651D01*
X0072744Y0164859D01*
X0072589Y0165070D01*
X0072439Y0165284D01*
X0072295Y0165503D01*
X0072156Y0165725D01*
X0072022Y0165950D01*
X0071894Y0166178D01*
X0071772Y0166410D01*
X0071655Y0166644D01*
X0071544Y0166882D01*
X0071439Y0167121D01*
X0071340Y0167364D01*
X0071246Y0167608D01*
X0071159Y0167855D01*
X0071078Y0168104D01*
X0071150Y0168126D01*
X0071230Y0167879D01*
X0071317Y0167634D01*
X0071409Y0167391D01*
X0071508Y0167150D01*
X0071612Y0166912D01*
X0071722Y0166677D01*
X0071838Y0166444D01*
X0071960Y0166214D01*
X0072087Y0165987D01*
X0072220Y0165764D01*
X0072358Y0165543D01*
X0072501Y0165326D01*
X0072650Y0165113D01*
X0072804Y0164904D01*
X0072963Y0164698D01*
X0073126Y0164496D01*
X0073295Y0164298D01*
X0073469Y0164104D01*
X0073647Y0163915D01*
X0073830Y0163730D01*
X0074017Y0163550D01*
X0074209Y0163374D01*
X0074405Y0163203D01*
X0074605Y0163037D01*
X0074809Y0162876D01*
X0075017Y0162720D01*
X0075228Y0162569D01*
X0075444Y0162423D01*
X0075662Y0162282D01*
X0075884Y0162147D01*
X0076110Y0162017D01*
X0076338Y0161893D01*
X0076570Y0161775D01*
X0076804Y0161662D01*
X0077041Y0161555D01*
X0077281Y0161454D01*
X0077522Y0161359D01*
X0077767Y0161269D01*
X0078013Y0161186D01*
X0078261Y0161108D01*
X0078511Y0161037D01*
X0078763Y0160972D01*
X0079016Y0160913D01*
X0079271Y0160860D01*
X0079527Y0160814D01*
X0079783Y0160774D01*
X0080041Y0160740D01*
X0080300Y0160712D01*
X0080559Y0160691D01*
X0080819Y0160676D01*
X0081078Y0160667D01*
X0081338Y0160665D01*
X0081598Y0160669D01*
X0081858Y0160680D01*
X0082118Y0160696D01*
X0082377Y0160720D01*
X0082635Y0160749D01*
X0082893Y0160785D01*
X0083149Y0160827D01*
X0083405Y0160875D01*
X0083659Y0160930D01*
X0083912Y0160991D01*
X0084163Y0161058D01*
X0084412Y0161131D01*
X0084660Y0161210D01*
X0084906Y0161295D01*
X0085149Y0161386D01*
X0085391Y0161483D01*
X0085629Y0161586D01*
X0085865Y0161695D01*
X0086099Y0161809D01*
X0086330Y0161929D01*
X0086557Y0162055D01*
X0086782Y0162187D01*
X0087003Y0162323D01*
X0087220Y0162465D01*
X0087435Y0162613D01*
X0087645Y0162765D01*
X0087852Y0162923D01*
X0087806Y0162982D01*
X0087600Y0162825D01*
X0087391Y0162674D01*
X0087178Y0162527D01*
X0086962Y0162386D01*
X0086743Y0162251D01*
X0086520Y0162120D01*
X0086294Y0161995D01*
X0086065Y0161876D01*
X0085833Y0161762D01*
X0085599Y0161654D01*
X0085362Y0161552D01*
X0085122Y0161456D01*
X0084880Y0161365D01*
X0084636Y0161281D01*
X0084390Y0161202D01*
X0084143Y0161130D01*
X0083893Y0161063D01*
X0083642Y0161003D01*
X0083390Y0160949D01*
X0083136Y0160901D01*
X0082881Y0160859D01*
X0082625Y0160824D01*
X0082369Y0160794D01*
X0082112Y0160771D01*
X0081854Y0160755D01*
X0081596Y0160744D01*
X0081338Y0160740D01*
X0081080Y0160742D01*
X0080822Y0160751D01*
X0080564Y0160766D01*
X0080307Y0160787D01*
X0080050Y0160814D01*
X0079794Y0160848D01*
X0079539Y0160888D01*
X0079285Y0160934D01*
X0079032Y0160986D01*
X0078781Y0161045D01*
X0078531Y0161110D01*
X0078283Y0161180D01*
X0078036Y0161257D01*
X0077792Y0161340D01*
X0077549Y0161429D01*
X0077309Y0161523D01*
X0077071Y0161624D01*
X0076836Y0161730D01*
X0076603Y0161842D01*
X0076373Y0161960D01*
X0076146Y0162083D01*
X0075923Y0162212D01*
X0075702Y0162346D01*
X0075485Y0162485D01*
X0075271Y0162630D01*
X0075061Y0162780D01*
X0074855Y0162935D01*
X0074652Y0163095D01*
X0074453Y0163260D01*
X0074259Y0163430D01*
X0074069Y0163604D01*
X0073883Y0163784D01*
X0073701Y0163967D01*
X0073524Y0164155D01*
X0073352Y0164347D01*
X0073184Y0164544D01*
X0073021Y0164744D01*
X0072864Y0164948D01*
X0072711Y0165157D01*
X0072563Y0165368D01*
X0072421Y0165584D01*
X0072284Y0165803D01*
X0072152Y0166025D01*
X0072026Y0166250D01*
X0071905Y0166478D01*
X0071790Y0166709D01*
X0071681Y0166943D01*
X0071577Y0167179D01*
X0071479Y0167418D01*
X0071387Y0167660D01*
X0071301Y0167903D01*
X0071221Y0168148D01*
X0071293Y0168171D01*
X0071372Y0167927D01*
X0071458Y0167685D01*
X0071549Y0167446D01*
X0071646Y0167208D01*
X0071749Y0166974D01*
X0071858Y0166742D01*
X0071972Y0166512D01*
X0072092Y0166285D01*
X0072217Y0166062D01*
X0072348Y0165841D01*
X0072484Y0165624D01*
X0072625Y0165410D01*
X0072772Y0165200D01*
X0072924Y0164993D01*
X0073080Y0164791D01*
X0073242Y0164592D01*
X0073408Y0164397D01*
X0073579Y0164206D01*
X0073755Y0164019D01*
X0073935Y0163837D01*
X0074120Y0163659D01*
X0074309Y0163486D01*
X0074502Y0163317D01*
X0074699Y0163153D01*
X0074900Y0162995D01*
X0075105Y0162841D01*
X0075314Y0162692D01*
X0075526Y0162548D01*
X0075742Y0162409D01*
X0075961Y0162276D01*
X0076183Y0162148D01*
X0076408Y0162026D01*
X0076637Y0161909D01*
X0076868Y0161798D01*
X0077101Y0161692D01*
X0077337Y0161593D01*
X0077576Y0161499D01*
X0077816Y0161411D01*
X0078059Y0161328D01*
X0078304Y0161252D01*
X0078550Y0161182D01*
X0078799Y0161118D01*
X0079048Y0161060D01*
X0079299Y0161008D01*
X0079552Y0160962D01*
X0079805Y0160922D01*
X0080059Y0160889D01*
X0080314Y0160861D01*
X0080569Y0160840D01*
X0080825Y0160826D01*
X0081081Y0160817D01*
X0081338Y0160815D01*
X0081594Y0160819D01*
X0081850Y0160829D01*
X0082106Y0160846D01*
X0082361Y0160869D01*
X0082616Y0160898D01*
X0082870Y0160933D01*
X0083123Y0160975D01*
X0083375Y0161022D01*
X0083625Y0161076D01*
X0083875Y0161136D01*
X0084122Y0161202D01*
X0084368Y0161274D01*
X0084612Y0161352D01*
X0084855Y0161436D01*
X0085095Y0161526D01*
X0085332Y0161621D01*
X0085568Y0161723D01*
X0085801Y0161830D01*
X0086031Y0161943D01*
X0086258Y0162061D01*
X0086483Y0162185D01*
X0086704Y0162315D01*
X0086922Y0162450D01*
X0087137Y0162590D01*
X0087348Y0162735D01*
X0087555Y0162885D01*
X0087759Y0163041D01*
X0087713Y0163100D01*
X0087510Y0162945D01*
X0087304Y0162796D01*
X0087095Y0162652D01*
X0086881Y0162513D01*
X0086665Y0162379D01*
X0086445Y0162250D01*
X0086223Y0162127D01*
X0085997Y0162010D01*
X0085768Y0161898D01*
X0085537Y0161791D01*
X0085303Y0161691D01*
X0085067Y0161596D01*
X0084829Y0161506D01*
X0084589Y0161423D01*
X0084346Y0161346D01*
X0084102Y0161274D01*
X0083856Y0161209D01*
X0083608Y0161149D01*
X0083360Y0161096D01*
X0083110Y0161048D01*
X0082858Y0161007D01*
X0082606Y0160972D01*
X0082354Y0160943D01*
X0082100Y0160921D01*
X0081846Y0160904D01*
X0081592Y0160894D01*
X0081337Y0160890D01*
X0081083Y0160892D01*
X0080829Y0160901D01*
X0080574Y0160915D01*
X0080321Y0160936D01*
X0080068Y0160963D01*
X0079815Y0160996D01*
X0079564Y0161036D01*
X0079314Y0161081D01*
X0079064Y0161133D01*
X0078817Y0161191D01*
X0078570Y0161254D01*
X0078325Y0161324D01*
X0078082Y0161400D01*
X0077841Y0161481D01*
X0077602Y0161569D01*
X0077366Y0161662D01*
X0077131Y0161761D01*
X0076899Y0161866D01*
X0076670Y0161976D01*
X0076443Y0162092D01*
X0076220Y0162214D01*
X0075999Y0162341D01*
X0075782Y0162473D01*
X0075568Y0162610D01*
X0075357Y0162753D01*
X0075150Y0162901D01*
X0074946Y0163054D01*
X0074747Y0163212D01*
X0074551Y0163374D01*
X0074359Y0163542D01*
X0074172Y0163714D01*
X0073988Y0163890D01*
X0073809Y0164071D01*
X0073635Y0164256D01*
X0073465Y0164446D01*
X0073300Y0164639D01*
X0073139Y0164837D01*
X0072984Y0165038D01*
X0072833Y0165244D01*
X0072688Y0165452D01*
X0072547Y0165665D01*
X0072412Y0165880D01*
X0072282Y0166099D01*
X0072158Y0166321D01*
X0072039Y0166546D01*
X0071925Y0166774D01*
X0071818Y0167004D01*
X0071715Y0167238D01*
X0071619Y0167473D01*
X0071528Y0167711D01*
X0071443Y0167951D01*
X0071365Y0168193D01*
X0071436Y0168215D01*
X0071515Y0167975D01*
X0071599Y0167736D01*
X0071689Y0167500D01*
X0071785Y0167267D01*
X0071886Y0167035D01*
X0071993Y0166806D01*
X0072106Y0166580D01*
X0072224Y0166357D01*
X0072347Y0166136D01*
X0072476Y0165919D01*
X0072610Y0165705D01*
X0072750Y0165494D01*
X0072894Y0165287D01*
X0073044Y0165083D01*
X0073198Y0164883D01*
X0073357Y0164687D01*
X0073521Y0164495D01*
X0073690Y0164307D01*
X0073863Y0164123D01*
X0074041Y0163943D01*
X0074223Y0163768D01*
X0074409Y0163597D01*
X0074600Y0163431D01*
X0074794Y0163270D01*
X0074992Y0163113D01*
X0075194Y0162961D01*
X0075400Y0162815D01*
X0075609Y0162673D01*
X0075822Y0162536D01*
X0076037Y0162405D01*
X0076256Y0162279D01*
X0076478Y0162159D01*
X0076703Y0162043D01*
X0076931Y0161934D01*
X0077161Y0161830D01*
X0077394Y0161732D01*
X0077629Y0161639D01*
X0077866Y0161552D01*
X0078106Y0161471D01*
X0078347Y0161396D01*
X0078590Y0161327D01*
X0078834Y0161263D01*
X0079080Y0161206D01*
X0079328Y0161155D01*
X0079576Y0161110D01*
X0079826Y0161071D01*
X0080077Y0161038D01*
X0080328Y0161011D01*
X0080580Y0160990D01*
X0080832Y0160976D01*
X0081084Y0160967D01*
X0081337Y0160965D01*
X0081590Y0160969D01*
X0081842Y0160979D01*
X0082094Y0160996D01*
X0082346Y0161018D01*
X0082597Y0161047D01*
X0082847Y0161081D01*
X0083096Y0161122D01*
X0083345Y0161169D01*
X0083592Y0161222D01*
X0083837Y0161281D01*
X0084082Y0161346D01*
X0084324Y0161417D01*
X0084565Y0161494D01*
X0084803Y0161577D01*
X0085040Y0161665D01*
X0085274Y0161760D01*
X0085506Y0161860D01*
X0085736Y0161965D01*
X0085963Y0162077D01*
X0086187Y0162193D01*
X0086408Y0162316D01*
X0086626Y0162443D01*
X0086841Y0162576D01*
X0087053Y0162714D01*
X0087261Y0162857D01*
X0087465Y0163005D01*
X0087666Y0163159D01*
X0087620Y0163217D01*
X0087420Y0163065D01*
X0087217Y0162918D01*
X0087011Y0162776D01*
X0086801Y0162639D01*
X0086587Y0162507D01*
X0086371Y0162381D01*
X0086151Y0162259D01*
X0085929Y0162143D01*
X0085704Y0162033D01*
X0085476Y0161928D01*
X0085245Y0161829D01*
X0085013Y0161735D01*
X0084778Y0161647D01*
X0084541Y0161565D01*
X0084302Y0161489D01*
X0084061Y0161419D01*
X0083819Y0161354D01*
X0083575Y0161295D01*
X0083330Y0161243D01*
X0083083Y0161196D01*
X0082836Y0161156D01*
X0082587Y0161121D01*
X0082338Y0161093D01*
X0082088Y0161070D01*
X0081838Y0161054D01*
X0081587Y0161044D01*
X0081337Y0161040D01*
X0081086Y0161042D01*
X0080835Y0161051D01*
X0080585Y0161065D01*
X0080335Y0161086D01*
X0080085Y0161112D01*
X0079837Y0161145D01*
X0079589Y0161184D01*
X0079342Y0161229D01*
X0079097Y0161279D01*
X0078852Y0161336D01*
X0078609Y0161399D01*
X0078368Y0161468D01*
X0078129Y0161542D01*
X0077891Y0161623D01*
X0077656Y0161709D01*
X0077422Y0161801D01*
X0077191Y0161899D01*
X0076963Y0162002D01*
X0076737Y0162111D01*
X0076513Y0162225D01*
X0076293Y0162345D01*
X0076076Y0162470D01*
X0075861Y0162600D01*
X0075650Y0162736D01*
X0075443Y0162876D01*
X0075239Y0163022D01*
X0075038Y0163173D01*
X0074841Y0163328D01*
X0074648Y0163488D01*
X0074459Y0163653D01*
X0074274Y0163823D01*
X0074094Y0163997D01*
X0073917Y0164175D01*
X0073745Y0164358D01*
X0073578Y0164544D01*
X0073415Y0164735D01*
X0073257Y0164930D01*
X0073104Y0165128D01*
X0072955Y0165331D01*
X0072812Y0165536D01*
X0072674Y0165745D01*
X0072540Y0165958D01*
X0072412Y0166174D01*
X0072290Y0166392D01*
X0072173Y0166614D01*
X0072061Y0166839D01*
X0071954Y0167066D01*
X0071854Y0167296D01*
X0071759Y0167528D01*
X0071669Y0167762D01*
X0071586Y0167999D01*
X0071508Y0168237D01*
X0071580Y0168259D01*
X0071657Y0168022D01*
X0071740Y0167788D01*
X0071829Y0167555D01*
X0071923Y0167325D01*
X0072023Y0167097D01*
X0072128Y0166871D01*
X0072239Y0166648D01*
X0072356Y0166428D01*
X0072478Y0166211D01*
X0072605Y0165997D01*
X0072737Y0165786D01*
X0072874Y0165578D01*
X0073016Y0165374D01*
X0073164Y0165173D01*
X0073316Y0164976D01*
X0073473Y0164783D01*
X0073635Y0164594D01*
X0073801Y0164408D01*
X0073971Y0164227D01*
X0074147Y0164050D01*
X0074326Y0163877D01*
X0074509Y0163709D01*
X0074697Y0163545D01*
X0074889Y0163386D01*
X0075084Y0163232D01*
X0075283Y0163082D01*
X0075486Y0162938D01*
X0075692Y0162798D01*
X0075901Y0162664D01*
X0076114Y0162534D01*
X0076330Y0162410D01*
X0076549Y0162291D01*
X0076770Y0162178D01*
X0076994Y0162070D01*
X0077221Y0161967D01*
X0077451Y0161870D01*
X0077682Y0161779D01*
X0077916Y0161694D01*
X0078152Y0161614D01*
X0078390Y0161540D01*
X0078629Y0161471D01*
X0078870Y0161409D01*
X0079113Y0161353D01*
X0079356Y0161302D01*
X0079601Y0161258D01*
X0079847Y0161219D01*
X0080094Y0161187D01*
X0080342Y0161160D01*
X0080590Y0161140D01*
X0080838Y0161125D01*
X0081087Y0161117D01*
X0081336Y0161115D01*
X0081585Y0161119D01*
X0081834Y0161129D01*
X0082082Y0161145D01*
X0082330Y0161167D01*
X0082578Y0161195D01*
X0082824Y0161230D01*
X0083070Y0161270D01*
X0083315Y0161316D01*
X0083558Y0161368D01*
X0083800Y0161427D01*
X0084041Y0161491D01*
X0084280Y0161561D01*
X0084517Y0161636D01*
X0084752Y0161718D01*
X0084985Y0161805D01*
X0085216Y0161898D01*
X0085445Y0161997D01*
X0085671Y0162101D01*
X0085895Y0162210D01*
X0086115Y0162325D01*
X0086333Y0162446D01*
X0086548Y0162571D01*
X0086760Y0162702D01*
X0086969Y0162838D01*
X0087174Y0162979D01*
X0087375Y0163125D01*
X0087573Y0163276D01*
M02*
