G75*
%MOIN*%
%OFA0B0*%
%FSLAX25Y25*%
%IPPOS*%
%LPD*%
%AMOC8*
5,1,8,0,0,1.08239X$1,22.5*
%
%ADD10C,0.10170*%
%ADD11C,0.06343*%
%ADD12C,0.06737*%
%ADD13R,0.06800X0.06800*%
%ADD14R,0.05600X0.09600*%
%ADD15R,0.14973X0.09461*%
%ADD16R,0.07099X0.06312*%
%ADD17R,0.05131X0.06312*%
%ADD18R,0.03950X0.04343*%
%ADD19R,0.06312X0.05131*%
%ADD20R,0.06312X0.09068*%
%ADD21C,0.00805*%
%ADD22R,0.10643X0.04737*%
%ADD23C,0.08200*%
%ADD24C,0.06800*%
%ADD25C,0.04400*%
D10*
X0068387Y0086457D02*
X0077757Y0086457D01*
X0077757Y0106143D02*
X0068387Y0106143D01*
X0068387Y0126457D02*
X0077757Y0126457D01*
X0077757Y0146143D02*
X0068387Y0146143D01*
X0176457Y0069213D02*
X0176457Y0059843D01*
X0196143Y0059843D02*
X0196143Y0069213D01*
D11*
X0219450Y0095276D03*
X0172206Y0095276D03*
X0172206Y0142520D03*
X0219450Y0142520D03*
D12*
X0195828Y0150394D03*
D13*
X0156615Y0169174D03*
X0095985Y0169174D03*
X0116457Y0053426D03*
X0136143Y0053426D03*
D14*
X0135400Y0154100D03*
X0126300Y0154100D03*
X0117200Y0154100D03*
D15*
X0126300Y0178501D03*
D16*
X0146300Y0166812D03*
X0146300Y0155788D03*
X0106300Y0155788D03*
X0106300Y0166812D03*
D17*
X0100237Y0181300D03*
X0092363Y0181300D03*
X0147363Y0181300D03*
X0155237Y0181300D03*
X0177363Y0106300D03*
X0185237Y0106300D03*
X0197363Y0106300D03*
X0205237Y0106300D03*
X0205237Y0086300D03*
X0197363Y0086300D03*
D18*
X0180040Y0122363D03*
X0172560Y0122363D03*
X0176300Y0130631D03*
D19*
X0161300Y0152363D03*
X0161300Y0160237D03*
D20*
X0192639Y0126300D03*
X0209961Y0126300D03*
D21*
X0098936Y0121101D02*
X0089098Y0121101D01*
X0098936Y0121101D02*
X0098936Y0117169D01*
X0089098Y0117169D01*
X0089098Y0121101D01*
X0089098Y0117973D02*
X0098936Y0117973D01*
X0098936Y0118777D02*
X0089098Y0118777D01*
X0089098Y0119581D02*
X0098936Y0119581D01*
X0098936Y0120385D02*
X0089098Y0120385D01*
D22*
X0094017Y0064391D03*
X0094017Y0071891D03*
X0094017Y0079765D03*
X0094017Y0087639D03*
X0094017Y0095513D03*
X0094017Y0103387D03*
X0094017Y0111261D03*
X0158583Y0111261D03*
X0158583Y0103387D03*
X0158583Y0095513D03*
X0158583Y0087639D03*
X0158583Y0079765D03*
X0158583Y0071891D03*
X0158583Y0064391D03*
X0158583Y0119135D03*
D23*
X0081300Y0161300D03*
X0081300Y0171300D03*
X0081300Y0181300D03*
D24*
X0171300Y0169300D02*
X0171300Y0163300D01*
X0181300Y0163300D02*
X0181300Y0169300D01*
X0191300Y0169300D02*
X0191300Y0163300D01*
X0201300Y0163300D02*
X0201300Y0169300D01*
X0211300Y0169300D02*
X0211300Y0163300D01*
D25*
X0174765Y0150316D03*
X0171812Y0130631D03*
X0197402Y0118820D03*
X0171812Y0105040D03*
X0196418Y0080434D03*
X0128505Y0138505D03*
X0106851Y0111930D03*
X0116694Y0109961D03*
X0101930Y0088308D03*
X0129489Y0168032D03*
X0136379Y0174922D03*
X0159017Y0175906D03*
X0105867Y0180828D03*
M02*
