%
M48
M72
T01C0.02000
T02C0.03200
T03C0.03543
T04C0.03937
T05C0.04000
T06C0.05512
%
T01
X101930Y88308
X116694Y109961
X106851Y111930
X128505Y138505
X129489Y168032
X136379Y174922
X159017Y175906
X174765Y150316
X171812Y130631
X197402Y118820
X171812Y105040
X196418Y80434
X105867Y180828
T02
X81300Y181300
X81300Y171300
X81300Y161300
T03
X172206Y142520
X219450Y142520
X219450Y95276
X172206Y95276
T04
X195828Y150394
T05
X191300Y166300
X181300Y166300
X171300Y166300
X156615Y169174
X201300Y166300
X211300Y166300
X95985Y169174
X116457Y53426
X136143Y53426
T06
X73072Y86457
X73072Y106143
X73072Y126457
X73072Y146143
X176457Y64528
X196143Y64528
M30
