G75*
%MOIN*%
%OFA0B0*%
%FSLAX25Y25*%
%IPPOS*%
%LPD*%
%AMOC8*
5,1,8,0,0,1.08239X$1,22.5*
%
%ADD10C,0.00000*%
%ADD11C,0.00800*%
%ADD12C,0.00400*%
%ADD13C,0.00500*%
%ADD14C,0.00100*%
%ADD15R,0.02559X0.05512*%
%ADD16R,0.05512X0.02559*%
%ADD17R,0.03150X0.13386*%
%ADD18C,0.00300*%
%ADD19R,0.11811X0.11811*%
D10*
X0081300Y0041300D02*
X0196221Y0041300D01*
X0081299Y0041299D02*
X0079516Y0042833D01*
X0077769Y0044410D01*
X0076062Y0046029D01*
X0074394Y0047688D01*
X0072767Y0049388D01*
X0071182Y0051126D01*
X0069640Y0052903D01*
X0068140Y0054716D01*
X0066686Y0056565D01*
X0065276Y0058449D01*
X0063913Y0060366D01*
X0062596Y0062316D01*
X0061327Y0064297D01*
X0060107Y0066308D01*
X0058935Y0068349D01*
X0057814Y0070417D01*
X0056743Y0072511D01*
X0055723Y0074632D01*
X0054754Y0076776D01*
X0053838Y0078943D01*
X0052975Y0081131D01*
X0052165Y0083340D01*
X0051408Y0085568D01*
X0050706Y0087813D01*
X0050059Y0090075D01*
X0049467Y0092352D01*
X0048930Y0094643D01*
X0048448Y0096946D01*
X0048023Y0099260D01*
X0047654Y0101583D01*
X0047341Y0103915D01*
X0047085Y0106254D01*
X0046886Y0108598D01*
X0046743Y0110946D01*
X0046658Y0113297D01*
X0046629Y0115650D01*
X0046658Y0118003D01*
X0046743Y0120354D01*
X0046886Y0122702D01*
X0047085Y0125046D01*
X0047341Y0127385D01*
X0047654Y0129717D01*
X0048023Y0132040D01*
X0048448Y0134354D01*
X0048930Y0136657D01*
X0049467Y0138948D01*
X0050059Y0141225D01*
X0050706Y0143487D01*
X0051408Y0145732D01*
X0052165Y0147960D01*
X0052975Y0150169D01*
X0053838Y0152357D01*
X0054754Y0154524D01*
X0055723Y0156668D01*
X0056743Y0158789D01*
X0057814Y0160883D01*
X0058935Y0162951D01*
X0060107Y0164992D01*
X0061327Y0167003D01*
X0062596Y0168984D01*
X0063913Y0170934D01*
X0065276Y0172851D01*
X0066686Y0174735D01*
X0068140Y0176584D01*
X0069640Y0178397D01*
X0071182Y0180174D01*
X0072767Y0181912D01*
X0074394Y0183612D01*
X0076062Y0185271D01*
X0077769Y0186890D01*
X0079516Y0188467D01*
X0081299Y0190001D01*
X0081300Y0190001D02*
X0201221Y0190001D01*
X0201221Y0190000D02*
X0202953Y0188406D01*
X0204646Y0186771D01*
X0206299Y0185095D01*
X0207911Y0183379D01*
X0209481Y0181625D01*
X0211008Y0179833D01*
X0212491Y0178005D01*
X0213929Y0176141D01*
X0215321Y0174244D01*
X0216667Y0172312D01*
X0217966Y0170349D01*
X0219217Y0168355D01*
X0220420Y0166331D01*
X0221573Y0164279D01*
X0222675Y0162199D01*
X0223727Y0160093D01*
X0224728Y0157963D01*
X0225677Y0155808D01*
X0226573Y0153632D01*
X0227416Y0151434D01*
X0228206Y0149216D01*
X0228942Y0146980D01*
X0229623Y0144727D01*
X0230250Y0142458D01*
X0230821Y0140174D01*
X0231337Y0137877D01*
X0231797Y0135569D01*
X0232201Y0133250D01*
X0232548Y0130922D01*
X0232839Y0128586D01*
X0233074Y0126243D01*
X0233251Y0123896D01*
X0233372Y0121545D01*
X0233435Y0119192D01*
X0233442Y0116838D01*
X0233391Y0114484D01*
X0233284Y0112133D01*
X0233119Y0109785D01*
X0232897Y0107441D01*
X0232619Y0105104D01*
X0232285Y0102774D01*
X0231893Y0100452D01*
X0231446Y0098141D01*
X0230943Y0095842D01*
X0230384Y0093555D01*
X0229770Y0091282D01*
X0229101Y0089025D01*
X0228378Y0086785D01*
X0227600Y0084563D01*
X0226769Y0082361D01*
X0225885Y0080179D01*
X0224948Y0078020D01*
X0223959Y0075884D01*
X0222918Y0073772D01*
X0221827Y0071686D01*
X0220686Y0069628D01*
X0219494Y0067597D01*
X0218254Y0065596D01*
X0216966Y0063626D01*
X0215631Y0061688D01*
X0214249Y0059782D01*
X0212821Y0057911D01*
X0211348Y0056074D01*
X0209831Y0054274D01*
X0208271Y0052511D01*
X0206669Y0050787D01*
X0205025Y0049102D01*
X0203341Y0047457D01*
X0201617Y0045854D01*
X0199856Y0044292D01*
X0198057Y0042774D01*
X0196221Y0041300D01*
D11*
X0181812Y0125906D02*
X0181812Y0129056D01*
X0179450Y0129056D01*
X0173150Y0129056D02*
X0170788Y0129056D01*
X0170788Y0125906D01*
X0151024Y0151457D02*
X0151024Y0157363D01*
X0151024Y0151457D02*
X0141576Y0151457D01*
X0141576Y0157363D01*
X0139200Y0159300D02*
X0139200Y0173300D01*
X0113400Y0173300D01*
X0113400Y0159300D01*
X0139200Y0159300D01*
X0141576Y0165237D02*
X0141576Y0169568D01*
X0143150Y0171143D01*
X0149450Y0171143D01*
X0151024Y0169568D01*
X0151024Y0165237D01*
X0111024Y0165237D02*
X0111024Y0169568D01*
X0109450Y0171143D01*
X0103150Y0171143D01*
X0101576Y0169568D01*
X0101576Y0165237D01*
X0101576Y0157363D02*
X0101576Y0151457D01*
X0111024Y0151457D01*
X0111024Y0157363D01*
D12*
X0113848Y0166700D02*
X0112313Y0168235D01*
X0112313Y0171304D01*
X0115382Y0171304D02*
X0115382Y0168235D01*
X0113848Y0166700D01*
X0116917Y0167467D02*
X0116917Y0168235D01*
X0117684Y0169002D01*
X0118452Y0169002D01*
X0117684Y0169002D02*
X0116917Y0169769D01*
X0116917Y0170537D01*
X0117684Y0171304D01*
X0119219Y0171304D01*
X0119986Y0170537D01*
X0119986Y0167467D02*
X0119219Y0166700D01*
X0117684Y0166700D01*
X0116917Y0167467D01*
X0121521Y0167467D02*
X0121521Y0166700D01*
X0122288Y0166700D01*
X0122288Y0167467D01*
X0121521Y0167467D01*
X0123823Y0167467D02*
X0123823Y0168235D01*
X0124590Y0169002D01*
X0125358Y0169002D01*
X0124590Y0169002D02*
X0123823Y0169769D01*
X0123823Y0170537D01*
X0124590Y0171304D01*
X0126125Y0171304D01*
X0126892Y0170537D01*
X0128427Y0169002D02*
X0131496Y0169002D01*
X0133031Y0169002D02*
X0133031Y0167467D01*
X0133798Y0166700D01*
X0135333Y0166700D01*
X0136100Y0167467D01*
X0136100Y0169002D02*
X0134565Y0169769D01*
X0133798Y0169769D01*
X0133031Y0169002D01*
X0133031Y0171304D02*
X0136100Y0171304D01*
X0136100Y0169002D01*
X0126892Y0167467D02*
X0126125Y0166700D01*
X0124590Y0166700D01*
X0123823Y0167467D01*
X0143784Y0152285D02*
X0145319Y0152285D01*
X0144552Y0152285D02*
X0144552Y0147681D01*
X0145319Y0147681D02*
X0143784Y0147681D01*
X0148388Y0149983D02*
X0149923Y0149983D01*
X0149923Y0147681D02*
X0149923Y0152285D01*
X0146854Y0152285D01*
X0151458Y0152285D02*
X0152992Y0152285D01*
X0152225Y0152285D02*
X0152225Y0147681D01*
X0152992Y0147681D02*
X0151458Y0147681D01*
X0154527Y0147681D02*
X0154527Y0152285D01*
X0156061Y0149216D02*
X0154527Y0147681D01*
X0156061Y0149216D02*
X0157596Y0147681D01*
X0157596Y0152285D01*
X0165500Y0153500D02*
X0170104Y0153500D01*
X0170104Y0155802D01*
X0169337Y0156569D01*
X0167802Y0156569D01*
X0167035Y0155802D01*
X0167035Y0153500D01*
X0167035Y0155035D02*
X0165500Y0156569D01*
X0165500Y0158104D02*
X0168569Y0161173D01*
X0169337Y0161173D01*
X0170104Y0160406D01*
X0170104Y0158871D01*
X0169337Y0158104D01*
X0165500Y0158104D02*
X0165500Y0161173D01*
X0154100Y0185500D02*
X0154100Y0190104D01*
X0151798Y0190104D01*
X0151031Y0189337D01*
X0151031Y0187802D01*
X0151798Y0187035D01*
X0154100Y0187035D01*
X0152565Y0187035D02*
X0151031Y0185500D01*
X0149496Y0186267D02*
X0148729Y0185500D01*
X0147194Y0185500D01*
X0146427Y0186267D01*
X0146427Y0187802D01*
X0147194Y0188569D01*
X0147961Y0188569D01*
X0149496Y0187802D01*
X0149496Y0190104D01*
X0146427Y0190104D01*
X0102308Y0177104D02*
X0102308Y0172500D01*
X0102308Y0174035D02*
X0100006Y0174035D01*
X0099239Y0174802D01*
X0099239Y0176337D01*
X0100006Y0177104D01*
X0102308Y0177104D01*
X0100773Y0174035D02*
X0099239Y0172500D01*
X0097704Y0173267D02*
X0097704Y0174802D01*
X0095402Y0174802D01*
X0094635Y0174035D01*
X0094635Y0173267D01*
X0095402Y0172500D01*
X0096937Y0172500D01*
X0097704Y0173267D01*
X0097704Y0174802D02*
X0096169Y0176337D01*
X0094635Y0177104D01*
X0181169Y0102104D02*
X0181169Y0097500D01*
X0179635Y0097500D02*
X0182704Y0097500D01*
X0184239Y0097500D02*
X0185773Y0099035D01*
X0185006Y0099035D02*
X0187308Y0099035D01*
X0187308Y0097500D02*
X0187308Y0102104D01*
X0185006Y0102104D01*
X0184239Y0101337D01*
X0184239Y0099802D01*
X0185006Y0099035D01*
X0182704Y0100569D02*
X0181169Y0102104D01*
X0196427Y0094337D02*
X0196427Y0093569D01*
X0197194Y0092802D01*
X0196427Y0092035D01*
X0196427Y0091267D01*
X0197194Y0090500D01*
X0198729Y0090500D01*
X0199496Y0091267D01*
X0201031Y0090500D02*
X0202565Y0092035D01*
X0201798Y0092035D02*
X0204100Y0092035D01*
X0204100Y0090500D02*
X0204100Y0095104D01*
X0201798Y0095104D01*
X0201031Y0094337D01*
X0201031Y0092802D01*
X0201798Y0092035D01*
X0199496Y0094337D02*
X0198729Y0095104D01*
X0197194Y0095104D01*
X0196427Y0094337D01*
X0197194Y0092802D02*
X0197961Y0092802D01*
X0197194Y0110500D02*
X0197194Y0115104D01*
X0199496Y0112802D01*
X0196427Y0112802D01*
X0201031Y0112802D02*
X0201798Y0112035D01*
X0204100Y0112035D01*
X0202565Y0112035D02*
X0201031Y0110500D01*
X0201031Y0112802D02*
X0201031Y0114337D01*
X0201798Y0115104D01*
X0204100Y0115104D01*
X0204100Y0110500D01*
X0204097Y0134374D02*
X0201795Y0134374D01*
X0201028Y0135141D01*
X0201028Y0138211D01*
X0201795Y0138978D01*
X0204097Y0138978D01*
X0204097Y0134374D01*
X0205632Y0135141D02*
X0205632Y0138211D01*
X0206399Y0138978D01*
X0207933Y0138978D01*
X0208701Y0138211D01*
X0208701Y0135141D01*
X0207933Y0134374D01*
X0206399Y0134374D01*
X0205632Y0135141D01*
X0210235Y0135141D02*
X0211003Y0134374D01*
X0212537Y0134374D01*
X0213305Y0135141D01*
X0212537Y0136676D02*
X0211003Y0136676D01*
X0210235Y0135909D01*
X0210235Y0135141D01*
X0212537Y0136676D02*
X0213305Y0137443D01*
X0213305Y0138211D01*
X0212537Y0138978D01*
X0211003Y0138978D01*
X0210235Y0138211D01*
X0199493Y0137443D02*
X0197958Y0138978D01*
X0197958Y0134374D01*
X0196424Y0134374D02*
X0199493Y0134374D01*
X0194889Y0134374D02*
X0191820Y0137443D01*
X0191820Y0138211D01*
X0192587Y0138978D01*
X0194122Y0138978D01*
X0194889Y0138211D01*
X0194889Y0134374D02*
X0191820Y0134374D01*
X0190285Y0135141D02*
X0190285Y0135909D01*
X0189518Y0136676D01*
X0187983Y0136676D01*
X0187216Y0135909D01*
X0187216Y0135141D01*
X0187983Y0134374D01*
X0189518Y0134374D01*
X0190285Y0135141D01*
X0189518Y0136676D02*
X0190285Y0137443D01*
X0190285Y0138211D01*
X0189518Y0138978D01*
X0187983Y0138978D01*
X0187216Y0138211D01*
X0187216Y0137443D01*
X0187983Y0136676D01*
D13*
X0193032Y0132993D02*
X0209568Y0132993D01*
X0209568Y0119607D01*
X0193032Y0119607D01*
X0193032Y0132993D01*
X0211142Y0132599D02*
X0211144Y0132638D01*
X0211150Y0132677D01*
X0211160Y0132715D01*
X0211173Y0132752D01*
X0211190Y0132787D01*
X0211210Y0132821D01*
X0211234Y0132852D01*
X0211261Y0132881D01*
X0211290Y0132907D01*
X0211322Y0132930D01*
X0211356Y0132950D01*
X0211392Y0132966D01*
X0211429Y0132978D01*
X0211468Y0132987D01*
X0211507Y0132992D01*
X0211546Y0132993D01*
X0211585Y0132990D01*
X0211624Y0132983D01*
X0211661Y0132972D01*
X0211698Y0132958D01*
X0211733Y0132940D01*
X0211766Y0132919D01*
X0211797Y0132894D01*
X0211825Y0132867D01*
X0211850Y0132837D01*
X0211872Y0132804D01*
X0211891Y0132770D01*
X0211906Y0132734D01*
X0211918Y0132696D01*
X0211926Y0132658D01*
X0211930Y0132619D01*
X0211930Y0132579D01*
X0211926Y0132540D01*
X0211918Y0132502D01*
X0211906Y0132464D01*
X0211891Y0132428D01*
X0211872Y0132394D01*
X0211850Y0132361D01*
X0211825Y0132331D01*
X0211797Y0132304D01*
X0211766Y0132279D01*
X0211733Y0132258D01*
X0211698Y0132240D01*
X0211661Y0132226D01*
X0211624Y0132215D01*
X0211585Y0132208D01*
X0211546Y0132205D01*
X0211507Y0132206D01*
X0211468Y0132211D01*
X0211429Y0132220D01*
X0211392Y0132232D01*
X0211356Y0132248D01*
X0211322Y0132268D01*
X0211290Y0132291D01*
X0211261Y0132317D01*
X0211234Y0132346D01*
X0211210Y0132377D01*
X0211190Y0132411D01*
X0211173Y0132446D01*
X0211160Y0132483D01*
X0211150Y0132521D01*
X0211144Y0132560D01*
X0211142Y0132599D01*
X0157402Y0121497D02*
X0157402Y0058505D01*
X0094410Y0058505D01*
X0094410Y0121497D01*
X0094410Y0137245D01*
X0102284Y0137245D01*
X0102284Y0145119D01*
X0157402Y0145119D01*
X0157402Y0121497D01*
X0150300Y0162800D02*
X0142300Y0162800D01*
X0110300Y0162800D02*
X0102300Y0162800D01*
X0102284Y0145119D02*
X0094410Y0145119D01*
X0094410Y0137245D01*
X0097953Y0141182D02*
X0097955Y0141221D01*
X0097961Y0141260D01*
X0097971Y0141298D01*
X0097984Y0141335D01*
X0098001Y0141370D01*
X0098021Y0141404D01*
X0098045Y0141435D01*
X0098072Y0141464D01*
X0098101Y0141490D01*
X0098133Y0141513D01*
X0098167Y0141533D01*
X0098203Y0141549D01*
X0098240Y0141561D01*
X0098279Y0141570D01*
X0098318Y0141575D01*
X0098357Y0141576D01*
X0098396Y0141573D01*
X0098435Y0141566D01*
X0098472Y0141555D01*
X0098509Y0141541D01*
X0098544Y0141523D01*
X0098577Y0141502D01*
X0098608Y0141477D01*
X0098636Y0141450D01*
X0098661Y0141420D01*
X0098683Y0141387D01*
X0098702Y0141353D01*
X0098717Y0141317D01*
X0098729Y0141279D01*
X0098737Y0141241D01*
X0098741Y0141202D01*
X0098741Y0141162D01*
X0098737Y0141123D01*
X0098729Y0141085D01*
X0098717Y0141047D01*
X0098702Y0141011D01*
X0098683Y0140977D01*
X0098661Y0140944D01*
X0098636Y0140914D01*
X0098608Y0140887D01*
X0098577Y0140862D01*
X0098544Y0140841D01*
X0098509Y0140823D01*
X0098472Y0140809D01*
X0098435Y0140798D01*
X0098396Y0140791D01*
X0098357Y0140788D01*
X0098318Y0140789D01*
X0098279Y0140794D01*
X0098240Y0140803D01*
X0098203Y0140815D01*
X0098167Y0140831D01*
X0098133Y0140851D01*
X0098101Y0140874D01*
X0098072Y0140900D01*
X0098045Y0140929D01*
X0098021Y0140960D01*
X0098001Y0140994D01*
X0097984Y0141029D01*
X0097971Y0141066D01*
X0097961Y0141104D01*
X0097955Y0141143D01*
X0097953Y0141182D01*
X0095173Y0141182D02*
X0095175Y0141294D01*
X0095181Y0141406D01*
X0095191Y0141517D01*
X0095205Y0141629D01*
X0095222Y0141739D01*
X0095244Y0141849D01*
X0095269Y0141958D01*
X0095299Y0142066D01*
X0095332Y0142173D01*
X0095369Y0142279D01*
X0095409Y0142384D01*
X0095454Y0142487D01*
X0095501Y0142588D01*
X0095553Y0142687D01*
X0095608Y0142785D01*
X0095666Y0142881D01*
X0095728Y0142974D01*
X0095792Y0143066D01*
X0095860Y0143155D01*
X0095932Y0143241D01*
X0096006Y0143325D01*
X0096083Y0143406D01*
X0096163Y0143485D01*
X0096245Y0143561D01*
X0096331Y0143633D01*
X0096418Y0143703D01*
X0096509Y0143769D01*
X0096601Y0143833D01*
X0096696Y0143893D01*
X0096792Y0143949D01*
X0096891Y0144002D01*
X0096992Y0144052D01*
X0097094Y0144098D01*
X0097197Y0144140D01*
X0097302Y0144179D01*
X0097409Y0144214D01*
X0097516Y0144245D01*
X0097625Y0144273D01*
X0097735Y0144296D01*
X0097845Y0144316D01*
X0097956Y0144332D01*
X0098067Y0144344D01*
X0098179Y0144352D01*
X0098291Y0144356D01*
X0098403Y0144356D01*
X0098515Y0144352D01*
X0098627Y0144344D01*
X0098738Y0144332D01*
X0098849Y0144316D01*
X0098959Y0144296D01*
X0099069Y0144273D01*
X0099178Y0144245D01*
X0099285Y0144214D01*
X0099392Y0144179D01*
X0099497Y0144140D01*
X0099600Y0144098D01*
X0099702Y0144052D01*
X0099803Y0144002D01*
X0099902Y0143949D01*
X0099998Y0143893D01*
X0100093Y0143833D01*
X0100185Y0143769D01*
X0100276Y0143703D01*
X0100363Y0143633D01*
X0100449Y0143561D01*
X0100531Y0143485D01*
X0100611Y0143406D01*
X0100688Y0143325D01*
X0100762Y0143241D01*
X0100834Y0143155D01*
X0100902Y0143066D01*
X0100966Y0142974D01*
X0101028Y0142881D01*
X0101086Y0142785D01*
X0101141Y0142687D01*
X0101193Y0142588D01*
X0101240Y0142487D01*
X0101285Y0142384D01*
X0101325Y0142279D01*
X0101362Y0142173D01*
X0101395Y0142066D01*
X0101425Y0141958D01*
X0101450Y0141849D01*
X0101472Y0141739D01*
X0101489Y0141629D01*
X0101503Y0141517D01*
X0101513Y0141406D01*
X0101519Y0141294D01*
X0101521Y0141182D01*
X0101519Y0141070D01*
X0101513Y0140958D01*
X0101503Y0140847D01*
X0101489Y0140735D01*
X0101472Y0140625D01*
X0101450Y0140515D01*
X0101425Y0140406D01*
X0101395Y0140298D01*
X0101362Y0140191D01*
X0101325Y0140085D01*
X0101285Y0139980D01*
X0101240Y0139877D01*
X0101193Y0139776D01*
X0101141Y0139677D01*
X0101086Y0139579D01*
X0101028Y0139483D01*
X0100966Y0139390D01*
X0100902Y0139298D01*
X0100834Y0139209D01*
X0100762Y0139123D01*
X0100688Y0139039D01*
X0100611Y0138958D01*
X0100531Y0138879D01*
X0100449Y0138803D01*
X0100363Y0138731D01*
X0100276Y0138661D01*
X0100185Y0138595D01*
X0100093Y0138531D01*
X0099998Y0138471D01*
X0099902Y0138415D01*
X0099803Y0138362D01*
X0099702Y0138312D01*
X0099600Y0138266D01*
X0099497Y0138224D01*
X0099392Y0138185D01*
X0099285Y0138150D01*
X0099178Y0138119D01*
X0099069Y0138091D01*
X0098959Y0138068D01*
X0098849Y0138048D01*
X0098738Y0138032D01*
X0098627Y0138020D01*
X0098515Y0138012D01*
X0098403Y0138008D01*
X0098291Y0138008D01*
X0098179Y0138012D01*
X0098067Y0138020D01*
X0097956Y0138032D01*
X0097845Y0138048D01*
X0097735Y0138068D01*
X0097625Y0138091D01*
X0097516Y0138119D01*
X0097409Y0138150D01*
X0097302Y0138185D01*
X0097197Y0138224D01*
X0097094Y0138266D01*
X0096992Y0138312D01*
X0096891Y0138362D01*
X0096792Y0138415D01*
X0096696Y0138471D01*
X0096601Y0138531D01*
X0096509Y0138595D01*
X0096418Y0138661D01*
X0096331Y0138731D01*
X0096245Y0138803D01*
X0096163Y0138879D01*
X0096083Y0138958D01*
X0096006Y0139039D01*
X0095932Y0139123D01*
X0095860Y0139209D01*
X0095792Y0139298D01*
X0095728Y0139390D01*
X0095666Y0139483D01*
X0095608Y0139579D01*
X0095553Y0139677D01*
X0095501Y0139776D01*
X0095454Y0139877D01*
X0095409Y0139980D01*
X0095369Y0140085D01*
X0095332Y0140191D01*
X0095299Y0140298D01*
X0095269Y0140406D01*
X0095244Y0140515D01*
X0095222Y0140625D01*
X0095205Y0140735D01*
X0095191Y0140847D01*
X0095181Y0140958D01*
X0095175Y0141070D01*
X0095173Y0141182D01*
D14*
X0111787Y0151600D02*
X0111787Y0152101D01*
X0112037Y0152351D01*
X0111787Y0152823D02*
X0111787Y0153824D01*
X0111787Y0153324D02*
X0113288Y0153324D01*
X0112788Y0152823D01*
X0113038Y0152351D02*
X0113288Y0152101D01*
X0113288Y0151600D01*
X0113038Y0151350D01*
X0112037Y0151350D01*
X0111787Y0151600D01*
X0151787Y0151600D02*
X0151787Y0152101D01*
X0152037Y0152351D01*
X0152538Y0152823D02*
X0152538Y0153824D01*
X0153288Y0153574D02*
X0152538Y0152823D01*
X0153038Y0152351D02*
X0153288Y0152101D01*
X0153288Y0151600D01*
X0153038Y0151350D01*
X0152037Y0151350D01*
X0151787Y0151600D01*
X0151787Y0153574D02*
X0153288Y0153574D01*
X0162544Y0134851D02*
X0162293Y0134601D01*
X0162293Y0134351D01*
X0162544Y0134101D01*
X0162293Y0133850D01*
X0162293Y0133600D01*
X0162544Y0133350D01*
X0163044Y0133350D01*
X0163294Y0133600D01*
X0163767Y0133350D02*
X0164767Y0133350D01*
X0163767Y0134351D01*
X0163767Y0134601D01*
X0164017Y0134851D01*
X0164517Y0134851D01*
X0164767Y0134601D01*
X0165240Y0134851D02*
X0166241Y0134851D01*
X0165740Y0134851D02*
X0165740Y0133350D01*
X0166713Y0133600D02*
X0166713Y0134601D01*
X0166963Y0134851D01*
X0167464Y0134851D01*
X0167714Y0134601D01*
X0167714Y0133600D01*
X0167464Y0133350D01*
X0166963Y0133350D01*
X0166713Y0133600D01*
X0168186Y0133600D02*
X0168437Y0133350D01*
X0168937Y0133350D01*
X0169187Y0133600D01*
X0168937Y0134101D02*
X0168437Y0134101D01*
X0168186Y0133850D01*
X0168186Y0133600D01*
X0168937Y0134101D02*
X0169187Y0134351D01*
X0169187Y0134601D01*
X0168937Y0134851D01*
X0168437Y0134851D01*
X0168186Y0134601D01*
X0169660Y0134101D02*
X0170660Y0134101D01*
X0171133Y0134101D02*
X0172134Y0134101D01*
X0171383Y0134851D01*
X0171383Y0133350D01*
X0172606Y0133600D02*
X0172856Y0133350D01*
X0173357Y0133350D01*
X0173607Y0133600D01*
X0172606Y0134601D01*
X0172606Y0133600D01*
X0173607Y0133600D02*
X0173607Y0134601D01*
X0173357Y0134851D01*
X0172856Y0134851D01*
X0172606Y0134601D01*
X0174079Y0134601D02*
X0174330Y0134851D01*
X0174830Y0134851D01*
X0175080Y0134601D01*
X0175080Y0134351D01*
X0174830Y0134101D01*
X0174079Y0134101D01*
X0174079Y0134601D02*
X0174079Y0133600D01*
X0174330Y0133350D01*
X0174830Y0133350D01*
X0175080Y0133600D01*
X0175553Y0133600D02*
X0175803Y0133350D01*
X0176303Y0133350D01*
X0176553Y0133600D01*
X0177026Y0133350D02*
X0177026Y0134851D01*
X0176553Y0134601D02*
X0176303Y0134851D01*
X0175803Y0134851D01*
X0175553Y0134601D01*
X0175553Y0134351D01*
X0175803Y0134101D01*
X0175553Y0133850D01*
X0175553Y0133600D01*
X0175803Y0134101D02*
X0176053Y0134101D01*
X0177026Y0133350D02*
X0178027Y0134851D01*
X0178027Y0133350D01*
X0178499Y0133350D02*
X0179500Y0133350D01*
X0178499Y0134351D01*
X0178499Y0134601D01*
X0178749Y0134851D01*
X0179250Y0134851D01*
X0179500Y0134601D01*
X0163294Y0134601D02*
X0163044Y0134851D01*
X0162544Y0134851D01*
X0162544Y0134101D02*
X0162794Y0134101D01*
D15*
X0178380Y0106294D03*
X0184180Y0106294D03*
X0198420Y0106306D03*
X0204220Y0106306D03*
X0204220Y0086306D03*
X0198420Y0086306D03*
X0154220Y0181306D03*
X0148420Y0181306D03*
X0099180Y0181294D03*
X0093380Y0181294D03*
D16*
X0161306Y0159180D03*
X0161306Y0153380D03*
D17*
X0204450Y0126300D03*
D18*
X0141111Y0130702D02*
X0138642Y0130702D01*
X0137427Y0131319D02*
X0136810Y0130702D01*
X0135576Y0130702D01*
X0134959Y0131319D01*
X0134959Y0131936D01*
X0135576Y0132554D01*
X0136810Y0132554D01*
X0137427Y0133171D01*
X0137427Y0133788D01*
X0136810Y0134405D01*
X0135576Y0134405D01*
X0134959Y0133788D01*
X0133744Y0134405D02*
X0133744Y0130702D01*
X0133744Y0131936D02*
X0131893Y0131936D01*
X0131276Y0132554D01*
X0131276Y0133788D01*
X0131893Y0134405D01*
X0133744Y0134405D01*
X0130061Y0132554D02*
X0127592Y0132554D01*
X0126378Y0131319D02*
X0126378Y0133788D01*
X0125761Y0134405D01*
X0124526Y0134405D01*
X0123909Y0133788D01*
X0126378Y0131319D01*
X0125761Y0130702D01*
X0124526Y0130702D01*
X0123909Y0131319D01*
X0123909Y0133788D01*
X0122695Y0134405D02*
X0120226Y0134405D01*
X0120226Y0133788D01*
X0122695Y0131319D01*
X0122695Y0130702D01*
X0138642Y0134405D02*
X0141111Y0134405D01*
X0141111Y0130702D01*
X0141111Y0132554D02*
X0139876Y0132554D01*
D19*
X0147954Y0133702D03*
X0112520Y0133702D03*
M02*
