G75*
%MOIN*%
%OFA0B0*%
%FSLAX25Y25*%
%IPPOS*%
%LPD*%
%AMOC8*
5,1,8,0,0,1.08239X$1,22.5*
%
%ADD10C,0.10170*%
%ADD11C,0.06343*%
%ADD12C,0.06737*%
%ADD13R,0.06800X0.06800*%
%ADD14C,0.00805*%
%ADD15R,0.10643X0.04737*%
%ADD16R,0.05600X0.09600*%
%ADD17R,0.14973X0.09461*%
%ADD18C,0.06800*%
%ADD19R,0.07099X0.06312*%
%ADD20R,0.05131X0.06312*%
%ADD21R,0.03950X0.04343*%
%ADD22R,0.06312X0.09068*%
%ADD23C,0.04400*%
D10*
X0068387Y0086457D02*
X0077757Y0086457D01*
X0077757Y0106143D02*
X0068387Y0106143D01*
X0068387Y0126457D02*
X0077757Y0126457D01*
X0077757Y0146143D02*
X0068387Y0146143D01*
X0176457Y0069213D02*
X0176457Y0059843D01*
X0196143Y0059843D02*
X0196143Y0069213D01*
D11*
X0219450Y0095276D03*
X0172206Y0095276D03*
X0172206Y0142520D03*
X0219450Y0142520D03*
D12*
X0195828Y0150394D03*
D13*
X0156615Y0169174D03*
X0095985Y0169174D03*
X0116457Y0053426D03*
X0136143Y0053426D03*
D14*
X0098936Y0120038D02*
X0089098Y0120038D01*
X0098936Y0120038D02*
X0098936Y0116106D01*
X0089098Y0116106D01*
X0089098Y0120038D01*
X0089098Y0116910D02*
X0098936Y0116910D01*
X0098936Y0117714D02*
X0089098Y0117714D01*
X0089098Y0118518D02*
X0098936Y0118518D01*
X0098936Y0119322D02*
X0089098Y0119322D01*
D15*
X0094017Y0070828D03*
X0094017Y0078702D03*
X0094017Y0086576D03*
X0094017Y0094450D03*
X0094017Y0102324D03*
X0094017Y0110198D03*
X0158583Y0110198D03*
X0158583Y0118072D03*
X0158583Y0102324D03*
X0158583Y0094450D03*
X0158583Y0086576D03*
X0158583Y0078702D03*
X0158583Y0070828D03*
D16*
X0145400Y0154100D03*
X0136300Y0154100D03*
X0127200Y0154100D03*
D17*
X0136300Y0178501D03*
D18*
X0171300Y0169300D02*
X0171300Y0163300D01*
X0181300Y0163300D02*
X0181300Y0169300D01*
X0191300Y0169300D02*
X0191300Y0163300D01*
X0201300Y0163300D02*
X0201300Y0169300D01*
X0211300Y0169300D02*
X0211300Y0163300D01*
D19*
X0116300Y0161812D03*
X0116300Y0150788D03*
X0101300Y0145788D03*
X0101300Y0156812D03*
D20*
X0075237Y0161300D03*
X0067363Y0161300D03*
X0172363Y0111300D03*
X0180237Y0111300D03*
D21*
X0180040Y0122363D03*
X0172560Y0122363D03*
X0176300Y0130631D03*
D22*
X0192639Y0126300D03*
X0209961Y0126300D03*
D23*
X0150050Y0078800D03*
X0110050Y0133800D03*
X0105050Y0136300D03*
X0126300Y0145050D03*
M02*
