G75*
%MOIN*%
%OFA0B0*%
%FSLAX25Y25*%
%IPPOS*%
%LPD*%
%AMOC8*
5,1,8,0,0,1.08239X$1,22.5*
%
%ADD10C,0.09370*%
%ADD11C,0.05543*%
%ADD12C,0.05937*%
%ADD13R,0.06000X0.06000*%
%ADD14C,0.06000*%
%ADD15C,0.00600*%
%ADD16C,0.02000*%
%ADD17C,0.01200*%
%ADD18C,0.03600*%
D10*
X0068387Y0086457D02*
X0077757Y0086457D01*
X0077757Y0106143D02*
X0068387Y0106143D01*
X0068387Y0126457D02*
X0077757Y0126457D01*
X0077757Y0146143D02*
X0068387Y0146143D01*
X0176457Y0069213D02*
X0176457Y0059843D01*
X0196143Y0059843D02*
X0196143Y0069213D01*
D11*
X0219450Y0095276D03*
X0172206Y0095276D03*
X0172206Y0142520D03*
X0219450Y0142520D03*
D12*
X0195828Y0150394D03*
D13*
X0156615Y0169174D03*
X0095985Y0169174D03*
X0116457Y0053426D03*
X0136143Y0053426D03*
D14*
X0171300Y0163300D02*
X0171300Y0169300D01*
X0181300Y0169300D02*
X0181300Y0163300D01*
X0191300Y0163300D02*
X0191300Y0169300D01*
X0201300Y0169300D02*
X0201300Y0163300D01*
X0211300Y0163300D02*
X0211300Y0169300D01*
D15*
X0104929Y0060504D02*
X0069298Y0060504D01*
X0069744Y0059905D02*
X0105528Y0059905D01*
X0106126Y0059307D02*
X0070189Y0059307D01*
X0070635Y0058708D02*
X0106725Y0058708D01*
X0107323Y0058110D02*
X0071080Y0058110D01*
X0071526Y0057511D02*
X0107922Y0057511D01*
X0108520Y0056913D02*
X0071971Y0056913D01*
X0072417Y0056314D02*
X0109119Y0056314D01*
X0109717Y0055716D02*
X0072924Y0055716D01*
X0072631Y0056027D02*
X0080033Y0048181D01*
X0082934Y0045600D01*
X0194670Y0045600D01*
X0197721Y0048137D01*
X0197721Y0048137D01*
X0205387Y0055734D01*
X0212120Y0064170D01*
X0217827Y0073330D01*
X0222433Y0083091D01*
X0225874Y0093321D01*
X0228105Y0103881D01*
X0229094Y0114629D01*
X0228829Y0125419D01*
X0227313Y0136105D01*
X0224566Y0146543D01*
X0220627Y0156591D01*
X0215600Y0166017D01*
X0215600Y0162445D01*
X0214945Y0160864D01*
X0213736Y0159655D01*
X0212155Y0159000D01*
X0210445Y0159000D01*
X0208864Y0159655D01*
X0207655Y0160864D01*
X0207000Y0162445D01*
X0207000Y0170155D01*
X0207655Y0171736D01*
X0208864Y0172945D01*
X0210376Y0173572D01*
X0209397Y0174984D01*
X0202258Y0183079D01*
X0199504Y0185701D01*
X0082934Y0185701D01*
X0080033Y0183120D01*
X0072631Y0175274D01*
X0066190Y0166621D01*
X0060796Y0157280D01*
X0056524Y0147375D01*
X0053430Y0137042D01*
X0051557Y0126419D01*
X0050930Y0115650D01*
X0051557Y0104882D01*
X0053430Y0094259D01*
X0056524Y0083925D01*
X0060796Y0074021D01*
X0066190Y0064679D01*
X0072631Y0056027D01*
X0073489Y0055117D02*
X0110316Y0055117D01*
X0110914Y0054519D02*
X0074054Y0054519D01*
X0074618Y0053920D02*
X0111157Y0053920D01*
X0111157Y0054276D02*
X0111157Y0049473D01*
X0112505Y0048126D01*
X0120410Y0048126D01*
X0121757Y0049473D01*
X0121757Y0057379D01*
X0120410Y0058726D01*
X0116041Y0058726D01*
X0086598Y0088169D01*
X0085669Y0089098D01*
X0084456Y0089600D01*
X0084016Y0089600D01*
X0083678Y0090414D01*
X0081713Y0092379D01*
X0079146Y0093443D01*
X0066997Y0093443D01*
X0064430Y0092379D01*
X0062465Y0090414D01*
X0061402Y0087847D01*
X0061402Y0085068D01*
X0062465Y0082501D01*
X0064430Y0080536D01*
X0066997Y0079472D01*
X0079146Y0079472D01*
X0081713Y0080536D01*
X0083305Y0082128D01*
X0111157Y0054276D01*
X0111157Y0053322D02*
X0075183Y0053322D01*
X0075748Y0052723D02*
X0111157Y0052723D01*
X0111157Y0052125D02*
X0076312Y0052125D01*
X0076877Y0051526D02*
X0111157Y0051526D01*
X0111157Y0050928D02*
X0077442Y0050928D01*
X0078006Y0050329D02*
X0111157Y0050329D01*
X0111157Y0049731D02*
X0078571Y0049731D01*
X0079136Y0049132D02*
X0111498Y0049132D01*
X0112097Y0048534D02*
X0079700Y0048534D01*
X0080309Y0047935D02*
X0197479Y0047935D01*
X0198122Y0048534D02*
X0140503Y0048534D01*
X0140095Y0048126D02*
X0141443Y0049473D01*
X0141443Y0057379D01*
X0140095Y0058726D01*
X0134791Y0058726D01*
X0086598Y0106919D01*
X0085669Y0107848D01*
X0084456Y0108350D01*
X0084403Y0108350D01*
X0083678Y0110099D01*
X0081713Y0112064D01*
X0079146Y0113128D01*
X0066997Y0113128D01*
X0064430Y0112064D01*
X0062465Y0110099D01*
X0061402Y0107532D01*
X0061402Y0104753D01*
X0062465Y0102186D01*
X0064430Y0100221D01*
X0066997Y0099157D01*
X0079146Y0099157D01*
X0081713Y0100221D01*
X0082838Y0101345D01*
X0130843Y0053341D01*
X0130843Y0049473D01*
X0132190Y0048126D01*
X0140095Y0048126D01*
X0141102Y0049132D02*
X0198726Y0049132D01*
X0199330Y0049731D02*
X0141443Y0049731D01*
X0141443Y0050329D02*
X0199934Y0050329D01*
X0200538Y0050928D02*
X0141443Y0050928D01*
X0141443Y0051526D02*
X0201142Y0051526D01*
X0201745Y0052125D02*
X0141443Y0052125D01*
X0141443Y0052723D02*
X0202349Y0052723D01*
X0202953Y0053322D02*
X0198651Y0053322D01*
X0197532Y0052858D02*
X0200099Y0053922D01*
X0202064Y0055887D01*
X0203128Y0058454D01*
X0203128Y0070603D01*
X0202064Y0073170D01*
X0200099Y0075135D01*
X0197532Y0076198D01*
X0194753Y0076198D01*
X0192186Y0075135D01*
X0190221Y0073170D01*
X0189157Y0070603D01*
X0189157Y0058454D01*
X0190221Y0055887D01*
X0192186Y0053922D01*
X0194753Y0052858D01*
X0197532Y0052858D01*
X0200096Y0053920D02*
X0203557Y0053920D01*
X0204161Y0054519D02*
X0200696Y0054519D01*
X0201295Y0055117D02*
X0204765Y0055117D01*
X0205369Y0055716D02*
X0201893Y0055716D01*
X0202241Y0056314D02*
X0205851Y0056314D01*
X0206328Y0056913D02*
X0202489Y0056913D01*
X0202737Y0057511D02*
X0206806Y0057511D01*
X0207284Y0058110D02*
X0202985Y0058110D01*
X0203128Y0058708D02*
X0207761Y0058708D01*
X0208239Y0059307D02*
X0203128Y0059307D01*
X0203128Y0059905D02*
X0208717Y0059905D01*
X0209194Y0060504D02*
X0203128Y0060504D01*
X0203128Y0061103D02*
X0209672Y0061103D01*
X0210150Y0061701D02*
X0203128Y0061701D01*
X0203128Y0062300D02*
X0210627Y0062300D01*
X0211105Y0062898D02*
X0203128Y0062898D01*
X0203128Y0063497D02*
X0211583Y0063497D01*
X0212060Y0064095D02*
X0203128Y0064095D01*
X0203128Y0064694D02*
X0212446Y0064694D01*
X0212819Y0065292D02*
X0203128Y0065292D01*
X0203128Y0065891D02*
X0213192Y0065891D01*
X0213565Y0066489D02*
X0203128Y0066489D01*
X0203128Y0067088D02*
X0213938Y0067088D01*
X0214311Y0067686D02*
X0203128Y0067686D01*
X0203128Y0068285D02*
X0214684Y0068285D01*
X0215057Y0068883D02*
X0203128Y0068883D01*
X0203128Y0069482D02*
X0215429Y0069482D01*
X0215802Y0070080D02*
X0203128Y0070080D01*
X0203096Y0070679D02*
X0216175Y0070679D01*
X0216548Y0071277D02*
X0202848Y0071277D01*
X0202600Y0071876D02*
X0216921Y0071876D01*
X0217294Y0072474D02*
X0202352Y0072474D01*
X0202104Y0073073D02*
X0217667Y0073073D01*
X0217988Y0073671D02*
X0201563Y0073671D01*
X0200964Y0074270D02*
X0218271Y0074270D01*
X0218553Y0074868D02*
X0200366Y0074868D01*
X0199298Y0075467D02*
X0218835Y0075467D01*
X0219118Y0076065D02*
X0197853Y0076065D01*
X0194432Y0076065D02*
X0178168Y0076065D01*
X0177847Y0076198D02*
X0175068Y0076198D01*
X0172501Y0075135D01*
X0170536Y0073170D01*
X0169472Y0070603D01*
X0169472Y0058454D01*
X0170536Y0055887D01*
X0172501Y0053922D01*
X0175068Y0052858D01*
X0177847Y0052858D01*
X0180414Y0053922D01*
X0182379Y0055887D01*
X0183443Y0058454D01*
X0183443Y0070603D01*
X0182379Y0073170D01*
X0180414Y0075135D01*
X0177847Y0076198D01*
X0179613Y0075467D02*
X0192987Y0075467D01*
X0191919Y0074868D02*
X0180681Y0074868D01*
X0181279Y0074270D02*
X0191321Y0074270D01*
X0190722Y0073671D02*
X0181878Y0073671D01*
X0182419Y0073073D02*
X0190181Y0073073D01*
X0189933Y0072474D02*
X0182667Y0072474D01*
X0182915Y0071876D02*
X0189685Y0071876D01*
X0189437Y0071277D02*
X0183163Y0071277D01*
X0183411Y0070679D02*
X0189189Y0070679D01*
X0189157Y0070080D02*
X0183443Y0070080D01*
X0183443Y0069482D02*
X0189157Y0069482D01*
X0189157Y0068883D02*
X0183443Y0068883D01*
X0183443Y0068285D02*
X0189157Y0068285D01*
X0189157Y0067686D02*
X0183443Y0067686D01*
X0183443Y0067088D02*
X0189157Y0067088D01*
X0189157Y0066489D02*
X0183443Y0066489D01*
X0183443Y0065891D02*
X0189157Y0065891D01*
X0189157Y0065292D02*
X0183443Y0065292D01*
X0183443Y0064694D02*
X0189157Y0064694D01*
X0189157Y0064095D02*
X0183443Y0064095D01*
X0183443Y0063497D02*
X0189157Y0063497D01*
X0189157Y0062898D02*
X0183443Y0062898D01*
X0183443Y0062300D02*
X0189157Y0062300D01*
X0189157Y0061701D02*
X0183443Y0061701D01*
X0183443Y0061103D02*
X0189157Y0061103D01*
X0189157Y0060504D02*
X0183443Y0060504D01*
X0183443Y0059905D02*
X0189157Y0059905D01*
X0189157Y0059307D02*
X0183443Y0059307D01*
X0183443Y0058708D02*
X0189157Y0058708D01*
X0189300Y0058110D02*
X0183300Y0058110D01*
X0183052Y0057511D02*
X0189548Y0057511D01*
X0189796Y0056913D02*
X0182804Y0056913D01*
X0182556Y0056314D02*
X0190044Y0056314D01*
X0190392Y0055716D02*
X0182208Y0055716D01*
X0181610Y0055117D02*
X0190990Y0055117D01*
X0191589Y0054519D02*
X0181011Y0054519D01*
X0180411Y0053920D02*
X0192189Y0053920D01*
X0193634Y0053322D02*
X0178966Y0053322D01*
X0173949Y0053322D02*
X0141443Y0053322D01*
X0141443Y0053920D02*
X0172504Y0053920D01*
X0171904Y0054519D02*
X0141443Y0054519D01*
X0141443Y0055117D02*
X0171305Y0055117D01*
X0170707Y0055716D02*
X0141443Y0055716D01*
X0141443Y0056314D02*
X0170359Y0056314D01*
X0170111Y0056913D02*
X0141443Y0056913D01*
X0141310Y0057511D02*
X0169863Y0057511D01*
X0169615Y0058110D02*
X0140711Y0058110D01*
X0140113Y0058708D02*
X0169472Y0058708D01*
X0169472Y0059307D02*
X0134210Y0059307D01*
X0133611Y0059905D02*
X0169472Y0059905D01*
X0169472Y0060504D02*
X0133013Y0060504D01*
X0132414Y0061103D02*
X0169472Y0061103D01*
X0169472Y0061701D02*
X0131816Y0061701D01*
X0131217Y0062300D02*
X0169472Y0062300D01*
X0169472Y0062898D02*
X0130619Y0062898D01*
X0130020Y0063497D02*
X0169472Y0063497D01*
X0169472Y0064095D02*
X0129422Y0064095D01*
X0128823Y0064694D02*
X0169472Y0064694D01*
X0169472Y0065292D02*
X0128225Y0065292D01*
X0127626Y0065891D02*
X0169472Y0065891D01*
X0169472Y0066489D02*
X0127028Y0066489D01*
X0126429Y0067088D02*
X0169472Y0067088D01*
X0169472Y0067686D02*
X0125831Y0067686D01*
X0125232Y0068285D02*
X0169472Y0068285D01*
X0169472Y0068883D02*
X0124634Y0068883D01*
X0124035Y0069482D02*
X0169472Y0069482D01*
X0169472Y0070080D02*
X0123437Y0070080D01*
X0122838Y0070679D02*
X0169504Y0070679D01*
X0169752Y0071277D02*
X0122240Y0071277D01*
X0121641Y0071876D02*
X0170000Y0071876D01*
X0170248Y0072474D02*
X0121043Y0072474D01*
X0120444Y0073073D02*
X0170496Y0073073D01*
X0171037Y0073671D02*
X0119846Y0073671D01*
X0119247Y0074270D02*
X0171636Y0074270D01*
X0172234Y0074868D02*
X0118649Y0074868D01*
X0118050Y0075467D02*
X0173302Y0075467D01*
X0174747Y0076065D02*
X0151549Y0076065D01*
X0151806Y0076172D02*
X0152678Y0077044D01*
X0153150Y0078183D01*
X0153150Y0079417D01*
X0152678Y0080556D01*
X0151806Y0081428D01*
X0150667Y0081900D01*
X0149637Y0081900D01*
X0085700Y0145837D01*
X0084587Y0146950D01*
X0083742Y0146950D01*
X0083742Y0147333D01*
X0082831Y0149533D01*
X0081147Y0151216D01*
X0078947Y0152128D01*
X0067196Y0152128D01*
X0064996Y0151216D01*
X0063313Y0149533D01*
X0062402Y0147333D01*
X0062402Y0144952D01*
X0063313Y0142752D01*
X0064996Y0141069D01*
X0067196Y0140157D01*
X0078947Y0140157D01*
X0081147Y0141069D01*
X0082831Y0142752D01*
X0082995Y0143150D01*
X0083013Y0143150D01*
X0146950Y0079213D01*
X0146950Y0078183D01*
X0147422Y0077044D01*
X0148294Y0076172D01*
X0149433Y0075700D01*
X0150667Y0075700D01*
X0151806Y0076172D01*
X0152298Y0076664D02*
X0219400Y0076664D01*
X0219683Y0077262D02*
X0152768Y0077262D01*
X0153016Y0077861D02*
X0219965Y0077861D01*
X0220247Y0078459D02*
X0153150Y0078459D01*
X0153150Y0079058D02*
X0220530Y0079058D01*
X0220812Y0079656D02*
X0153051Y0079656D01*
X0152803Y0080255D02*
X0221095Y0080255D01*
X0221377Y0080853D02*
X0152381Y0080853D01*
X0151748Y0081452D02*
X0221659Y0081452D01*
X0221942Y0082050D02*
X0149487Y0082050D01*
X0148888Y0082649D02*
X0222224Y0082649D01*
X0222485Y0083247D02*
X0148290Y0083247D01*
X0147691Y0083846D02*
X0222687Y0083846D01*
X0222888Y0084444D02*
X0147093Y0084444D01*
X0146494Y0085043D02*
X0223089Y0085043D01*
X0223291Y0085641D02*
X0145895Y0085641D01*
X0145297Y0086240D02*
X0223492Y0086240D01*
X0223693Y0086839D02*
X0144698Y0086839D01*
X0144100Y0087437D02*
X0223895Y0087437D01*
X0224096Y0088036D02*
X0143501Y0088036D01*
X0142903Y0088634D02*
X0224297Y0088634D01*
X0224499Y0089233D02*
X0142304Y0089233D01*
X0141706Y0089831D02*
X0224700Y0089831D01*
X0224901Y0090430D02*
X0173757Y0090430D01*
X0173214Y0090205D02*
X0175078Y0090977D01*
X0176505Y0092404D01*
X0177277Y0094268D01*
X0177277Y0096285D01*
X0176505Y0098149D01*
X0175078Y0099576D01*
X0173214Y0100348D01*
X0171197Y0100348D01*
X0169333Y0099576D01*
X0167906Y0098149D01*
X0167134Y0096285D01*
X0167134Y0094268D01*
X0167906Y0092404D01*
X0169333Y0090977D01*
X0171197Y0090205D01*
X0173214Y0090205D01*
X0175130Y0091028D02*
X0225103Y0091028D01*
X0225304Y0091627D02*
X0221278Y0091627D01*
X0221756Y0091825D02*
X0220260Y0091205D01*
X0218640Y0091205D01*
X0217143Y0091825D01*
X0215998Y0092970D01*
X0215378Y0094466D01*
X0215378Y0096086D01*
X0215998Y0097583D01*
X0217143Y0098728D01*
X0218640Y0099348D01*
X0220260Y0099348D01*
X0221756Y0098728D01*
X0222901Y0097583D01*
X0223521Y0096086D01*
X0223521Y0094466D01*
X0222901Y0092970D01*
X0221756Y0091825D01*
X0222157Y0092225D02*
X0225505Y0092225D01*
X0225707Y0092824D02*
X0222755Y0092824D01*
X0223089Y0093422D02*
X0225896Y0093422D01*
X0226022Y0094021D02*
X0223337Y0094021D01*
X0223521Y0094619D02*
X0226148Y0094619D01*
X0226275Y0095218D02*
X0223521Y0095218D01*
X0223521Y0095816D02*
X0226401Y0095816D01*
X0226528Y0096415D02*
X0223385Y0096415D01*
X0223137Y0097013D02*
X0226654Y0097013D01*
X0226780Y0097612D02*
X0222872Y0097612D01*
X0222274Y0098210D02*
X0226907Y0098210D01*
X0227033Y0098809D02*
X0221561Y0098809D01*
X0217338Y0098809D02*
X0175846Y0098809D01*
X0176444Y0098210D02*
X0216625Y0098210D01*
X0216027Y0097612D02*
X0176728Y0097612D01*
X0176976Y0097013D02*
X0215762Y0097013D01*
X0215514Y0096415D02*
X0177224Y0096415D01*
X0177277Y0095816D02*
X0215378Y0095816D01*
X0215378Y0095218D02*
X0177277Y0095218D01*
X0177277Y0094619D02*
X0215378Y0094619D01*
X0215563Y0094021D02*
X0177175Y0094021D01*
X0176927Y0093422D02*
X0215811Y0093422D01*
X0216144Y0092824D02*
X0176679Y0092824D01*
X0176327Y0092225D02*
X0216743Y0092225D01*
X0217621Y0091627D02*
X0175728Y0091627D01*
X0170654Y0090430D02*
X0141107Y0090430D01*
X0140509Y0091028D02*
X0169281Y0091028D01*
X0168683Y0091627D02*
X0139910Y0091627D01*
X0139312Y0092225D02*
X0168084Y0092225D01*
X0167732Y0092824D02*
X0138713Y0092824D01*
X0138115Y0093422D02*
X0167484Y0093422D01*
X0167236Y0094021D02*
X0137516Y0094021D01*
X0136918Y0094619D02*
X0167134Y0094619D01*
X0167134Y0095218D02*
X0136319Y0095218D01*
X0135721Y0095816D02*
X0167134Y0095816D01*
X0167188Y0096415D02*
X0135122Y0096415D01*
X0134524Y0097013D02*
X0167435Y0097013D01*
X0167683Y0097612D02*
X0133925Y0097612D01*
X0133327Y0098210D02*
X0167967Y0098210D01*
X0168565Y0098809D02*
X0132728Y0098809D01*
X0132130Y0099407D02*
X0169164Y0099407D01*
X0170370Y0100006D02*
X0131531Y0100006D01*
X0130933Y0100604D02*
X0227412Y0100604D01*
X0227286Y0100006D02*
X0174041Y0100006D01*
X0175247Y0099407D02*
X0227160Y0099407D01*
X0227539Y0101203D02*
X0130334Y0101203D01*
X0129736Y0101801D02*
X0227665Y0101801D01*
X0227792Y0102400D02*
X0129137Y0102400D01*
X0128539Y0102998D02*
X0227918Y0102998D01*
X0228044Y0103597D02*
X0127940Y0103597D01*
X0127342Y0104195D02*
X0228133Y0104195D01*
X0228189Y0104794D02*
X0126743Y0104794D01*
X0126145Y0105392D02*
X0228244Y0105392D01*
X0228299Y0105991D02*
X0125546Y0105991D01*
X0124948Y0106589D02*
X0228354Y0106589D01*
X0228409Y0107188D02*
X0124349Y0107188D01*
X0123751Y0107786D02*
X0228464Y0107786D01*
X0228519Y0108385D02*
X0123152Y0108385D01*
X0122554Y0108983D02*
X0228574Y0108983D01*
X0228629Y0109582D02*
X0121955Y0109582D01*
X0121357Y0110180D02*
X0228684Y0110180D01*
X0228739Y0110779D02*
X0120758Y0110779D01*
X0120160Y0111377D02*
X0228795Y0111377D01*
X0228850Y0111976D02*
X0119561Y0111976D01*
X0118962Y0112574D02*
X0228905Y0112574D01*
X0228960Y0113173D02*
X0118364Y0113173D01*
X0117765Y0113772D02*
X0229015Y0113772D01*
X0229070Y0114370D02*
X0117167Y0114370D01*
X0116568Y0114969D02*
X0229086Y0114969D01*
X0229071Y0115567D02*
X0115970Y0115567D01*
X0115371Y0116166D02*
X0229056Y0116166D01*
X0229041Y0116764D02*
X0114773Y0116764D01*
X0114174Y0117363D02*
X0229027Y0117363D01*
X0229012Y0117961D02*
X0113576Y0117961D01*
X0112977Y0118560D02*
X0228997Y0118560D01*
X0228983Y0119158D02*
X0112379Y0119158D01*
X0111780Y0119757D02*
X0228968Y0119757D01*
X0228953Y0120355D02*
X0111182Y0120355D01*
X0110583Y0120954D02*
X0228938Y0120954D01*
X0228924Y0121552D02*
X0109985Y0121552D01*
X0109386Y0122151D02*
X0228909Y0122151D01*
X0228894Y0122749D02*
X0108788Y0122749D01*
X0108189Y0123348D02*
X0228880Y0123348D01*
X0228865Y0123946D02*
X0107591Y0123946D01*
X0106992Y0124545D02*
X0228850Y0124545D01*
X0228835Y0125143D02*
X0106394Y0125143D01*
X0105795Y0125742D02*
X0228783Y0125742D01*
X0228698Y0126340D02*
X0105197Y0126340D01*
X0104598Y0126939D02*
X0228613Y0126939D01*
X0228528Y0127537D02*
X0104000Y0127537D01*
X0103401Y0128136D02*
X0228443Y0128136D01*
X0228358Y0128734D02*
X0102803Y0128734D01*
X0102204Y0129333D02*
X0228273Y0129333D01*
X0228189Y0129931D02*
X0101606Y0129931D01*
X0101007Y0130530D02*
X0228104Y0130530D01*
X0228019Y0131128D02*
X0111701Y0131128D01*
X0111806Y0131172D02*
X0112678Y0132044D01*
X0113150Y0133183D01*
X0113150Y0134213D01*
X0123250Y0144313D01*
X0123672Y0143294D01*
X0124544Y0142422D01*
X0125683Y0141950D01*
X0126917Y0141950D01*
X0128056Y0142422D01*
X0128928Y0143294D01*
X0129400Y0144433D01*
X0129400Y0145463D01*
X0130837Y0146900D01*
X0185513Y0146900D01*
X0191900Y0140513D01*
X0193013Y0139400D01*
X0216812Y0139400D01*
X0217143Y0139069D01*
X0218640Y0138449D01*
X0220260Y0138449D01*
X0221756Y0139069D01*
X0222901Y0140214D01*
X0223521Y0141711D01*
X0223521Y0143330D01*
X0222901Y0144827D01*
X0221756Y0145972D01*
X0220260Y0146592D01*
X0218640Y0146592D01*
X0217143Y0145972D01*
X0215998Y0144827D01*
X0215378Y0143330D01*
X0215378Y0143200D01*
X0194587Y0143200D01*
X0187087Y0150700D01*
X0159450Y0150700D01*
X0159450Y0164874D01*
X0160153Y0164874D01*
X0160915Y0165636D01*
X0160915Y0172712D01*
X0160153Y0173474D01*
X0153076Y0173474D01*
X0152315Y0172712D01*
X0152315Y0165636D01*
X0153076Y0164874D01*
X0155650Y0164874D01*
X0155650Y0150700D01*
X0129637Y0150700D01*
X0153337Y0174400D01*
X0174263Y0174400D01*
X0177442Y0171221D01*
X0177000Y0170155D01*
X0177000Y0162445D01*
X0177655Y0160864D01*
X0178864Y0159655D01*
X0180445Y0159000D01*
X0182155Y0159000D01*
X0183736Y0159655D01*
X0184945Y0160864D01*
X0185600Y0162445D01*
X0185600Y0170155D01*
X0184945Y0171736D01*
X0183736Y0172945D01*
X0182155Y0173600D01*
X0180445Y0173600D01*
X0180439Y0173598D01*
X0177137Y0176900D01*
X0181763Y0176900D01*
X0187442Y0171221D01*
X0187000Y0170155D01*
X0187000Y0162445D01*
X0187655Y0160864D01*
X0188864Y0159655D01*
X0190445Y0159000D01*
X0192155Y0159000D01*
X0193736Y0159655D01*
X0194945Y0160864D01*
X0195600Y0162445D01*
X0195600Y0170155D01*
X0194945Y0171736D01*
X0193736Y0172945D01*
X0192155Y0173600D01*
X0190445Y0173600D01*
X0190439Y0173598D01*
X0183337Y0180700D01*
X0146763Y0180700D01*
X0145650Y0179587D01*
X0105463Y0139400D01*
X0104433Y0139400D01*
X0103294Y0138928D01*
X0102422Y0138056D01*
X0101950Y0136917D01*
X0101950Y0135683D01*
X0102422Y0134544D01*
X0103294Y0133672D01*
X0104433Y0133200D01*
X0105667Y0133200D01*
X0106806Y0133672D01*
X0106950Y0133816D01*
X0106950Y0133183D01*
X0107422Y0132044D01*
X0108294Y0131172D01*
X0109433Y0130700D01*
X0110667Y0130700D01*
X0111806Y0131172D01*
X0112361Y0131727D02*
X0227934Y0131727D01*
X0227849Y0132325D02*
X0112795Y0132325D01*
X0113042Y0132924D02*
X0227764Y0132924D01*
X0227679Y0133522D02*
X0113150Y0133522D01*
X0113150Y0134121D02*
X0227594Y0134121D01*
X0227509Y0134719D02*
X0113656Y0134719D01*
X0114255Y0135318D02*
X0227424Y0135318D01*
X0227340Y0135916D02*
X0114853Y0135916D01*
X0115452Y0136515D02*
X0227205Y0136515D01*
X0227047Y0137113D02*
X0116050Y0137113D01*
X0116649Y0137712D02*
X0226890Y0137712D01*
X0226733Y0138310D02*
X0117247Y0138310D01*
X0117846Y0138909D02*
X0170285Y0138909D01*
X0169899Y0139069D02*
X0171396Y0138449D01*
X0173015Y0138449D01*
X0174512Y0139069D01*
X0175657Y0140214D01*
X0176277Y0141711D01*
X0176277Y0143330D01*
X0175657Y0144827D01*
X0174512Y0145972D01*
X0173015Y0146592D01*
X0171396Y0146592D01*
X0169899Y0145972D01*
X0168754Y0144827D01*
X0168134Y0143330D01*
X0168134Y0141711D01*
X0168754Y0140214D01*
X0169899Y0139069D01*
X0169460Y0139508D02*
X0118444Y0139508D01*
X0119043Y0140106D02*
X0168862Y0140106D01*
X0168551Y0140705D02*
X0119642Y0140705D01*
X0120240Y0141303D02*
X0168303Y0141303D01*
X0168134Y0141902D02*
X0120839Y0141902D01*
X0121437Y0142500D02*
X0124466Y0142500D01*
X0123867Y0143099D02*
X0122036Y0143099D01*
X0122634Y0143697D02*
X0123505Y0143697D01*
X0123257Y0144296D02*
X0123233Y0144296D01*
X0128134Y0142500D02*
X0168134Y0142500D01*
X0168134Y0143099D02*
X0128733Y0143099D01*
X0129095Y0143697D02*
X0168286Y0143697D01*
X0168534Y0144296D02*
X0129343Y0144296D01*
X0129400Y0144894D02*
X0168821Y0144894D01*
X0169419Y0145493D02*
X0129430Y0145493D01*
X0130028Y0146091D02*
X0170186Y0146091D01*
X0174225Y0146091D02*
X0186322Y0146091D01*
X0186920Y0145493D02*
X0174992Y0145493D01*
X0175590Y0144894D02*
X0187519Y0144894D01*
X0188117Y0144296D02*
X0175877Y0144296D01*
X0176125Y0143697D02*
X0188716Y0143697D01*
X0189314Y0143099D02*
X0176277Y0143099D01*
X0176277Y0142500D02*
X0189913Y0142500D01*
X0190511Y0141902D02*
X0176277Y0141902D01*
X0176108Y0141303D02*
X0191110Y0141303D01*
X0191708Y0140705D02*
X0175860Y0140705D01*
X0175549Y0140106D02*
X0192307Y0140106D01*
X0192905Y0139508D02*
X0174951Y0139508D01*
X0174126Y0138909D02*
X0217529Y0138909D01*
X0221370Y0138909D02*
X0226575Y0138909D01*
X0226418Y0139508D02*
X0222195Y0139508D01*
X0222793Y0140106D02*
X0226260Y0140106D01*
X0226103Y0140705D02*
X0223105Y0140705D01*
X0223352Y0141303D02*
X0225945Y0141303D01*
X0225788Y0141902D02*
X0223521Y0141902D01*
X0223521Y0142500D02*
X0225630Y0142500D01*
X0225473Y0143099D02*
X0223521Y0143099D01*
X0223369Y0143697D02*
X0225315Y0143697D01*
X0225158Y0144296D02*
X0223121Y0144296D01*
X0222834Y0144894D02*
X0225000Y0144894D01*
X0224843Y0145493D02*
X0222236Y0145493D01*
X0221469Y0146091D02*
X0224685Y0146091D01*
X0224509Y0146690D02*
X0199573Y0146690D01*
X0198975Y0146091D02*
X0217430Y0146091D01*
X0216664Y0145493D02*
X0197761Y0145493D01*
X0196876Y0145126D02*
X0198812Y0145928D01*
X0200294Y0147410D01*
X0201096Y0149347D01*
X0201096Y0151442D01*
X0200294Y0153379D01*
X0198812Y0154861D01*
X0196876Y0155663D01*
X0194780Y0155663D01*
X0192843Y0154861D01*
X0191361Y0153379D01*
X0190559Y0151442D01*
X0190559Y0149347D01*
X0191361Y0147410D01*
X0192843Y0145928D01*
X0194780Y0145126D01*
X0196876Y0145126D01*
X0193894Y0145493D02*
X0192294Y0145493D01*
X0192680Y0146091D02*
X0191696Y0146091D01*
X0192082Y0146690D02*
X0191097Y0146690D01*
X0191483Y0147288D02*
X0190499Y0147288D01*
X0189900Y0147887D02*
X0191164Y0147887D01*
X0190916Y0148485D02*
X0189302Y0148485D01*
X0188703Y0149084D02*
X0190668Y0149084D01*
X0190559Y0149682D02*
X0188105Y0149682D01*
X0187506Y0150281D02*
X0190559Y0150281D01*
X0190559Y0150879D02*
X0159450Y0150879D01*
X0159450Y0151478D02*
X0190574Y0151478D01*
X0190822Y0152076D02*
X0159450Y0152076D01*
X0159450Y0152675D02*
X0191069Y0152675D01*
X0191317Y0153273D02*
X0159450Y0153273D01*
X0159450Y0153872D02*
X0191854Y0153872D01*
X0192453Y0154470D02*
X0159450Y0154470D01*
X0159450Y0155069D02*
X0193345Y0155069D01*
X0198310Y0155069D02*
X0221224Y0155069D01*
X0220989Y0155667D02*
X0159450Y0155667D01*
X0159450Y0156266D02*
X0220755Y0156266D01*
X0220481Y0156864D02*
X0159450Y0156864D01*
X0159450Y0157463D02*
X0220162Y0157463D01*
X0219843Y0158061D02*
X0159450Y0158061D01*
X0159450Y0158660D02*
X0219524Y0158660D01*
X0219205Y0159258D02*
X0212779Y0159258D01*
X0213938Y0159857D02*
X0218885Y0159857D01*
X0218566Y0160455D02*
X0214537Y0160455D01*
X0215024Y0161054D02*
X0218247Y0161054D01*
X0217928Y0161652D02*
X0215272Y0161652D01*
X0215520Y0162251D02*
X0217608Y0162251D01*
X0217289Y0162849D02*
X0215600Y0162849D01*
X0215600Y0163448D02*
X0216970Y0163448D01*
X0216651Y0164046D02*
X0215600Y0164046D01*
X0215600Y0164645D02*
X0216332Y0164645D01*
X0216012Y0165243D02*
X0215600Y0165243D01*
X0215600Y0165842D02*
X0215693Y0165842D01*
X0207000Y0165842D02*
X0205600Y0165842D01*
X0205600Y0166000D02*
X0201600Y0166000D01*
X0201600Y0166600D01*
X0205600Y0166600D01*
X0205600Y0169638D01*
X0205494Y0170307D01*
X0205285Y0170951D01*
X0204978Y0171554D01*
X0204580Y0172101D01*
X0204101Y0172580D01*
X0203554Y0172978D01*
X0202951Y0173285D01*
X0202307Y0173494D01*
X0201638Y0173600D01*
X0201600Y0173600D01*
X0201600Y0166600D01*
X0201000Y0166600D01*
X0201000Y0173600D01*
X0200962Y0173600D01*
X0200293Y0173494D01*
X0199649Y0173285D01*
X0199046Y0172978D01*
X0198499Y0172580D01*
X0198020Y0172101D01*
X0197622Y0171554D01*
X0197315Y0170951D01*
X0197106Y0170307D01*
X0197000Y0169638D01*
X0197000Y0166600D01*
X0201000Y0166600D01*
X0201000Y0166000D01*
X0201600Y0166000D01*
X0201600Y0159000D01*
X0201638Y0159000D01*
X0202307Y0159106D01*
X0202951Y0159315D01*
X0203554Y0159622D01*
X0204101Y0160020D01*
X0204580Y0160499D01*
X0204978Y0161046D01*
X0205285Y0161649D01*
X0205494Y0162293D01*
X0205600Y0162962D01*
X0205600Y0166000D01*
X0205600Y0165243D02*
X0207000Y0165243D01*
X0207000Y0164645D02*
X0205600Y0164645D01*
X0205600Y0164046D02*
X0207000Y0164046D01*
X0207000Y0163448D02*
X0205600Y0163448D01*
X0205582Y0162849D02*
X0207000Y0162849D01*
X0207080Y0162251D02*
X0205480Y0162251D01*
X0205286Y0161652D02*
X0207328Y0161652D01*
X0207576Y0161054D02*
X0204982Y0161054D01*
X0204537Y0160455D02*
X0208063Y0160455D01*
X0208662Y0159857D02*
X0203877Y0159857D01*
X0202776Y0159258D02*
X0209821Y0159258D01*
X0207000Y0166441D02*
X0201600Y0166441D01*
X0201600Y0167039D02*
X0201000Y0167039D01*
X0201000Y0166441D02*
X0195600Y0166441D01*
X0195600Y0167039D02*
X0197000Y0167039D01*
X0197000Y0167638D02*
X0195600Y0167638D01*
X0195600Y0168236D02*
X0197000Y0168236D01*
X0197000Y0168835D02*
X0195600Y0168835D01*
X0195600Y0169433D02*
X0197000Y0169433D01*
X0197062Y0170032D02*
X0195600Y0170032D01*
X0195403Y0170630D02*
X0197211Y0170630D01*
X0197457Y0171229D02*
X0195155Y0171229D01*
X0194854Y0171827D02*
X0197821Y0171827D01*
X0198345Y0172426D02*
X0194255Y0172426D01*
X0193546Y0173024D02*
X0199137Y0173024D01*
X0201000Y0173024D02*
X0201600Y0173024D01*
X0201600Y0172426D02*
X0201000Y0172426D01*
X0201000Y0171827D02*
X0201600Y0171827D01*
X0201600Y0171229D02*
X0201000Y0171229D01*
X0201000Y0170630D02*
X0201600Y0170630D01*
X0201600Y0170032D02*
X0201000Y0170032D01*
X0201000Y0169433D02*
X0201600Y0169433D01*
X0201600Y0168835D02*
X0201000Y0168835D01*
X0201000Y0168236D02*
X0201600Y0168236D01*
X0201600Y0167638D02*
X0201000Y0167638D01*
X0201000Y0166000D02*
X0197000Y0166000D01*
X0197000Y0162962D01*
X0197106Y0162293D01*
X0197315Y0161649D01*
X0197622Y0161046D01*
X0198020Y0160499D01*
X0198499Y0160020D01*
X0199046Y0159622D01*
X0199649Y0159315D01*
X0200293Y0159106D01*
X0200962Y0159000D01*
X0201000Y0159000D01*
X0201000Y0166000D01*
X0201000Y0165842D02*
X0201600Y0165842D01*
X0201600Y0165243D02*
X0201000Y0165243D01*
X0201000Y0164645D02*
X0201600Y0164645D01*
X0201600Y0164046D02*
X0201000Y0164046D01*
X0201000Y0163448D02*
X0201600Y0163448D01*
X0201600Y0162849D02*
X0201000Y0162849D01*
X0201000Y0162251D02*
X0201600Y0162251D01*
X0201600Y0161652D02*
X0201000Y0161652D01*
X0201000Y0161054D02*
X0201600Y0161054D01*
X0201600Y0160455D02*
X0201000Y0160455D01*
X0201000Y0159857D02*
X0201600Y0159857D01*
X0201600Y0159258D02*
X0201000Y0159258D01*
X0199824Y0159258D02*
X0192779Y0159258D01*
X0193938Y0159857D02*
X0198723Y0159857D01*
X0198063Y0160455D02*
X0194537Y0160455D01*
X0195024Y0161054D02*
X0197618Y0161054D01*
X0197314Y0161652D02*
X0195272Y0161652D01*
X0195520Y0162251D02*
X0197120Y0162251D01*
X0197018Y0162849D02*
X0195600Y0162849D01*
X0195600Y0163448D02*
X0197000Y0163448D01*
X0197000Y0164046D02*
X0195600Y0164046D01*
X0195600Y0164645D02*
X0197000Y0164645D01*
X0197000Y0165243D02*
X0195600Y0165243D01*
X0195600Y0165842D02*
X0197000Y0165842D01*
X0205600Y0167039D02*
X0207000Y0167039D01*
X0207000Y0167638D02*
X0205600Y0167638D01*
X0205600Y0168236D02*
X0207000Y0168236D01*
X0207000Y0168835D02*
X0205600Y0168835D01*
X0205600Y0169433D02*
X0207000Y0169433D01*
X0207000Y0170032D02*
X0205538Y0170032D01*
X0205389Y0170630D02*
X0207197Y0170630D01*
X0207445Y0171229D02*
X0205143Y0171229D01*
X0204779Y0171827D02*
X0207746Y0171827D01*
X0208345Y0172426D02*
X0204255Y0172426D01*
X0203463Y0173024D02*
X0209054Y0173024D01*
X0210341Y0173623D02*
X0190414Y0173623D01*
X0189816Y0174221D02*
X0209926Y0174221D01*
X0209511Y0174820D02*
X0189217Y0174820D01*
X0188619Y0175418D02*
X0209014Y0175418D01*
X0208486Y0176017D02*
X0188020Y0176017D01*
X0187422Y0176615D02*
X0207958Y0176615D01*
X0207431Y0177214D02*
X0186823Y0177214D01*
X0186225Y0177812D02*
X0206903Y0177812D01*
X0206375Y0178411D02*
X0185626Y0178411D01*
X0185028Y0179009D02*
X0205847Y0179009D01*
X0205319Y0179608D02*
X0184429Y0179608D01*
X0183831Y0180206D02*
X0204792Y0180206D01*
X0204264Y0180805D02*
X0077849Y0180805D01*
X0078414Y0181403D02*
X0203736Y0181403D01*
X0203208Y0182002D02*
X0078979Y0182002D01*
X0079543Y0182600D02*
X0202680Y0182600D01*
X0202132Y0183199D02*
X0080122Y0183199D01*
X0080795Y0183797D02*
X0201504Y0183797D01*
X0200875Y0184396D02*
X0081467Y0184396D01*
X0082140Y0184994D02*
X0200246Y0184994D01*
X0199618Y0185593D02*
X0082812Y0185593D01*
X0077285Y0180206D02*
X0146269Y0180206D01*
X0145671Y0179608D02*
X0076720Y0179608D01*
X0076155Y0179009D02*
X0145072Y0179009D01*
X0144474Y0178411D02*
X0075591Y0178411D01*
X0075026Y0177812D02*
X0143875Y0177812D01*
X0143277Y0177214D02*
X0074461Y0177214D01*
X0073897Y0176615D02*
X0142678Y0176615D01*
X0142080Y0176017D02*
X0073332Y0176017D01*
X0072767Y0175418D02*
X0141481Y0175418D01*
X0140883Y0174820D02*
X0072293Y0174820D01*
X0071847Y0174221D02*
X0140284Y0174221D01*
X0139686Y0173623D02*
X0071402Y0173623D01*
X0070956Y0173024D02*
X0091997Y0173024D01*
X0091945Y0172972D02*
X0091774Y0172676D01*
X0091685Y0172345D01*
X0091685Y0169474D01*
X0095685Y0169474D01*
X0095685Y0168874D01*
X0091685Y0168874D01*
X0091685Y0166003D01*
X0091774Y0165672D01*
X0091945Y0165376D01*
X0092187Y0165134D01*
X0092483Y0164963D01*
X0092814Y0164874D01*
X0095685Y0164874D01*
X0095685Y0168874D01*
X0096285Y0168874D01*
X0096285Y0164874D01*
X0099156Y0164874D01*
X0099487Y0164963D01*
X0099783Y0165134D01*
X0100025Y0165376D01*
X0100196Y0165672D01*
X0100285Y0166003D01*
X0100285Y0168874D01*
X0096285Y0168874D01*
X0096285Y0169474D01*
X0095685Y0169474D01*
X0095685Y0173474D01*
X0092814Y0173474D01*
X0092483Y0173385D01*
X0092187Y0173214D01*
X0091945Y0172972D01*
X0091707Y0172426D02*
X0070511Y0172426D01*
X0070065Y0171827D02*
X0091685Y0171827D01*
X0091685Y0171229D02*
X0069619Y0171229D01*
X0069174Y0170630D02*
X0091685Y0170630D01*
X0091685Y0170032D02*
X0068728Y0170032D01*
X0068283Y0169433D02*
X0095685Y0169433D01*
X0095685Y0168835D02*
X0096285Y0168835D01*
X0096285Y0169433D02*
X0135496Y0169433D01*
X0134898Y0168835D02*
X0100285Y0168835D01*
X0100285Y0168236D02*
X0134299Y0168236D01*
X0133701Y0167638D02*
X0100285Y0167638D01*
X0100285Y0167039D02*
X0133102Y0167039D01*
X0132504Y0166441D02*
X0100285Y0166441D01*
X0100242Y0165842D02*
X0131905Y0165842D01*
X0131306Y0165243D02*
X0099893Y0165243D01*
X0096285Y0165243D02*
X0095685Y0165243D01*
X0095685Y0165842D02*
X0096285Y0165842D01*
X0096285Y0166441D02*
X0095685Y0166441D01*
X0095685Y0167039D02*
X0096285Y0167039D01*
X0096285Y0167638D02*
X0095685Y0167638D01*
X0095685Y0168236D02*
X0096285Y0168236D01*
X0096285Y0169474D02*
X0100285Y0169474D01*
X0100285Y0172345D01*
X0100196Y0172676D01*
X0100025Y0172972D01*
X0099783Y0173214D01*
X0099487Y0173385D01*
X0099156Y0173474D01*
X0096285Y0173474D01*
X0096285Y0169474D01*
X0096285Y0170032D02*
X0095685Y0170032D01*
X0095685Y0170630D02*
X0096285Y0170630D01*
X0096285Y0171229D02*
X0095685Y0171229D01*
X0095685Y0171827D02*
X0096285Y0171827D01*
X0096285Y0172426D02*
X0095685Y0172426D01*
X0095685Y0173024D02*
X0096285Y0173024D01*
X0099973Y0173024D02*
X0139087Y0173024D01*
X0138489Y0172426D02*
X0100263Y0172426D01*
X0100285Y0171827D02*
X0137890Y0171827D01*
X0137292Y0171229D02*
X0100285Y0171229D01*
X0100285Y0170630D02*
X0136693Y0170630D01*
X0136095Y0170032D02*
X0100285Y0170032D01*
X0091685Y0168835D02*
X0067837Y0168835D01*
X0067392Y0168236D02*
X0091685Y0168236D01*
X0091685Y0167638D02*
X0066946Y0167638D01*
X0066500Y0167039D02*
X0091685Y0167039D01*
X0091685Y0166441D02*
X0066085Y0166441D01*
X0065740Y0165842D02*
X0091728Y0165842D01*
X0092077Y0165243D02*
X0065394Y0165243D01*
X0065048Y0164645D02*
X0130708Y0164645D01*
X0130109Y0164046D02*
X0064703Y0164046D01*
X0064357Y0163448D02*
X0129511Y0163448D01*
X0128912Y0162849D02*
X0064012Y0162849D01*
X0063666Y0162251D02*
X0128314Y0162251D01*
X0127715Y0161652D02*
X0063321Y0161652D01*
X0062975Y0161054D02*
X0127117Y0161054D01*
X0126518Y0160455D02*
X0062630Y0160455D01*
X0062284Y0159857D02*
X0125920Y0159857D01*
X0125321Y0159258D02*
X0061938Y0159258D01*
X0061593Y0158660D02*
X0124723Y0158660D01*
X0124124Y0158061D02*
X0061247Y0158061D01*
X0060902Y0157463D02*
X0123526Y0157463D01*
X0122927Y0156864D02*
X0060617Y0156864D01*
X0060359Y0156266D02*
X0122329Y0156266D01*
X0121730Y0155667D02*
X0060101Y0155667D01*
X0059842Y0155069D02*
X0121132Y0155069D01*
X0120533Y0154470D02*
X0059584Y0154470D01*
X0059326Y0153872D02*
X0119935Y0153872D01*
X0119336Y0153273D02*
X0059068Y0153273D01*
X0058810Y0152675D02*
X0118738Y0152675D01*
X0118139Y0152076D02*
X0079071Y0152076D01*
X0080516Y0151478D02*
X0117541Y0151478D01*
X0116942Y0150879D02*
X0081484Y0150879D01*
X0082083Y0150281D02*
X0116344Y0150281D01*
X0115745Y0149682D02*
X0082681Y0149682D01*
X0083017Y0149084D02*
X0115147Y0149084D01*
X0114548Y0148485D02*
X0083264Y0148485D01*
X0083512Y0147887D02*
X0113950Y0147887D01*
X0113351Y0147288D02*
X0083742Y0147288D01*
X0084847Y0146690D02*
X0112753Y0146690D01*
X0112154Y0146091D02*
X0085446Y0146091D01*
X0086044Y0145493D02*
X0111556Y0145493D01*
X0110957Y0144894D02*
X0086643Y0144894D01*
X0087241Y0144296D02*
X0110359Y0144296D01*
X0109760Y0143697D02*
X0087840Y0143697D01*
X0088438Y0143099D02*
X0109162Y0143099D01*
X0108563Y0142500D02*
X0089037Y0142500D01*
X0089635Y0141902D02*
X0107965Y0141902D01*
X0107366Y0141303D02*
X0090234Y0141303D01*
X0090832Y0140705D02*
X0106768Y0140705D01*
X0106169Y0140106D02*
X0091431Y0140106D01*
X0092029Y0139508D02*
X0105571Y0139508D01*
X0103275Y0138909D02*
X0092628Y0138909D01*
X0093227Y0138310D02*
X0102676Y0138310D01*
X0102279Y0137712D02*
X0093825Y0137712D01*
X0094424Y0137113D02*
X0102032Y0137113D01*
X0101950Y0136515D02*
X0095022Y0136515D01*
X0095621Y0135916D02*
X0101950Y0135916D01*
X0102101Y0135318D02*
X0096219Y0135318D01*
X0096818Y0134719D02*
X0102349Y0134719D01*
X0102845Y0134121D02*
X0097416Y0134121D01*
X0098015Y0133522D02*
X0103655Y0133522D01*
X0106445Y0133522D02*
X0106950Y0133522D01*
X0107057Y0132924D02*
X0098613Y0132924D01*
X0099212Y0132325D02*
X0107305Y0132325D01*
X0107739Y0131727D02*
X0099810Y0131727D01*
X0100409Y0131128D02*
X0108399Y0131128D01*
X0101618Y0124545D02*
X0083428Y0124545D01*
X0083303Y0124160D02*
X0083594Y0125056D01*
X0083742Y0125986D01*
X0083742Y0126157D01*
X0073372Y0126157D01*
X0073372Y0126757D01*
X0083742Y0126757D01*
X0083742Y0126929D01*
X0083594Y0127859D01*
X0083303Y0128755D01*
X0082876Y0129594D01*
X0082322Y0130356D01*
X0081656Y0131023D01*
X0080894Y0131576D01*
X0080054Y0132004D01*
X0079158Y0132295D01*
X0078228Y0132443D01*
X0073372Y0132443D01*
X0073372Y0126758D01*
X0072772Y0126758D01*
X0072772Y0132443D01*
X0067916Y0132443D01*
X0066985Y0132295D01*
X0066089Y0132004D01*
X0065250Y0131576D01*
X0064488Y0131023D01*
X0063821Y0130356D01*
X0063268Y0129594D01*
X0062840Y0128755D01*
X0062549Y0127859D01*
X0062402Y0126929D01*
X0062402Y0126757D01*
X0072772Y0126757D01*
X0072772Y0126157D01*
X0073372Y0126157D01*
X0073372Y0120472D01*
X0078228Y0120472D01*
X0079158Y0120620D01*
X0080054Y0120911D01*
X0080894Y0121339D01*
X0081656Y0121892D01*
X0082322Y0122558D01*
X0082876Y0123321D01*
X0083303Y0124160D01*
X0083194Y0123946D02*
X0102217Y0123946D01*
X0102815Y0123348D02*
X0082889Y0123348D01*
X0082460Y0122749D02*
X0103414Y0122749D01*
X0104012Y0122151D02*
X0081914Y0122151D01*
X0081187Y0121552D02*
X0104611Y0121552D01*
X0105209Y0120954D02*
X0080138Y0120954D01*
X0083608Y0125143D02*
X0101020Y0125143D01*
X0100421Y0125742D02*
X0083703Y0125742D01*
X0083740Y0126939D02*
X0099224Y0126939D01*
X0098626Y0127537D02*
X0083645Y0127537D01*
X0083504Y0128136D02*
X0098027Y0128136D01*
X0097429Y0128734D02*
X0083310Y0128734D01*
X0083009Y0129333D02*
X0096830Y0129333D01*
X0096232Y0129931D02*
X0082631Y0129931D01*
X0082148Y0130530D02*
X0095633Y0130530D01*
X0095035Y0131128D02*
X0081510Y0131128D01*
X0080598Y0131727D02*
X0094436Y0131727D01*
X0093838Y0132325D02*
X0078967Y0132325D01*
X0073372Y0132325D02*
X0072772Y0132325D01*
X0072772Y0131727D02*
X0073372Y0131727D01*
X0073372Y0131128D02*
X0072772Y0131128D01*
X0072772Y0130530D02*
X0073372Y0130530D01*
X0073372Y0129931D02*
X0072772Y0129931D01*
X0072772Y0129333D02*
X0073372Y0129333D01*
X0073372Y0128734D02*
X0072772Y0128734D01*
X0072772Y0128136D02*
X0073372Y0128136D01*
X0073372Y0127537D02*
X0072772Y0127537D01*
X0072772Y0126939D02*
X0073372Y0126939D01*
X0073372Y0126340D02*
X0099823Y0126340D01*
X0105808Y0120355D02*
X0051204Y0120355D01*
X0051169Y0119757D02*
X0106406Y0119757D01*
X0107005Y0119158D02*
X0051134Y0119158D01*
X0051099Y0118560D02*
X0107603Y0118560D01*
X0108202Y0117961D02*
X0051064Y0117961D01*
X0051030Y0117363D02*
X0108800Y0117363D01*
X0109399Y0116764D02*
X0050995Y0116764D01*
X0050960Y0116166D02*
X0109997Y0116166D01*
X0110596Y0115567D02*
X0050935Y0115567D01*
X0050970Y0114969D02*
X0111194Y0114969D01*
X0111793Y0114370D02*
X0051004Y0114370D01*
X0051039Y0113772D02*
X0112391Y0113772D01*
X0112990Y0113173D02*
X0051074Y0113173D01*
X0051109Y0112574D02*
X0065662Y0112574D01*
X0064342Y0111976D02*
X0051144Y0111976D01*
X0051179Y0111377D02*
X0063743Y0111377D01*
X0063145Y0110779D02*
X0051214Y0110779D01*
X0051248Y0110180D02*
X0062546Y0110180D01*
X0062251Y0109582D02*
X0051283Y0109582D01*
X0051318Y0108983D02*
X0062003Y0108983D01*
X0061755Y0108385D02*
X0051353Y0108385D01*
X0051388Y0107786D02*
X0061507Y0107786D01*
X0061402Y0107188D02*
X0051423Y0107188D01*
X0051458Y0106589D02*
X0061402Y0106589D01*
X0061402Y0105991D02*
X0051492Y0105991D01*
X0051527Y0105392D02*
X0061402Y0105392D01*
X0061402Y0104794D02*
X0051573Y0104794D01*
X0051678Y0104195D02*
X0061633Y0104195D01*
X0061881Y0103597D02*
X0051784Y0103597D01*
X0051889Y0102998D02*
X0062128Y0102998D01*
X0062376Y0102400D02*
X0051995Y0102400D01*
X0052100Y0101801D02*
X0062849Y0101801D01*
X0063448Y0101203D02*
X0052206Y0101203D01*
X0052311Y0100604D02*
X0064047Y0100604D01*
X0064949Y0100006D02*
X0052417Y0100006D01*
X0052522Y0099407D02*
X0066394Y0099407D01*
X0066948Y0093422D02*
X0053681Y0093422D01*
X0053860Y0092824D02*
X0065503Y0092824D01*
X0064276Y0092225D02*
X0054039Y0092225D01*
X0054218Y0091627D02*
X0063677Y0091627D01*
X0063079Y0091028D02*
X0054397Y0091028D01*
X0054577Y0090430D02*
X0062480Y0090430D01*
X0062223Y0089831D02*
X0054756Y0089831D01*
X0054935Y0089233D02*
X0061976Y0089233D01*
X0061728Y0088634D02*
X0055114Y0088634D01*
X0055293Y0088036D02*
X0061480Y0088036D01*
X0061402Y0087437D02*
X0055473Y0087437D01*
X0055652Y0086839D02*
X0061402Y0086839D01*
X0061402Y0086240D02*
X0055831Y0086240D01*
X0056010Y0085641D02*
X0061402Y0085641D01*
X0061412Y0085043D02*
X0056189Y0085043D01*
X0056368Y0084444D02*
X0061660Y0084444D01*
X0061908Y0083846D02*
X0056558Y0083846D01*
X0056816Y0083247D02*
X0062156Y0083247D01*
X0062404Y0082649D02*
X0057074Y0082649D01*
X0057333Y0082050D02*
X0062915Y0082050D01*
X0063514Y0081452D02*
X0057591Y0081452D01*
X0057849Y0080853D02*
X0064112Y0080853D01*
X0065108Y0080255D02*
X0058107Y0080255D01*
X0058365Y0079656D02*
X0066553Y0079656D01*
X0059656Y0076664D02*
X0088769Y0076664D01*
X0088171Y0077262D02*
X0059398Y0077262D01*
X0059140Y0077861D02*
X0087572Y0077861D01*
X0086974Y0078459D02*
X0058882Y0078459D01*
X0058623Y0079058D02*
X0086375Y0079058D01*
X0085777Y0079656D02*
X0079590Y0079656D01*
X0081035Y0080255D02*
X0085178Y0080255D01*
X0084580Y0080853D02*
X0082031Y0080853D01*
X0082629Y0081452D02*
X0083981Y0081452D01*
X0083383Y0082050D02*
X0083228Y0082050D01*
X0087928Y0086839D02*
X0097345Y0086839D01*
X0096746Y0087437D02*
X0087330Y0087437D01*
X0086731Y0088036D02*
X0096148Y0088036D01*
X0095549Y0088634D02*
X0086133Y0088634D01*
X0086598Y0088169D02*
X0086598Y0088169D01*
X0085343Y0089233D02*
X0094951Y0089233D01*
X0094352Y0089831D02*
X0083920Y0089831D01*
X0083663Y0090430D02*
X0093754Y0090430D01*
X0093155Y0091028D02*
X0083064Y0091028D01*
X0082466Y0091627D02*
X0092556Y0091627D01*
X0091958Y0092225D02*
X0081867Y0092225D01*
X0080640Y0092824D02*
X0091359Y0092824D01*
X0090761Y0093422D02*
X0079195Y0093422D01*
X0079749Y0099407D02*
X0084776Y0099407D01*
X0085374Y0098809D02*
X0052628Y0098809D01*
X0052733Y0098210D02*
X0085973Y0098210D01*
X0086571Y0097612D02*
X0052839Y0097612D01*
X0052944Y0097013D02*
X0087170Y0097013D01*
X0087768Y0096415D02*
X0053050Y0096415D01*
X0053156Y0095816D02*
X0088367Y0095816D01*
X0088965Y0095218D02*
X0053261Y0095218D01*
X0053367Y0094619D02*
X0089564Y0094619D01*
X0090162Y0094021D02*
X0053501Y0094021D01*
X0059914Y0076065D02*
X0089368Y0076065D01*
X0089966Y0075467D02*
X0060173Y0075467D01*
X0060431Y0074868D02*
X0090565Y0074868D01*
X0091163Y0074270D02*
X0060689Y0074270D01*
X0060998Y0073671D02*
X0091762Y0073671D01*
X0092360Y0073073D02*
X0061344Y0073073D01*
X0061689Y0072474D02*
X0092959Y0072474D01*
X0093557Y0071876D02*
X0062035Y0071876D01*
X0062380Y0071277D02*
X0094156Y0071277D01*
X0094754Y0070679D02*
X0062726Y0070679D01*
X0063071Y0070080D02*
X0095353Y0070080D01*
X0095951Y0069482D02*
X0063417Y0069482D01*
X0063762Y0068883D02*
X0096550Y0068883D01*
X0097148Y0068285D02*
X0064108Y0068285D01*
X0064454Y0067686D02*
X0097747Y0067686D01*
X0098345Y0067088D02*
X0064799Y0067088D01*
X0065145Y0066489D02*
X0098944Y0066489D01*
X0099542Y0065891D02*
X0065490Y0065891D01*
X0065836Y0065292D02*
X0100141Y0065292D01*
X0100740Y0064694D02*
X0066181Y0064694D01*
X0066625Y0064095D02*
X0101338Y0064095D01*
X0101937Y0063497D02*
X0067070Y0063497D01*
X0067516Y0062898D02*
X0102535Y0062898D01*
X0103134Y0062300D02*
X0067961Y0062300D01*
X0068407Y0061701D02*
X0103732Y0061701D01*
X0104331Y0061103D02*
X0068852Y0061103D01*
X0080982Y0047337D02*
X0196759Y0047337D01*
X0196039Y0046738D02*
X0081654Y0046738D01*
X0082327Y0046140D02*
X0195319Y0046140D01*
X0148551Y0076065D02*
X0117452Y0076065D01*
X0116853Y0076664D02*
X0147802Y0076664D01*
X0147331Y0077262D02*
X0116255Y0077262D01*
X0115656Y0077861D02*
X0147084Y0077861D01*
X0146950Y0078459D02*
X0115058Y0078459D01*
X0114459Y0079058D02*
X0146950Y0079058D01*
X0146507Y0079656D02*
X0113861Y0079656D01*
X0113262Y0080255D02*
X0145908Y0080255D01*
X0145310Y0080853D02*
X0112663Y0080853D01*
X0112065Y0081452D02*
X0144711Y0081452D01*
X0144113Y0082050D02*
X0111466Y0082050D01*
X0110868Y0082649D02*
X0143514Y0082649D01*
X0142916Y0083247D02*
X0110269Y0083247D01*
X0109671Y0083846D02*
X0142317Y0083846D01*
X0141719Y0084444D02*
X0109072Y0084444D01*
X0108474Y0085043D02*
X0141120Y0085043D01*
X0140522Y0085641D02*
X0107875Y0085641D01*
X0107277Y0086240D02*
X0139923Y0086240D01*
X0139324Y0086839D02*
X0106678Y0086839D01*
X0106080Y0087437D02*
X0138726Y0087437D01*
X0138127Y0088036D02*
X0105481Y0088036D01*
X0104883Y0088634D02*
X0137529Y0088634D01*
X0136930Y0089233D02*
X0104284Y0089233D01*
X0103686Y0089831D02*
X0136332Y0089831D01*
X0135733Y0090430D02*
X0103087Y0090430D01*
X0102489Y0091028D02*
X0135135Y0091028D01*
X0134536Y0091627D02*
X0101890Y0091627D01*
X0101292Y0092225D02*
X0133938Y0092225D01*
X0133339Y0092824D02*
X0100693Y0092824D01*
X0100095Y0093422D02*
X0132741Y0093422D01*
X0132142Y0094021D02*
X0099496Y0094021D01*
X0098898Y0094619D02*
X0131544Y0094619D01*
X0130945Y0095218D02*
X0098299Y0095218D01*
X0097701Y0095816D02*
X0130347Y0095816D01*
X0129748Y0096415D02*
X0097102Y0096415D01*
X0096504Y0097013D02*
X0129150Y0097013D01*
X0128551Y0097612D02*
X0095905Y0097612D01*
X0095307Y0098210D02*
X0127953Y0098210D01*
X0127354Y0098809D02*
X0094708Y0098809D01*
X0094110Y0099407D02*
X0126756Y0099407D01*
X0126157Y0100006D02*
X0093511Y0100006D01*
X0092913Y0100604D02*
X0125559Y0100604D01*
X0124960Y0101203D02*
X0092314Y0101203D01*
X0091716Y0101801D02*
X0124362Y0101801D01*
X0123763Y0102400D02*
X0091117Y0102400D01*
X0090519Y0102998D02*
X0123165Y0102998D01*
X0122566Y0103597D02*
X0089920Y0103597D01*
X0089322Y0104195D02*
X0121968Y0104195D01*
X0121369Y0104794D02*
X0088723Y0104794D01*
X0088125Y0105392D02*
X0120771Y0105392D01*
X0120172Y0105991D02*
X0087526Y0105991D01*
X0086927Y0106589D02*
X0119574Y0106589D01*
X0118975Y0107188D02*
X0086329Y0107188D01*
X0085730Y0107786D02*
X0118377Y0107786D01*
X0117778Y0108385D02*
X0084388Y0108385D01*
X0084140Y0108983D02*
X0117180Y0108983D01*
X0116581Y0109582D02*
X0083893Y0109582D01*
X0083597Y0110180D02*
X0115983Y0110180D01*
X0115384Y0110779D02*
X0082999Y0110779D01*
X0082400Y0111377D02*
X0114786Y0111377D01*
X0114187Y0111976D02*
X0081802Y0111976D01*
X0080481Y0112574D02*
X0113588Y0112574D01*
X0093239Y0132924D02*
X0052704Y0132924D01*
X0052810Y0133522D02*
X0092641Y0133522D01*
X0092042Y0134121D02*
X0052915Y0134121D01*
X0053021Y0134719D02*
X0091444Y0134719D01*
X0090845Y0135318D02*
X0053126Y0135318D01*
X0053232Y0135916D02*
X0090247Y0135916D01*
X0089648Y0136515D02*
X0053337Y0136515D01*
X0053452Y0137113D02*
X0089050Y0137113D01*
X0088451Y0137712D02*
X0053631Y0137712D01*
X0053810Y0138310D02*
X0087853Y0138310D01*
X0087254Y0138909D02*
X0053989Y0138909D01*
X0054168Y0139508D02*
X0086655Y0139508D01*
X0086057Y0140106D02*
X0054347Y0140106D01*
X0054527Y0140705D02*
X0065875Y0140705D01*
X0064762Y0141303D02*
X0054706Y0141303D01*
X0054885Y0141902D02*
X0064163Y0141902D01*
X0063565Y0142500D02*
X0055064Y0142500D01*
X0055243Y0143099D02*
X0063169Y0143099D01*
X0062921Y0143697D02*
X0055423Y0143697D01*
X0055602Y0144296D02*
X0062673Y0144296D01*
X0062426Y0144894D02*
X0055781Y0144894D01*
X0055960Y0145493D02*
X0062402Y0145493D01*
X0062402Y0146091D02*
X0056139Y0146091D01*
X0056319Y0146690D02*
X0062402Y0146690D01*
X0062402Y0147288D02*
X0056498Y0147288D01*
X0056744Y0147887D02*
X0062631Y0147887D01*
X0062879Y0148485D02*
X0057003Y0148485D01*
X0057261Y0149084D02*
X0063127Y0149084D01*
X0063462Y0149682D02*
X0057519Y0149682D01*
X0057777Y0150281D02*
X0064061Y0150281D01*
X0064659Y0150879D02*
X0058035Y0150879D01*
X0058293Y0151478D02*
X0065627Y0151478D01*
X0067072Y0152076D02*
X0058552Y0152076D01*
X0052598Y0132325D02*
X0067176Y0132325D01*
X0065545Y0131727D02*
X0052493Y0131727D01*
X0052387Y0131128D02*
X0064633Y0131128D01*
X0063995Y0130530D02*
X0052282Y0130530D01*
X0052176Y0129931D02*
X0063513Y0129931D01*
X0063135Y0129333D02*
X0052071Y0129333D01*
X0051965Y0128734D02*
X0062833Y0128734D01*
X0062639Y0128136D02*
X0051860Y0128136D01*
X0051754Y0127537D02*
X0062498Y0127537D01*
X0062403Y0126939D02*
X0051649Y0126939D01*
X0051552Y0126340D02*
X0072772Y0126340D01*
X0072772Y0126157D02*
X0062402Y0126157D01*
X0062402Y0125986D01*
X0062549Y0125056D01*
X0062840Y0124160D01*
X0063268Y0123321D01*
X0063821Y0122558D01*
X0064488Y0121892D01*
X0065250Y0121339D01*
X0066089Y0120911D01*
X0066985Y0120620D01*
X0067916Y0120472D01*
X0072772Y0120472D01*
X0072772Y0126157D01*
X0072772Y0125742D02*
X0073372Y0125742D01*
X0073372Y0125143D02*
X0072772Y0125143D01*
X0072772Y0124545D02*
X0073372Y0124545D01*
X0073372Y0123946D02*
X0072772Y0123946D01*
X0072772Y0123348D02*
X0073372Y0123348D01*
X0073372Y0122749D02*
X0072772Y0122749D01*
X0072772Y0122151D02*
X0073372Y0122151D01*
X0073372Y0121552D02*
X0072772Y0121552D01*
X0072772Y0120954D02*
X0073372Y0120954D01*
X0066005Y0120954D02*
X0051239Y0120954D01*
X0051274Y0121552D02*
X0064956Y0121552D01*
X0064229Y0122151D02*
X0051308Y0122151D01*
X0051343Y0122749D02*
X0063683Y0122749D01*
X0063254Y0123348D02*
X0051378Y0123348D01*
X0051413Y0123946D02*
X0062949Y0123946D01*
X0062715Y0124545D02*
X0051448Y0124545D01*
X0051483Y0125143D02*
X0062535Y0125143D01*
X0062440Y0125742D02*
X0051518Y0125742D01*
X0080268Y0140705D02*
X0085458Y0140705D01*
X0084860Y0141303D02*
X0081381Y0141303D01*
X0081980Y0141902D02*
X0084261Y0141902D01*
X0083663Y0142500D02*
X0082578Y0142500D01*
X0082974Y0143099D02*
X0083064Y0143099D01*
X0082980Y0101203D02*
X0082695Y0101203D01*
X0082097Y0100604D02*
X0083579Y0100604D01*
X0084177Y0100006D02*
X0081194Y0100006D01*
X0088527Y0086240D02*
X0097943Y0086240D01*
X0098542Y0085641D02*
X0089125Y0085641D01*
X0089724Y0085043D02*
X0099140Y0085043D01*
X0099739Y0084444D02*
X0090322Y0084444D01*
X0090921Y0083846D02*
X0100337Y0083846D01*
X0100936Y0083247D02*
X0091519Y0083247D01*
X0092118Y0082649D02*
X0101534Y0082649D01*
X0102133Y0082050D02*
X0092716Y0082050D01*
X0093315Y0081452D02*
X0102731Y0081452D01*
X0103330Y0080853D02*
X0093913Y0080853D01*
X0094512Y0080255D02*
X0103928Y0080255D01*
X0104527Y0079656D02*
X0095110Y0079656D01*
X0095709Y0079058D02*
X0105125Y0079058D01*
X0105724Y0078459D02*
X0096308Y0078459D01*
X0096906Y0077861D02*
X0106322Y0077861D01*
X0106921Y0077262D02*
X0097505Y0077262D01*
X0098103Y0076664D02*
X0107519Y0076664D01*
X0108118Y0076065D02*
X0098702Y0076065D01*
X0099300Y0075467D02*
X0108716Y0075467D01*
X0109315Y0074868D02*
X0099899Y0074868D01*
X0100497Y0074270D02*
X0109913Y0074270D01*
X0110512Y0073671D02*
X0101096Y0073671D01*
X0101694Y0073073D02*
X0111110Y0073073D01*
X0111709Y0072474D02*
X0102293Y0072474D01*
X0102891Y0071876D02*
X0112307Y0071876D01*
X0112906Y0071277D02*
X0103490Y0071277D01*
X0104088Y0070679D02*
X0113504Y0070679D01*
X0114103Y0070080D02*
X0104687Y0070080D01*
X0105285Y0069482D02*
X0114701Y0069482D01*
X0115300Y0068883D02*
X0105884Y0068883D01*
X0106482Y0068285D02*
X0115898Y0068285D01*
X0116497Y0067686D02*
X0107081Y0067686D01*
X0107679Y0067088D02*
X0117095Y0067088D01*
X0117694Y0066489D02*
X0108278Y0066489D01*
X0108876Y0065891D02*
X0118292Y0065891D01*
X0118891Y0065292D02*
X0109475Y0065292D01*
X0110073Y0064694D02*
X0119490Y0064694D01*
X0120088Y0064095D02*
X0110672Y0064095D01*
X0111270Y0063497D02*
X0120687Y0063497D01*
X0121285Y0062898D02*
X0111869Y0062898D01*
X0112467Y0062300D02*
X0121884Y0062300D01*
X0122482Y0061701D02*
X0113066Y0061701D01*
X0113664Y0061103D02*
X0123081Y0061103D01*
X0123679Y0060504D02*
X0114263Y0060504D01*
X0114861Y0059905D02*
X0124278Y0059905D01*
X0124876Y0059307D02*
X0115460Y0059307D01*
X0120428Y0058708D02*
X0125475Y0058708D01*
X0126073Y0058110D02*
X0121026Y0058110D01*
X0121625Y0057511D02*
X0126672Y0057511D01*
X0127270Y0056913D02*
X0121757Y0056913D01*
X0121757Y0056314D02*
X0127869Y0056314D01*
X0128467Y0055716D02*
X0121757Y0055716D01*
X0121757Y0055117D02*
X0129066Y0055117D01*
X0129664Y0054519D02*
X0121757Y0054519D01*
X0121757Y0053920D02*
X0130263Y0053920D01*
X0130843Y0053322D02*
X0121757Y0053322D01*
X0121757Y0052723D02*
X0130843Y0052723D01*
X0130843Y0052125D02*
X0121757Y0052125D01*
X0121757Y0051526D02*
X0130843Y0051526D01*
X0130843Y0050928D02*
X0121757Y0050928D01*
X0121757Y0050329D02*
X0130843Y0050329D01*
X0130843Y0049731D02*
X0121757Y0049731D01*
X0121416Y0049132D02*
X0131184Y0049132D01*
X0131782Y0048534D02*
X0120818Y0048534D01*
X0194090Y0143697D02*
X0215530Y0143697D01*
X0215778Y0144296D02*
X0193491Y0144296D01*
X0192893Y0144894D02*
X0216065Y0144894D01*
X0224040Y0147887D02*
X0200491Y0147887D01*
X0200739Y0148485D02*
X0223805Y0148485D01*
X0223570Y0149084D02*
X0200987Y0149084D01*
X0201096Y0149682D02*
X0223336Y0149682D01*
X0223101Y0150281D02*
X0201096Y0150281D01*
X0201096Y0150879D02*
X0222866Y0150879D01*
X0222632Y0151478D02*
X0201081Y0151478D01*
X0200834Y0152076D02*
X0222397Y0152076D01*
X0222163Y0152675D02*
X0200586Y0152675D01*
X0200338Y0153273D02*
X0221928Y0153273D01*
X0221693Y0153872D02*
X0199801Y0153872D01*
X0199203Y0154470D02*
X0221459Y0154470D01*
X0224274Y0147288D02*
X0200172Y0147288D01*
X0185723Y0146690D02*
X0130627Y0146690D01*
X0129816Y0150879D02*
X0155650Y0150879D01*
X0155650Y0151478D02*
X0130415Y0151478D01*
X0131013Y0152076D02*
X0155650Y0152076D01*
X0155650Y0152675D02*
X0131612Y0152675D01*
X0132210Y0153273D02*
X0155650Y0153273D01*
X0155650Y0153872D02*
X0132809Y0153872D01*
X0133407Y0154470D02*
X0155650Y0154470D01*
X0155650Y0155069D02*
X0134006Y0155069D01*
X0134604Y0155667D02*
X0155650Y0155667D01*
X0155650Y0156266D02*
X0135203Y0156266D01*
X0135801Y0156864D02*
X0155650Y0156864D01*
X0155650Y0157463D02*
X0136400Y0157463D01*
X0136998Y0158061D02*
X0155650Y0158061D01*
X0155650Y0158660D02*
X0137597Y0158660D01*
X0138195Y0159258D02*
X0155650Y0159258D01*
X0155650Y0159857D02*
X0138794Y0159857D01*
X0139392Y0160455D02*
X0155650Y0160455D01*
X0155650Y0161054D02*
X0139991Y0161054D01*
X0140589Y0161652D02*
X0155650Y0161652D01*
X0155650Y0162251D02*
X0141188Y0162251D01*
X0141786Y0162849D02*
X0155650Y0162849D01*
X0155650Y0163448D02*
X0142385Y0163448D01*
X0142983Y0164046D02*
X0155650Y0164046D01*
X0155650Y0164645D02*
X0143582Y0164645D01*
X0144180Y0165243D02*
X0152707Y0165243D01*
X0152315Y0165842D02*
X0144779Y0165842D01*
X0145377Y0166441D02*
X0152315Y0166441D01*
X0152315Y0167039D02*
X0145976Y0167039D01*
X0146575Y0167638D02*
X0152315Y0167638D01*
X0152315Y0168236D02*
X0147173Y0168236D01*
X0147772Y0168835D02*
X0152315Y0168835D01*
X0152315Y0169433D02*
X0148370Y0169433D01*
X0148969Y0170032D02*
X0152315Y0170032D01*
X0152315Y0170630D02*
X0149567Y0170630D01*
X0150166Y0171229D02*
X0152315Y0171229D01*
X0152315Y0171827D02*
X0150764Y0171827D01*
X0151363Y0172426D02*
X0152315Y0172426D01*
X0152627Y0173024D02*
X0151961Y0173024D01*
X0152560Y0173623D02*
X0175040Y0173623D01*
X0174442Y0174221D02*
X0153158Y0174221D01*
X0160603Y0173024D02*
X0169054Y0173024D01*
X0168864Y0172945D02*
X0167655Y0171736D01*
X0167000Y0170155D01*
X0167000Y0162445D01*
X0167655Y0160864D01*
X0168864Y0159655D01*
X0170445Y0159000D01*
X0172155Y0159000D01*
X0173736Y0159655D01*
X0174945Y0160864D01*
X0175600Y0162445D01*
X0175600Y0170155D01*
X0174945Y0171736D01*
X0173736Y0172945D01*
X0172155Y0173600D01*
X0170445Y0173600D01*
X0168864Y0172945D01*
X0168345Y0172426D02*
X0160915Y0172426D01*
X0160915Y0171827D02*
X0167746Y0171827D01*
X0167445Y0171229D02*
X0160915Y0171229D01*
X0160915Y0170630D02*
X0167197Y0170630D01*
X0167000Y0170032D02*
X0160915Y0170032D01*
X0160915Y0169433D02*
X0167000Y0169433D01*
X0167000Y0168835D02*
X0160915Y0168835D01*
X0160915Y0168236D02*
X0167000Y0168236D01*
X0167000Y0167638D02*
X0160915Y0167638D01*
X0160915Y0167039D02*
X0167000Y0167039D01*
X0167000Y0166441D02*
X0160915Y0166441D01*
X0160915Y0165842D02*
X0167000Y0165842D01*
X0167000Y0165243D02*
X0160523Y0165243D01*
X0159450Y0164645D02*
X0167000Y0164645D01*
X0167000Y0164046D02*
X0159450Y0164046D01*
X0159450Y0163448D02*
X0167000Y0163448D01*
X0167000Y0162849D02*
X0159450Y0162849D01*
X0159450Y0162251D02*
X0167080Y0162251D01*
X0167328Y0161652D02*
X0159450Y0161652D01*
X0159450Y0161054D02*
X0167576Y0161054D01*
X0168063Y0160455D02*
X0159450Y0160455D01*
X0159450Y0159857D02*
X0168662Y0159857D01*
X0169821Y0159258D02*
X0159450Y0159258D01*
X0172779Y0159258D02*
X0179821Y0159258D01*
X0178662Y0159857D02*
X0173938Y0159857D01*
X0174537Y0160455D02*
X0178063Y0160455D01*
X0177576Y0161054D02*
X0175024Y0161054D01*
X0175272Y0161652D02*
X0177328Y0161652D01*
X0177080Y0162251D02*
X0175520Y0162251D01*
X0175600Y0162849D02*
X0177000Y0162849D01*
X0177000Y0163448D02*
X0175600Y0163448D01*
X0175600Y0164046D02*
X0177000Y0164046D01*
X0177000Y0164645D02*
X0175600Y0164645D01*
X0175600Y0165243D02*
X0177000Y0165243D01*
X0177000Y0165842D02*
X0175600Y0165842D01*
X0175600Y0166441D02*
X0177000Y0166441D01*
X0177000Y0167039D02*
X0175600Y0167039D01*
X0175600Y0167638D02*
X0177000Y0167638D01*
X0177000Y0168236D02*
X0175600Y0168236D01*
X0175600Y0168835D02*
X0177000Y0168835D01*
X0177000Y0169433D02*
X0175600Y0169433D01*
X0175600Y0170032D02*
X0177000Y0170032D01*
X0177197Y0170630D02*
X0175403Y0170630D01*
X0175155Y0171229D02*
X0177434Y0171229D01*
X0176836Y0171827D02*
X0174854Y0171827D01*
X0174255Y0172426D02*
X0176237Y0172426D01*
X0175639Y0173024D02*
X0173546Y0173024D01*
X0177422Y0176615D02*
X0182048Y0176615D01*
X0182646Y0176017D02*
X0178020Y0176017D01*
X0178619Y0175418D02*
X0183245Y0175418D01*
X0183843Y0174820D02*
X0179217Y0174820D01*
X0179816Y0174221D02*
X0184442Y0174221D01*
X0185040Y0173623D02*
X0180414Y0173623D01*
X0183546Y0173024D02*
X0185639Y0173024D01*
X0186237Y0172426D02*
X0184255Y0172426D01*
X0184854Y0171827D02*
X0186836Y0171827D01*
X0187434Y0171229D02*
X0185155Y0171229D01*
X0185403Y0170630D02*
X0187197Y0170630D01*
X0187000Y0170032D02*
X0185600Y0170032D01*
X0185600Y0169433D02*
X0187000Y0169433D01*
X0187000Y0168835D02*
X0185600Y0168835D01*
X0185600Y0168236D02*
X0187000Y0168236D01*
X0187000Y0167638D02*
X0185600Y0167638D01*
X0185600Y0167039D02*
X0187000Y0167039D01*
X0187000Y0166441D02*
X0185600Y0166441D01*
X0185600Y0165842D02*
X0187000Y0165842D01*
X0187000Y0165243D02*
X0185600Y0165243D01*
X0185600Y0164645D02*
X0187000Y0164645D01*
X0187000Y0164046D02*
X0185600Y0164046D01*
X0185600Y0163448D02*
X0187000Y0163448D01*
X0187000Y0162849D02*
X0185600Y0162849D01*
X0185520Y0162251D02*
X0187080Y0162251D01*
X0187328Y0161652D02*
X0185272Y0161652D01*
X0185024Y0161054D02*
X0187576Y0161054D01*
X0188063Y0160455D02*
X0184537Y0160455D01*
X0183938Y0159857D02*
X0188662Y0159857D01*
X0189821Y0159258D02*
X0182779Y0159258D01*
D16*
X0083800Y0105050D02*
X0073800Y0105050D01*
X0073072Y0106143D01*
X0083800Y0105050D02*
X0135050Y0053800D01*
X0136143Y0053426D01*
X0116457Y0053426D02*
X0116300Y0053800D01*
X0083800Y0086300D01*
X0073800Y0086300D01*
X0073072Y0086457D01*
D17*
X0110050Y0133800D02*
X0152550Y0176300D01*
X0175050Y0176300D01*
X0181300Y0170050D01*
X0181300Y0166300D01*
X0191300Y0166300D02*
X0191300Y0170050D01*
X0182550Y0178800D01*
X0147550Y0178800D01*
X0105050Y0136300D01*
X0083800Y0145050D02*
X0073800Y0145050D01*
X0073072Y0146143D01*
X0083800Y0145050D02*
X0150050Y0078800D01*
X0193800Y0141300D02*
X0216300Y0141300D01*
X0217550Y0142550D01*
X0218800Y0142550D01*
X0219450Y0142520D01*
X0193800Y0141300D02*
X0186300Y0148800D01*
X0157550Y0148800D01*
X0130050Y0148800D01*
X0126300Y0145050D01*
X0156615Y0169174D02*
X0157550Y0168800D01*
X0157550Y0148800D01*
D18*
X0126300Y0145050D03*
X0110050Y0133800D03*
X0105050Y0136300D03*
X0150050Y0078800D03*
M02*
