%
M48
M72
T01C0.02000
T02C0.03543
T03C0.03937
T04C0.04000
T05C0.05512
%
T01
X110050Y133800
X105050Y136300
X126300Y145050
X150050Y78800
T02
X172206Y95276
X219450Y95276
X219450Y142520
X172206Y142520
T03
X195828Y150394
T04
X191300Y166300
X181300Y166300
X171300Y166300
X156615Y169174
X201300Y166300
X211300Y166300
X95985Y169174
X116457Y53426
X136143Y53426
T05
X73072Y86457
X73072Y106143
X73072Y126457
X73072Y146143
X176457Y64528
X196143Y64528
M30
