G75*
%MOIN*%
%OFA0B0*%
%FSLAX25Y25*%
%IPPOS*%
%LPD*%
%AMOC8*
5,1,8,0,0,1.08239X$1,22.5*
%
%ADD10C,0.09370*%
%ADD11C,0.05543*%
%ADD12C,0.05937*%
%ADD13R,0.06000X0.06000*%
%ADD14C,0.00669*%
%ADD15R,0.09843X0.03937*%
%ADD16R,0.04800X0.08800*%
%ADD17R,0.14173X0.08661*%
%ADD18C,0.06000*%
%ADD19R,0.06299X0.05512*%
%ADD20R,0.04331X0.05512*%
%ADD21R,0.03150X0.03543*%
%ADD22R,0.05512X0.08268*%
%ADD23C,0.00600*%
%ADD24C,0.01200*%
%ADD25C,0.03600*%
%ADD26C,0.02000*%
D10*
X0068387Y0086457D02*
X0077757Y0086457D01*
X0077757Y0106143D02*
X0068387Y0106143D01*
X0068387Y0126457D02*
X0077757Y0126457D01*
X0077757Y0146143D02*
X0068387Y0146143D01*
X0176457Y0069213D02*
X0176457Y0059843D01*
X0196143Y0059843D02*
X0196143Y0069213D01*
D11*
X0219450Y0095276D03*
X0172206Y0095276D03*
X0172206Y0142520D03*
X0219450Y0142520D03*
D12*
X0195828Y0150394D03*
D13*
X0156615Y0169174D03*
X0095985Y0169174D03*
X0116457Y0053426D03*
X0136143Y0053426D03*
D14*
X0098604Y0119706D02*
X0089430Y0119706D01*
X0098604Y0119706D02*
X0098604Y0116438D01*
X0089430Y0116438D01*
X0089430Y0119706D01*
X0089430Y0117106D02*
X0098604Y0117106D01*
X0098604Y0117774D02*
X0089430Y0117774D01*
X0089430Y0118442D02*
X0098604Y0118442D01*
X0098604Y0119110D02*
X0089430Y0119110D01*
D15*
X0094017Y0110198D03*
X0094017Y0102324D03*
X0094017Y0094450D03*
X0094017Y0086576D03*
X0094017Y0078702D03*
X0094017Y0070828D03*
X0158583Y0070828D03*
X0158583Y0078702D03*
X0158583Y0086576D03*
X0158583Y0094450D03*
X0158583Y0102324D03*
X0158583Y0110198D03*
X0158583Y0118072D03*
D16*
X0145400Y0154100D03*
X0136300Y0154100D03*
X0127200Y0154100D03*
D17*
X0136300Y0178501D03*
D18*
X0171300Y0169300D02*
X0171300Y0163300D01*
X0181300Y0163300D02*
X0181300Y0169300D01*
X0191300Y0169300D02*
X0191300Y0163300D01*
X0201300Y0163300D02*
X0201300Y0169300D01*
X0211300Y0169300D02*
X0211300Y0163300D01*
D19*
X0116300Y0161812D03*
X0116300Y0150788D03*
X0101300Y0145788D03*
X0101300Y0156812D03*
D20*
X0075237Y0161300D03*
X0067363Y0161300D03*
X0172363Y0111300D03*
X0180237Y0111300D03*
D21*
X0180040Y0122363D03*
X0172560Y0122363D03*
X0176300Y0130631D03*
D22*
X0192639Y0126300D03*
X0209961Y0126300D03*
D23*
X0169472Y0060504D02*
X0069298Y0060504D01*
X0069744Y0059905D02*
X0169472Y0059905D01*
X0169472Y0059307D02*
X0070189Y0059307D01*
X0070635Y0058708D02*
X0112487Y0058708D01*
X0112505Y0058726D02*
X0111157Y0057379D01*
X0111157Y0049473D01*
X0112505Y0048126D01*
X0120410Y0048126D01*
X0121757Y0049473D01*
X0121757Y0057379D01*
X0120410Y0058726D01*
X0112505Y0058726D01*
X0111889Y0058110D02*
X0071080Y0058110D01*
X0071526Y0057511D02*
X0111290Y0057511D01*
X0111157Y0056913D02*
X0071971Y0056913D01*
X0072417Y0056314D02*
X0111157Y0056314D01*
X0111157Y0055716D02*
X0072924Y0055716D01*
X0072631Y0056027D02*
X0066190Y0064679D01*
X0060796Y0074021D01*
X0056524Y0083925D01*
X0053430Y0094259D01*
X0051557Y0104882D01*
X0050930Y0115650D01*
X0051557Y0126419D01*
X0053430Y0137042D01*
X0056524Y0147375D01*
X0060796Y0157280D01*
X0063898Y0162652D01*
X0063898Y0158006D01*
X0064659Y0157244D01*
X0066900Y0157244D01*
X0066900Y0152005D01*
X0064996Y0151216D01*
X0063313Y0149533D01*
X0062402Y0147333D01*
X0062402Y0144952D01*
X0063313Y0142752D01*
X0064996Y0141069D01*
X0067196Y0140157D01*
X0078947Y0140157D01*
X0081147Y0141069D01*
X0082831Y0142752D01*
X0083742Y0144952D01*
X0083742Y0147333D01*
X0082831Y0149533D01*
X0081147Y0151216D01*
X0078947Y0152128D01*
X0071909Y0152128D01*
X0070700Y0153337D01*
X0070700Y0157877D01*
X0070828Y0158006D01*
X0070828Y0164594D01*
X0070067Y0165356D01*
X0065459Y0165356D01*
X0066190Y0166621D01*
X0072631Y0175274D01*
X0080033Y0183120D01*
X0082934Y0185701D01*
X0199504Y0185701D01*
X0202258Y0183079D01*
X0209397Y0174984D01*
X0210376Y0173572D01*
X0208864Y0172945D01*
X0207655Y0171736D01*
X0207000Y0170155D01*
X0207000Y0164687D01*
X0206763Y0164450D01*
X0205650Y0163337D01*
X0205650Y0160837D01*
X0203013Y0158200D01*
X0165513Y0158200D01*
X0164400Y0157087D01*
X0164400Y0121763D01*
X0165650Y0120513D01*
X0165650Y0118013D01*
X0168983Y0114680D01*
X0168898Y0114594D01*
X0168898Y0111585D01*
X0165513Y0108200D01*
X0164400Y0107087D01*
X0164400Y0105235D01*
X0164043Y0105592D01*
X0153124Y0105592D01*
X0152362Y0104831D01*
X0152362Y0099817D01*
X0153124Y0099055D01*
X0164043Y0099055D01*
X0164400Y0099412D01*
X0164400Y0097361D01*
X0164043Y0097718D01*
X0153124Y0097718D01*
X0152362Y0096957D01*
X0152362Y0091943D01*
X0153124Y0091181D01*
X0164043Y0091181D01*
X0164400Y0091538D01*
X0164400Y0090513D01*
X0165650Y0089263D01*
X0165650Y0074587D01*
X0164601Y0073538D01*
X0164043Y0074096D01*
X0153124Y0074096D01*
X0152362Y0073335D01*
X0152362Y0068321D01*
X0153124Y0067559D01*
X0164043Y0067559D01*
X0164805Y0068321D01*
X0164805Y0068368D01*
X0165700Y0069263D01*
X0169450Y0073013D01*
X0169450Y0090837D01*
X0168337Y0091950D01*
X0168200Y0092087D01*
X0168200Y0092109D01*
X0169333Y0090977D01*
X0171197Y0090205D01*
X0172728Y0090205D01*
X0175500Y0087433D01*
X0175500Y0076198D01*
X0175068Y0076198D01*
X0172501Y0075135D01*
X0170536Y0073170D01*
X0169472Y0070603D01*
X0169472Y0058454D01*
X0170536Y0055887D01*
X0172501Y0053922D01*
X0175068Y0052858D01*
X0177847Y0052858D01*
X0180414Y0053922D01*
X0182379Y0055887D01*
X0183443Y0058454D01*
X0183443Y0070603D01*
X0182379Y0073170D01*
X0182100Y0073449D01*
X0182100Y0089456D01*
X0181598Y0090669D01*
X0180669Y0091598D01*
X0177277Y0094990D01*
X0177277Y0096285D01*
X0176505Y0098149D01*
X0175078Y0099576D01*
X0173214Y0100348D01*
X0171197Y0100348D01*
X0169333Y0099576D01*
X0168200Y0098443D01*
X0168200Y0105513D01*
X0169931Y0107244D01*
X0175067Y0107244D01*
X0175828Y0108006D01*
X0175828Y0114594D01*
X0175067Y0115356D01*
X0173200Y0115356D01*
X0173200Y0115837D01*
X0172087Y0116950D01*
X0169450Y0119587D01*
X0169450Y0122087D01*
X0168337Y0123200D01*
X0168200Y0123337D01*
X0168200Y0141551D01*
X0168754Y0140214D01*
X0169899Y0139069D01*
X0170650Y0138758D01*
X0170650Y0134263D01*
X0173425Y0131488D01*
X0173425Y0128321D01*
X0174187Y0127559D01*
X0178413Y0127559D01*
X0179134Y0128279D01*
X0181978Y0125435D01*
X0177927Y0125435D01*
X0177165Y0124673D01*
X0177165Y0120053D01*
X0177927Y0119291D01*
X0178150Y0119291D01*
X0178150Y0115356D01*
X0177533Y0115356D01*
X0176772Y0114594D01*
X0176772Y0108006D01*
X0177533Y0107244D01*
X0182941Y0107244D01*
X0183702Y0108006D01*
X0183702Y0114594D01*
X0182941Y0115356D01*
X0181950Y0115356D01*
X0181950Y0119291D01*
X0182153Y0119291D01*
X0182915Y0120053D01*
X0182915Y0124498D01*
X0183013Y0124400D01*
X0188583Y0124400D01*
X0188583Y0121628D01*
X0189344Y0120866D01*
X0195933Y0120866D01*
X0196694Y0121628D01*
X0196694Y0130972D01*
X0195933Y0131734D01*
X0189344Y0131734D01*
X0188583Y0130972D01*
X0188583Y0128200D01*
X0184587Y0128200D01*
X0180700Y0132087D01*
X0179587Y0133200D01*
X0178916Y0133200D01*
X0178413Y0133702D01*
X0176585Y0133702D01*
X0174450Y0135837D01*
X0174450Y0139043D01*
X0174512Y0139069D01*
X0175657Y0140214D01*
X0176277Y0141711D01*
X0176277Y0143330D01*
X0175657Y0144827D01*
X0174512Y0145972D01*
X0173015Y0146592D01*
X0171396Y0146592D01*
X0169899Y0145972D01*
X0168754Y0144827D01*
X0168200Y0143490D01*
X0168200Y0154400D01*
X0192382Y0154400D01*
X0191361Y0153379D01*
X0190559Y0151442D01*
X0190559Y0149347D01*
X0191361Y0147410D01*
X0192843Y0145928D01*
X0194780Y0145126D01*
X0196557Y0145126D01*
X0196750Y0144933D01*
X0196750Y0076198D01*
X0194753Y0076198D01*
X0192186Y0075135D01*
X0190221Y0073170D01*
X0189157Y0070603D01*
X0189157Y0058454D01*
X0190221Y0055887D01*
X0192186Y0053922D01*
X0194753Y0052858D01*
X0197532Y0052858D01*
X0200099Y0053922D01*
X0202064Y0055887D01*
X0203128Y0058454D01*
X0203128Y0070603D01*
X0202971Y0070980D01*
X0203350Y0071894D01*
X0203350Y0146956D01*
X0202848Y0148169D01*
X0201919Y0149098D01*
X0201096Y0149921D01*
X0201096Y0151442D01*
X0200294Y0153379D01*
X0199273Y0154400D01*
X0204587Y0154400D01*
X0205700Y0155513D01*
X0209450Y0159263D01*
X0209450Y0159412D01*
X0210445Y0159000D01*
X0212155Y0159000D01*
X0213736Y0159655D01*
X0214945Y0160864D01*
X0215600Y0162445D01*
X0215600Y0166017D01*
X0220627Y0156591D01*
X0224566Y0146543D01*
X0227313Y0136105D01*
X0228829Y0125419D01*
X0229094Y0114629D01*
X0228105Y0103881D01*
X0225874Y0093321D01*
X0222433Y0083091D01*
X0217827Y0073330D01*
X0212120Y0064170D01*
X0205387Y0055734D01*
X0197721Y0048137D01*
X0197721Y0048137D01*
X0194670Y0045600D01*
X0082934Y0045600D01*
X0080033Y0048181D01*
X0072631Y0056027D01*
X0073489Y0055117D02*
X0111157Y0055117D01*
X0111157Y0054519D02*
X0074054Y0054519D01*
X0074618Y0053920D02*
X0111157Y0053920D01*
X0111157Y0053322D02*
X0075183Y0053322D01*
X0075748Y0052723D02*
X0111157Y0052723D01*
X0111157Y0052125D02*
X0076312Y0052125D01*
X0076877Y0051526D02*
X0111157Y0051526D01*
X0111157Y0050928D02*
X0077442Y0050928D01*
X0078006Y0050329D02*
X0111157Y0050329D01*
X0111157Y0049731D02*
X0078571Y0049731D01*
X0079136Y0049132D02*
X0111498Y0049132D01*
X0112097Y0048534D02*
X0079700Y0048534D01*
X0080309Y0047935D02*
X0197479Y0047935D01*
X0198122Y0048534D02*
X0140503Y0048534D01*
X0140095Y0048126D02*
X0141443Y0049473D01*
X0141443Y0057379D01*
X0140095Y0058726D01*
X0132190Y0058726D01*
X0130843Y0057379D01*
X0130843Y0049473D01*
X0132190Y0048126D01*
X0140095Y0048126D01*
X0141102Y0049132D02*
X0198726Y0049132D01*
X0199330Y0049731D02*
X0141443Y0049731D01*
X0141443Y0050329D02*
X0199934Y0050329D01*
X0200538Y0050928D02*
X0141443Y0050928D01*
X0141443Y0051526D02*
X0201142Y0051526D01*
X0201745Y0052125D02*
X0141443Y0052125D01*
X0141443Y0052723D02*
X0202349Y0052723D01*
X0202953Y0053322D02*
X0198651Y0053322D01*
X0200096Y0053920D02*
X0203557Y0053920D01*
X0204161Y0054519D02*
X0200696Y0054519D01*
X0201295Y0055117D02*
X0204765Y0055117D01*
X0205369Y0055716D02*
X0201893Y0055716D01*
X0202241Y0056314D02*
X0205851Y0056314D01*
X0206328Y0056913D02*
X0202489Y0056913D01*
X0202737Y0057511D02*
X0206806Y0057511D01*
X0207284Y0058110D02*
X0202985Y0058110D01*
X0203128Y0058708D02*
X0207761Y0058708D01*
X0208239Y0059307D02*
X0203128Y0059307D01*
X0203128Y0059905D02*
X0208717Y0059905D01*
X0209194Y0060504D02*
X0203128Y0060504D01*
X0203128Y0061103D02*
X0209672Y0061103D01*
X0210150Y0061701D02*
X0203128Y0061701D01*
X0203128Y0062300D02*
X0210627Y0062300D01*
X0211105Y0062898D02*
X0203128Y0062898D01*
X0203128Y0063497D02*
X0211583Y0063497D01*
X0212060Y0064095D02*
X0203128Y0064095D01*
X0203128Y0064694D02*
X0212446Y0064694D01*
X0212819Y0065292D02*
X0203128Y0065292D01*
X0203128Y0065891D02*
X0213192Y0065891D01*
X0213565Y0066489D02*
X0203128Y0066489D01*
X0203128Y0067088D02*
X0213938Y0067088D01*
X0214311Y0067686D02*
X0203128Y0067686D01*
X0203128Y0068285D02*
X0214684Y0068285D01*
X0215057Y0068883D02*
X0203128Y0068883D01*
X0203128Y0069482D02*
X0215429Y0069482D01*
X0215802Y0070080D02*
X0203128Y0070080D01*
X0203096Y0070679D02*
X0216175Y0070679D01*
X0216548Y0071277D02*
X0203095Y0071277D01*
X0203343Y0071876D02*
X0216921Y0071876D01*
X0217294Y0072474D02*
X0203350Y0072474D01*
X0203350Y0073073D02*
X0217667Y0073073D01*
X0217988Y0073671D02*
X0203350Y0073671D01*
X0203350Y0074270D02*
X0218271Y0074270D01*
X0218553Y0074868D02*
X0203350Y0074868D01*
X0203350Y0075467D02*
X0218835Y0075467D01*
X0219118Y0076065D02*
X0203350Y0076065D01*
X0203350Y0076664D02*
X0219400Y0076664D01*
X0219683Y0077262D02*
X0203350Y0077262D01*
X0203350Y0077861D02*
X0219965Y0077861D01*
X0220247Y0078459D02*
X0203350Y0078459D01*
X0203350Y0079058D02*
X0220530Y0079058D01*
X0220812Y0079656D02*
X0203350Y0079656D01*
X0203350Y0080255D02*
X0221095Y0080255D01*
X0221377Y0080853D02*
X0203350Y0080853D01*
X0203350Y0081452D02*
X0221659Y0081452D01*
X0221942Y0082050D02*
X0203350Y0082050D01*
X0203350Y0082649D02*
X0222224Y0082649D01*
X0222485Y0083247D02*
X0203350Y0083247D01*
X0203350Y0083846D02*
X0222687Y0083846D01*
X0222888Y0084444D02*
X0203350Y0084444D01*
X0203350Y0085043D02*
X0223089Y0085043D01*
X0223291Y0085641D02*
X0203350Y0085641D01*
X0203350Y0086240D02*
X0223492Y0086240D01*
X0223693Y0086839D02*
X0203350Y0086839D01*
X0203350Y0087437D02*
X0223895Y0087437D01*
X0224096Y0088036D02*
X0203350Y0088036D01*
X0203350Y0088634D02*
X0224297Y0088634D01*
X0224499Y0089233D02*
X0203350Y0089233D01*
X0203350Y0089831D02*
X0224700Y0089831D01*
X0224901Y0090430D02*
X0203350Y0090430D01*
X0203350Y0091028D02*
X0225103Y0091028D01*
X0225304Y0091627D02*
X0221278Y0091627D01*
X0221756Y0091825D02*
X0220260Y0091205D01*
X0218640Y0091205D01*
X0217143Y0091825D01*
X0215998Y0092970D01*
X0215378Y0094466D01*
X0215378Y0096086D01*
X0215998Y0097583D01*
X0217143Y0098728D01*
X0218640Y0099348D01*
X0220260Y0099348D01*
X0221756Y0098728D01*
X0222901Y0097583D01*
X0223521Y0096086D01*
X0223521Y0094466D01*
X0222901Y0092970D01*
X0221756Y0091825D01*
X0222157Y0092225D02*
X0225505Y0092225D01*
X0225707Y0092824D02*
X0222755Y0092824D01*
X0223089Y0093422D02*
X0225896Y0093422D01*
X0226022Y0094021D02*
X0223337Y0094021D01*
X0223521Y0094619D02*
X0226148Y0094619D01*
X0226275Y0095218D02*
X0223521Y0095218D01*
X0223521Y0095816D02*
X0226401Y0095816D01*
X0226528Y0096415D02*
X0223385Y0096415D01*
X0223137Y0097013D02*
X0226654Y0097013D01*
X0226780Y0097612D02*
X0222872Y0097612D01*
X0222274Y0098210D02*
X0226907Y0098210D01*
X0227033Y0098809D02*
X0221561Y0098809D01*
X0217338Y0098809D02*
X0203350Y0098809D01*
X0203350Y0099407D02*
X0227160Y0099407D01*
X0227286Y0100006D02*
X0203350Y0100006D01*
X0203350Y0100604D02*
X0227412Y0100604D01*
X0227539Y0101203D02*
X0203350Y0101203D01*
X0203350Y0101801D02*
X0227665Y0101801D01*
X0227792Y0102400D02*
X0203350Y0102400D01*
X0203350Y0102998D02*
X0227918Y0102998D01*
X0228044Y0103597D02*
X0203350Y0103597D01*
X0203350Y0104195D02*
X0228133Y0104195D01*
X0228189Y0104794D02*
X0203350Y0104794D01*
X0203350Y0105392D02*
X0228244Y0105392D01*
X0228299Y0105991D02*
X0203350Y0105991D01*
X0203350Y0106589D02*
X0228354Y0106589D01*
X0228409Y0107188D02*
X0203350Y0107188D01*
X0203350Y0107786D02*
X0228464Y0107786D01*
X0228519Y0108385D02*
X0203350Y0108385D01*
X0203350Y0108983D02*
X0228574Y0108983D01*
X0228629Y0109582D02*
X0203350Y0109582D01*
X0203350Y0110180D02*
X0228684Y0110180D01*
X0228739Y0110779D02*
X0203350Y0110779D01*
X0203350Y0111377D02*
X0228795Y0111377D01*
X0228850Y0111976D02*
X0203350Y0111976D01*
X0203350Y0112574D02*
X0228905Y0112574D01*
X0228960Y0113173D02*
X0203350Y0113173D01*
X0203350Y0113772D02*
X0229015Y0113772D01*
X0229070Y0114370D02*
X0203350Y0114370D01*
X0203350Y0114969D02*
X0229086Y0114969D01*
X0229071Y0115567D02*
X0203350Y0115567D01*
X0203350Y0116166D02*
X0229056Y0116166D01*
X0229041Y0116764D02*
X0203350Y0116764D01*
X0203350Y0117363D02*
X0229027Y0117363D01*
X0229012Y0117961D02*
X0203350Y0117961D01*
X0203350Y0118560D02*
X0228997Y0118560D01*
X0228983Y0119158D02*
X0203350Y0119158D01*
X0203350Y0119757D02*
X0228968Y0119757D01*
X0228953Y0120355D02*
X0203350Y0120355D01*
X0203350Y0120954D02*
X0206580Y0120954D01*
X0206667Y0120866D02*
X0213256Y0120866D01*
X0214017Y0121628D01*
X0214017Y0130972D01*
X0213256Y0131734D01*
X0213200Y0131734D01*
X0213200Y0133013D01*
X0218637Y0138450D01*
X0218640Y0138449D01*
X0220260Y0138449D01*
X0221756Y0139069D01*
X0222901Y0140214D01*
X0223521Y0141711D01*
X0223521Y0143330D01*
X0222901Y0144827D01*
X0221756Y0145972D01*
X0220260Y0146592D01*
X0218640Y0146592D01*
X0217143Y0145972D01*
X0215998Y0144827D01*
X0215378Y0143330D01*
X0215378Y0141711D01*
X0215713Y0140900D01*
X0209400Y0134587D01*
X0209400Y0131734D01*
X0206667Y0131734D01*
X0205906Y0130972D01*
X0205906Y0121628D01*
X0206667Y0120866D01*
X0205981Y0121552D02*
X0203350Y0121552D01*
X0203350Y0122151D02*
X0205906Y0122151D01*
X0205906Y0122749D02*
X0203350Y0122749D01*
X0203350Y0123348D02*
X0205906Y0123348D01*
X0205906Y0123946D02*
X0203350Y0123946D01*
X0203350Y0124545D02*
X0205906Y0124545D01*
X0205906Y0125143D02*
X0203350Y0125143D01*
X0203350Y0125742D02*
X0205906Y0125742D01*
X0205906Y0126340D02*
X0203350Y0126340D01*
X0203350Y0126939D02*
X0205906Y0126939D01*
X0205906Y0127537D02*
X0203350Y0127537D01*
X0203350Y0128136D02*
X0205906Y0128136D01*
X0205906Y0128734D02*
X0203350Y0128734D01*
X0203350Y0129333D02*
X0205906Y0129333D01*
X0205906Y0129931D02*
X0203350Y0129931D01*
X0203350Y0130530D02*
X0205906Y0130530D01*
X0206062Y0131128D02*
X0203350Y0131128D01*
X0203350Y0131727D02*
X0206660Y0131727D01*
X0209400Y0132325D02*
X0203350Y0132325D01*
X0203350Y0132924D02*
X0209400Y0132924D01*
X0209400Y0133522D02*
X0203350Y0133522D01*
X0203350Y0134121D02*
X0209400Y0134121D01*
X0209532Y0134719D02*
X0203350Y0134719D01*
X0203350Y0135318D02*
X0210131Y0135318D01*
X0210729Y0135916D02*
X0203350Y0135916D01*
X0203350Y0136515D02*
X0211328Y0136515D01*
X0211926Y0137113D02*
X0203350Y0137113D01*
X0203350Y0137712D02*
X0212525Y0137712D01*
X0213123Y0138310D02*
X0203350Y0138310D01*
X0203350Y0138909D02*
X0213722Y0138909D01*
X0214321Y0139508D02*
X0203350Y0139508D01*
X0203350Y0140106D02*
X0214919Y0140106D01*
X0215518Y0140705D02*
X0203350Y0140705D01*
X0203350Y0141303D02*
X0215547Y0141303D01*
X0215378Y0141902D02*
X0203350Y0141902D01*
X0203350Y0142500D02*
X0215378Y0142500D01*
X0215378Y0143099D02*
X0203350Y0143099D01*
X0203350Y0143697D02*
X0215530Y0143697D01*
X0215778Y0144296D02*
X0203350Y0144296D01*
X0203350Y0144894D02*
X0216065Y0144894D01*
X0216664Y0145493D02*
X0203350Y0145493D01*
X0203350Y0146091D02*
X0217430Y0146091D01*
X0221469Y0146091D02*
X0224685Y0146091D01*
X0224843Y0145493D02*
X0222236Y0145493D01*
X0222834Y0144894D02*
X0225000Y0144894D01*
X0225158Y0144296D02*
X0223121Y0144296D01*
X0223369Y0143697D02*
X0225315Y0143697D01*
X0225473Y0143099D02*
X0223521Y0143099D01*
X0223521Y0142500D02*
X0225630Y0142500D01*
X0225788Y0141902D02*
X0223521Y0141902D01*
X0223352Y0141303D02*
X0225945Y0141303D01*
X0226103Y0140705D02*
X0223105Y0140705D01*
X0222793Y0140106D02*
X0226260Y0140106D01*
X0226418Y0139508D02*
X0222195Y0139508D01*
X0221370Y0138909D02*
X0226575Y0138909D01*
X0226733Y0138310D02*
X0218497Y0138310D01*
X0217899Y0137712D02*
X0226890Y0137712D01*
X0227047Y0137113D02*
X0217300Y0137113D01*
X0216702Y0136515D02*
X0227205Y0136515D01*
X0227340Y0135916D02*
X0216103Y0135916D01*
X0215505Y0135318D02*
X0227424Y0135318D01*
X0227509Y0134719D02*
X0214906Y0134719D01*
X0214308Y0134121D02*
X0227594Y0134121D01*
X0227679Y0133522D02*
X0213709Y0133522D01*
X0213200Y0132924D02*
X0227764Y0132924D01*
X0227849Y0132325D02*
X0213200Y0132325D01*
X0213263Y0131727D02*
X0227934Y0131727D01*
X0228019Y0131128D02*
X0213861Y0131128D01*
X0214017Y0130530D02*
X0228104Y0130530D01*
X0228189Y0129931D02*
X0214017Y0129931D01*
X0214017Y0129333D02*
X0228273Y0129333D01*
X0228358Y0128734D02*
X0214017Y0128734D01*
X0214017Y0128136D02*
X0228443Y0128136D01*
X0228528Y0127537D02*
X0214017Y0127537D01*
X0214017Y0126939D02*
X0228613Y0126939D01*
X0228698Y0126340D02*
X0214017Y0126340D01*
X0214017Y0125742D02*
X0228783Y0125742D01*
X0228835Y0125143D02*
X0214017Y0125143D01*
X0214017Y0124545D02*
X0228850Y0124545D01*
X0228865Y0123946D02*
X0214017Y0123946D01*
X0214017Y0123348D02*
X0228880Y0123348D01*
X0228894Y0122749D02*
X0214017Y0122749D01*
X0214017Y0122151D02*
X0228909Y0122151D01*
X0228924Y0121552D02*
X0213942Y0121552D01*
X0213343Y0120954D02*
X0228938Y0120954D01*
X0216625Y0098210D02*
X0203350Y0098210D01*
X0203350Y0097612D02*
X0216027Y0097612D01*
X0215762Y0097013D02*
X0203350Y0097013D01*
X0203350Y0096415D02*
X0215514Y0096415D01*
X0215378Y0095816D02*
X0203350Y0095816D01*
X0203350Y0095218D02*
X0215378Y0095218D01*
X0215378Y0094619D02*
X0203350Y0094619D01*
X0203350Y0094021D02*
X0215563Y0094021D01*
X0215811Y0093422D02*
X0203350Y0093422D01*
X0203350Y0092824D02*
X0216144Y0092824D01*
X0216743Y0092225D02*
X0203350Y0092225D01*
X0203350Y0091627D02*
X0217621Y0091627D01*
X0196750Y0091627D02*
X0180640Y0091627D01*
X0180042Y0092225D02*
X0196750Y0092225D01*
X0196750Y0092824D02*
X0179443Y0092824D01*
X0178845Y0093422D02*
X0196750Y0093422D01*
X0196750Y0094021D02*
X0178246Y0094021D01*
X0177648Y0094619D02*
X0196750Y0094619D01*
X0196750Y0095218D02*
X0177277Y0095218D01*
X0177277Y0095816D02*
X0196750Y0095816D01*
X0196750Y0096415D02*
X0177224Y0096415D01*
X0176976Y0097013D02*
X0196750Y0097013D01*
X0196750Y0097612D02*
X0176728Y0097612D01*
X0176444Y0098210D02*
X0196750Y0098210D01*
X0196750Y0098809D02*
X0175846Y0098809D01*
X0175247Y0099407D02*
X0196750Y0099407D01*
X0196750Y0100006D02*
X0174041Y0100006D01*
X0170370Y0100006D02*
X0168200Y0100006D01*
X0168200Y0100604D02*
X0196750Y0100604D01*
X0196750Y0101203D02*
X0168200Y0101203D01*
X0168200Y0101801D02*
X0196750Y0101801D01*
X0196750Y0102400D02*
X0168200Y0102400D01*
X0168200Y0102998D02*
X0196750Y0102998D01*
X0196750Y0103597D02*
X0168200Y0103597D01*
X0168200Y0104195D02*
X0196750Y0104195D01*
X0196750Y0104794D02*
X0168200Y0104794D01*
X0168200Y0105392D02*
X0196750Y0105392D01*
X0196750Y0105991D02*
X0168678Y0105991D01*
X0169276Y0106589D02*
X0196750Y0106589D01*
X0196750Y0107188D02*
X0169875Y0107188D01*
X0166895Y0109582D02*
X0164805Y0109582D01*
X0164805Y0110180D02*
X0167493Y0110180D01*
X0168092Y0110779D02*
X0164805Y0110779D01*
X0164805Y0111377D02*
X0168690Y0111377D01*
X0168898Y0111976D02*
X0164805Y0111976D01*
X0164805Y0112574D02*
X0168898Y0112574D01*
X0168898Y0113173D02*
X0164336Y0113173D01*
X0164043Y0113466D02*
X0153124Y0113466D01*
X0152362Y0112705D01*
X0152362Y0107691D01*
X0153124Y0106929D01*
X0164043Y0106929D01*
X0164805Y0107691D01*
X0164805Y0112705D01*
X0164043Y0113466D01*
X0164043Y0114803D02*
X0164805Y0115565D01*
X0164805Y0120579D01*
X0164043Y0121340D01*
X0157697Y0121340D01*
X0142737Y0136300D01*
X0165700Y0159263D01*
X0165700Y0164400D01*
X0167000Y0164400D01*
X0167000Y0162445D01*
X0167655Y0160864D01*
X0168864Y0159655D01*
X0170445Y0159000D01*
X0172155Y0159000D01*
X0173736Y0159655D01*
X0174945Y0160864D01*
X0175600Y0162445D01*
X0175600Y0170155D01*
X0174945Y0171736D01*
X0173736Y0172945D01*
X0172155Y0173600D01*
X0170445Y0173600D01*
X0168864Y0172945D01*
X0167655Y0171736D01*
X0167000Y0170155D01*
X0167000Y0168200D01*
X0163013Y0168200D01*
X0161900Y0167087D01*
X0161900Y0160837D01*
X0140050Y0138987D01*
X0138200Y0140837D01*
X0138200Y0148400D01*
X0139238Y0148400D01*
X0140000Y0149162D01*
X0140000Y0159038D01*
X0139238Y0159800D01*
X0138200Y0159800D01*
X0138200Y0172870D01*
X0143925Y0172870D01*
X0144687Y0173632D01*
X0144687Y0183370D01*
X0143925Y0184131D01*
X0128675Y0184131D01*
X0127913Y0183370D01*
X0127913Y0173632D01*
X0128675Y0172870D01*
X0134400Y0172870D01*
X0134400Y0164450D01*
X0120750Y0164450D01*
X0120750Y0165106D01*
X0119988Y0165868D01*
X0112612Y0165868D01*
X0111850Y0165106D01*
X0111850Y0163200D01*
X0078702Y0163200D01*
X0078702Y0164594D01*
X0077941Y0165356D01*
X0072533Y0165356D01*
X0071772Y0164594D01*
X0071772Y0158006D01*
X0072533Y0157244D01*
X0077941Y0157244D01*
X0078702Y0158006D01*
X0078702Y0159400D01*
X0091900Y0159400D01*
X0091900Y0141763D01*
X0093013Y0140650D01*
X0100650Y0133013D01*
X0100650Y0111950D01*
X0100238Y0111950D01*
X0100238Y0112705D01*
X0099476Y0113466D01*
X0088557Y0113466D01*
X0087795Y0112705D01*
X0087795Y0107691D01*
X0088557Y0106929D01*
X0099476Y0106929D01*
X0100238Y0107691D01*
X0100238Y0108150D01*
X0103150Y0108150D01*
X0103150Y0096950D01*
X0100238Y0096950D01*
X0100238Y0096957D01*
X0099476Y0097718D01*
X0088557Y0097718D01*
X0087795Y0096957D01*
X0087795Y0091943D01*
X0088557Y0091181D01*
X0099476Y0091181D01*
X0100238Y0091943D01*
X0100238Y0093150D01*
X0105837Y0093150D01*
X0106950Y0094263D01*
X0106950Y0133816D01*
X0106950Y0133183D01*
X0107422Y0132044D01*
X0108150Y0131316D01*
X0108150Y0088200D01*
X0100238Y0088200D01*
X0100238Y0089083D01*
X0099476Y0089844D01*
X0088557Y0089844D01*
X0087795Y0089083D01*
X0087795Y0084069D01*
X0088557Y0083307D01*
X0099476Y0083307D01*
X0100238Y0084069D01*
X0100238Y0084400D01*
X0110837Y0084400D01*
X0111950Y0085513D01*
X0111950Y0131316D01*
X0112678Y0132044D01*
X0113150Y0133183D01*
X0113150Y0134417D01*
X0112678Y0135556D01*
X0111806Y0136428D01*
X0110667Y0136900D01*
X0109433Y0136900D01*
X0108294Y0136428D01*
X0108150Y0136284D01*
X0108150Y0136917D01*
X0107678Y0138056D01*
X0106806Y0138928D01*
X0105667Y0139400D01*
X0104433Y0139400D01*
X0103294Y0138928D01*
X0102422Y0138056D01*
X0102000Y0137037D01*
X0095700Y0143337D01*
X0095700Y0159400D01*
X0096850Y0159400D01*
X0096850Y0153517D01*
X0097612Y0152756D01*
X0102157Y0152756D01*
X0106900Y0148013D01*
X0106900Y0146763D01*
X0110650Y0143013D01*
X0111763Y0141900D01*
X0127087Y0141900D01*
X0127293Y0142106D01*
X0128056Y0142422D01*
X0128928Y0143294D01*
X0129400Y0144433D01*
X0129400Y0145667D01*
X0128928Y0146806D01*
X0128200Y0147534D01*
X0128200Y0148400D01*
X0130138Y0148400D01*
X0130900Y0149162D01*
X0130900Y0159038D01*
X0130138Y0159800D01*
X0124262Y0159800D01*
X0123500Y0159038D01*
X0123500Y0149162D01*
X0124262Y0148400D01*
X0124400Y0148400D01*
X0124400Y0147534D01*
X0123672Y0146806D01*
X0123214Y0145700D01*
X0113337Y0145700D01*
X0110700Y0148337D01*
X0110700Y0149587D01*
X0109587Y0150700D01*
X0105750Y0154537D01*
X0105750Y0159400D01*
X0111850Y0159400D01*
X0111850Y0158517D01*
X0112612Y0157756D01*
X0119988Y0157756D01*
X0120750Y0158517D01*
X0120750Y0160650D01*
X0134400Y0160650D01*
X0134400Y0159800D01*
X0133362Y0159800D01*
X0132600Y0159038D01*
X0132600Y0149162D01*
X0133362Y0148400D01*
X0134400Y0148400D01*
X0134400Y0139263D01*
X0135513Y0138150D01*
X0138150Y0135513D01*
X0138150Y0135513D01*
X0139263Y0134400D01*
X0152723Y0120940D01*
X0152362Y0120579D01*
X0152362Y0115565D01*
X0153124Y0114803D01*
X0164043Y0114803D01*
X0164209Y0114969D02*
X0168694Y0114969D01*
X0168898Y0114370D02*
X0111950Y0114370D01*
X0111950Y0113772D02*
X0168898Y0113772D01*
X0168096Y0115567D02*
X0164805Y0115567D01*
X0164805Y0116166D02*
X0167497Y0116166D01*
X0166899Y0116764D02*
X0164805Y0116764D01*
X0164805Y0117363D02*
X0166300Y0117363D01*
X0165702Y0117961D02*
X0164805Y0117961D01*
X0164805Y0118560D02*
X0165650Y0118560D01*
X0165650Y0119158D02*
X0164805Y0119158D01*
X0164805Y0119757D02*
X0165650Y0119757D01*
X0165650Y0120355D02*
X0164805Y0120355D01*
X0164430Y0120954D02*
X0165209Y0120954D01*
X0164611Y0121552D02*
X0157485Y0121552D01*
X0156886Y0122151D02*
X0164400Y0122151D01*
X0164400Y0122749D02*
X0156288Y0122749D01*
X0155689Y0123348D02*
X0164400Y0123348D01*
X0164400Y0123946D02*
X0155091Y0123946D01*
X0154492Y0124545D02*
X0164400Y0124545D01*
X0164400Y0125143D02*
X0153894Y0125143D01*
X0153295Y0125742D02*
X0164400Y0125742D01*
X0164400Y0126340D02*
X0152697Y0126340D01*
X0152098Y0126939D02*
X0164400Y0126939D01*
X0164400Y0127537D02*
X0151500Y0127537D01*
X0150901Y0128136D02*
X0164400Y0128136D01*
X0164400Y0128734D02*
X0150303Y0128734D01*
X0149704Y0129333D02*
X0164400Y0129333D01*
X0164400Y0129931D02*
X0149106Y0129931D01*
X0148507Y0130530D02*
X0164400Y0130530D01*
X0164400Y0131128D02*
X0147909Y0131128D01*
X0147310Y0131727D02*
X0164400Y0131727D01*
X0164400Y0132325D02*
X0146712Y0132325D01*
X0146113Y0132924D02*
X0164400Y0132924D01*
X0164400Y0133522D02*
X0145515Y0133522D01*
X0144916Y0134121D02*
X0164400Y0134121D01*
X0164400Y0134719D02*
X0144318Y0134719D01*
X0143719Y0135318D02*
X0164400Y0135318D01*
X0164400Y0135916D02*
X0143121Y0135916D01*
X0142952Y0136515D02*
X0164400Y0136515D01*
X0164400Y0137113D02*
X0143550Y0137113D01*
X0144149Y0137712D02*
X0164400Y0137712D01*
X0164400Y0138310D02*
X0144747Y0138310D01*
X0145346Y0138909D02*
X0164400Y0138909D01*
X0164400Y0139508D02*
X0145945Y0139508D01*
X0146543Y0140106D02*
X0164400Y0140106D01*
X0164400Y0140705D02*
X0147142Y0140705D01*
X0147740Y0141303D02*
X0164400Y0141303D01*
X0164400Y0141902D02*
X0148339Y0141902D01*
X0148937Y0142500D02*
X0164400Y0142500D01*
X0164400Y0143099D02*
X0149536Y0143099D01*
X0150134Y0143697D02*
X0164400Y0143697D01*
X0164400Y0144296D02*
X0150733Y0144296D01*
X0151331Y0144894D02*
X0164400Y0144894D01*
X0164400Y0145493D02*
X0151930Y0145493D01*
X0152528Y0146091D02*
X0164400Y0146091D01*
X0164400Y0146690D02*
X0153127Y0146690D01*
X0153725Y0147288D02*
X0164400Y0147288D01*
X0164400Y0147887D02*
X0154324Y0147887D01*
X0154922Y0148485D02*
X0164400Y0148485D01*
X0164400Y0149084D02*
X0155521Y0149084D01*
X0156119Y0149682D02*
X0164400Y0149682D01*
X0164400Y0150281D02*
X0156718Y0150281D01*
X0157316Y0150879D02*
X0164400Y0150879D01*
X0164400Y0151478D02*
X0157915Y0151478D01*
X0158513Y0152076D02*
X0164400Y0152076D01*
X0164400Y0152675D02*
X0159112Y0152675D01*
X0159710Y0153273D02*
X0164400Y0153273D01*
X0164400Y0153872D02*
X0160309Y0153872D01*
X0160907Y0154470D02*
X0164400Y0154470D01*
X0164400Y0155069D02*
X0161506Y0155069D01*
X0162104Y0155667D02*
X0164400Y0155667D01*
X0164400Y0156266D02*
X0162703Y0156266D01*
X0163301Y0156864D02*
X0164400Y0156864D01*
X0164776Y0157463D02*
X0163900Y0157463D01*
X0164498Y0158061D02*
X0165374Y0158061D01*
X0165097Y0158660D02*
X0203473Y0158660D01*
X0202951Y0159315D02*
X0203554Y0159622D01*
X0204101Y0160020D01*
X0204580Y0160499D01*
X0204978Y0161046D01*
X0205285Y0161649D01*
X0205494Y0162293D01*
X0205600Y0162962D01*
X0205600Y0166000D01*
X0201600Y0166000D01*
X0201600Y0166600D01*
X0205600Y0166600D01*
X0205600Y0169638D01*
X0205494Y0170307D01*
X0205285Y0170951D01*
X0204978Y0171554D01*
X0204580Y0172101D01*
X0204101Y0172580D01*
X0203554Y0172978D01*
X0202951Y0173285D01*
X0202307Y0173494D01*
X0201638Y0173600D01*
X0201600Y0173600D01*
X0201600Y0166600D01*
X0201000Y0166600D01*
X0201000Y0173600D01*
X0200962Y0173600D01*
X0200293Y0173494D01*
X0199649Y0173285D01*
X0199046Y0172978D01*
X0198499Y0172580D01*
X0198020Y0172101D01*
X0197622Y0171554D01*
X0197315Y0170951D01*
X0197106Y0170307D01*
X0197000Y0169638D01*
X0197000Y0166600D01*
X0201000Y0166600D01*
X0201000Y0166000D01*
X0201600Y0166000D01*
X0201600Y0159000D01*
X0201638Y0159000D01*
X0202307Y0159106D01*
X0202951Y0159315D01*
X0202776Y0159258D02*
X0204071Y0159258D01*
X0203877Y0159857D02*
X0204670Y0159857D01*
X0204537Y0160455D02*
X0205268Y0160455D01*
X0204982Y0161054D02*
X0205650Y0161054D01*
X0205650Y0161652D02*
X0205286Y0161652D01*
X0205480Y0162251D02*
X0205650Y0162251D01*
X0205650Y0162849D02*
X0205582Y0162849D01*
X0205600Y0163448D02*
X0205761Y0163448D01*
X0205600Y0164046D02*
X0206359Y0164046D01*
X0206958Y0164645D02*
X0205600Y0164645D01*
X0205600Y0165243D02*
X0207000Y0165243D01*
X0207000Y0165842D02*
X0205600Y0165842D01*
X0205600Y0167039D02*
X0207000Y0167039D01*
X0207000Y0166441D02*
X0201600Y0166441D01*
X0201600Y0167039D02*
X0201000Y0167039D01*
X0201000Y0166441D02*
X0195600Y0166441D01*
X0195600Y0167039D02*
X0197000Y0167039D01*
X0197000Y0167638D02*
X0195600Y0167638D01*
X0195600Y0168236D02*
X0197000Y0168236D01*
X0197000Y0168835D02*
X0195600Y0168835D01*
X0195600Y0169433D02*
X0197000Y0169433D01*
X0197062Y0170032D02*
X0195600Y0170032D01*
X0195600Y0170155D02*
X0194945Y0171736D01*
X0193736Y0172945D01*
X0192155Y0173600D01*
X0190445Y0173600D01*
X0188864Y0172945D01*
X0187655Y0171736D01*
X0187000Y0170155D01*
X0187000Y0162445D01*
X0187655Y0160864D01*
X0188864Y0159655D01*
X0190445Y0159000D01*
X0192155Y0159000D01*
X0193736Y0159655D01*
X0194945Y0160864D01*
X0195600Y0162445D01*
X0195600Y0170155D01*
X0195403Y0170630D02*
X0197211Y0170630D01*
X0197457Y0171229D02*
X0195155Y0171229D01*
X0194854Y0171827D02*
X0197821Y0171827D01*
X0198345Y0172426D02*
X0194255Y0172426D01*
X0193546Y0173024D02*
X0199137Y0173024D01*
X0201000Y0173024D02*
X0201600Y0173024D01*
X0201600Y0172426D02*
X0201000Y0172426D01*
X0201000Y0171827D02*
X0201600Y0171827D01*
X0201600Y0171229D02*
X0201000Y0171229D01*
X0201000Y0170630D02*
X0201600Y0170630D01*
X0201600Y0170032D02*
X0201000Y0170032D01*
X0201000Y0169433D02*
X0201600Y0169433D01*
X0201600Y0168835D02*
X0201000Y0168835D01*
X0201000Y0168236D02*
X0201600Y0168236D01*
X0201600Y0167638D02*
X0201000Y0167638D01*
X0201000Y0166000D02*
X0197000Y0166000D01*
X0197000Y0162962D01*
X0197106Y0162293D01*
X0197315Y0161649D01*
X0197622Y0161046D01*
X0198020Y0160499D01*
X0198499Y0160020D01*
X0199046Y0159622D01*
X0199649Y0159315D01*
X0200293Y0159106D01*
X0200962Y0159000D01*
X0201000Y0159000D01*
X0201000Y0166000D01*
X0201000Y0165842D02*
X0201600Y0165842D01*
X0201600Y0165243D02*
X0201000Y0165243D01*
X0201000Y0164645D02*
X0201600Y0164645D01*
X0201600Y0164046D02*
X0201000Y0164046D01*
X0201000Y0163448D02*
X0201600Y0163448D01*
X0201600Y0162849D02*
X0201000Y0162849D01*
X0201000Y0162251D02*
X0201600Y0162251D01*
X0201600Y0161652D02*
X0201000Y0161652D01*
X0201000Y0161054D02*
X0201600Y0161054D01*
X0201600Y0160455D02*
X0201000Y0160455D01*
X0201000Y0159857D02*
X0201600Y0159857D01*
X0201600Y0159258D02*
X0201000Y0159258D01*
X0199824Y0159258D02*
X0192779Y0159258D01*
X0193938Y0159857D02*
X0198723Y0159857D01*
X0198063Y0160455D02*
X0194537Y0160455D01*
X0195024Y0161054D02*
X0197618Y0161054D01*
X0197314Y0161652D02*
X0195272Y0161652D01*
X0195520Y0162251D02*
X0197120Y0162251D01*
X0197018Y0162849D02*
X0195600Y0162849D01*
X0195600Y0163448D02*
X0197000Y0163448D01*
X0197000Y0164046D02*
X0195600Y0164046D01*
X0195600Y0164645D02*
X0197000Y0164645D01*
X0197000Y0165243D02*
X0195600Y0165243D01*
X0195600Y0165842D02*
X0197000Y0165842D01*
X0205600Y0167638D02*
X0207000Y0167638D01*
X0207000Y0168236D02*
X0205600Y0168236D01*
X0205600Y0168835D02*
X0207000Y0168835D01*
X0207000Y0169433D02*
X0205600Y0169433D01*
X0205538Y0170032D02*
X0207000Y0170032D01*
X0207197Y0170630D02*
X0205389Y0170630D01*
X0205143Y0171229D02*
X0207445Y0171229D01*
X0207746Y0171827D02*
X0204779Y0171827D01*
X0204255Y0172426D02*
X0208345Y0172426D01*
X0209054Y0173024D02*
X0203463Y0173024D01*
X0207958Y0176615D02*
X0144687Y0176615D01*
X0144687Y0176017D02*
X0208486Y0176017D01*
X0209014Y0175418D02*
X0144687Y0175418D01*
X0144687Y0174820D02*
X0209511Y0174820D01*
X0209926Y0174221D02*
X0144687Y0174221D01*
X0144678Y0173623D02*
X0210341Y0173623D01*
X0207431Y0177214D02*
X0144687Y0177214D01*
X0144687Y0177812D02*
X0206903Y0177812D01*
X0206375Y0178411D02*
X0144687Y0178411D01*
X0144687Y0179009D02*
X0205847Y0179009D01*
X0205319Y0179608D02*
X0144687Y0179608D01*
X0144687Y0180206D02*
X0204792Y0180206D01*
X0204264Y0180805D02*
X0144687Y0180805D01*
X0144687Y0181403D02*
X0203736Y0181403D01*
X0203208Y0182002D02*
X0144687Y0182002D01*
X0144687Y0182600D02*
X0202680Y0182600D01*
X0202132Y0183199D02*
X0144687Y0183199D01*
X0144259Y0183797D02*
X0201504Y0183797D01*
X0200875Y0184396D02*
X0081467Y0184396D01*
X0080795Y0183797D02*
X0128341Y0183797D01*
X0127913Y0183199D02*
X0080122Y0183199D01*
X0079543Y0182600D02*
X0127913Y0182600D01*
X0127913Y0182002D02*
X0078979Y0182002D01*
X0078414Y0181403D02*
X0127913Y0181403D01*
X0127913Y0180805D02*
X0077849Y0180805D01*
X0077285Y0180206D02*
X0127913Y0180206D01*
X0127913Y0179608D02*
X0076720Y0179608D01*
X0076155Y0179009D02*
X0127913Y0179009D01*
X0127913Y0178411D02*
X0075591Y0178411D01*
X0075026Y0177812D02*
X0127913Y0177812D01*
X0127913Y0177214D02*
X0074461Y0177214D01*
X0073897Y0176615D02*
X0127913Y0176615D01*
X0127913Y0176017D02*
X0073332Y0176017D01*
X0072767Y0175418D02*
X0127913Y0175418D01*
X0127913Y0174820D02*
X0072293Y0174820D01*
X0071847Y0174221D02*
X0127913Y0174221D01*
X0127922Y0173623D02*
X0071402Y0173623D01*
X0070956Y0173024D02*
X0091997Y0173024D01*
X0091945Y0172972D02*
X0091774Y0172676D01*
X0091685Y0172345D01*
X0091685Y0169474D01*
X0095685Y0169474D01*
X0095685Y0168874D01*
X0091685Y0168874D01*
X0091685Y0166003D01*
X0091774Y0165672D01*
X0091945Y0165376D01*
X0092187Y0165134D01*
X0092483Y0164963D01*
X0092814Y0164874D01*
X0095685Y0164874D01*
X0095685Y0168874D01*
X0096285Y0168874D01*
X0096285Y0164874D01*
X0099156Y0164874D01*
X0099487Y0164963D01*
X0099783Y0165134D01*
X0100025Y0165376D01*
X0100196Y0165672D01*
X0100285Y0166003D01*
X0100285Y0168874D01*
X0096285Y0168874D01*
X0096285Y0169474D01*
X0095685Y0169474D01*
X0095685Y0173474D01*
X0092814Y0173474D01*
X0092483Y0173385D01*
X0092187Y0173214D01*
X0091945Y0172972D01*
X0091707Y0172426D02*
X0070511Y0172426D01*
X0070065Y0171827D02*
X0091685Y0171827D01*
X0091685Y0171229D02*
X0069619Y0171229D01*
X0069174Y0170630D02*
X0091685Y0170630D01*
X0091685Y0170032D02*
X0068728Y0170032D01*
X0068283Y0169433D02*
X0095685Y0169433D01*
X0095685Y0168835D02*
X0096285Y0168835D01*
X0096285Y0169433D02*
X0134400Y0169433D01*
X0134400Y0168835D02*
X0100285Y0168835D01*
X0100285Y0168236D02*
X0134400Y0168236D01*
X0134400Y0167638D02*
X0100285Y0167638D01*
X0100285Y0167039D02*
X0134400Y0167039D01*
X0134400Y0166441D02*
X0100285Y0166441D01*
X0100242Y0165842D02*
X0112586Y0165842D01*
X0111988Y0165243D02*
X0099893Y0165243D01*
X0096285Y0165243D02*
X0095685Y0165243D01*
X0095685Y0165842D02*
X0096285Y0165842D01*
X0096285Y0166441D02*
X0095685Y0166441D01*
X0095685Y0167039D02*
X0096285Y0167039D01*
X0096285Y0167638D02*
X0095685Y0167638D01*
X0095685Y0168236D02*
X0096285Y0168236D01*
X0096285Y0169474D02*
X0100285Y0169474D01*
X0100285Y0172345D01*
X0100196Y0172676D01*
X0100025Y0172972D01*
X0099783Y0173214D01*
X0099487Y0173385D01*
X0099156Y0173474D01*
X0096285Y0173474D01*
X0096285Y0169474D01*
X0096285Y0170032D02*
X0095685Y0170032D01*
X0095685Y0170630D02*
X0096285Y0170630D01*
X0096285Y0171229D02*
X0095685Y0171229D01*
X0095685Y0171827D02*
X0096285Y0171827D01*
X0096285Y0172426D02*
X0095685Y0172426D01*
X0095685Y0173024D02*
X0096285Y0173024D01*
X0099973Y0173024D02*
X0128521Y0173024D01*
X0134400Y0172426D02*
X0100263Y0172426D01*
X0100285Y0171827D02*
X0134400Y0171827D01*
X0134400Y0171229D02*
X0100285Y0171229D01*
X0100285Y0170630D02*
X0134400Y0170630D01*
X0134400Y0170032D02*
X0100285Y0170032D01*
X0091685Y0168835D02*
X0067837Y0168835D01*
X0067392Y0168236D02*
X0091685Y0168236D01*
X0091685Y0167638D02*
X0066946Y0167638D01*
X0066500Y0167039D02*
X0091685Y0167039D01*
X0091685Y0166441D02*
X0066085Y0166441D01*
X0065740Y0165842D02*
X0091728Y0165842D01*
X0092077Y0165243D02*
X0078053Y0165243D01*
X0078652Y0164645D02*
X0111850Y0164645D01*
X0111850Y0164046D02*
X0078702Y0164046D01*
X0078702Y0163448D02*
X0111850Y0163448D01*
X0111850Y0159258D02*
X0105750Y0159258D01*
X0105750Y0158660D02*
X0111850Y0158660D01*
X0112306Y0158061D02*
X0105750Y0158061D01*
X0105750Y0157463D02*
X0123500Y0157463D01*
X0123500Y0158061D02*
X0120294Y0158061D01*
X0120750Y0158660D02*
X0123500Y0158660D01*
X0123720Y0159258D02*
X0120750Y0159258D01*
X0120750Y0159857D02*
X0134400Y0159857D01*
X0134400Y0160455D02*
X0120750Y0160455D01*
X0123500Y0156864D02*
X0105750Y0156864D01*
X0105750Y0156266D02*
X0123500Y0156266D01*
X0123500Y0155667D02*
X0105750Y0155667D01*
X0105750Y0155069D02*
X0123500Y0155069D01*
X0123500Y0154470D02*
X0120362Y0154470D01*
X0120248Y0154584D02*
X0119951Y0154755D01*
X0119621Y0154844D01*
X0116600Y0154844D01*
X0116600Y0151088D01*
X0120750Y0151088D01*
X0120750Y0153715D01*
X0120661Y0154046D01*
X0120490Y0154342D01*
X0120248Y0154584D01*
X0120708Y0153872D02*
X0123500Y0153872D01*
X0123500Y0153273D02*
X0120750Y0153273D01*
X0120750Y0152675D02*
X0123500Y0152675D01*
X0123500Y0152076D02*
X0120750Y0152076D01*
X0120750Y0151478D02*
X0123500Y0151478D01*
X0123500Y0150879D02*
X0116600Y0150879D01*
X0116600Y0151088D02*
X0116600Y0150488D01*
X0116600Y0146732D01*
X0119621Y0146732D01*
X0119951Y0146821D01*
X0120248Y0146992D01*
X0120490Y0147234D01*
X0120661Y0147530D01*
X0120750Y0147861D01*
X0120750Y0150488D01*
X0116600Y0150488D01*
X0116000Y0150488D01*
X0116000Y0146732D01*
X0112979Y0146732D01*
X0112649Y0146821D01*
X0112352Y0146992D01*
X0112110Y0147234D01*
X0111939Y0147530D01*
X0111850Y0147861D01*
X0111850Y0150488D01*
X0116000Y0150488D01*
X0116000Y0151088D01*
X0111850Y0151088D01*
X0111850Y0153715D01*
X0111939Y0154046D01*
X0112110Y0154342D01*
X0112352Y0154584D01*
X0112649Y0154755D01*
X0112979Y0154844D01*
X0116000Y0154844D01*
X0116000Y0151088D01*
X0116600Y0151088D01*
X0116600Y0151478D02*
X0116000Y0151478D01*
X0116000Y0152076D02*
X0116600Y0152076D01*
X0116600Y0152675D02*
X0116000Y0152675D01*
X0116000Y0153273D02*
X0116600Y0153273D01*
X0116600Y0153872D02*
X0116000Y0153872D01*
X0116000Y0154470D02*
X0116600Y0154470D01*
X0116000Y0150879D02*
X0109408Y0150879D01*
X0110006Y0150281D02*
X0111850Y0150281D01*
X0111850Y0149682D02*
X0110605Y0149682D01*
X0110700Y0149084D02*
X0111850Y0149084D01*
X0111850Y0148485D02*
X0110700Y0148485D01*
X0111150Y0147887D02*
X0111850Y0147887D01*
X0111749Y0147288D02*
X0112079Y0147288D01*
X0112347Y0146690D02*
X0123624Y0146690D01*
X0123376Y0146091D02*
X0112946Y0146091D01*
X0109966Y0143697D02*
X0105750Y0143697D01*
X0105750Y0143099D02*
X0110564Y0143099D01*
X0111163Y0142500D02*
X0105643Y0142500D01*
X0105661Y0142530D02*
X0105750Y0142861D01*
X0105750Y0145488D01*
X0101600Y0145488D01*
X0101600Y0141732D01*
X0104621Y0141732D01*
X0104951Y0141821D01*
X0105248Y0141992D01*
X0105490Y0142234D01*
X0105661Y0142530D01*
X0105091Y0141902D02*
X0111761Y0141902D01*
X0109367Y0144296D02*
X0105750Y0144296D01*
X0105750Y0144894D02*
X0108769Y0144894D01*
X0108170Y0145493D02*
X0101600Y0145493D01*
X0101600Y0145488D02*
X0101600Y0146088D01*
X0105750Y0146088D01*
X0105750Y0148715D01*
X0105661Y0149046D01*
X0105490Y0149342D01*
X0105248Y0149584D01*
X0104951Y0149755D01*
X0104621Y0149844D01*
X0101600Y0149844D01*
X0101600Y0146088D01*
X0101000Y0146088D01*
X0101000Y0145488D01*
X0101600Y0145488D01*
X0101600Y0144894D02*
X0101000Y0144894D01*
X0101000Y0145488D02*
X0101000Y0141732D01*
X0097979Y0141732D01*
X0097649Y0141821D01*
X0097352Y0141992D01*
X0097110Y0142234D01*
X0096939Y0142530D01*
X0096850Y0142861D01*
X0096850Y0145488D01*
X0101000Y0145488D01*
X0101000Y0145493D02*
X0095700Y0145493D01*
X0095700Y0146091D02*
X0096850Y0146091D01*
X0096850Y0146088D02*
X0101000Y0146088D01*
X0101000Y0149844D01*
X0097979Y0149844D01*
X0097649Y0149755D01*
X0097352Y0149584D01*
X0097110Y0149342D01*
X0096939Y0149046D01*
X0096850Y0148715D01*
X0096850Y0146088D01*
X0096850Y0146690D02*
X0095700Y0146690D01*
X0095700Y0147288D02*
X0096850Y0147288D01*
X0096850Y0147887D02*
X0095700Y0147887D01*
X0095700Y0148485D02*
X0096850Y0148485D01*
X0096961Y0149084D02*
X0095700Y0149084D01*
X0095700Y0149682D02*
X0097522Y0149682D01*
X0095700Y0150281D02*
X0104632Y0150281D01*
X0105078Y0149682D02*
X0105231Y0149682D01*
X0105639Y0149084D02*
X0105829Y0149084D01*
X0105750Y0148485D02*
X0106428Y0148485D01*
X0106900Y0147887D02*
X0105750Y0147887D01*
X0105750Y0147288D02*
X0106900Y0147288D01*
X0106973Y0146690D02*
X0105750Y0146690D01*
X0105750Y0146091D02*
X0107572Y0146091D01*
X0104034Y0150879D02*
X0095700Y0150879D01*
X0095700Y0151478D02*
X0103435Y0151478D01*
X0102837Y0152076D02*
X0095700Y0152076D01*
X0095700Y0152675D02*
X0102238Y0152675D01*
X0101600Y0149682D02*
X0101000Y0149682D01*
X0101000Y0149084D02*
X0101600Y0149084D01*
X0101600Y0148485D02*
X0101000Y0148485D01*
X0101000Y0147887D02*
X0101600Y0147887D01*
X0101600Y0147288D02*
X0101000Y0147288D01*
X0101000Y0146690D02*
X0101600Y0146690D01*
X0101600Y0146091D02*
X0101000Y0146091D01*
X0101000Y0144296D02*
X0101600Y0144296D01*
X0101600Y0143697D02*
X0101000Y0143697D01*
X0101000Y0143099D02*
X0101600Y0143099D01*
X0101600Y0142500D02*
X0101000Y0142500D01*
X0101000Y0141902D02*
X0101600Y0141902D01*
X0098931Y0140106D02*
X0134400Y0140106D01*
X0134400Y0139508D02*
X0099529Y0139508D01*
X0100128Y0138909D02*
X0103275Y0138909D01*
X0102676Y0138310D02*
X0100727Y0138310D01*
X0101325Y0137712D02*
X0102279Y0137712D01*
X0102032Y0137113D02*
X0101924Y0137113D01*
X0098944Y0134719D02*
X0053021Y0134719D01*
X0052915Y0134121D02*
X0099542Y0134121D01*
X0100141Y0133522D02*
X0052810Y0133522D01*
X0052704Y0132924D02*
X0100650Y0132924D01*
X0100650Y0132325D02*
X0078967Y0132325D01*
X0079158Y0132295D02*
X0078228Y0132443D01*
X0073372Y0132443D01*
X0073372Y0126758D01*
X0072772Y0126758D01*
X0072772Y0132443D01*
X0067916Y0132443D01*
X0066985Y0132295D01*
X0066089Y0132004D01*
X0065250Y0131576D01*
X0064488Y0131023D01*
X0063821Y0130356D01*
X0063268Y0129594D01*
X0062840Y0128755D01*
X0062549Y0127859D01*
X0062402Y0126929D01*
X0062402Y0126757D01*
X0072772Y0126757D01*
X0072772Y0126157D01*
X0073372Y0126157D01*
X0073372Y0126757D01*
X0083742Y0126757D01*
X0083742Y0126929D01*
X0083594Y0127859D01*
X0083303Y0128755D01*
X0082876Y0129594D01*
X0082322Y0130356D01*
X0081656Y0131023D01*
X0080894Y0131576D01*
X0080054Y0132004D01*
X0079158Y0132295D01*
X0080598Y0131727D02*
X0100650Y0131727D01*
X0100650Y0131128D02*
X0081510Y0131128D01*
X0082148Y0130530D02*
X0100650Y0130530D01*
X0100650Y0129931D02*
X0082631Y0129931D01*
X0083009Y0129333D02*
X0100650Y0129333D01*
X0100650Y0128734D02*
X0083310Y0128734D01*
X0083504Y0128136D02*
X0100650Y0128136D01*
X0100650Y0127537D02*
X0083645Y0127537D01*
X0083740Y0126939D02*
X0100650Y0126939D01*
X0100650Y0126340D02*
X0073372Y0126340D01*
X0073372Y0126157D02*
X0083742Y0126157D01*
X0083742Y0125986D01*
X0083594Y0125056D01*
X0083303Y0124160D01*
X0082876Y0123321D01*
X0082322Y0122558D01*
X0081656Y0121892D01*
X0080894Y0121339D01*
X0080054Y0120911D01*
X0079158Y0120620D01*
X0078228Y0120472D01*
X0073372Y0120472D01*
X0073372Y0126157D01*
X0073372Y0125742D02*
X0072772Y0125742D01*
X0072772Y0126157D02*
X0072772Y0120472D01*
X0067916Y0120472D01*
X0066985Y0120620D01*
X0066089Y0120911D01*
X0065250Y0121339D01*
X0064488Y0121892D01*
X0063821Y0122558D01*
X0063268Y0123321D01*
X0062840Y0124160D01*
X0062549Y0125056D01*
X0062402Y0125986D01*
X0062402Y0126157D01*
X0072772Y0126157D01*
X0072772Y0126340D02*
X0051552Y0126340D01*
X0051518Y0125742D02*
X0062440Y0125742D01*
X0062535Y0125143D02*
X0051483Y0125143D01*
X0051448Y0124545D02*
X0062715Y0124545D01*
X0062949Y0123946D02*
X0051413Y0123946D01*
X0051378Y0123348D02*
X0063254Y0123348D01*
X0063683Y0122749D02*
X0051343Y0122749D01*
X0051308Y0122151D02*
X0064229Y0122151D01*
X0064956Y0121552D02*
X0051274Y0121552D01*
X0051239Y0120954D02*
X0066005Y0120954D01*
X0062403Y0126939D02*
X0051649Y0126939D01*
X0051754Y0127537D02*
X0062498Y0127537D01*
X0062639Y0128136D02*
X0051860Y0128136D01*
X0051965Y0128734D02*
X0062833Y0128734D01*
X0063135Y0129333D02*
X0052071Y0129333D01*
X0052176Y0129931D02*
X0063513Y0129931D01*
X0063995Y0130530D02*
X0052282Y0130530D01*
X0052387Y0131128D02*
X0064633Y0131128D01*
X0065545Y0131727D02*
X0052493Y0131727D01*
X0052598Y0132325D02*
X0067176Y0132325D01*
X0072772Y0132325D02*
X0073372Y0132325D01*
X0073372Y0131727D02*
X0072772Y0131727D01*
X0072772Y0131128D02*
X0073372Y0131128D01*
X0073372Y0130530D02*
X0072772Y0130530D01*
X0072772Y0129931D02*
X0073372Y0129931D01*
X0073372Y0129333D02*
X0072772Y0129333D01*
X0072772Y0128734D02*
X0073372Y0128734D01*
X0073372Y0128136D02*
X0072772Y0128136D01*
X0072772Y0127537D02*
X0073372Y0127537D01*
X0073372Y0126939D02*
X0072772Y0126939D01*
X0072772Y0125143D02*
X0073372Y0125143D01*
X0073372Y0124545D02*
X0072772Y0124545D01*
X0072772Y0123946D02*
X0073372Y0123946D01*
X0073372Y0123348D02*
X0072772Y0123348D01*
X0072772Y0122749D02*
X0073372Y0122749D01*
X0073372Y0122151D02*
X0072772Y0122151D01*
X0072772Y0121552D02*
X0073372Y0121552D01*
X0073372Y0120954D02*
X0072772Y0120954D01*
X0080138Y0120954D02*
X0088366Y0120954D01*
X0088753Y0121340D02*
X0087795Y0120383D01*
X0087795Y0115761D01*
X0088753Y0114803D01*
X0099280Y0114803D01*
X0100238Y0115761D01*
X0100238Y0120383D01*
X0099280Y0121340D01*
X0088753Y0121340D01*
X0087795Y0120355D02*
X0051204Y0120355D01*
X0051169Y0119757D02*
X0087795Y0119757D01*
X0087795Y0119158D02*
X0051134Y0119158D01*
X0051099Y0118560D02*
X0087795Y0118560D01*
X0087795Y0117961D02*
X0051064Y0117961D01*
X0051030Y0117363D02*
X0087795Y0117363D01*
X0087795Y0116764D02*
X0050995Y0116764D01*
X0050960Y0116166D02*
X0087795Y0116166D01*
X0087989Y0115567D02*
X0050935Y0115567D01*
X0050970Y0114969D02*
X0088587Y0114969D01*
X0088264Y0113173D02*
X0051074Y0113173D01*
X0051039Y0113772D02*
X0100650Y0113772D01*
X0100650Y0114370D02*
X0051004Y0114370D01*
X0051109Y0112574D02*
X0065662Y0112574D01*
X0064430Y0112064D02*
X0062465Y0110099D01*
X0061402Y0107532D01*
X0061402Y0104753D01*
X0062465Y0102186D01*
X0064430Y0100221D01*
X0066997Y0099157D01*
X0079146Y0099157D01*
X0081713Y0100221D01*
X0083678Y0102186D01*
X0084742Y0104753D01*
X0084742Y0107532D01*
X0083678Y0110099D01*
X0081713Y0112064D01*
X0079146Y0113128D01*
X0066997Y0113128D01*
X0064430Y0112064D01*
X0064342Y0111976D02*
X0051144Y0111976D01*
X0051179Y0111377D02*
X0063743Y0111377D01*
X0063145Y0110779D02*
X0051214Y0110779D01*
X0051248Y0110180D02*
X0062546Y0110180D01*
X0062251Y0109582D02*
X0051283Y0109582D01*
X0051318Y0108983D02*
X0062003Y0108983D01*
X0061755Y0108385D02*
X0051353Y0108385D01*
X0051388Y0107786D02*
X0061507Y0107786D01*
X0061402Y0107188D02*
X0051423Y0107188D01*
X0051458Y0106589D02*
X0061402Y0106589D01*
X0061402Y0105991D02*
X0051492Y0105991D01*
X0051527Y0105392D02*
X0061402Y0105392D01*
X0061402Y0104794D02*
X0051573Y0104794D01*
X0051678Y0104195D02*
X0061633Y0104195D01*
X0061881Y0103597D02*
X0051784Y0103597D01*
X0051889Y0102998D02*
X0062128Y0102998D01*
X0062376Y0102400D02*
X0051995Y0102400D01*
X0052100Y0101801D02*
X0062849Y0101801D01*
X0063448Y0101203D02*
X0052206Y0101203D01*
X0052311Y0100604D02*
X0064047Y0100604D01*
X0064949Y0100006D02*
X0052417Y0100006D01*
X0052522Y0099407D02*
X0066394Y0099407D01*
X0066997Y0093443D02*
X0064430Y0092379D01*
X0062465Y0090414D01*
X0061402Y0087847D01*
X0061402Y0085068D01*
X0062465Y0082501D01*
X0064430Y0080536D01*
X0066997Y0079472D01*
X0079146Y0079472D01*
X0081713Y0080536D01*
X0083678Y0082501D01*
X0084742Y0085068D01*
X0084742Y0087847D01*
X0083678Y0090414D01*
X0081713Y0092379D01*
X0079146Y0093443D01*
X0066997Y0093443D01*
X0066948Y0093422D02*
X0053681Y0093422D01*
X0053860Y0092824D02*
X0065503Y0092824D01*
X0064276Y0092225D02*
X0054039Y0092225D01*
X0054218Y0091627D02*
X0063677Y0091627D01*
X0063079Y0091028D02*
X0054397Y0091028D01*
X0054577Y0090430D02*
X0062480Y0090430D01*
X0062223Y0089831D02*
X0054756Y0089831D01*
X0054935Y0089233D02*
X0061976Y0089233D01*
X0061728Y0088634D02*
X0055114Y0088634D01*
X0055293Y0088036D02*
X0061480Y0088036D01*
X0061402Y0087437D02*
X0055473Y0087437D01*
X0055652Y0086839D02*
X0061402Y0086839D01*
X0061402Y0086240D02*
X0055831Y0086240D01*
X0056010Y0085641D02*
X0061402Y0085641D01*
X0061412Y0085043D02*
X0056189Y0085043D01*
X0056368Y0084444D02*
X0061660Y0084444D01*
X0061908Y0083846D02*
X0056558Y0083846D01*
X0056816Y0083247D02*
X0062156Y0083247D01*
X0062404Y0082649D02*
X0057074Y0082649D01*
X0057333Y0082050D02*
X0062915Y0082050D01*
X0063514Y0081452D02*
X0057591Y0081452D01*
X0057849Y0080853D02*
X0064112Y0080853D01*
X0065108Y0080255D02*
X0058107Y0080255D01*
X0058365Y0079656D02*
X0066553Y0079656D01*
X0059656Y0076664D02*
X0087795Y0076664D01*
X0087795Y0076195D02*
X0088557Y0075433D01*
X0099476Y0075433D01*
X0100238Y0076195D01*
X0100238Y0081209D01*
X0099476Y0081970D01*
X0088557Y0081970D01*
X0087795Y0081209D01*
X0087795Y0076195D01*
X0087925Y0076065D02*
X0059914Y0076065D01*
X0060173Y0075467D02*
X0088523Y0075467D01*
X0088924Y0074096D02*
X0088593Y0074007D01*
X0088297Y0073836D01*
X0088055Y0073594D01*
X0087884Y0073298D01*
X0087795Y0072967D01*
X0087795Y0071128D01*
X0093716Y0071128D01*
X0093716Y0070528D01*
X0087795Y0070528D01*
X0087795Y0068688D01*
X0087884Y0068357D01*
X0088055Y0068061D01*
X0088297Y0067819D01*
X0088593Y0067648D01*
X0088924Y0067559D01*
X0093717Y0067559D01*
X0093717Y0070528D01*
X0094316Y0070528D01*
X0094316Y0067559D01*
X0099109Y0067559D01*
X0099440Y0067648D01*
X0099736Y0067819D01*
X0099978Y0068061D01*
X0100149Y0068357D01*
X0100238Y0068688D01*
X0100238Y0070528D01*
X0094317Y0070528D01*
X0094317Y0071128D01*
X0094316Y0071128D02*
X0093717Y0071128D01*
X0093717Y0074096D01*
X0088924Y0074096D01*
X0088132Y0073671D02*
X0060998Y0073671D01*
X0060689Y0074270D02*
X0165333Y0074270D01*
X0165650Y0074868D02*
X0060431Y0074868D01*
X0061344Y0073073D02*
X0087824Y0073073D01*
X0087795Y0072474D02*
X0061689Y0072474D01*
X0062035Y0071876D02*
X0087795Y0071876D01*
X0087795Y0071277D02*
X0062380Y0071277D01*
X0062726Y0070679D02*
X0093716Y0070679D01*
X0093717Y0071277D02*
X0094316Y0071277D01*
X0094316Y0071128D02*
X0094316Y0074096D01*
X0099109Y0074096D01*
X0099440Y0074007D01*
X0099736Y0073836D01*
X0099978Y0073594D01*
X0100149Y0073298D01*
X0100238Y0072967D01*
X0100238Y0071128D01*
X0094317Y0071128D01*
X0094317Y0070679D02*
X0152362Y0070679D01*
X0152362Y0071277D02*
X0100238Y0071277D01*
X0100238Y0071876D02*
X0152362Y0071876D01*
X0152362Y0072474D02*
X0100238Y0072474D01*
X0100210Y0073073D02*
X0152362Y0073073D01*
X0152699Y0073671D02*
X0099901Y0073671D01*
X0099510Y0075467D02*
X0153090Y0075467D01*
X0153124Y0075433D02*
X0164043Y0075433D01*
X0164805Y0076195D01*
X0164805Y0081209D01*
X0164043Y0081970D01*
X0153124Y0081970D01*
X0152362Y0081209D01*
X0152362Y0080872D01*
X0151806Y0081428D01*
X0150667Y0081900D01*
X0149433Y0081900D01*
X0148294Y0081428D01*
X0147422Y0080556D01*
X0146950Y0079417D01*
X0146950Y0078183D01*
X0147422Y0077044D01*
X0148294Y0076172D01*
X0149433Y0075700D01*
X0150667Y0075700D01*
X0151806Y0076172D01*
X0152362Y0076728D01*
X0152362Y0076195D01*
X0153124Y0075433D01*
X0152491Y0076065D02*
X0151549Y0076065D01*
X0152298Y0076664D02*
X0152362Y0076664D01*
X0148551Y0076065D02*
X0100109Y0076065D01*
X0100238Y0076664D02*
X0147802Y0076664D01*
X0147331Y0077262D02*
X0100238Y0077262D01*
X0100238Y0077861D02*
X0147084Y0077861D01*
X0146950Y0078459D02*
X0100238Y0078459D01*
X0100238Y0079058D02*
X0146950Y0079058D01*
X0147049Y0079656D02*
X0100238Y0079656D01*
X0100238Y0080255D02*
X0147297Y0080255D01*
X0147719Y0080853D02*
X0100238Y0080853D01*
X0099994Y0081452D02*
X0148352Y0081452D01*
X0151748Y0081452D02*
X0152606Y0081452D01*
X0153124Y0083307D02*
X0164043Y0083307D01*
X0164805Y0084069D01*
X0164805Y0089083D01*
X0164043Y0089844D01*
X0153124Y0089844D01*
X0152362Y0089083D01*
X0152362Y0084069D01*
X0153124Y0083307D01*
X0152585Y0083846D02*
X0100015Y0083846D01*
X0100238Y0088634D02*
X0108150Y0088634D01*
X0108150Y0089233D02*
X0100088Y0089233D01*
X0099489Y0089831D02*
X0108150Y0089831D01*
X0108150Y0090430D02*
X0083663Y0090430D01*
X0083920Y0089831D02*
X0088544Y0089831D01*
X0087945Y0089233D02*
X0084168Y0089233D01*
X0084416Y0088634D02*
X0087795Y0088634D01*
X0087795Y0088036D02*
X0084664Y0088036D01*
X0084742Y0087437D02*
X0087795Y0087437D01*
X0087795Y0086839D02*
X0084742Y0086839D01*
X0084742Y0086240D02*
X0087795Y0086240D01*
X0087795Y0085641D02*
X0084742Y0085641D01*
X0084731Y0085043D02*
X0087795Y0085043D01*
X0087795Y0084444D02*
X0084483Y0084444D01*
X0084235Y0083846D02*
X0088018Y0083846D01*
X0088039Y0081452D02*
X0082629Y0081452D01*
X0082031Y0080853D02*
X0087795Y0080853D01*
X0087795Y0080255D02*
X0081035Y0080255D01*
X0079590Y0079656D02*
X0087795Y0079656D01*
X0087795Y0079058D02*
X0058623Y0079058D01*
X0058882Y0078459D02*
X0087795Y0078459D01*
X0087795Y0077861D02*
X0059140Y0077861D01*
X0059398Y0077262D02*
X0087795Y0077262D01*
X0083228Y0082050D02*
X0165650Y0082050D01*
X0165650Y0081452D02*
X0164561Y0081452D01*
X0164805Y0080853D02*
X0165650Y0080853D01*
X0165650Y0080255D02*
X0164805Y0080255D01*
X0164805Y0079656D02*
X0165650Y0079656D01*
X0165650Y0079058D02*
X0164805Y0079058D01*
X0164805Y0078459D02*
X0165650Y0078459D01*
X0165650Y0077861D02*
X0164805Y0077861D01*
X0164805Y0077262D02*
X0165650Y0077262D01*
X0165650Y0076664D02*
X0164805Y0076664D01*
X0164675Y0076065D02*
X0165650Y0076065D01*
X0165650Y0075467D02*
X0164077Y0075467D01*
X0164468Y0073671D02*
X0164734Y0073671D01*
X0167116Y0070679D02*
X0169504Y0070679D01*
X0169472Y0070080D02*
X0166517Y0070080D01*
X0165919Y0069482D02*
X0169472Y0069482D01*
X0169472Y0068883D02*
X0165320Y0068883D01*
X0164769Y0068285D02*
X0169472Y0068285D01*
X0169472Y0067686D02*
X0164170Y0067686D01*
X0167714Y0071277D02*
X0169752Y0071277D01*
X0170000Y0071876D02*
X0168313Y0071876D01*
X0168911Y0072474D02*
X0170248Y0072474D01*
X0170496Y0073073D02*
X0169450Y0073073D01*
X0169450Y0073671D02*
X0171037Y0073671D01*
X0171636Y0074270D02*
X0169450Y0074270D01*
X0169450Y0074868D02*
X0172234Y0074868D01*
X0173302Y0075467D02*
X0169450Y0075467D01*
X0169450Y0076065D02*
X0174747Y0076065D01*
X0175500Y0076664D02*
X0169450Y0076664D01*
X0169450Y0077262D02*
X0175500Y0077262D01*
X0175500Y0077861D02*
X0169450Y0077861D01*
X0169450Y0078459D02*
X0175500Y0078459D01*
X0175500Y0079058D02*
X0169450Y0079058D01*
X0169450Y0079656D02*
X0175500Y0079656D01*
X0175500Y0080255D02*
X0169450Y0080255D01*
X0169450Y0080853D02*
X0175500Y0080853D01*
X0175500Y0081452D02*
X0169450Y0081452D01*
X0169450Y0082050D02*
X0175500Y0082050D01*
X0175500Y0082649D02*
X0169450Y0082649D01*
X0169450Y0083247D02*
X0175500Y0083247D01*
X0175500Y0083846D02*
X0169450Y0083846D01*
X0169450Y0084444D02*
X0175500Y0084444D01*
X0175500Y0085043D02*
X0169450Y0085043D01*
X0169450Y0085641D02*
X0175500Y0085641D01*
X0175500Y0086240D02*
X0169450Y0086240D01*
X0169450Y0086839D02*
X0175500Y0086839D01*
X0175496Y0087437D02*
X0169450Y0087437D01*
X0169450Y0088036D02*
X0174898Y0088036D01*
X0174299Y0088634D02*
X0169450Y0088634D01*
X0169450Y0089233D02*
X0173701Y0089233D01*
X0173102Y0089831D02*
X0169450Y0089831D01*
X0169450Y0090430D02*
X0170654Y0090430D01*
X0169281Y0091028D02*
X0169259Y0091028D01*
X0168683Y0091627D02*
X0168660Y0091627D01*
X0165650Y0089233D02*
X0164655Y0089233D01*
X0164805Y0088634D02*
X0165650Y0088634D01*
X0165650Y0088036D02*
X0164805Y0088036D01*
X0164805Y0087437D02*
X0165650Y0087437D01*
X0165650Y0086839D02*
X0164805Y0086839D01*
X0164805Y0086240D02*
X0165650Y0086240D01*
X0165650Y0085641D02*
X0164805Y0085641D01*
X0164805Y0085043D02*
X0165650Y0085043D01*
X0165650Y0084444D02*
X0164805Y0084444D01*
X0164582Y0083846D02*
X0165650Y0083846D01*
X0165650Y0083247D02*
X0083988Y0083247D01*
X0083740Y0082649D02*
X0165650Y0082649D01*
X0165082Y0089831D02*
X0164056Y0089831D01*
X0164483Y0090430D02*
X0111950Y0090430D01*
X0111950Y0091028D02*
X0164400Y0091028D01*
X0164400Y0097612D02*
X0164150Y0097612D01*
X0164400Y0098210D02*
X0111950Y0098210D01*
X0111950Y0097612D02*
X0153017Y0097612D01*
X0152419Y0097013D02*
X0111950Y0097013D01*
X0111950Y0096415D02*
X0152362Y0096415D01*
X0152362Y0095816D02*
X0111950Y0095816D01*
X0111950Y0095218D02*
X0152362Y0095218D01*
X0152362Y0094619D02*
X0111950Y0094619D01*
X0111950Y0094021D02*
X0152362Y0094021D01*
X0152362Y0093422D02*
X0111950Y0093422D01*
X0111950Y0092824D02*
X0152362Y0092824D01*
X0152362Y0092225D02*
X0111950Y0092225D01*
X0111950Y0091627D02*
X0152678Y0091627D01*
X0153111Y0089831D02*
X0111950Y0089831D01*
X0111950Y0089233D02*
X0152512Y0089233D01*
X0152362Y0088634D02*
X0111950Y0088634D01*
X0111950Y0088036D02*
X0152362Y0088036D01*
X0152362Y0087437D02*
X0111950Y0087437D01*
X0111950Y0086839D02*
X0152362Y0086839D01*
X0152362Y0086240D02*
X0111950Y0086240D01*
X0111950Y0085641D02*
X0152362Y0085641D01*
X0152362Y0085043D02*
X0111480Y0085043D01*
X0110881Y0084444D02*
X0152362Y0084444D01*
X0152362Y0070080D02*
X0100238Y0070080D01*
X0100238Y0069482D02*
X0152362Y0069482D01*
X0152362Y0068883D02*
X0100238Y0068883D01*
X0100107Y0068285D02*
X0152398Y0068285D01*
X0152997Y0067686D02*
X0099506Y0067686D01*
X0094316Y0067686D02*
X0093717Y0067686D01*
X0093717Y0068285D02*
X0094316Y0068285D01*
X0094316Y0068883D02*
X0093717Y0068883D01*
X0093717Y0069482D02*
X0094316Y0069482D01*
X0094316Y0070080D02*
X0093717Y0070080D01*
X0093717Y0071876D02*
X0094316Y0071876D01*
X0094316Y0072474D02*
X0093717Y0072474D01*
X0093717Y0073073D02*
X0094316Y0073073D01*
X0094316Y0073671D02*
X0093717Y0073671D01*
X0087795Y0070080D02*
X0063071Y0070080D01*
X0063417Y0069482D02*
X0087795Y0069482D01*
X0087795Y0068883D02*
X0063762Y0068883D01*
X0064108Y0068285D02*
X0087926Y0068285D01*
X0088527Y0067686D02*
X0064454Y0067686D01*
X0064799Y0067088D02*
X0169472Y0067088D01*
X0169472Y0066489D02*
X0065145Y0066489D01*
X0065490Y0065891D02*
X0169472Y0065891D01*
X0169472Y0065292D02*
X0065836Y0065292D01*
X0066181Y0064694D02*
X0169472Y0064694D01*
X0169472Y0064095D02*
X0066625Y0064095D01*
X0067070Y0063497D02*
X0169472Y0063497D01*
X0169472Y0062898D02*
X0067516Y0062898D01*
X0067961Y0062300D02*
X0169472Y0062300D01*
X0169472Y0061701D02*
X0068407Y0061701D01*
X0068852Y0061103D02*
X0169472Y0061103D01*
X0169472Y0058708D02*
X0140113Y0058708D01*
X0140711Y0058110D02*
X0169615Y0058110D01*
X0169863Y0057511D02*
X0141310Y0057511D01*
X0141443Y0056913D02*
X0170111Y0056913D01*
X0170359Y0056314D02*
X0141443Y0056314D01*
X0141443Y0055716D02*
X0170707Y0055716D01*
X0171305Y0055117D02*
X0141443Y0055117D01*
X0141443Y0054519D02*
X0171904Y0054519D01*
X0172504Y0053920D02*
X0141443Y0053920D01*
X0141443Y0053322D02*
X0173949Y0053322D01*
X0178966Y0053322D02*
X0193634Y0053322D01*
X0192189Y0053920D02*
X0180411Y0053920D01*
X0181011Y0054519D02*
X0191589Y0054519D01*
X0190990Y0055117D02*
X0181610Y0055117D01*
X0182208Y0055716D02*
X0190392Y0055716D01*
X0190044Y0056314D02*
X0182556Y0056314D01*
X0182804Y0056913D02*
X0189796Y0056913D01*
X0189548Y0057511D02*
X0183052Y0057511D01*
X0183300Y0058110D02*
X0189300Y0058110D01*
X0189157Y0058708D02*
X0183443Y0058708D01*
X0183443Y0059307D02*
X0189157Y0059307D01*
X0189157Y0059905D02*
X0183443Y0059905D01*
X0183443Y0060504D02*
X0189157Y0060504D01*
X0189157Y0061103D02*
X0183443Y0061103D01*
X0183443Y0061701D02*
X0189157Y0061701D01*
X0189157Y0062300D02*
X0183443Y0062300D01*
X0183443Y0062898D02*
X0189157Y0062898D01*
X0189157Y0063497D02*
X0183443Y0063497D01*
X0183443Y0064095D02*
X0189157Y0064095D01*
X0189157Y0064694D02*
X0183443Y0064694D01*
X0183443Y0065292D02*
X0189157Y0065292D01*
X0189157Y0065891D02*
X0183443Y0065891D01*
X0183443Y0066489D02*
X0189157Y0066489D01*
X0189157Y0067088D02*
X0183443Y0067088D01*
X0183443Y0067686D02*
X0189157Y0067686D01*
X0189157Y0068285D02*
X0183443Y0068285D01*
X0183443Y0068883D02*
X0189157Y0068883D01*
X0189157Y0069482D02*
X0183443Y0069482D01*
X0183443Y0070080D02*
X0189157Y0070080D01*
X0189189Y0070679D02*
X0183411Y0070679D01*
X0183163Y0071277D02*
X0189437Y0071277D01*
X0189685Y0071876D02*
X0182915Y0071876D01*
X0182667Y0072474D02*
X0189933Y0072474D01*
X0190181Y0073073D02*
X0182419Y0073073D01*
X0182100Y0073671D02*
X0190722Y0073671D01*
X0191321Y0074270D02*
X0182100Y0074270D01*
X0182100Y0074868D02*
X0191919Y0074868D01*
X0192987Y0075467D02*
X0182100Y0075467D01*
X0182100Y0076065D02*
X0194432Y0076065D01*
X0196750Y0076664D02*
X0182100Y0076664D01*
X0182100Y0077262D02*
X0196750Y0077262D01*
X0196750Y0077861D02*
X0182100Y0077861D01*
X0182100Y0078459D02*
X0196750Y0078459D01*
X0196750Y0079058D02*
X0182100Y0079058D01*
X0182100Y0079656D02*
X0196750Y0079656D01*
X0196750Y0080255D02*
X0182100Y0080255D01*
X0182100Y0080853D02*
X0196750Y0080853D01*
X0196750Y0081452D02*
X0182100Y0081452D01*
X0182100Y0082050D02*
X0196750Y0082050D01*
X0196750Y0082649D02*
X0182100Y0082649D01*
X0182100Y0083247D02*
X0196750Y0083247D01*
X0196750Y0083846D02*
X0182100Y0083846D01*
X0182100Y0084444D02*
X0196750Y0084444D01*
X0196750Y0085043D02*
X0182100Y0085043D01*
X0182100Y0085641D02*
X0196750Y0085641D01*
X0196750Y0086240D02*
X0182100Y0086240D01*
X0182100Y0086839D02*
X0196750Y0086839D01*
X0196750Y0087437D02*
X0182100Y0087437D01*
X0182100Y0088036D02*
X0196750Y0088036D01*
X0196750Y0088634D02*
X0182100Y0088634D01*
X0182100Y0089233D02*
X0196750Y0089233D01*
X0196750Y0089831D02*
X0181945Y0089831D01*
X0181697Y0090430D02*
X0196750Y0090430D01*
X0196750Y0091028D02*
X0181239Y0091028D01*
X0169164Y0099407D02*
X0168200Y0099407D01*
X0168200Y0098809D02*
X0168565Y0098809D01*
X0164400Y0098809D02*
X0111950Y0098809D01*
X0111950Y0099407D02*
X0152772Y0099407D01*
X0152362Y0100006D02*
X0111950Y0100006D01*
X0111950Y0100604D02*
X0152362Y0100604D01*
X0152362Y0101203D02*
X0111950Y0101203D01*
X0111950Y0101801D02*
X0152362Y0101801D01*
X0152362Y0102400D02*
X0111950Y0102400D01*
X0111950Y0102998D02*
X0152362Y0102998D01*
X0152362Y0103597D02*
X0111950Y0103597D01*
X0111950Y0104195D02*
X0152362Y0104195D01*
X0152362Y0104794D02*
X0111950Y0104794D01*
X0111950Y0105392D02*
X0152924Y0105392D01*
X0152865Y0107188D02*
X0111950Y0107188D01*
X0111950Y0107786D02*
X0152362Y0107786D01*
X0152362Y0108385D02*
X0111950Y0108385D01*
X0111950Y0108983D02*
X0152362Y0108983D01*
X0152362Y0109582D02*
X0111950Y0109582D01*
X0111950Y0110180D02*
X0152362Y0110180D01*
X0152362Y0110779D02*
X0111950Y0110779D01*
X0111950Y0111377D02*
X0152362Y0111377D01*
X0152362Y0111976D02*
X0111950Y0111976D01*
X0111950Y0112574D02*
X0152362Y0112574D01*
X0152831Y0113173D02*
X0111950Y0113173D01*
X0111950Y0114969D02*
X0152958Y0114969D01*
X0152362Y0115567D02*
X0111950Y0115567D01*
X0111950Y0116166D02*
X0152362Y0116166D01*
X0152362Y0116764D02*
X0111950Y0116764D01*
X0111950Y0117363D02*
X0152362Y0117363D01*
X0152362Y0117961D02*
X0111950Y0117961D01*
X0111950Y0118560D02*
X0152362Y0118560D01*
X0152362Y0119158D02*
X0111950Y0119158D01*
X0111950Y0119757D02*
X0152362Y0119757D01*
X0152362Y0120355D02*
X0111950Y0120355D01*
X0111950Y0120954D02*
X0152709Y0120954D01*
X0152111Y0121552D02*
X0111950Y0121552D01*
X0111950Y0122151D02*
X0151512Y0122151D01*
X0150914Y0122749D02*
X0111950Y0122749D01*
X0111950Y0123348D02*
X0150315Y0123348D01*
X0149717Y0123946D02*
X0111950Y0123946D01*
X0111950Y0124545D02*
X0149118Y0124545D01*
X0148520Y0125143D02*
X0111950Y0125143D01*
X0111950Y0125742D02*
X0147921Y0125742D01*
X0147323Y0126340D02*
X0111950Y0126340D01*
X0111950Y0126939D02*
X0146724Y0126939D01*
X0146126Y0127537D02*
X0111950Y0127537D01*
X0111950Y0128136D02*
X0145527Y0128136D01*
X0144929Y0128734D02*
X0111950Y0128734D01*
X0111950Y0129333D02*
X0144330Y0129333D01*
X0143732Y0129931D02*
X0111950Y0129931D01*
X0111950Y0130530D02*
X0143133Y0130530D01*
X0142535Y0131128D02*
X0111950Y0131128D01*
X0112361Y0131727D02*
X0141936Y0131727D01*
X0141338Y0132325D02*
X0112795Y0132325D01*
X0113042Y0132924D02*
X0140739Y0132924D01*
X0140141Y0133522D02*
X0113150Y0133522D01*
X0113150Y0134121D02*
X0139542Y0134121D01*
X0139263Y0134400D02*
X0139263Y0134400D01*
X0138944Y0134719D02*
X0113025Y0134719D01*
X0112777Y0135318D02*
X0138345Y0135318D01*
X0137747Y0135916D02*
X0112318Y0135916D01*
X0111596Y0136515D02*
X0137148Y0136515D01*
X0136550Y0137113D02*
X0108068Y0137113D01*
X0108150Y0136515D02*
X0108504Y0136515D01*
X0107821Y0137712D02*
X0135951Y0137712D01*
X0135513Y0138150D02*
X0135513Y0138150D01*
X0135353Y0138310D02*
X0107424Y0138310D01*
X0106825Y0138909D02*
X0134754Y0138909D01*
X0134400Y0140705D02*
X0098332Y0140705D01*
X0097734Y0141303D02*
X0134400Y0141303D01*
X0134400Y0141902D02*
X0127089Y0141902D01*
X0128134Y0142500D02*
X0134400Y0142500D01*
X0134400Y0143099D02*
X0128733Y0143099D01*
X0129095Y0143697D02*
X0134400Y0143697D01*
X0134400Y0144296D02*
X0129343Y0144296D01*
X0129400Y0144894D02*
X0134400Y0144894D01*
X0134400Y0145493D02*
X0129400Y0145493D01*
X0129224Y0146091D02*
X0134400Y0146091D01*
X0134400Y0146690D02*
X0128976Y0146690D01*
X0128446Y0147288D02*
X0134400Y0147288D01*
X0134400Y0147887D02*
X0128200Y0147887D01*
X0130224Y0148485D02*
X0133276Y0148485D01*
X0132678Y0149084D02*
X0130822Y0149084D01*
X0130900Y0149682D02*
X0132600Y0149682D01*
X0132600Y0150281D02*
X0130900Y0150281D01*
X0130900Y0150879D02*
X0132600Y0150879D01*
X0132600Y0151478D02*
X0130900Y0151478D01*
X0130900Y0152076D02*
X0132600Y0152076D01*
X0132600Y0152675D02*
X0130900Y0152675D01*
X0130900Y0153273D02*
X0132600Y0153273D01*
X0132600Y0153872D02*
X0130900Y0153872D01*
X0130900Y0154470D02*
X0132600Y0154470D01*
X0132600Y0155069D02*
X0130900Y0155069D01*
X0130900Y0155667D02*
X0132600Y0155667D01*
X0132600Y0156266D02*
X0130900Y0156266D01*
X0130900Y0156864D02*
X0132600Y0156864D01*
X0132600Y0157463D02*
X0130900Y0157463D01*
X0130900Y0158061D02*
X0132600Y0158061D01*
X0132600Y0158660D02*
X0130900Y0158660D01*
X0130680Y0159258D02*
X0132820Y0159258D01*
X0138200Y0159857D02*
X0160920Y0159857D01*
X0161518Y0160455D02*
X0138200Y0160455D01*
X0138200Y0161054D02*
X0161900Y0161054D01*
X0161900Y0161652D02*
X0138200Y0161652D01*
X0138200Y0162251D02*
X0161900Y0162251D01*
X0161900Y0162849D02*
X0138200Y0162849D01*
X0138200Y0163448D02*
X0161900Y0163448D01*
X0161900Y0164046D02*
X0138200Y0164046D01*
X0138200Y0164645D02*
X0161900Y0164645D01*
X0161900Y0165243D02*
X0160523Y0165243D01*
X0160153Y0164874D02*
X0160915Y0165636D01*
X0160915Y0172712D01*
X0160153Y0173474D01*
X0153076Y0173474D01*
X0152315Y0172712D01*
X0152315Y0165636D01*
X0153076Y0164874D01*
X0160153Y0164874D01*
X0160915Y0165842D02*
X0161900Y0165842D01*
X0161900Y0166441D02*
X0160915Y0166441D01*
X0160915Y0167039D02*
X0161900Y0167039D01*
X0162451Y0167638D02*
X0160915Y0167638D01*
X0160915Y0168236D02*
X0167000Y0168236D01*
X0167000Y0168835D02*
X0160915Y0168835D01*
X0160915Y0169433D02*
X0167000Y0169433D01*
X0167000Y0170032D02*
X0160915Y0170032D01*
X0160915Y0170630D02*
X0167197Y0170630D01*
X0167445Y0171229D02*
X0160915Y0171229D01*
X0160915Y0171827D02*
X0167746Y0171827D01*
X0168345Y0172426D02*
X0160915Y0172426D01*
X0160603Y0173024D02*
X0169054Y0173024D01*
X0173546Y0173024D02*
X0179054Y0173024D01*
X0178864Y0172945D02*
X0177655Y0171736D01*
X0177000Y0170155D01*
X0177000Y0162445D01*
X0177655Y0160864D01*
X0178864Y0159655D01*
X0180445Y0159000D01*
X0182155Y0159000D01*
X0183736Y0159655D01*
X0184945Y0160864D01*
X0185600Y0162445D01*
X0185600Y0170155D01*
X0184945Y0171736D01*
X0183736Y0172945D01*
X0182155Y0173600D01*
X0180445Y0173600D01*
X0178864Y0172945D01*
X0178345Y0172426D02*
X0174255Y0172426D01*
X0174854Y0171827D02*
X0177746Y0171827D01*
X0177445Y0171229D02*
X0175155Y0171229D01*
X0175403Y0170630D02*
X0177197Y0170630D01*
X0177000Y0170032D02*
X0175600Y0170032D01*
X0175600Y0169433D02*
X0177000Y0169433D01*
X0177000Y0168835D02*
X0175600Y0168835D01*
X0175600Y0168236D02*
X0177000Y0168236D01*
X0177000Y0167638D02*
X0175600Y0167638D01*
X0175600Y0167039D02*
X0177000Y0167039D01*
X0177000Y0166441D02*
X0175600Y0166441D01*
X0175600Y0165842D02*
X0177000Y0165842D01*
X0177000Y0165243D02*
X0175600Y0165243D01*
X0175600Y0164645D02*
X0177000Y0164645D01*
X0177000Y0164046D02*
X0175600Y0164046D01*
X0175600Y0163448D02*
X0177000Y0163448D01*
X0177000Y0162849D02*
X0175600Y0162849D01*
X0175520Y0162251D02*
X0177080Y0162251D01*
X0177328Y0161652D02*
X0175272Y0161652D01*
X0175024Y0161054D02*
X0177576Y0161054D01*
X0178063Y0160455D02*
X0174537Y0160455D01*
X0173938Y0159857D02*
X0178662Y0159857D01*
X0179821Y0159258D02*
X0172779Y0159258D01*
X0169821Y0159258D02*
X0165695Y0159258D01*
X0165700Y0159857D02*
X0168662Y0159857D01*
X0168063Y0160455D02*
X0165700Y0160455D01*
X0165700Y0161054D02*
X0167576Y0161054D01*
X0167328Y0161652D02*
X0165700Y0161652D01*
X0165700Y0162251D02*
X0167080Y0162251D01*
X0167000Y0162849D02*
X0165700Y0162849D01*
X0165700Y0163448D02*
X0167000Y0163448D01*
X0167000Y0164046D02*
X0165700Y0164046D01*
X0160321Y0159258D02*
X0148863Y0159258D01*
X0148840Y0159298D02*
X0148598Y0159540D01*
X0148302Y0159711D01*
X0147971Y0159800D01*
X0145700Y0159800D01*
X0145700Y0154400D01*
X0145100Y0154400D01*
X0145100Y0159800D01*
X0142829Y0159800D01*
X0142498Y0159711D01*
X0142202Y0159540D01*
X0141960Y0159298D01*
X0141789Y0159002D01*
X0141700Y0158671D01*
X0141700Y0154400D01*
X0145100Y0154400D01*
X0145100Y0153800D01*
X0141700Y0153800D01*
X0141700Y0149529D01*
X0141789Y0149198D01*
X0141960Y0148902D01*
X0142202Y0148660D01*
X0142498Y0148489D01*
X0142829Y0148400D01*
X0145100Y0148400D01*
X0145100Y0153800D01*
X0145700Y0153800D01*
X0145700Y0154400D01*
X0149100Y0154400D01*
X0149100Y0158671D01*
X0149011Y0159002D01*
X0148840Y0159298D01*
X0149100Y0158660D02*
X0159723Y0158660D01*
X0159124Y0158061D02*
X0149100Y0158061D01*
X0149100Y0157463D02*
X0158526Y0157463D01*
X0157927Y0156864D02*
X0149100Y0156864D01*
X0149100Y0156266D02*
X0157329Y0156266D01*
X0156730Y0155667D02*
X0149100Y0155667D01*
X0149100Y0155069D02*
X0156132Y0155069D01*
X0155533Y0154470D02*
X0149100Y0154470D01*
X0149100Y0153800D02*
X0145700Y0153800D01*
X0145700Y0148400D01*
X0147971Y0148400D01*
X0148302Y0148489D01*
X0148598Y0148660D01*
X0148840Y0148902D01*
X0149011Y0149198D01*
X0149100Y0149529D01*
X0149100Y0153800D01*
X0149100Y0153273D02*
X0154336Y0153273D01*
X0153738Y0152675D02*
X0149100Y0152675D01*
X0149100Y0152076D02*
X0153139Y0152076D01*
X0152541Y0151478D02*
X0149100Y0151478D01*
X0149100Y0150879D02*
X0151942Y0150879D01*
X0151344Y0150281D02*
X0149100Y0150281D01*
X0149100Y0149682D02*
X0150745Y0149682D01*
X0150147Y0149084D02*
X0148945Y0149084D01*
X0149548Y0148485D02*
X0148289Y0148485D01*
X0148950Y0147887D02*
X0138200Y0147887D01*
X0138200Y0147288D02*
X0148351Y0147288D01*
X0147753Y0146690D02*
X0138200Y0146690D01*
X0138200Y0146091D02*
X0147154Y0146091D01*
X0146556Y0145493D02*
X0138200Y0145493D01*
X0138200Y0144894D02*
X0145957Y0144894D01*
X0145359Y0144296D02*
X0138200Y0144296D01*
X0138200Y0143697D02*
X0144760Y0143697D01*
X0144162Y0143099D02*
X0138200Y0143099D01*
X0138200Y0142500D02*
X0143563Y0142500D01*
X0142965Y0141902D02*
X0138200Y0141902D01*
X0138200Y0141303D02*
X0142366Y0141303D01*
X0141768Y0140705D02*
X0138332Y0140705D01*
X0138931Y0140106D02*
X0141169Y0140106D01*
X0140571Y0139508D02*
X0139529Y0139508D01*
X0139324Y0148485D02*
X0142511Y0148485D01*
X0141855Y0149084D02*
X0139922Y0149084D01*
X0140000Y0149682D02*
X0141700Y0149682D01*
X0141700Y0150281D02*
X0140000Y0150281D01*
X0140000Y0150879D02*
X0141700Y0150879D01*
X0141700Y0151478D02*
X0140000Y0151478D01*
X0140000Y0152076D02*
X0141700Y0152076D01*
X0141700Y0152675D02*
X0140000Y0152675D01*
X0140000Y0153273D02*
X0141700Y0153273D01*
X0141700Y0154470D02*
X0140000Y0154470D01*
X0140000Y0153872D02*
X0145100Y0153872D01*
X0145100Y0154470D02*
X0145700Y0154470D01*
X0145700Y0153872D02*
X0154935Y0153872D01*
X0145700Y0153273D02*
X0145100Y0153273D01*
X0145100Y0152675D02*
X0145700Y0152675D01*
X0145700Y0152076D02*
X0145100Y0152076D01*
X0145100Y0151478D02*
X0145700Y0151478D01*
X0145700Y0150879D02*
X0145100Y0150879D01*
X0145100Y0150281D02*
X0145700Y0150281D01*
X0145700Y0149682D02*
X0145100Y0149682D01*
X0145100Y0149084D02*
X0145700Y0149084D01*
X0145700Y0148485D02*
X0145100Y0148485D01*
X0145100Y0155069D02*
X0145700Y0155069D01*
X0145700Y0155667D02*
X0145100Y0155667D01*
X0145100Y0156266D02*
X0145700Y0156266D01*
X0145700Y0156864D02*
X0145100Y0156864D01*
X0145100Y0157463D02*
X0145700Y0157463D01*
X0145700Y0158061D02*
X0145100Y0158061D01*
X0145100Y0158660D02*
X0145700Y0158660D01*
X0145700Y0159258D02*
X0145100Y0159258D01*
X0141937Y0159258D02*
X0139780Y0159258D01*
X0140000Y0158660D02*
X0141700Y0158660D01*
X0141700Y0158061D02*
X0140000Y0158061D01*
X0140000Y0157463D02*
X0141700Y0157463D01*
X0141700Y0156864D02*
X0140000Y0156864D01*
X0140000Y0156266D02*
X0141700Y0156266D01*
X0141700Y0155667D02*
X0140000Y0155667D01*
X0140000Y0155069D02*
X0141700Y0155069D01*
X0134400Y0164645D02*
X0120750Y0164645D01*
X0120612Y0165243D02*
X0134400Y0165243D01*
X0134400Y0165842D02*
X0120014Y0165842D01*
X0112238Y0154470D02*
X0105817Y0154470D01*
X0106415Y0153872D02*
X0111892Y0153872D01*
X0111850Y0153273D02*
X0107014Y0153273D01*
X0107612Y0152675D02*
X0111850Y0152675D01*
X0111850Y0152076D02*
X0108211Y0152076D01*
X0108809Y0151478D02*
X0111850Y0151478D01*
X0116000Y0150281D02*
X0116600Y0150281D01*
X0116600Y0149682D02*
X0116000Y0149682D01*
X0116000Y0149084D02*
X0116600Y0149084D01*
X0116600Y0148485D02*
X0116000Y0148485D01*
X0116000Y0147887D02*
X0116600Y0147887D01*
X0116600Y0147288D02*
X0116000Y0147288D01*
X0120521Y0147288D02*
X0124154Y0147288D01*
X0124400Y0147887D02*
X0120750Y0147887D01*
X0120750Y0148485D02*
X0124176Y0148485D01*
X0123578Y0149084D02*
X0120750Y0149084D01*
X0120750Y0149682D02*
X0123500Y0149682D01*
X0123500Y0150281D02*
X0120750Y0150281D01*
X0106950Y0133816D02*
X0106950Y0133816D01*
X0106950Y0133522D02*
X0106950Y0133522D01*
X0106950Y0132924D02*
X0107057Y0132924D01*
X0106950Y0132325D02*
X0107305Y0132325D01*
X0106950Y0131727D02*
X0107739Y0131727D01*
X0108150Y0131128D02*
X0106950Y0131128D01*
X0106950Y0130530D02*
X0108150Y0130530D01*
X0108150Y0129931D02*
X0106950Y0129931D01*
X0106950Y0129333D02*
X0108150Y0129333D01*
X0108150Y0128734D02*
X0106950Y0128734D01*
X0106950Y0128136D02*
X0108150Y0128136D01*
X0108150Y0127537D02*
X0106950Y0127537D01*
X0106950Y0126939D02*
X0108150Y0126939D01*
X0108150Y0126340D02*
X0106950Y0126340D01*
X0106950Y0125742D02*
X0108150Y0125742D01*
X0108150Y0125143D02*
X0106950Y0125143D01*
X0106950Y0124545D02*
X0108150Y0124545D01*
X0108150Y0123946D02*
X0106950Y0123946D01*
X0106950Y0123348D02*
X0108150Y0123348D01*
X0108150Y0122749D02*
X0106950Y0122749D01*
X0106950Y0122151D02*
X0108150Y0122151D01*
X0108150Y0121552D02*
X0106950Y0121552D01*
X0106950Y0120954D02*
X0108150Y0120954D01*
X0108150Y0120355D02*
X0106950Y0120355D01*
X0106950Y0119757D02*
X0108150Y0119757D01*
X0108150Y0119158D02*
X0106950Y0119158D01*
X0106950Y0118560D02*
X0108150Y0118560D01*
X0108150Y0117961D02*
X0106950Y0117961D01*
X0106950Y0117363D02*
X0108150Y0117363D01*
X0108150Y0116764D02*
X0106950Y0116764D01*
X0106950Y0116166D02*
X0108150Y0116166D01*
X0108150Y0115567D02*
X0106950Y0115567D01*
X0106950Y0114969D02*
X0108150Y0114969D01*
X0108150Y0114370D02*
X0106950Y0114370D01*
X0106950Y0113772D02*
X0108150Y0113772D01*
X0108150Y0113173D02*
X0106950Y0113173D01*
X0106950Y0112574D02*
X0108150Y0112574D01*
X0108150Y0111976D02*
X0106950Y0111976D01*
X0106950Y0111377D02*
X0108150Y0111377D01*
X0108150Y0110779D02*
X0106950Y0110779D01*
X0106950Y0110180D02*
X0108150Y0110180D01*
X0108150Y0109582D02*
X0106950Y0109582D01*
X0106950Y0108983D02*
X0108150Y0108983D01*
X0108150Y0108385D02*
X0106950Y0108385D01*
X0106950Y0107786D02*
X0108150Y0107786D01*
X0108150Y0107188D02*
X0106950Y0107188D01*
X0106950Y0106589D02*
X0108150Y0106589D01*
X0108150Y0105991D02*
X0106950Y0105991D01*
X0106950Y0105392D02*
X0108150Y0105392D01*
X0108150Y0104794D02*
X0106950Y0104794D01*
X0106950Y0104195D02*
X0108150Y0104195D01*
X0108150Y0103597D02*
X0106950Y0103597D01*
X0106950Y0102998D02*
X0108150Y0102998D01*
X0108150Y0102400D02*
X0106950Y0102400D01*
X0106950Y0101801D02*
X0108150Y0101801D01*
X0108150Y0101203D02*
X0106950Y0101203D01*
X0106950Y0100604D02*
X0108150Y0100604D01*
X0108150Y0100006D02*
X0106950Y0100006D01*
X0106950Y0099407D02*
X0108150Y0099407D01*
X0108150Y0098809D02*
X0106950Y0098809D01*
X0106950Y0098210D02*
X0108150Y0098210D01*
X0108150Y0097612D02*
X0106950Y0097612D01*
X0106950Y0097013D02*
X0108150Y0097013D01*
X0108150Y0096415D02*
X0106950Y0096415D01*
X0106950Y0095816D02*
X0108150Y0095816D01*
X0108150Y0095218D02*
X0106950Y0095218D01*
X0106950Y0094619D02*
X0108150Y0094619D01*
X0108150Y0094021D02*
X0106708Y0094021D01*
X0106109Y0093422D02*
X0108150Y0093422D01*
X0108150Y0092824D02*
X0100238Y0092824D01*
X0100238Y0092225D02*
X0108150Y0092225D01*
X0108150Y0091627D02*
X0099922Y0091627D01*
X0100181Y0097013D02*
X0103150Y0097013D01*
X0103150Y0097612D02*
X0099583Y0097612D01*
X0099476Y0099055D02*
X0100238Y0099817D01*
X0100238Y0104831D01*
X0099476Y0105592D01*
X0088557Y0105592D01*
X0087795Y0104831D01*
X0087795Y0099817D01*
X0088557Y0099055D01*
X0099476Y0099055D01*
X0099828Y0099407D02*
X0103150Y0099407D01*
X0103150Y0098809D02*
X0052628Y0098809D01*
X0052733Y0098210D02*
X0103150Y0098210D01*
X0103150Y0100006D02*
X0100238Y0100006D01*
X0100238Y0100604D02*
X0103150Y0100604D01*
X0103150Y0101203D02*
X0100238Y0101203D01*
X0100238Y0101801D02*
X0103150Y0101801D01*
X0103150Y0102400D02*
X0100238Y0102400D01*
X0100238Y0102998D02*
X0103150Y0102998D01*
X0103150Y0103597D02*
X0100238Y0103597D01*
X0100238Y0104195D02*
X0103150Y0104195D01*
X0103150Y0104794D02*
X0100238Y0104794D01*
X0099676Y0105392D02*
X0103150Y0105392D01*
X0103150Y0105991D02*
X0084742Y0105991D01*
X0084742Y0106589D02*
X0103150Y0106589D01*
X0103150Y0107188D02*
X0099735Y0107188D01*
X0100238Y0107786D02*
X0103150Y0107786D01*
X0100650Y0111976D02*
X0100238Y0111976D01*
X0100238Y0112574D02*
X0100650Y0112574D01*
X0100650Y0113173D02*
X0099769Y0113173D01*
X0099446Y0114969D02*
X0100650Y0114969D01*
X0100650Y0115567D02*
X0100044Y0115567D01*
X0100238Y0116166D02*
X0100650Y0116166D01*
X0100650Y0116764D02*
X0100238Y0116764D01*
X0100238Y0117363D02*
X0100650Y0117363D01*
X0100650Y0117961D02*
X0100238Y0117961D01*
X0100238Y0118560D02*
X0100650Y0118560D01*
X0100650Y0119158D02*
X0100238Y0119158D01*
X0100238Y0119757D02*
X0100650Y0119757D01*
X0100650Y0120355D02*
X0100238Y0120355D01*
X0100650Y0120954D02*
X0099667Y0120954D01*
X0100650Y0121552D02*
X0081187Y0121552D01*
X0081914Y0122151D02*
X0100650Y0122151D01*
X0100650Y0122749D02*
X0082460Y0122749D01*
X0082889Y0123348D02*
X0100650Y0123348D01*
X0100650Y0123946D02*
X0083194Y0123946D01*
X0083428Y0124545D02*
X0100650Y0124545D01*
X0100650Y0125143D02*
X0083608Y0125143D01*
X0083703Y0125742D02*
X0100650Y0125742D01*
X0098345Y0135318D02*
X0053126Y0135318D01*
X0053232Y0135916D02*
X0097747Y0135916D01*
X0097148Y0136515D02*
X0053337Y0136515D01*
X0053452Y0137113D02*
X0096550Y0137113D01*
X0095951Y0137712D02*
X0053631Y0137712D01*
X0053810Y0138310D02*
X0095353Y0138310D01*
X0094754Y0138909D02*
X0053989Y0138909D01*
X0054168Y0139508D02*
X0094155Y0139508D01*
X0093557Y0140106D02*
X0054347Y0140106D01*
X0054527Y0140705D02*
X0065875Y0140705D01*
X0064762Y0141303D02*
X0054706Y0141303D01*
X0054885Y0141902D02*
X0064163Y0141902D01*
X0063565Y0142500D02*
X0055064Y0142500D01*
X0055243Y0143099D02*
X0063169Y0143099D01*
X0062921Y0143697D02*
X0055423Y0143697D01*
X0055602Y0144296D02*
X0062673Y0144296D01*
X0062426Y0144894D02*
X0055781Y0144894D01*
X0055960Y0145493D02*
X0062402Y0145493D01*
X0062402Y0146091D02*
X0056139Y0146091D01*
X0056319Y0146690D02*
X0062402Y0146690D01*
X0062402Y0147288D02*
X0056498Y0147288D01*
X0056744Y0147887D02*
X0062631Y0147887D01*
X0062879Y0148485D02*
X0057003Y0148485D01*
X0057261Y0149084D02*
X0063127Y0149084D01*
X0063462Y0149682D02*
X0057519Y0149682D01*
X0057777Y0150281D02*
X0064061Y0150281D01*
X0064659Y0150879D02*
X0058035Y0150879D01*
X0058293Y0151478D02*
X0065627Y0151478D01*
X0066900Y0152076D02*
X0058552Y0152076D01*
X0058810Y0152675D02*
X0066900Y0152675D01*
X0066900Y0153273D02*
X0059068Y0153273D01*
X0059326Y0153872D02*
X0066900Y0153872D01*
X0066900Y0154470D02*
X0059584Y0154470D01*
X0059842Y0155069D02*
X0066900Y0155069D01*
X0066900Y0155667D02*
X0060101Y0155667D01*
X0060359Y0156266D02*
X0066900Y0156266D01*
X0066900Y0156864D02*
X0060617Y0156864D01*
X0060902Y0157463D02*
X0064440Y0157463D01*
X0063898Y0158061D02*
X0061247Y0158061D01*
X0061593Y0158660D02*
X0063898Y0158660D01*
X0063898Y0159258D02*
X0061938Y0159258D01*
X0062284Y0159857D02*
X0063898Y0159857D01*
X0063898Y0160455D02*
X0062630Y0160455D01*
X0062975Y0161054D02*
X0063898Y0161054D01*
X0063898Y0161652D02*
X0063321Y0161652D01*
X0063666Y0162251D02*
X0063898Y0162251D01*
X0070828Y0162251D02*
X0071772Y0162251D01*
X0071772Y0162849D02*
X0070828Y0162849D01*
X0070828Y0163448D02*
X0071772Y0163448D01*
X0071772Y0164046D02*
X0070828Y0164046D01*
X0070778Y0164645D02*
X0071822Y0164645D01*
X0072421Y0165243D02*
X0070179Y0165243D01*
X0070828Y0161652D02*
X0071772Y0161652D01*
X0071772Y0161054D02*
X0070828Y0161054D01*
X0070828Y0160455D02*
X0071772Y0160455D01*
X0071772Y0159857D02*
X0070828Y0159857D01*
X0070828Y0159258D02*
X0071772Y0159258D01*
X0071772Y0158660D02*
X0070828Y0158660D01*
X0070828Y0158061D02*
X0071772Y0158061D01*
X0072314Y0157463D02*
X0070700Y0157463D01*
X0070700Y0156864D02*
X0091900Y0156864D01*
X0091900Y0156266D02*
X0070700Y0156266D01*
X0070700Y0155667D02*
X0091900Y0155667D01*
X0091900Y0155069D02*
X0070700Y0155069D01*
X0070700Y0154470D02*
X0091900Y0154470D01*
X0091900Y0153872D02*
X0070700Y0153872D01*
X0070764Y0153273D02*
X0091900Y0153273D01*
X0091900Y0152675D02*
X0071362Y0152675D01*
X0079071Y0152076D02*
X0091900Y0152076D01*
X0091900Y0151478D02*
X0080516Y0151478D01*
X0081484Y0150879D02*
X0091900Y0150879D01*
X0091900Y0150281D02*
X0082083Y0150281D01*
X0082681Y0149682D02*
X0091900Y0149682D01*
X0091900Y0149084D02*
X0083017Y0149084D01*
X0083264Y0148485D02*
X0091900Y0148485D01*
X0091900Y0147887D02*
X0083512Y0147887D01*
X0083742Y0147288D02*
X0091900Y0147288D01*
X0091900Y0146690D02*
X0083742Y0146690D01*
X0083742Y0146091D02*
X0091900Y0146091D01*
X0091900Y0145493D02*
X0083742Y0145493D01*
X0083718Y0144894D02*
X0091900Y0144894D01*
X0091900Y0144296D02*
X0083470Y0144296D01*
X0083222Y0143697D02*
X0091900Y0143697D01*
X0091900Y0143099D02*
X0082974Y0143099D01*
X0082578Y0142500D02*
X0091900Y0142500D01*
X0091900Y0141902D02*
X0081980Y0141902D01*
X0081381Y0141303D02*
X0092360Y0141303D01*
X0092958Y0140705D02*
X0080268Y0140705D01*
X0095700Y0143697D02*
X0096850Y0143697D01*
X0096850Y0143099D02*
X0095938Y0143099D01*
X0096537Y0142500D02*
X0096957Y0142500D01*
X0097135Y0141902D02*
X0097509Y0141902D01*
X0096850Y0144296D02*
X0095700Y0144296D01*
X0095700Y0144894D02*
X0096850Y0144894D01*
X0097095Y0153273D02*
X0095700Y0153273D01*
X0095700Y0153872D02*
X0096850Y0153872D01*
X0096850Y0154470D02*
X0095700Y0154470D01*
X0095700Y0155069D02*
X0096850Y0155069D01*
X0096850Y0155667D02*
X0095700Y0155667D01*
X0095700Y0156266D02*
X0096850Y0156266D01*
X0096850Y0156864D02*
X0095700Y0156864D01*
X0095700Y0157463D02*
X0096850Y0157463D01*
X0096850Y0158061D02*
X0095700Y0158061D01*
X0095700Y0158660D02*
X0096850Y0158660D01*
X0096850Y0159258D02*
X0095700Y0159258D01*
X0091900Y0159258D02*
X0078702Y0159258D01*
X0078702Y0158660D02*
X0091900Y0158660D01*
X0091900Y0158061D02*
X0078702Y0158061D01*
X0078160Y0157463D02*
X0091900Y0157463D01*
X0082140Y0184994D02*
X0200246Y0184994D01*
X0199618Y0185593D02*
X0082812Y0185593D01*
X0138200Y0172426D02*
X0152315Y0172426D01*
X0152315Y0171827D02*
X0138200Y0171827D01*
X0138200Y0171229D02*
X0152315Y0171229D01*
X0152315Y0170630D02*
X0138200Y0170630D01*
X0138200Y0170032D02*
X0152315Y0170032D01*
X0152315Y0169433D02*
X0138200Y0169433D01*
X0138200Y0168835D02*
X0152315Y0168835D01*
X0152315Y0168236D02*
X0138200Y0168236D01*
X0138200Y0167638D02*
X0152315Y0167638D01*
X0152315Y0167039D02*
X0138200Y0167039D01*
X0138200Y0166441D02*
X0152315Y0166441D01*
X0152315Y0165842D02*
X0138200Y0165842D01*
X0138200Y0165243D02*
X0152707Y0165243D01*
X0152627Y0173024D02*
X0144079Y0173024D01*
X0168200Y0153872D02*
X0191854Y0153872D01*
X0191317Y0153273D02*
X0168200Y0153273D01*
X0168200Y0152675D02*
X0191069Y0152675D01*
X0190822Y0152076D02*
X0168200Y0152076D01*
X0168200Y0151478D02*
X0190574Y0151478D01*
X0190559Y0150879D02*
X0168200Y0150879D01*
X0168200Y0150281D02*
X0190559Y0150281D01*
X0190559Y0149682D02*
X0168200Y0149682D01*
X0168200Y0149084D02*
X0190668Y0149084D01*
X0190916Y0148485D02*
X0168200Y0148485D01*
X0168200Y0147887D02*
X0191164Y0147887D01*
X0191483Y0147288D02*
X0168200Y0147288D01*
X0168200Y0146690D02*
X0192082Y0146690D01*
X0192680Y0146091D02*
X0174225Y0146091D01*
X0174992Y0145493D02*
X0193894Y0145493D01*
X0196750Y0144894D02*
X0175590Y0144894D01*
X0175877Y0144296D02*
X0196750Y0144296D01*
X0196750Y0143697D02*
X0176125Y0143697D01*
X0176277Y0143099D02*
X0196750Y0143099D01*
X0196750Y0142500D02*
X0176277Y0142500D01*
X0176277Y0141902D02*
X0196750Y0141902D01*
X0196750Y0141303D02*
X0176108Y0141303D01*
X0175860Y0140705D02*
X0196750Y0140705D01*
X0196750Y0140106D02*
X0175549Y0140106D01*
X0174951Y0139508D02*
X0196750Y0139508D01*
X0196750Y0138909D02*
X0174450Y0138909D01*
X0174450Y0138310D02*
X0196750Y0138310D01*
X0196750Y0137712D02*
X0174450Y0137712D01*
X0174450Y0137113D02*
X0196750Y0137113D01*
X0196750Y0136515D02*
X0174450Y0136515D01*
X0174450Y0135916D02*
X0196750Y0135916D01*
X0196750Y0135318D02*
X0174969Y0135318D01*
X0175568Y0134719D02*
X0196750Y0134719D01*
X0196750Y0134121D02*
X0176166Y0134121D01*
X0178593Y0133522D02*
X0196750Y0133522D01*
X0196750Y0132924D02*
X0179863Y0132924D01*
X0180462Y0132325D02*
X0196750Y0132325D01*
X0196750Y0131727D02*
X0195940Y0131727D01*
X0196538Y0131128D02*
X0196750Y0131128D01*
X0196750Y0130530D02*
X0196694Y0130530D01*
X0196694Y0129931D02*
X0196750Y0129931D01*
X0196750Y0129333D02*
X0196694Y0129333D01*
X0196694Y0128734D02*
X0196750Y0128734D01*
X0196750Y0128136D02*
X0196694Y0128136D01*
X0196694Y0127537D02*
X0196750Y0127537D01*
X0196750Y0126939D02*
X0196694Y0126939D01*
X0196694Y0126340D02*
X0196750Y0126340D01*
X0196750Y0125742D02*
X0196694Y0125742D01*
X0196694Y0125143D02*
X0196750Y0125143D01*
X0196750Y0124545D02*
X0196694Y0124545D01*
X0196694Y0123946D02*
X0196750Y0123946D01*
X0196750Y0123348D02*
X0196694Y0123348D01*
X0196694Y0122749D02*
X0196750Y0122749D01*
X0196750Y0122151D02*
X0196694Y0122151D01*
X0196750Y0121552D02*
X0196619Y0121552D01*
X0196750Y0120954D02*
X0196020Y0120954D01*
X0196750Y0120355D02*
X0182915Y0120355D01*
X0182915Y0120954D02*
X0189257Y0120954D01*
X0188658Y0121552D02*
X0182915Y0121552D01*
X0182915Y0122151D02*
X0188583Y0122151D01*
X0188583Y0122749D02*
X0182915Y0122749D01*
X0182915Y0123348D02*
X0188583Y0123348D01*
X0188583Y0123946D02*
X0182915Y0123946D01*
X0181671Y0125742D02*
X0168200Y0125742D01*
X0168200Y0126340D02*
X0181073Y0126340D01*
X0180474Y0126939D02*
X0168200Y0126939D01*
X0168200Y0127537D02*
X0179876Y0127537D01*
X0179277Y0128136D02*
X0178990Y0128136D01*
X0181659Y0131128D02*
X0188739Y0131128D01*
X0188583Y0130530D02*
X0182257Y0130530D01*
X0182856Y0129931D02*
X0188583Y0129931D01*
X0188583Y0129333D02*
X0183454Y0129333D01*
X0184053Y0128734D02*
X0188583Y0128734D01*
X0189337Y0131727D02*
X0181060Y0131727D01*
X0177635Y0125143D02*
X0174965Y0125143D01*
X0174933Y0125175D02*
X0174636Y0125346D01*
X0174306Y0125435D01*
X0172860Y0125435D01*
X0172860Y0122663D01*
X0175435Y0122663D01*
X0175435Y0124306D01*
X0175346Y0124636D01*
X0175175Y0124933D01*
X0174933Y0125175D01*
X0175371Y0124545D02*
X0177165Y0124545D01*
X0177165Y0123946D02*
X0175435Y0123946D01*
X0175435Y0123348D02*
X0177165Y0123348D01*
X0177165Y0122749D02*
X0175435Y0122749D01*
X0175435Y0122063D02*
X0172860Y0122063D01*
X0172860Y0122663D01*
X0172260Y0122663D01*
X0172260Y0125435D01*
X0170814Y0125435D01*
X0170483Y0125346D01*
X0170187Y0125175D01*
X0169945Y0124933D01*
X0169774Y0124636D01*
X0169685Y0124306D01*
X0169685Y0122663D01*
X0172260Y0122663D01*
X0172260Y0122063D01*
X0172860Y0122063D01*
X0172860Y0119291D01*
X0174306Y0119291D01*
X0174636Y0119380D01*
X0174933Y0119551D01*
X0175175Y0119793D01*
X0175346Y0120090D01*
X0175435Y0120420D01*
X0175435Y0122063D01*
X0175435Y0121552D02*
X0177165Y0121552D01*
X0177165Y0120954D02*
X0175435Y0120954D01*
X0175417Y0120355D02*
X0177165Y0120355D01*
X0177462Y0119757D02*
X0175138Y0119757D01*
X0172860Y0119757D02*
X0172260Y0119757D01*
X0172260Y0119291D02*
X0170814Y0119291D01*
X0170483Y0119380D01*
X0170187Y0119551D01*
X0169945Y0119793D01*
X0169774Y0120090D01*
X0169685Y0120420D01*
X0169685Y0122063D01*
X0172260Y0122063D01*
X0172260Y0119291D01*
X0172260Y0120355D02*
X0172860Y0120355D01*
X0172860Y0120954D02*
X0172260Y0120954D01*
X0172260Y0121552D02*
X0172860Y0121552D01*
X0172860Y0122151D02*
X0177165Y0122151D01*
X0178150Y0119158D02*
X0169879Y0119158D01*
X0169981Y0119757D02*
X0169450Y0119757D01*
X0169450Y0120355D02*
X0169702Y0120355D01*
X0169685Y0120954D02*
X0169450Y0120954D01*
X0169450Y0121552D02*
X0169685Y0121552D01*
X0169386Y0122151D02*
X0172260Y0122151D01*
X0172260Y0122749D02*
X0172860Y0122749D01*
X0172860Y0123348D02*
X0172260Y0123348D01*
X0172260Y0123946D02*
X0172860Y0123946D01*
X0172860Y0124545D02*
X0172260Y0124545D01*
X0172260Y0125143D02*
X0172860Y0125143D01*
X0170155Y0125143D02*
X0168200Y0125143D01*
X0168200Y0124545D02*
X0169749Y0124545D01*
X0169685Y0123946D02*
X0168200Y0123946D01*
X0168200Y0123348D02*
X0169685Y0123348D01*
X0169685Y0122749D02*
X0168788Y0122749D01*
X0170477Y0118560D02*
X0178150Y0118560D01*
X0178150Y0117961D02*
X0171076Y0117961D01*
X0171674Y0117363D02*
X0178150Y0117363D01*
X0178150Y0116764D02*
X0172273Y0116764D01*
X0172871Y0116166D02*
X0178150Y0116166D01*
X0178150Y0115567D02*
X0173200Y0115567D01*
X0175454Y0114969D02*
X0177146Y0114969D01*
X0176772Y0114370D02*
X0175828Y0114370D01*
X0175828Y0113772D02*
X0176772Y0113772D01*
X0176772Y0113173D02*
X0175828Y0113173D01*
X0175828Y0112574D02*
X0176772Y0112574D01*
X0176772Y0111976D02*
X0175828Y0111976D01*
X0175828Y0111377D02*
X0176772Y0111377D01*
X0176772Y0110779D02*
X0175828Y0110779D01*
X0175828Y0110180D02*
X0176772Y0110180D01*
X0176772Y0109582D02*
X0175828Y0109582D01*
X0175828Y0108983D02*
X0176772Y0108983D01*
X0176772Y0108385D02*
X0175828Y0108385D01*
X0175609Y0107786D02*
X0176991Y0107786D01*
X0183483Y0107786D02*
X0196750Y0107786D01*
X0196750Y0108385D02*
X0183702Y0108385D01*
X0183702Y0108983D02*
X0196750Y0108983D01*
X0196750Y0109582D02*
X0183702Y0109582D01*
X0183702Y0110180D02*
X0196750Y0110180D01*
X0196750Y0110779D02*
X0183702Y0110779D01*
X0183702Y0111377D02*
X0196750Y0111377D01*
X0196750Y0111976D02*
X0183702Y0111976D01*
X0183702Y0112574D02*
X0196750Y0112574D01*
X0196750Y0113173D02*
X0183702Y0113173D01*
X0183702Y0113772D02*
X0196750Y0113772D01*
X0196750Y0114370D02*
X0183702Y0114370D01*
X0183328Y0114969D02*
X0196750Y0114969D01*
X0196750Y0115567D02*
X0181950Y0115567D01*
X0181950Y0116166D02*
X0196750Y0116166D01*
X0196750Y0116764D02*
X0181950Y0116764D01*
X0181950Y0117363D02*
X0196750Y0117363D01*
X0196750Y0117961D02*
X0181950Y0117961D01*
X0181950Y0118560D02*
X0196750Y0118560D01*
X0196750Y0119158D02*
X0181950Y0119158D01*
X0182619Y0119757D02*
X0196750Y0119757D01*
X0173610Y0128136D02*
X0168200Y0128136D01*
X0168200Y0128734D02*
X0173425Y0128734D01*
X0173425Y0129333D02*
X0168200Y0129333D01*
X0168200Y0129931D02*
X0173425Y0129931D01*
X0173425Y0130530D02*
X0168200Y0130530D01*
X0168200Y0131128D02*
X0173425Y0131128D01*
X0173186Y0131727D02*
X0168200Y0131727D01*
X0168200Y0132325D02*
X0172588Y0132325D01*
X0171989Y0132924D02*
X0168200Y0132924D01*
X0168200Y0133522D02*
X0171391Y0133522D01*
X0170792Y0134121D02*
X0168200Y0134121D01*
X0168200Y0134719D02*
X0170650Y0134719D01*
X0170650Y0135318D02*
X0168200Y0135318D01*
X0168200Y0135916D02*
X0170650Y0135916D01*
X0170650Y0136515D02*
X0168200Y0136515D01*
X0168200Y0137113D02*
X0170650Y0137113D01*
X0170650Y0137712D02*
X0168200Y0137712D01*
X0168200Y0138310D02*
X0170650Y0138310D01*
X0170285Y0138909D02*
X0168200Y0138909D01*
X0168200Y0139508D02*
X0169460Y0139508D01*
X0168862Y0140106D02*
X0168200Y0140106D01*
X0168200Y0140705D02*
X0168551Y0140705D01*
X0168303Y0141303D02*
X0168200Y0141303D01*
X0168200Y0143697D02*
X0168286Y0143697D01*
X0168200Y0144296D02*
X0168534Y0144296D01*
X0168821Y0144894D02*
X0168200Y0144894D01*
X0168200Y0145493D02*
X0169419Y0145493D01*
X0170186Y0146091D02*
X0168200Y0146091D01*
X0182779Y0159258D02*
X0189821Y0159258D01*
X0188662Y0159857D02*
X0183938Y0159857D01*
X0184537Y0160455D02*
X0188063Y0160455D01*
X0187576Y0161054D02*
X0185024Y0161054D01*
X0185272Y0161652D02*
X0187328Y0161652D01*
X0187080Y0162251D02*
X0185520Y0162251D01*
X0185600Y0162849D02*
X0187000Y0162849D01*
X0187000Y0163448D02*
X0185600Y0163448D01*
X0185600Y0164046D02*
X0187000Y0164046D01*
X0187000Y0164645D02*
X0185600Y0164645D01*
X0185600Y0165243D02*
X0187000Y0165243D01*
X0187000Y0165842D02*
X0185600Y0165842D01*
X0185600Y0166441D02*
X0187000Y0166441D01*
X0187000Y0167039D02*
X0185600Y0167039D01*
X0185600Y0167638D02*
X0187000Y0167638D01*
X0187000Y0168236D02*
X0185600Y0168236D01*
X0185600Y0168835D02*
X0187000Y0168835D01*
X0187000Y0169433D02*
X0185600Y0169433D01*
X0185600Y0170032D02*
X0187000Y0170032D01*
X0187197Y0170630D02*
X0185403Y0170630D01*
X0185155Y0171229D02*
X0187445Y0171229D01*
X0187746Y0171827D02*
X0184854Y0171827D01*
X0184255Y0172426D02*
X0188345Y0172426D01*
X0189054Y0173024D02*
X0183546Y0173024D01*
X0199801Y0153872D02*
X0221693Y0153872D01*
X0221459Y0154470D02*
X0204657Y0154470D01*
X0205256Y0155069D02*
X0221224Y0155069D01*
X0220989Y0155667D02*
X0205854Y0155667D01*
X0206453Y0156266D02*
X0220755Y0156266D01*
X0220481Y0156864D02*
X0207051Y0156864D01*
X0207650Y0157463D02*
X0220162Y0157463D01*
X0219843Y0158061D02*
X0208248Y0158061D01*
X0208847Y0158660D02*
X0219524Y0158660D01*
X0219205Y0159258D02*
X0212779Y0159258D01*
X0213938Y0159857D02*
X0218885Y0159857D01*
X0218566Y0160455D02*
X0214537Y0160455D01*
X0215024Y0161054D02*
X0218247Y0161054D01*
X0217928Y0161652D02*
X0215272Y0161652D01*
X0215520Y0162251D02*
X0217608Y0162251D01*
X0217289Y0162849D02*
X0215600Y0162849D01*
X0215600Y0163448D02*
X0216970Y0163448D01*
X0216651Y0164046D02*
X0215600Y0164046D01*
X0215600Y0164645D02*
X0216332Y0164645D01*
X0216012Y0165243D02*
X0215600Y0165243D01*
X0215600Y0165842D02*
X0215693Y0165842D01*
X0209821Y0159258D02*
X0209445Y0159258D01*
X0201081Y0151478D02*
X0222632Y0151478D01*
X0222397Y0152076D02*
X0200834Y0152076D01*
X0200586Y0152675D02*
X0222163Y0152675D01*
X0221928Y0153273D02*
X0200338Y0153273D01*
X0201096Y0150879D02*
X0222866Y0150879D01*
X0223101Y0150281D02*
X0201096Y0150281D01*
X0201335Y0149682D02*
X0223336Y0149682D01*
X0223570Y0149084D02*
X0201933Y0149084D01*
X0202532Y0148485D02*
X0223805Y0148485D01*
X0224040Y0147887D02*
X0202965Y0147887D01*
X0203213Y0147288D02*
X0224274Y0147288D01*
X0224509Y0146690D02*
X0203350Y0146690D01*
X0166296Y0108983D02*
X0164805Y0108983D01*
X0164805Y0108385D02*
X0165698Y0108385D01*
X0165099Y0107786D02*
X0164805Y0107786D01*
X0164501Y0107188D02*
X0164302Y0107188D01*
X0164400Y0106589D02*
X0111950Y0106589D01*
X0111950Y0105991D02*
X0164400Y0105991D01*
X0164400Y0105392D02*
X0164243Y0105392D01*
X0164395Y0099407D02*
X0164400Y0099407D01*
X0132172Y0058708D02*
X0120428Y0058708D01*
X0121026Y0058110D02*
X0131574Y0058110D01*
X0130975Y0057511D02*
X0121625Y0057511D01*
X0121757Y0056913D02*
X0130843Y0056913D01*
X0130843Y0056314D02*
X0121757Y0056314D01*
X0121757Y0055716D02*
X0130843Y0055716D01*
X0130843Y0055117D02*
X0121757Y0055117D01*
X0121757Y0054519D02*
X0130843Y0054519D01*
X0130843Y0053920D02*
X0121757Y0053920D01*
X0121757Y0053322D02*
X0130843Y0053322D01*
X0130843Y0052723D02*
X0121757Y0052723D01*
X0121757Y0052125D02*
X0130843Y0052125D01*
X0130843Y0051526D02*
X0121757Y0051526D01*
X0121757Y0050928D02*
X0130843Y0050928D01*
X0130843Y0050329D02*
X0121757Y0050329D01*
X0121757Y0049731D02*
X0130843Y0049731D01*
X0131184Y0049132D02*
X0121416Y0049132D01*
X0120818Y0048534D02*
X0131782Y0048534D01*
X0108150Y0091028D02*
X0083064Y0091028D01*
X0082466Y0091627D02*
X0088111Y0091627D01*
X0087795Y0092225D02*
X0081867Y0092225D01*
X0080640Y0092824D02*
X0087795Y0092824D01*
X0087795Y0093422D02*
X0079195Y0093422D01*
X0079749Y0099407D02*
X0088205Y0099407D01*
X0087795Y0100006D02*
X0081194Y0100006D01*
X0082097Y0100604D02*
X0087795Y0100604D01*
X0087795Y0101203D02*
X0082695Y0101203D01*
X0083294Y0101801D02*
X0087795Y0101801D01*
X0087795Y0102400D02*
X0083767Y0102400D01*
X0084015Y0102998D02*
X0087795Y0102998D01*
X0087795Y0103597D02*
X0084263Y0103597D01*
X0084511Y0104195D02*
X0087795Y0104195D01*
X0087795Y0104794D02*
X0084742Y0104794D01*
X0084742Y0105392D02*
X0088357Y0105392D01*
X0088298Y0107188D02*
X0084742Y0107188D01*
X0084636Y0107786D02*
X0087795Y0107786D01*
X0087795Y0108385D02*
X0084388Y0108385D01*
X0084140Y0108983D02*
X0087795Y0108983D01*
X0087795Y0109582D02*
X0083893Y0109582D01*
X0083597Y0110180D02*
X0087795Y0110180D01*
X0087795Y0110779D02*
X0082999Y0110779D01*
X0082400Y0111377D02*
X0087795Y0111377D01*
X0087795Y0111976D02*
X0081802Y0111976D01*
X0080481Y0112574D02*
X0087795Y0112574D01*
X0088450Y0097612D02*
X0052839Y0097612D01*
X0052944Y0097013D02*
X0087852Y0097013D01*
X0087795Y0096415D02*
X0053050Y0096415D01*
X0053156Y0095816D02*
X0087795Y0095816D01*
X0087795Y0095218D02*
X0053261Y0095218D01*
X0053367Y0094619D02*
X0087795Y0094619D01*
X0087795Y0094021D02*
X0053501Y0094021D01*
X0080982Y0047337D02*
X0196759Y0047337D01*
X0196039Y0046738D02*
X0081654Y0046738D01*
X0082327Y0046140D02*
X0195319Y0046140D01*
D24*
X0167550Y0073800D02*
X0163800Y0070050D01*
X0158800Y0070050D01*
X0158583Y0070828D01*
X0158583Y0078702D02*
X0157550Y0078800D01*
X0150050Y0078800D01*
X0166300Y0091300D02*
X0167550Y0090050D01*
X0167550Y0073800D01*
X0166300Y0091300D02*
X0166300Y0106300D01*
X0171300Y0111300D01*
X0172363Y0111300D01*
X0171300Y0111300D02*
X0171300Y0115050D01*
X0167550Y0118800D01*
X0167550Y0121300D01*
X0166300Y0122550D01*
X0166300Y0156300D01*
X0203800Y0156300D01*
X0207550Y0160050D01*
X0207550Y0162550D01*
X0211300Y0166300D01*
X0219450Y0142520D02*
X0218800Y0141300D01*
X0211300Y0133800D01*
X0211300Y0127550D01*
X0210050Y0126300D01*
X0209961Y0126300D01*
X0192639Y0126300D02*
X0183800Y0126300D01*
X0178800Y0131300D01*
X0176300Y0131300D01*
X0176300Y0130631D01*
X0176300Y0131300D02*
X0172550Y0135050D01*
X0172550Y0141300D01*
X0172206Y0142520D01*
X0163800Y0160050D02*
X0140050Y0136300D01*
X0157550Y0118800D01*
X0158583Y0118072D01*
X0180050Y0121300D02*
X0180050Y0111300D01*
X0180237Y0111300D01*
X0180050Y0121300D02*
X0180040Y0122363D01*
X0140050Y0136300D02*
X0136300Y0140050D01*
X0136300Y0154100D01*
X0136300Y0162550D01*
X0116300Y0162550D01*
X0116300Y0161812D01*
X0116300Y0161300D01*
X0093800Y0161300D01*
X0093800Y0142550D01*
X0102550Y0133800D01*
X0102550Y0110050D01*
X0095050Y0110050D01*
X0094017Y0110198D01*
X0095050Y0095050D02*
X0094017Y0094450D01*
X0095050Y0095050D02*
X0105050Y0095050D01*
X0105050Y0136300D01*
X0110050Y0133800D02*
X0110050Y0086300D01*
X0095050Y0086300D01*
X0094017Y0086576D01*
X0112550Y0143800D02*
X0126300Y0143800D01*
X0126300Y0145050D01*
X0126300Y0153800D01*
X0127200Y0154100D01*
X0136300Y0162550D02*
X0136300Y0178501D01*
X0163800Y0166300D02*
X0163800Y0160050D01*
X0163800Y0166300D02*
X0171300Y0166300D01*
X0112550Y0143800D02*
X0108800Y0147550D01*
X0108800Y0148800D01*
X0101300Y0156300D01*
X0101300Y0156812D01*
X0093800Y0161300D02*
X0075237Y0161300D01*
X0068800Y0160050D02*
X0068800Y0152550D01*
X0072550Y0148800D01*
X0072550Y0146300D01*
X0073072Y0146143D01*
X0068800Y0160050D02*
X0067550Y0161300D01*
X0067363Y0161300D01*
D25*
X0105050Y0136300D03*
X0110050Y0133800D03*
X0126300Y0145050D03*
X0150050Y0078800D03*
D26*
X0172206Y0095276D02*
X0172550Y0095050D01*
X0178800Y0088800D01*
X0178800Y0073800D01*
X0177550Y0072550D01*
X0177550Y0065050D01*
X0176457Y0064528D01*
X0196143Y0064528D02*
X0196300Y0065050D01*
X0196300Y0068800D01*
X0200050Y0072550D01*
X0200050Y0146300D01*
X0196300Y0150050D01*
X0195828Y0150394D01*
M02*
